<?xml version="1.0" encoding="UTF-8"?>
<svg version="1.1" xmlns="http://www.w3.org/2000/svg" width="512" height="512">
<path d="M0 0 C3.48767542 3.09787035 6.89804117 6.26961587 10.27685547 9.48632812 C11.00259766 10.17082031 11.72833984 10.8553125 12.47607422 11.56054688 C17.89754948 16.81160248 22.63836705 22.53974087 27.27685547 28.48632812 C27.70369629 29.03144043 28.13053711 29.57655273 28.5703125 30.13818359 C46.23726654 52.88236831 57.76177717 78.11367239 66.27685547 105.48632812 C67.66807617 105.50034668 67.66807617 105.50034668 69.08740234 105.51464844 C72.56193427 105.55892658 76.03527953 105.62065526 79.50927734 105.69384766 C81.00655994 105.72189752 82.50398622 105.74319086 84.00146484 105.75732422 C101.66514791 105.93396105 101.66514791 105.93396105 107.8137207 112.00341797 C111.39342736 116.11287379 112.40124441 118.51747415 112.43798828 123.85620117 C112.44759583 124.98305832 112.45720337 126.10991547 112.46710205 127.2709198 C112.47135193 128.50087173 112.47560181 129.73082367 112.47998047 130.99804688 C112.48568054 132.27243118 112.49138062 133.54681549 112.49725342 134.8598175 C112.50778613 137.57606401 112.51360862 140.29228086 112.51708984 143.00854492 C112.52141357 145.74794284 112.53505476 148.48701491 112.55810547 151.22631836 C112.6983361 168.22982195 112.13128851 184.7055212 109.27685547 201.48632812 C109.08333496 202.65623291 108.88981445 203.8261377 108.69042969 205.03149414 C108.21453928 207.67978171 107.68076994 210.29919845 107.08935547 212.92382812 C106.88068848 213.85662598 106.67202148 214.78942383 106.45703125 215.75048828 C98.67473046 249.05162549 84.05685257 281.28933779 63.27685547 308.48632812 C62.8561377 309.04835938 62.43541992 309.61039062 62.00195312 310.18945312 C54.72769228 319.89940221 46.70143047 328.76606754 38.27685547 337.48632812 C37.77621582 338.00888184 37.27557617 338.53143555 36.75976562 339.06982422 C30.33574465 345.75667592 23.62106025 351.8324229 16.27685547 357.48632812 C15.28733887 358.25783203 15.28733887 358.25783203 14.27783203 359.04492188 C2.22846779 368.39086852 -10.23473292 376.37911286 -23.72314453 383.48632812 C-24.60921387 383.9566748 -25.4952832 384.42702148 -26.40820312 384.91162109 C-51.43270396 398.01409334 -77.95318861 405.79960055 -105.72314453 410.48632812 C-106.54621094 410.63038086 -107.36927734 410.77443359 -108.21728516 410.92285156 C-172.02919461 421.5581698 -240.86462169 402.68873558 -292.94189453 365.49414062 C-312.11760001 351.54425699 -330.34430856 335.41941693 -344.72314453 316.48632812 C-345.78662109 315.13087891 -345.78662109 315.13087891 -346.87158203 313.74804688 C-369.83587201 283.97504636 -386.40033084 249.6178371 -394.53564453 212.86132812 C-394.8096106 211.6320459 -394.8096106 211.6320459 -395.08911133 210.37792969 C-395.70029052 207.42281478 -396.22028606 204.46195854 -396.72314453 201.48632812 C-396.84776062 200.77704163 -396.97237671 200.06775513 -397.10076904 199.3369751 C-399.88245057 183.11613043 -400.24961859 167.05853512 -400.22058105 150.6282959 C-400.22403659 147.90944762 -400.25717434 145.19123397 -400.28923798 142.47259712 C-400.32135692 139.18813847 -400.31699886 135.903732 -400.31689453 132.61914062 C-400.34148743 130.81595871 -400.34148743 130.81595871 -400.36657715 128.97634888 C-400.30840752 121.91484514 -399.54909173 116.85535004 -394.72314453 111.48632812 C-388.84896483 106.81096061 -384.70531322 106.35941476 -377.33251953 106.38867188 C-376.27559906 106.3907943 -376.27559906 106.3907943 -375.19732666 106.39295959 C-372.95588869 106.39853879 -370.7145521 106.41108739 -368.47314453 106.42382812 C-366.94970848 106.42884582 -365.42627085 106.43340825 -363.90283203 106.4375 C-360.17623681 106.44850138 -356.44970057 106.46575166 -352.72314453 106.48632812 C-352.56749023 105.57536377 -352.56749023 105.57536377 -352.40869141 104.64599609 C-351.25448418 98.35943015 -349.53536716 92.56340355 -347.22314453 86.61132812 C-346.87421143 85.70930664 -346.52527832 84.80728516 -346.16577148 83.87792969 C-336.0018578 58.20114445 -321.41192551 35.75444271 -302.72314453 15.48632812 C-301.97033203 14.63039063 -301.21751953 13.77445312 -300.44189453 12.89257812 C-295.82761534 7.64620589 -291.1226258 2.91372603 -285.72314453 -1.51367188 C-285.22637207 -1.93342285 -284.72959961 -2.35317383 -284.21777344 -2.78564453 C-274.00879483 -11.40556039 -263.22255927 -18.7217618 -251.72314453 -25.51367188 C-251.03559082 -25.92214355 -250.34803711 -26.33061523 -249.63964844 -26.75146484 C-229.32573872 -38.63487781 -206.7592831 -46.10080685 -183.72314453 -50.51367188 C-182.80597656 -50.6901123 -181.88880859 -50.86655273 -180.94384766 -51.04833984 C-116.49212465 -62.78692983 -48.93128033 -42.98298924 0 0 Z " fill="#000000" transform="translate(399.72314453125,76.513671875)"/>
<path d="M0 0 C1.15749756 0.3395874 1.15749756 0.3395874 2.33837891 0.68603516 C28.0143752 8.30286194 51.68072487 20.44500788 72 38 C72.79148437 38.68191406 73.58296875 39.36382812 74.3984375 40.06640625 C76.9733495 42.33671509 79.49363647 44.65425291 82 47 C82.93714844 47.87140625 83.87429688 48.7428125 84.83984375 49.640625 C105.47399281 69.27298356 124.91858282 98.14994884 132 126 C132 127.32 132 128.64 132 130 C10.56 130 -110.88 130 -236 130 C-233.74425661 119.84915475 -233.74425661 119.84915475 -231.96875 115.6875 C-231.57558594 114.76573975 -231.18242187 113.84397949 -230.77734375 112.89428711 C-230.35582031 111.93917236 -229.93429688 110.98405762 -229.5 110 C-229.05785156 108.99396729 -228.61570312 107.98793457 -228.16015625 106.95141602 C-206.34918267 58.35171655 -165.52649802 22.58292682 -116.20703125 3.50390625 C-79.56291275 -9.55132354 -37.28245936 -11.34990767 0 0 Z " fill="#FDFDFD" transform="translate(308,54)"/>
</svg>
