<?xml version="1.0" encoding="UTF-8"?>
<!DOCTYPE svg PUBLIC "-//W3C//DTD SVG 1.1//EN" "http://www.w3.org/Graphics/SVG/1.1/DTD/svg11.dtd">
<svg xmlns="http://www.w3.org/2000/svg" version="1.1" width="160px" height="160px" style="shape-rendering:geometricPrecision; text-rendering:geometricPrecision; image-rendering:optimizeQuality; fill-rule:evenodd; clip-rule:evenodd" xmlns:xlink="http://www.w3.org/1999/xlink">
<g><path style="opacity:0.004" fill="#545456" d="M 76.5,1.5 C 77.9464,0.387053 79.6131,0.220387 81.5,1C 79.8659,1.49351 78.1992,1.66018 76.5,1.5 Z"/></g>
<g><path style="opacity:0.004" fill="#898c91" d="M 69.5,2.5 C 69.8966,1.47498 70.5632,1.30831 71.5,2C 70.9056,2.46434 70.2389,2.63101 69.5,2.5 Z"/></g>
<g><path style="opacity:0.004" fill="#9b9da0" d="M 85.5,2.5 C 86.2506,1.42654 87.2506,1.25988 88.5,2C 87.552,2.48278 86.552,2.64945 85.5,2.5 Z"/></g>
<g><path style="opacity:0.004" fill="#d4d4d4" d="M 53.5,3.5 C 57.3112,2.35472 61.3112,2.18806 65.5,3C 61.5138,3.49885 57.5138,3.66551 53.5,3.5 Z"/></g>
<g><path style="opacity:0.004" fill="#9b9d9f" d="M 95.5,3.5 C 94.1266,3.65668 92.7932,3.49001 91.5,3C 93.0657,2.23502 94.3991,2.40168 95.5,3.5 Z"/></g>
<g><path style="opacity:0.004" fill="#cacbcb" d="M 45.5,4.5 C 47.2884,3.37753 49.2884,3.21086 51.5,4C 49.5273,4.49546 47.5273,4.66212 45.5,4.5 Z"/></g>
<g><path style="opacity:0.447" fill="#3f3f40" d="M 84.5,3.5 C 78.69,4.48955 72.69,4.82289 66.5,4.5C 72.4338,2.50482 78.4338,2.17148 84.5,3.5 Z"/></g>
<g><path style="opacity:0.004" fill="#aeb0b1" d="M 95.5,4.5 C 95.5,4.16667 95.5,3.83333 95.5,3.5C 100.833,3.83333 100.833,4.16667 95.5,4.5 Z"/></g>
<g><path style="opacity:0.973" fill="#9a9c9e" d="M 84.5,3.5 C 88.1788,3.72442 91.8455,4.05775 95.5,4.5C 101.724,6.85068 108.057,9.01735 114.5,11C 113.833,11.3333 113.167,11.6667 112.5,12C 116.116,12.4743 119.116,13.9743 121.5,16.5C 120.833,16.5 120.5,16.8333 120.5,17.5C 119.167,17.5 118.5,16.8333 118.5,15.5C 118.167,14.1667 117.833,14.1667 117.5,15.5C 112.206,14.1029 107.373,11.7696 103,8.5C 99.5915,9.62191 96.0915,9.78857 92.5,9C 83.1359,6.83423 73.8025,5.33423 64.5,4.5C 65.1667,4.5 65.8333,4.5 66.5,4.5C 72.69,4.82289 78.69,4.48955 84.5,3.5 Z"/></g>
<g><path style="opacity:0.004" fill="#ddddde" d="M 35.5,6.5 C 37.2884,5.37753 39.2884,5.21086 41.5,6C 39.5273,6.49546 37.5273,6.66212 35.5,6.5 Z"/></g>
<g><path style="opacity:0.004" fill="#d0d2d3" d="M 101.5,6.5 C 102.251,5.42654 103.251,5.25988 104.5,6C 103.552,6.48278 102.552,6.64945 101.5,6.5 Z"/></g>
<g><path style="opacity:0.447" fill="#6e6e6e" d="M 47.5,5.5 C 46.8166,7.17649 45.4832,7.84316 43.5,7.5C 44.1834,5.82351 45.5168,5.15684 47.5,5.5 Z"/></g>
<g><path style="opacity:0.004" fill="#bdbebe" d="M 109.5,9.5 C 109.897,8.47498 110.563,8.30831 111.5,9C 110.906,9.46434 110.239,9.63101 109.5,9.5 Z"/></g>
<g><path style="opacity:1" fill="#cacccd" d="M 42.5,7.5 C 41.653,8.96626 40.3197,9.79959 38.5,10C 39.9733,10.7096 40.6399,11.8762 40.5,13.5C 44.2285,14.1236 47.0619,16.1236 49,19.5C 50.3561,18.6198 51.8561,18.2865 53.5,18.5C 53.1667,19.1667 52.8333,19.8333 52.5,20.5C 47.226,24.1047 42.5593,28.438 38.5,33.5C 35.0352,32.5164 31.8685,30.8497 29,28.5C 28.3333,27.5 28.3333,26.5 29,25.5C 30.8022,24.2107 31.9688,22.5441 32.5,20.5C 33.1667,20.5 33.5,20.1667 33.5,19.5C 33.8333,19.5 34.1667,19.5 34.5,19.5C 35.9733,18.928 37.3066,18.0946 38.5,17C 36.0207,14.33 33.0207,12.83 29.5,12.5C 29.5271,10.8007 30.1938,9.46739 31.5,8.5C 35.1185,7.75638 38.7852,7.42305 42.5,7.5 Z"/></g>
<g><path style="opacity:0.004" fill="#474847" d="M 26.5,10.5 C 27.8333,11.1667 27.8333,11.1667 26.5,10.5 Z"/></g>
<g><path style="opacity:0.004" fill="#4f5050" d="M 30.5,15.5 C 29.8333,16.1667 29.8333,16.1667 30.5,15.5 Z"/></g>
<g><path style="opacity:0.486" fill="#424343" d="M 31.5,8.5 C 30.1938,9.46739 29.5271,10.8007 29.5,12.5C 33.0207,12.83 36.0207,14.33 38.5,17C 37.3066,18.0946 35.9733,18.928 34.5,19.5C 34.5,18.8333 34.1667,18.5 33.5,18.5C 33.5,17.8333 33.1667,17.5 32.5,17.5C 32.1667,16.5 31.5,15.8333 30.5,15.5C 28.8516,13.5441 28.1849,11.2108 28.5,8.5C 29.5,8.5 30.5,8.5 31.5,8.5 Z"/></g>
<g><path style="opacity:0.004" fill="#767677" d="M 32.5,17.5 C 33.1667,17.5 33.5,17.8333 33.5,18.5C 33.5,18.8333 33.5,19.1667 33.5,19.5C 31.5759,19.2893 31.2426,18.6226 32.5,17.5 Z"/></g>
<g><path style="opacity:0.616" fill="#848585" d="M 121.5,16.5 C 122.534,17.6871 123.867,18.5204 125.5,19C 124.944,19.3826 124.611,19.8826 124.5,20.5C 123.5,20.5 122.5,20.5 121.5,20.5C 121.5,19.5 121.5,18.5 121.5,17.5C 121.5,17.1667 121.5,16.8333 121.5,16.5 Z"/></g>
<g><path style="opacity:1" fill="#e4e5e5" d="M 64.5,4.5 C 73.8025,5.33423 83.1359,6.83423 92.5,9C 96.0915,9.78857 99.5915,9.62191 103,8.5C 107.373,11.7696 112.206,14.1029 117.5,15.5C 117.833,15.5 118.167,15.5 118.5,15.5C 118.5,16.8333 119.167,17.5 120.5,17.5C 120.833,17.5 121.167,17.5 121.5,17.5C 121.5,18.5 121.5,19.5 121.5,20.5C 122.5,20.5 123.5,20.5 124.5,20.5C 127.797,23.2956 130.964,26.2956 134,29.5C 134.333,29.1667 134.667,28.8333 135,28.5C 136.361,30.0284 137.528,31.6951 138.5,33.5C 137.145,34.6753 137.312,35.6753 139,36.5C 139.333,36.1667 139.667,35.8333 140,35.5C 139.645,36.9594 139.811,38.2928 140.5,39.5C 140.433,40.9587 140.766,42.2921 141.5,43.5C 142.178,49.5497 142.178,55.5497 141.5,61.5C 140.737,59.6316 139.737,57.9649 138.5,56.5C 137.525,54.2048 136.192,52.2048 134.5,50.5C 130.411,45.0753 125.411,40.7419 119.5,37.5C 115.725,35.061 111.725,33.061 107.5,31.5C 107.611,30.8826 107.944,30.3826 108.5,30C 104.658,28.386 101.158,26.2193 98,23.5C 97.797,19.5787 97.297,15.7454 96.5,12C 86.9365,8.51881 77.6032,8.68548 68.5,12.5C 63.0995,13.4366 58.0995,15.4366 53.5,18.5C 51.8561,18.2865 50.3561,18.6198 49,19.5C 47.0619,16.1236 44.2285,14.1236 40.5,13.5C 40.6399,11.8762 39.9733,10.7096 38.5,10C 40.3197,9.79959 41.653,8.96626 42.5,7.5C 42.8333,7.5 43.1667,7.5 43.5,7.5C 45.4832,7.84316 46.8166,7.17649 47.5,5.5C 53.1377,4.78034 58.8044,4.44701 64.5,4.5 Z"/></g>
<g><path style="opacity:1" fill="#bec6ca" d="M 107.5,31.5 C 104.904,30.7347 102.237,30.4013 99.5,30.5C 97.0392,29.469 94.3725,28.8023 91.5,28.5C 91.0343,24.0907 92.0343,20.0907 94.5,16.5C 90.8302,17.1346 88.1636,19.4679 86.5,23.5C 83.1039,27.5645 81.1039,32.2312 80.5,37.5C 80.5,37.8333 80.5,38.1667 80.5,38.5C 76.9609,43.6579 75.4609,49.3246 76,55.5C 75.6667,54.5 75.3333,53.5 75,52.5C 74.3923,54.1545 73.8923,55.8211 73.5,57.5C 72.4138,57.38 71.7472,56.7133 71.5,55.5C 70.5987,48.3639 67.5987,42.3639 62.5,37.5C 56.9052,40.4289 52.2385,44.4289 48.5,49.5C 47.9569,49.44 47.6236,49.1067 47.5,48.5C 51.5632,43.1047 56.5632,38.7713 62.5,35.5C 67.775,26.7306 74.275,19.0639 82,12.5C 82.5908,11.5165 82.2575,10.8499 81,10.5C 76.8668,11.3999 72.7001,12.0666 68.5,12.5C 77.6032,8.68548 86.9365,8.51881 96.5,12C 97.297,15.7454 97.797,19.5787 98,23.5C 101.158,26.2193 104.658,28.386 108.5,30C 107.944,30.3826 107.611,30.8826 107.5,31.5 Z"/></g>
<g><path style="opacity:0.02" fill="#919394" d="M 25.5,26.5 C 24.8333,26.5 24.5,26.8333 24.5,27.5C 23.9569,27.44 23.6236,27.1067 23.5,26.5C 24.2565,25.2267 24.9232,25.2267 25.5,26.5 Z"/></g>
<g><path style="opacity:1" fill="#7e8388" d="M 99.5,30.5 C 95.7604,30.7592 92.0938,30.4259 88.5,29.5C 87.8313,27.3691 87.1646,25.3691 86.5,23.5C 88.1636,19.4679 90.8302,17.1346 94.5,16.5C 92.0343,20.0907 91.0343,24.0907 91.5,28.5C 94.3725,28.8023 97.0392,29.469 99.5,30.5 Z"/></g>
<g><path style="opacity:1" fill="#5c656b" d="M 86.5,23.5 C 87.1646,25.3691 87.8313,27.3691 88.5,29.5C 92.0938,30.4259 95.7604,30.7592 99.5,30.5C 102.237,30.4013 104.904,30.7347 107.5,31.5C 111.725,33.061 115.725,35.061 119.5,37.5C 118.551,38.1524 117.385,38.4857 116,38.5C 107.61,36.127 99.1101,35.127 90.5,35.5C 89.8728,36.4168 89.5394,37.4168 89.5,38.5C 88.8333,38.5 88.1667,38.5 87.5,38.5C 85.3926,37.5318 83.0593,37.1984 80.5,37.5C 81.1039,32.2312 83.1039,27.5645 86.5,23.5 Z"/></g>
<g><path style="opacity:0.016" fill="#5f6568" d="M 80.5,38.5 C 82.8333,38.5 85.1667,38.5 87.5,38.5C 85.4437,39.2161 83.277,39.8828 81,40.5C 80.5357,39.9056 80.369,39.2389 80.5,38.5 Z"/></g>
<g><path style="opacity:1" fill="#a2a8ad" d="M 48.5,49.5 C 45.6585,54.1969 43.4919,59.1969 42,64.5C 41.5026,67.146 41.3359,69.8127 41.5,72.5C 41.4246,76.8967 41.9246,81.23 43,85.5C 43.3333,83.8333 43.6667,82.1667 44,80.5C 44.3918,83.6272 45.2251,86.6272 46.5,89.5C 45.0892,91.0175 45.2559,92.3508 47,93.5C 47.3333,93.1667 47.6667,92.8333 48,92.5C 50.5232,96.2316 52.6899,99.7316 54.5,103C 55.8333,103.333 57.1667,103.667 58.5,104C 57.944,104.383 57.6107,104.883 57.5,105.5C 52.9104,103.911 49.577,100.911 47.5,96.5C 46.04,94.5776 44.3733,93.9109 42.5,94.5C 37.6911,90.5262 33.0244,86.3596 28.5,82C 23.7742,79.8875 19.2742,77.3875 15,74.5C 13.9701,74.8361 13.4701,75.5028 13.5,76.5C 12.6618,76.1583 12.3284,75.4916 12.5,74.5C 12.3345,70.4862 12.5012,66.4862 13,62.5C 14.2987,65.374 16.4653,67.2073 19.5,68C 19.1667,68.3333 18.8333,68.6667 18.5,69C 21.7672,68.9369 23.9339,70.4369 25,73.5C 25.6891,72.6433 26.5224,71.9767 27.5,71.5C 28.6956,71.8457 28.6956,72.3457 27.5,73C 29.445,72.8718 31.2784,73.0385 33,73.5C 33.2787,70.3939 33.1121,67.5606 32.5,65C 36.8094,52.1771 43.4761,40.6771 52.5,30.5C 54.0742,25.4079 57.0742,21.2413 61.5,18C 58.256,17.9141 55.256,18.7474 52.5,20.5C 52.8333,19.8333 53.1667,19.1667 53.5,18.5C 58.0995,15.4366 63.0995,13.4366 68.5,12.5C 72.7001,12.0666 76.8668,11.3999 81,10.5C 82.2575,10.8499 82.5908,11.5165 82,12.5C 74.275,19.0639 67.775,26.7306 62.5,35.5C 56.5632,38.7713 51.5632,43.1047 47.5,48.5C 47.6236,49.1067 47.9569,49.44 48.5,49.5 Z"/></g>
<g><path style="opacity:1" fill="#a5a8ab" d="M 32.5,20.5 C 31.9688,22.5441 30.8022,24.2107 29,25.5C 28.3333,26.5 28.3333,27.5 29,28.5C 31.8685,30.8497 35.0352,32.5164 38.5,33.5C 35.5388,38.6647 32.7054,43.998 30,49.5C 29.51,50.7932 29.3433,52.1266 29.5,53.5C 26.0921,54.172 23.4255,53.172 21.5,50.5C 20.914,50.7093 20.414,51.0426 20,51.5C 19.3161,49.641 18.3161,47.9743 17,46.5C 16.6667,46.8333 16.3333,47.1667 16,47.5C 15.51,46.2068 15.3433,44.8734 15.5,43.5C 15.5,43.1667 15.5,42.8333 15.5,42.5C 17.1765,41.8166 17.8432,40.4832 17.5,38.5C 18.3382,38.1583 18.6716,37.4916 18.5,36.5C 19.1888,35.2928 19.3554,33.9594 19,32.5C 19.9138,33.6537 20.7471,33.487 21.5,32C 20.1669,30.1598 20.3335,29.6598 22,30.5C 23.045,29.6266 23.8783,28.6266 24.5,27.5C 25.1667,27.5 25.5,27.1667 25.5,26.5C 27.8333,24.5 30.1667,22.5 32.5,20.5 Z"/></g>
<g><path style="opacity:0.996" fill="#565c60" d="M 73.5,57.5 C 72.7387,58.3909 71.7387,59.0576 70.5,59.5C 68.7467,56.9952 67.2467,54.3286 66,51.5C 65.2496,50.8742 64.4162,50.3742 63.5,50C 63.8333,49.6667 64.1667,49.3333 64.5,49C 63.2986,48.0975 62.4652,46.9308 62,45.5C 60.6667,46.8333 59.3333,46.8333 58,45.5C 56.2417,46.4695 55.7417,47.6361 56.5,49C 55.3774,50.0437 54.0441,50.7104 52.5,51C 53.6537,51.9138 53.487,52.7471 52,53.5C 51.0862,52.3463 50.2529,52.513 49.5,54C 49.9574,54.414 50.2907,54.914 50.5,55.5C 48.7467,58.0048 47.2467,60.6714 46,63.5C 45.6667,63.1667 45.3333,62.8333 45,62.5C 45.1953,64.1261 45.1953,65.7928 45,67.5C 44.6667,66.8333 44.3333,66.1667 44,65.5C 43.0977,67.9269 42.2644,70.2603 41.5,72.5C 41.3359,69.8127 41.5026,67.146 42,64.5C 43.4919,59.1969 45.6585,54.1969 48.5,49.5C 52.2385,44.4289 56.9052,40.4289 62.5,37.5C 67.5987,42.3639 70.5987,48.3639 71.5,55.5C 71.7472,56.7133 72.4138,57.38 73.5,57.5 Z"/></g>
<g><path style="opacity:1" fill="#7c858b" d="M 119.5,37.5 C 125.411,40.7419 130.411,45.0753 134.5,50.5C 134.631,51.2389 134.464,51.9056 134,52.5C 127.968,47.8124 121.134,44.6458 113.5,43C 109.664,42.6943 105.997,42.5276 102.5,42.5C 101.913,43.2334 101.913,44.2334 102.5,45.5C 102.103,46.525 101.437,46.6917 100.5,46C 101.458,44.8525 101.125,43.8525 99.5,43C 98.451,42.5078 97.451,42.6744 96.5,43.5C 93.5386,42.8169 93.2053,41.9836 95.5,41C 93.5115,40.0617 91.5115,39.2283 89.5,38.5C 89.5394,37.4168 89.8728,36.4168 90.5,35.5C 99.1101,35.127 107.61,36.127 116,38.5C 117.385,38.4857 118.551,38.1524 119.5,37.5 Z"/></g>
<g><path style="opacity:0.988" fill="#91989d" d="M 134.5,50.5 C 136.192,52.2048 137.525,54.2048 138.5,56.5C 138.631,57.2389 138.464,57.9056 138,58.5C 131.829,54.0518 124.995,51.0518 117.5,49.5C 116.522,49.9767 115.689,50.6433 115,51.5C 113.506,50.2528 112.006,50.2528 110.5,51.5C 111.246,52.7362 111.579,54.0695 111.5,55.5C 110.833,55.5 110.5,55.8333 110.5,56.5C 108.221,55.1316 107.554,53.2983 108.5,51C 106.63,48.9604 104.63,47.1271 102.5,45.5C 101.913,44.2334 101.913,43.2334 102.5,42.5C 105.997,42.5276 109.664,42.6943 113.5,43C 121.134,44.6458 127.968,47.8124 134,52.5C 134.464,51.9056 134.631,51.2389 134.5,50.5 Z"/></g>
<g><path style="opacity:0.925" fill="#a0a1a2" d="M 149.5,62.5 C 147.589,62.4257 146.422,61.4257 146,59.5C 144.847,55.2128 144.013,50.8795 143.5,46.5C 144.833,46.1667 144.833,45.8333 143.5,45.5C 142.833,44.8333 142.167,44.1667 141.5,43.5C 140.766,42.2921 140.433,40.9587 140.5,39.5C 141.117,39.3893 141.617,39.056 142,38.5C 143.163,40.2852 143.83,42.2852 144,44.5C 144.333,44.1667 144.667,43.8333 145,43.5C 145.72,45.1124 145.554,46.6124 144.5,48C 146.481,48.6054 146.815,49.6054 145.5,51C 146.715,53.0955 147.549,52.9288 148,50.5C 148.304,54.5483 148.804,58.5483 149.5,62.5 Z"/></g>
<g><path style="opacity:0.569" fill="#6b6d6f" d="M 14.5,45.5 C 13.8629,48.456 13.3629,51.456 13,54.5C 12.2904,55.9733 11.1238,56.6399 9.5,56.5C 9.5,56.1667 9.5,55.8333 9.5,55.5C 10.3195,52.6946 10.8195,49.6946 11,46.5C 11.3333,47.8333 11.6667,49.1667 12,50.5C 12.0995,48.3474 12.9328,46.6808 14.5,45.5 Z"/></g>
<g><path style="opacity:1" fill="#989da1" d="M 12.5,74.5 C 12.1457,68.594 11.1457,62.9273 9.5,57.5C 9.5,57.1667 9.5,56.8333 9.5,56.5C 11.1238,56.6399 12.2904,55.9733 13,54.5C 13.3629,51.456 13.8629,48.456 14.5,45.5C 13.5269,43.9317 13.3603,42.265 14,40.5C 14.3333,40.8333 14.6667,41.1667 15,41.5C 15.1705,39.2852 15.8372,37.2852 17,35.5C 17.3826,36.056 17.8826,36.3893 18.5,36.5C 18.6716,37.4916 18.3382,38.1583 17.5,38.5C 17.8432,40.4832 17.1765,41.8166 15.5,42.5C 14.1667,42.8333 14.1667,43.1667 15.5,43.5C 15.3433,44.8734 15.51,46.2068 16,47.5C 16.3333,47.1667 16.6667,46.8333 17,46.5C 18.3161,47.9743 19.3161,49.641 20,51.5C 20.414,51.0426 20.914,50.7093 21.5,50.5C 23.4255,53.172 26.0921,54.172 29.5,53.5C 29.3433,52.1266 29.51,50.7932 30,49.5C 32.7054,43.998 35.5388,38.6647 38.5,33.5C 42.5593,28.438 47.226,24.1047 52.5,20.5C 55.256,18.7474 58.256,17.9141 61.5,18C 57.0742,21.2413 54.0742,25.4079 52.5,30.5C 43.4761,40.6771 36.8094,52.1771 32.5,65C 33.1121,67.5606 33.2787,70.3939 33,73.5C 31.2784,73.0385 29.445,72.8718 27.5,73C 28.6956,72.3457 28.6956,71.8457 27.5,71.5C 26.5224,71.9767 25.6891,72.6433 25,73.5C 23.9339,70.4369 21.7672,68.9369 18.5,69C 18.8333,68.6667 19.1667,68.3333 19.5,68C 16.4653,67.2073 14.2987,65.374 13,62.5C 12.5012,66.4862 12.3345,70.4862 12.5,74.5 Z"/></g>
<g><path style="opacity:0.004" fill="#878a8e" d="M 9.5,55.5 C 8.40168,54.3991 8.23502,53.0657 9,51.5C 9.49001,52.7932 9.65668,54.1266 9.5,55.5 Z"/></g>
<g><path style="opacity:0.004" fill="#81858a" d="M 8.5,58.5 C 7.47498,58.1034 7.30831,57.4368 8,56.5C 8.46434,57.0944 8.63101,57.7611 8.5,58.5 Z"/></g>
<g><path style="opacity:1" fill="#a5aaae" d="M 138.5,56.5 C 139.737,57.9649 140.737,59.6316 141.5,61.5C 141.649,62.552 141.483,63.552 141,64.5C 132.916,60.7562 124.416,59.4228 115.5,60.5C 117.042,64.1581 117.376,67.8248 116.5,71.5C 115.833,71.5 115.5,71.8333 115.5,72.5C 115.5,72.8333 115.5,73.1667 115.5,73.5C 115.167,73.5 114.833,73.5 114.5,73.5C 113.217,70.0108 113.217,66.5108 114.5,63C 114.2,60.9757 113.367,60.4757 112,61.5C 111.392,59.8455 110.892,58.1789 110.5,56.5C 111.167,56.5 111.5,56.1667 111.5,55.5C 111.579,54.0695 111.246,52.7362 110.5,51.5C 112.006,50.2528 113.506,50.2528 115,51.5C 115.689,50.6433 116.522,49.9767 117.5,49.5C 124.995,51.0518 131.829,54.0518 138,58.5C 138.464,57.9056 138.631,57.2389 138.5,56.5 Z"/></g>
<g><path style="opacity:0.004" fill="#b1b1b3" d="M 150.5,64.5 C 150.343,63.1266 150.51,61.7932 151,60.5C 151.765,62.0657 151.598,63.3991 150.5,64.5 Z"/></g>
<g><path style="opacity:0.004" fill="#868b90" d="M 7.5,63.5 C 6.47498,63.1034 6.30831,62.4368 7,61.5C 7.46434,62.0944 7.63101,62.7611 7.5,63.5 Z"/></g>
<g><path style="opacity:0.004" fill="#828588" d="M 5.5,65.5 C 6.6533,71.6529 6.81997,77.9863 6,84.5C 5.50046,78.1754 5.33379,71.8421 5.5,65.5 Z"/></g>
<g><path style="opacity:1" fill="#c4c6c8" d="M 141.5,43.5 C 142.167,44.1667 142.833,44.8333 143.5,45.5C 143.5,45.8333 143.5,46.1667 143.5,46.5C 144.013,50.8795 144.847,55.2128 146,59.5C 146.422,61.4257 147.589,62.4257 149.5,62.5C 149.5,62.8333 149.5,63.1667 149.5,63.5C 148.167,70.8333 148.167,78.1667 149.5,85.5C 149.5,86.1667 149.5,86.8333 149.5,87.5C 148.5,87.5 147.5,87.5 146.5,87.5C 146.5,89.8333 146.5,92.1667 146.5,94.5C 146.5,94.8333 146.5,95.1667 146.5,95.5C 146.167,95.5 145.833,95.5 145.5,95.5C 145.666,91.4862 145.499,87.4862 145,83.5C 142.798,80.3366 140.298,77.5033 137.5,75C 130.879,73.2224 124.213,73.0558 117.5,74.5C 117.795,76.7354 117.461,78.7354 116.5,80.5C 116.5,77.8333 116.5,75.1667 116.5,72.5C 116.5,72.1667 116.5,71.8333 116.5,71.5C 117.376,67.8248 117.042,64.1581 115.5,60.5C 124.416,59.4228 132.916,60.7562 141,64.5C 141.483,63.552 141.649,62.552 141.5,61.5C 142.178,55.5497 142.178,49.5497 141.5,43.5 Z"/></g>
<g><path style="opacity:0.407" fill="#969798" d="M 149.5,63.5 C 149.5,64.1667 149.833,64.5 150.5,64.5C 150.5,71.1667 150.5,77.8333 150.5,84.5C 149.833,84.5 149.5,84.8333 149.5,85.5C 148.167,78.1667 148.167,70.8333 149.5,63.5 Z"/></g>
<g><path style="opacity:0.004" fill="#b7b9b9" d="M 151.5,73.5 C 152.525,73.8966 152.692,74.5632 152,75.5C 151.536,74.9056 151.369,74.2389 151.5,73.5 Z"/></g>
<g><path style="opacity:1" fill="#dddfe0" d="M 145.5,95.5 C 145.737,96.791 145.404,97.791 144.5,98.5C 144.799,96.396 144.466,94.396 143.5,92.5C 141.024,91.1912 139.024,89.3579 137.5,87C 135.351,86.4212 133.185,85.9212 131,85.5C 128.269,86.6166 125.435,87.2833 122.5,87.5C 119.651,95.0279 114.984,101.195 108.5,106C 106.945,108.331 107.279,110.331 109.5,112C 111.422,113.876 113.589,115.376 116,116.5C 119.599,113.497 123.099,110.33 126.5,107C 131.581,105.672 136.581,105.172 141.5,105.5C 141.5,106.167 141.5,106.833 141.5,107.5C 139.926,107.937 138.759,108.937 138,110.5C 128.691,109.796 120.858,112.963 114.5,120C 109.55,120.858 105.883,119.025 103.5,114.5C 101.664,113.081 99.6641,111.914 97.5,111C 98.056,110.617 98.3893,110.117 98.5,109.5C 98.8333,108.833 99.1667,108.167 99.5,107.5C 103.768,105.067 107.268,101.734 110,97.5C 112.885,91.9988 115.051,86.3322 116.5,80.5C 117.461,78.7354 117.795,76.7354 117.5,74.5C 124.213,73.0558 130.879,73.2224 137.5,75C 140.298,77.5033 142.798,80.3366 145,83.5C 145.499,87.4862 145.666,91.4862 145.5,95.5 Z"/></g>
<g><path style="opacity:0.004" fill="#939699" d="M 7.5,85.5 C 7.63101,86.2389 7.46434,86.9056 7,87.5C 6.30831,86.5632 6.47498,85.8966 7.5,85.5 Z"/></g>
<g><path style="opacity:0.004" fill="#bdbebf" d="M 150.5,84.5 C 151.573,85.2506 151.74,86.2506 151,87.5C 150.517,86.552 150.351,85.552 150.5,84.5 Z"/></g>
<g><path style="opacity:0.984" fill="#525558" d="M 115.5,72.5 C 115.833,72.5 116.167,72.5 116.5,72.5C 116.5,75.1667 116.5,77.8333 116.5,80.5C 115.051,86.3322 112.885,91.9988 110,97.5C 107.268,101.734 103.768,105.067 99.5,107.5C 98.8333,106.833 98.1667,106.167 97.5,105.5C 99.6038,103.901 101.604,102.068 103.5,100C 102.346,99.0862 102.513,98.2529 104,97.5C 104.914,98.6537 105.747,98.487 106.5,97C 106.167,96.6667 105.833,96.3333 105.5,96C 108.319,92.1952 110.486,88.0285 112,83.5C 112.333,84.1667 112.667,84.8333 113,85.5C 113.638,84.3914 114.138,83.2247 114.5,82C 113.268,79.0169 113.268,76.1836 114.5,73.5C 114.833,81.5 115.167,81.5 115.5,73.5C 115.5,73.1667 115.5,72.8333 115.5,72.5 Z"/></g>
<g><path style="opacity:1" fill="#eceded" d="M 144.5,98.5 C 144.5,99.1667 144.5,99.8333 144.5,100.5C 145.473,102.068 145.64,103.735 145,105.5C 144.722,104.584 144.222,103.918 143.5,103.5C 142.167,103.5 141.5,104.167 141.5,105.5C 136.581,105.172 131.581,105.672 126.5,107C 123.099,110.33 119.599,113.497 116,116.5C 113.589,115.376 111.422,113.876 109.5,112C 107.279,110.331 106.945,108.331 108.5,106C 114.984,101.195 119.651,95.0279 122.5,87.5C 125.435,87.2833 128.269,86.6166 131,85.5C 133.185,85.9212 135.351,86.4212 137.5,87C 139.024,89.3579 141.024,91.1912 143.5,92.5C 144.466,94.396 144.799,96.396 144.5,98.5 Z"/></g>
<g><path style="opacity:0.773" fill="#919293" d="M 149.5,87.5 C 149.5,87.8333 149.5,88.1667 149.5,88.5C 148.677,91.977 148.177,95.6437 148,99.5C 147.667,98.5 147.333,97.5 147,96.5C 146.8,98.3197 145.966,99.653 144.5,100.5C 144.5,99.8333 144.5,99.1667 144.5,98.5C 145.404,97.791 145.737,96.791 145.5,95.5C 145.833,95.5 146.167,95.5 146.5,95.5C 147.833,95.1667 147.833,94.8333 146.5,94.5C 146.5,92.1667 146.5,89.8333 146.5,87.5C 147.5,87.5 148.5,87.5 149.5,87.5 Z"/></g>
<g><path style="opacity:0.004" fill="#8e9293" d="M 8.5,90.5 C 8.63101,91.2389 8.46434,91.9056 8,92.5C 7.30831,91.5632 7.47498,90.8966 8.5,90.5 Z"/></g>
<g><path style="opacity:0.004" fill="#bfc1c2" d="M 149.5,88.5 C 150.598,89.6009 150.765,90.9343 150,92.5C 149.51,91.2068 149.343,89.8734 149.5,88.5 Z"/></g>
<g><path style="opacity:0.004" fill="#95999b" d="M 9.5,93.5 C 9.64945,94.552 9.48278,95.552 9,96.5C 8.25988,95.2506 8.42654,94.2506 9.5,93.5 Z"/></g>
<g><path style="opacity:1" fill="#babdbf" d="M 57.5,105.5 C 58.8249,107.813 60.8249,109.479 63.5,110.5C 65.4825,112.81 66.4825,115.477 66.5,118.5C 63.8333,118.5 61.1667,118.5 58.5,118.5C 56.901,118.768 55.5676,118.434 54.5,117.5C 56.288,117.785 57.9547,117.452 59.5,116.5C 59.3333,116.167 59.1667,115.833 59,115.5C 54.106,112.736 49.2727,109.903 44.5,107C 42.155,104.986 40.155,102.653 38.5,100C 32.428,97.3981 26.7614,94.2314 21.5,90.5C 20.2867,90.7472 19.62,91.4138 19.5,92.5C 16.4146,87.6469 14.4146,82.3135 13.5,76.5C 13.4701,75.5028 13.9701,74.8361 15,74.5C 19.2742,77.3875 23.7742,79.8875 28.5,82C 33.0244,86.3596 37.6911,90.5262 42.5,94.5C 44.3733,93.9109 46.04,94.5776 47.5,96.5C 49.577,100.911 52.9104,103.911 57.5,105.5 Z"/></g>
<g><path style="opacity:1" fill="#cfd1d2" d="M 54.5,117.5 C 39.2187,114.217 27.552,105.884 19.5,92.5C 19.62,91.4138 20.2867,90.7472 21.5,90.5C 26.7614,94.2314 32.428,97.3981 38.5,100C 40.155,102.653 42.155,104.986 44.5,107C 49.2727,109.903 54.106,112.736 59,115.5C 59.1667,115.833 59.3333,116.167 59.5,116.5C 57.9547,117.452 56.288,117.785 54.5,117.5 Z"/></g>
<g><path style="opacity:0.996" fill="#36393b" d="M 97.5,105.5 C 98.1667,106.167 98.8333,106.833 99.5,107.5C 99.1667,108.167 98.8333,108.833 98.5,109.5C 96.6089,110.536 94.7755,110.536 93,109.5C 89.6105,104.054 86.7772,98.3877 84.5,92.5C 84.4701,91.5028 84.9701,90.8361 86,90.5C 87.8186,92.1257 89.1519,94.1257 90,96.5C 90.3333,95.8333 90.6667,95.1667 91,94.5C 92.2467,97.3286 93.7467,99.9952 95.5,102.5C 94.3606,104.396 95.0272,105.396 97.5,105.5 Z"/></g>
<g><path style="opacity:1" fill="#838b91" d="M 9.5,57.5 C 11.1457,62.9273 12.1457,68.594 12.5,74.5C 12.3284,75.4916 12.6618,76.1583 13.5,76.5C 14.4146,82.3135 16.4146,87.6469 19.5,92.5C 27.552,105.884 39.2187,114.217 54.5,117.5C 55.5676,118.434 56.901,118.768 58.5,118.5C 61.6248,119.479 64.9581,119.813 68.5,119.5C 65.9402,123.77 64.2735,128.437 63.5,133.5C 63.1316,135.175 62.1316,136.175 60.5,136.5C 57.9272,137.555 55.2605,137.722 52.5,137C 49.6731,135.377 46.6731,134.21 43.5,133.5C 38.3032,127.817 32.3032,122.984 25.5,119C 25.8333,118.667 26.1667,118.333 26.5,118C 21.7319,113.661 17.7319,108.828 14.5,103.5C 12.9328,102.319 12.0995,100.653 12,98.5C 11.6667,99.8333 11.3333,101.167 11,102.5C 10.8195,99.3054 10.3195,96.3054 9.5,93.5C 10.8146,92.1054 10.4812,91.1054 8.5,90.5C 8.78448,88.5853 8.45115,86.9187 7.5,85.5C 7.5,78.1667 7.5,70.8333 7.5,63.5C 8.45115,62.0813 8.78448,60.4147 8.5,58.5C 9.16667,58.5 9.5,58.1667 9.5,57.5 Z"/></g>
<g><path style="opacity:0.008" fill="#7f7f80" d="M 135.5,118.5 C 135.833,118.5 136.167,118.5 136.5,118.5C 136.315,119.17 135.981,119.17 135.5,118.5 Z"/></g>
<g><path style="opacity:1" fill="#c3c7c9" d="M 84.5,92.5 C 86.7772,98.3877 89.6105,104.054 93,109.5C 94.7755,110.536 96.6089,110.536 98.5,109.5C 98.3893,110.117 98.056,110.617 97.5,111C 99.6641,111.914 101.664,113.081 103.5,114.5C 105.883,119.025 109.55,120.858 114.5,120C 120.858,112.963 128.691,109.796 138,110.5C 138.759,108.937 139.926,107.937 141.5,107.5C 141.5,106.833 141.5,106.167 141.5,105.5C 141.5,104.167 142.167,103.5 143.5,103.5C 144.242,107.471 142.909,110.304 139.5,112C 140.552,113.716 139.886,114.716 137.5,115C 138.8,116.579 138.466,117.745 136.5,118.5C 136.167,117.167 135.833,117.167 135.5,118.5C 135.167,118.5 134.833,118.5 134.5,118.5C 133.127,118.343 131.793,118.51 130.5,119C 130.957,119.414 131.291,119.914 131.5,120.5C 122.872,120.719 114.872,122.886 107.5,127C 105.833,127.667 104.167,127.667 102.5,127C 97.748,124.252 93.5813,120.752 90,116.5C 88.5921,112.193 86.5921,108.193 84,104.5C 84.4427,101.008 84.2761,97.6748 83.5,94.5C 83.3284,93.5084 83.6618,92.8417 84.5,92.5 Z"/></g>
<g><path style="opacity:1" fill="#959fa6" d="M 81.5,101.5 C 81.7073,103.604 81.874,105.937 82,108.5C 84.8747,111.542 86.208,115.209 86,119.5C 90.002,125.573 95.502,129.24 102.5,130.5C 101.4,131.558 100.066,132.392 98.5,133C 102.852,133.419 103.185,134.086 99.5,135C 93.3236,136.451 87.8236,135.285 83,131.5C 82.2677,126.035 79.9344,121.369 76,117.5C 75.7216,118.416 75.2216,119.082 74.5,119.5C 72.6531,118.427 70.6531,118.427 68.5,119.5C 64.9581,119.813 61.6248,119.479 58.5,118.5C 61.1667,118.5 63.8333,118.5 66.5,118.5C 66.4825,115.477 65.4825,112.81 63.5,110.5C 60.8249,109.479 58.8249,107.813 57.5,105.5C 59.734,105.212 62.0673,105.712 64.5,107C 62.2053,107.984 62.5386,108.817 65.5,109.5C 69.8286,108.964 73.9953,108.964 78,109.5C 79.0934,106.691 80.2601,104.024 81.5,101.5 Z"/></g>
<g><path style="opacity:0.012" fill="#5e605f" d="M 131.5,123.5 C 131.833,123.5 132.167,123.5 132.5,123.5C 132.315,124.17 131.981,124.17 131.5,123.5 Z"/></g>
<g><path style="opacity:0.008" fill="#636564" d="M 130.5,124.5 C 130.833,124.5 131.167,124.5 131.5,124.5C 131.315,125.17 130.981,125.17 130.5,124.5 Z"/></g>
<g><path style="opacity:0.008" fill="#5a5c5c" d="M 129.5,125.5 C 129.833,125.5 130.167,125.5 130.5,125.5C 130.315,126.17 129.981,126.17 129.5,125.5 Z"/></g>
<g><path style="opacity:1" fill="#a9b0b4" d="M 83.5,94.5 C 84.2761,97.6748 84.4427,101.008 84,104.5C 86.5921,108.193 88.5921,112.193 90,116.5C 93.5813,120.752 97.748,124.252 102.5,127C 104.167,127.667 105.833,127.667 107.5,127C 114.872,122.886 122.872,120.719 131.5,120.5C 131.291,119.914 130.957,119.414 130.5,119C 131.793,118.51 133.127,118.343 134.5,118.5C 134.5,119.167 134.833,119.5 135.5,119.5C 135.262,121.404 134.262,122.738 132.5,123.5C 132.5,122.833 132.167,122.5 131.5,122.5C 128.482,122.335 125.482,122.502 122.5,123C 124.134,123.494 125.801,123.66 127.5,123.5C 127.5,124.5 127.5,125.5 127.5,126.5C 118.92,126.853 110.586,128.186 102.5,130.5C 95.502,129.24 90.002,125.573 86,119.5C 86.208,115.209 84.8747,111.542 82,108.5C 81.874,105.937 81.7073,103.604 81.5,101.5C 81.767,99.0347 82.4336,96.7014 83.5,94.5 Z"/></g>
<g><path style="opacity:0.133" fill="#010101" d="M 125.5,128.5 C 125.833,128.5 126.167,128.5 126.5,128.5C 131.656,131.597 133.489,136.264 132,142.5C 129.527,145.64 126.694,148.473 123.5,151C 95.3443,161.302 67.3443,160.969 39.5,150C 38.1659,147.913 36.3326,146.413 34,145.5C 34.073,143.039 33.2397,140.706 31.5,138.5C 32.0103,135.666 33.3436,133.332 35.5,131.5C 36.1667,131.833 36.8333,132.167 37.5,132.5C 37.5,133.167 37.8333,133.5 38.5,133.5C 42.9547,135.944 47.6214,137.944 52.5,139.5C 60.6212,143.362 69.2879,145.362 78.5,145.5C 91.9136,144.269 105.247,142.603 118.5,140.5C 121.539,139.99 124.539,139.323 127.5,138.5C 127.833,139.833 128.167,139.833 128.5,138.5C 128.5,137.833 128.5,137.167 128.5,136.5C 128.5,135.833 128.167,135.5 127.5,135.5C 126.833,135.5 126.5,135.167 126.5,134.5C 126.5,133.833 126.167,133.5 125.5,133.5C 124.5,133.167 123.833,132.5 123.5,131.5C 123.5,131.167 123.5,130.833 123.5,130.5C 124.167,130.5 124.5,130.167 124.5,129.5C 125.167,129.5 125.5,129.167 125.5,128.5 Z"/></g>
<g><path style="opacity:1" fill="#67757e" d="M 73.5,122.5 C 75.495,127.826 78.495,132.493 82.5,136.5C 78.6568,138.104 74.6568,139.271 70.5,140C 72.0581,140.21 73.3915,140.71 74.5,141.5C 70.941,141.592 67.6076,140.759 64.5,139C 67.095,138.774 69.595,138.274 72,137.5C 71.819,134.633 70.6523,132.133 68.5,130C 69.8121,127.193 71.4787,124.693 73.5,122.5 Z"/></g>
<g><path style="opacity:1" fill="#7e8c95" d="M 102.5,130.5 C 110.586,128.186 118.92,126.853 127.5,126.5C 127.5,125.5 127.5,124.5 127.5,123.5C 125.801,123.66 124.134,123.494 122.5,123C 125.482,122.502 128.482,122.335 131.5,122.5C 131.5,122.833 131.5,123.167 131.5,123.5C 130.833,123.5 130.5,123.833 130.5,124.5C 129.833,124.5 129.5,124.833 129.5,125.5C 128.167,125.833 128.167,126.167 129.5,126.5C 128.71,127.401 127.71,128.068 126.5,128.5C 126.167,127.167 125.833,127.167 125.5,128.5C 124.833,128.5 124.5,128.833 124.5,129.5C 124.5,130.167 124.167,130.5 123.5,130.5C 123.167,129.167 122.833,129.167 122.5,130.5C 121.167,130.5 119.833,130.5 118.5,130.5C 118.439,132.592 117.439,134.092 115.5,135C 110.793,136.12 106.126,137.453 101.5,139C 99.2404,139.549 97.5738,140.716 96.5,142.5C 88.9809,142.825 81.6476,142.492 74.5,141.5C 73.3915,140.71 72.0581,140.21 70.5,140C 74.6568,139.271 78.6568,138.104 82.5,136.5C 78.495,132.493 75.495,127.826 73.5,122.5C 74.1098,121.609 74.4431,120.609 74.5,119.5C 75.2216,119.082 75.7216,118.416 76,117.5C 79.9344,121.369 82.2677,126.035 83,131.5C 87.8236,135.285 93.3236,136.451 99.5,135C 103.185,134.086 102.852,133.419 98.5,133C 100.066,132.392 101.4,131.558 102.5,130.5 Z"/></g>
<g><path style="opacity:0.996" fill="#697278" d="M 14.5,103.5 C 17.7319,108.828 21.7319,113.661 26.5,118C 26.1667,118.333 25.8333,118.667 25.5,119C 32.3032,122.984 38.3032,127.817 43.5,133.5C 46.6731,134.21 49.6731,135.377 52.5,137C 55.2605,137.722 57.9272,137.555 60.5,136.5C 60.5743,138.411 61.5743,139.578 63.5,140C 59.8125,140.45 56.1458,140.283 52.5,139.5C 47.6214,137.944 42.9547,135.944 38.5,133.5C 37.8333,133.5 37.5,133.167 37.5,132.5C 36.8333,132.167 36.1667,131.833 35.5,131.5C 34.746,129.495 33.5793,128.828 32,129.5C 31.2276,128.151 30.0609,127.318 28.5,127C 29.6537,126.086 29.487,125.253 28,124.5C 27.0862,125.654 26.2529,125.487 25.5,124C 25.5,123 25.5,122 25.5,121C 24.3333,119.833 23.1667,118.667 22,117.5C 20.3335,118.34 20.1669,117.84 21.5,116C 20.7471,114.513 19.9138,114.346 19,115.5C 18.3828,114.551 18.5494,113.718 19.5,113C 18.4479,111.881 17.2812,111.381 16,111.5C 15.3162,110.216 15.4829,109.049 16.5,108C 15.552,107.517 14.552,107.351 13.5,107.5C 13.4326,106.041 13.7659,104.708 14.5,103.5 Z"/></g>
<g><path style="opacity:0.998" fill="#6c767d" d="M 122.5,130.5 C 122.5,131.167 122.833,131.5 123.5,131.5C 123.833,132.5 124.5,133.167 125.5,133.5C 126.167,133.5 126.5,133.833 126.5,134.5C 126.5,135.167 126.833,135.5 127.5,135.5C 128.167,135.5 128.5,135.833 128.5,136.5C 128.5,137.167 128.5,137.833 128.5,138.5C 128.167,138.5 127.833,138.5 127.5,138.5C 124.539,139.323 121.539,139.99 118.5,140.5C 118.265,139.903 117.765,139.57 117,139.5C 110.198,140.756 103.364,141.756 96.5,142.5C 97.5738,140.716 99.2404,139.549 101.5,139C 106.126,137.453 110.793,136.12 115.5,135C 117.439,134.092 118.439,132.592 118.5,130.5C 119.833,130.5 121.167,130.5 122.5,130.5 Z"/></g>
<g><path style="opacity:0.998" fill="#515b62" d="M 74.5,119.5 C 74.4431,120.609 74.1098,121.609 73.5,122.5C 71.4787,124.693 69.8121,127.193 68.5,130C 70.6523,132.133 71.819,134.633 72,137.5C 69.595,138.274 67.095,138.774 64.5,139C 67.6076,140.759 70.941,141.592 74.5,141.5C 81.6476,142.492 88.9809,142.825 96.5,142.5C 103.364,141.756 110.198,140.756 117,139.5C 117.765,139.57 118.265,139.903 118.5,140.5C 105.247,142.603 91.9136,144.269 78.5,145.5C 69.2879,145.362 60.6212,143.362 52.5,139.5C 56.1458,140.283 59.8125,140.45 63.5,140C 61.5743,139.578 60.5743,138.411 60.5,136.5C 62.1316,136.175 63.1316,135.175 63.5,133.5C 64.2735,128.437 65.9402,123.77 68.5,119.5C 70.6531,118.427 72.6531,118.427 74.5,119.5 Z"/></g>
</svg>
