<?xml version="1.0" encoding="UTF-8"?>
<!DOCTYPE svg PUBLIC "-//W3C//DTD SVG 1.1//EN" "http://www.w3.org/Graphics/SVG/1.1/DTD/svg11.dtd">
<svg xmlns="http://www.w3.org/2000/svg" version="1.1" width="425px" height="425px" style="shape-rendering:geometricPrecision; text-rendering:geometricPrecision; image-rendering:optimizeQuality; fill-rule:evenodd; clip-rule:evenodd" xmlns:xlink="http://www.w3.org/1999/xlink">
<g><path style="opacity:0.481" fill="#6a6a6a" d="M 182.5,18.5 C 180.167,19.8333 177.833,21.1667 175.5,22.5C 169.263,21.2254 163.263,19.0587 157.5,16C 142.102,12.6009 129.769,17.1009 120.5,29.5C 117.917,35.824 117.25,42.324 118.5,49C 118.238,52.1272 116.571,53.9606 113.5,54.5C 114.343,52.8267 115.676,51.66 117.5,51C 114.015,27.303 124.349,14.803 148.5,13.5C 157.328,14.1233 165.661,16.4566 173.5,20.5C 176.479,19.6716 179.479,19.0049 182.5,18.5 Z"/></g>
<g><path style="opacity:0.64" fill="#5b5b5b" d="M 232.5,15.5 C 216.279,16.0756 199.946,17.0756 183.5,18.5C 189.188,16.3964 195.188,15.2297 201.5,15C 211.856,14.2959 222.189,14.4626 232.5,15.5 Z"/></g>
<g><path style="opacity:1" fill="#016699" d="M 295.5,40.5 C 303.099,46.0918 310.433,52.0918 317.5,58.5C 334.786,76.3789 348.619,96.7123 359,119.5C 387.041,195.461 379.708,267.794 337,336.5C 330.739,345.595 323.573,353.929 315.5,361.5C 314.072,355.237 310.239,351.571 304,350.5C 303.608,347.812 303.108,345.145 302.5,342.5C 302.818,341.353 303.484,340.519 304.5,340C 303.584,339.722 302.918,339.222 302.5,338.5C 304.216,338.371 305.883,338.038 307.5,337.5C 306.141,339.009 306.641,339.676 309,339.5C 316.238,337.942 322.238,334.275 327,328.5C 329.823,321.621 330.156,314.621 328,307.5C 324.95,302.949 321.117,299.282 316.5,296.5C 329.143,279.304 336.31,259.971 338,238.5C 340.365,210.608 338.698,182.941 333,155.5C 324.316,127.177 309.483,102.677 288.5,82C 272.459,69.9797 254.793,61.1464 235.5,55.5C 233.708,54.6909 231.708,54.1909 229.5,54C 220.833,53.6667 212.167,53.3333 203.5,53C 197.049,41.7167 188.383,32.5501 177.5,25.5C 176.047,24.1751 176.381,23.3418 178.5,23C 203.67,15.9215 228.67,15.9215 253.5,23C 268.085,27.5795 282.085,33.4128 295.5,40.5 Z"/></g>
<g><path style="opacity:0.004" fill="#747474" d="M 242.5,17.5 C 247.035,18.1368 251.368,19.1368 255.5,20.5C 255.265,21.0967 254.765,21.4301 254,21.5C 249.781,20.5842 245.948,19.2508 242.5,17.5 Z"/></g>
<g><path style="opacity:1" fill="#f3f3f5" d="M 233.5,74.5 C 234.275,79.7968 234.608,85.1301 234.5,90.5C 233.841,97.5354 230.175,101.869 223.5,103.5C 219.544,98.7615 214.71,95.0949 209,92.5C 207.059,78.8832 199.559,69.7165 186.5,65C 178.004,63.9672 169.67,64.4672 161.5,66.5C 156.474,68.523 151.808,71.3564 147.5,75C 144.833,75.6667 142.167,75.6667 139.5,75C 138.211,73.1978 136.544,72.0312 134.5,71.5C 125.276,60.6028 121.109,47.9362 122,33.5C 127.757,23.9231 136.257,19.2565 147.5,19.5C 168.885,22.0109 186.052,32.0109 199,49.5C 203.503,57.0069 206.836,65.0069 209,73.5C 213.506,65.1909 220.006,63.3576 228.5,68C 230.79,69.7772 232.457,71.9438 233.5,74.5 Z"/></g>
<g><path style="opacity:0.984" fill="#2c261e" d="M 232.5,15.5 C 235.939,15.7878 239.272,16.4544 242.5,17.5C 245.948,19.2508 249.781,20.5842 254,21.5C 254.765,21.4301 255.265,21.0967 255.5,20.5C 256.959,20.4326 258.292,20.7659 259.5,21.5C 265.619,25.0546 272.286,27.7213 279.5,29.5C 281.703,29.6036 283.703,30.2702 285.5,31.5C 285.414,32.4959 285.748,33.3292 286.5,34C 290.71,35.6086 294.71,37.4419 298.5,39.5C 297.209,39.2627 296.209,39.596 295.5,40.5C 282.085,33.4128 268.085,27.5795 253.5,23C 228.67,15.9215 203.67,15.9215 178.5,23C 176.381,23.3418 176.047,24.1751 177.5,25.5C 175.952,25.1788 175.285,24.1788 175.5,22.5C 177.833,21.1667 180.167,19.8333 182.5,18.5C 182.833,18.5 183.167,18.5 183.5,18.5C 199.946,17.0756 216.279,16.0756 232.5,15.5 Z"/></g>
<g><path style="opacity:0.106" fill="#797979" d="M 259.5,21.5 C 266.675,23.0945 273.342,25.7611 279.5,29.5C 272.286,27.7213 265.619,25.0546 259.5,21.5 Z"/></g>
<g><path style="opacity:0.999" fill="#1e1a16" d="M 175.5,22.5 C 175.285,24.1788 175.952,25.1788 177.5,25.5C 188.383,32.5501 197.049,41.7167 203.5,53C 212.167,53.3333 220.833,53.6667 229.5,54C 231.708,54.1909 233.708,54.6909 235.5,55.5C 233.143,55.3367 230.81,55.5034 228.5,56C 229.737,56.2321 230.737,56.7321 231.5,57.5C 222.924,55.858 214.257,55.1913 205.5,55.5C 206.426,59.9468 207.76,64.2801 209.5,68.5C 221.228,60.3157 230.728,62.3157 238,74.5C 240.104,81.9245 239.771,89.2578 237,96.5C 234.289,100.712 230.789,104.046 226.5,106.5C 225.9,105.1 224.9,104.1 223.5,103.5C 230.175,101.869 233.841,97.5354 234.5,90.5C 235.163,88.5274 235.496,86.3608 235.5,84C 235.672,80.5226 235.006,77.356 233.5,74.5C 232.457,71.9438 230.79,69.7772 228.5,68C 220.006,63.3576 213.506,65.1909 209,73.5C 206.836,65.0069 203.503,57.0069 199,49.5C 186.052,32.0109 168.885,22.0109 147.5,19.5C 136.257,19.2565 127.757,23.9231 122,33.5C 121.109,47.9362 125.276,60.6028 134.5,71.5C 131.041,70.564 128.207,68.564 126,65.5C 123.607,62.0478 121.774,58.3811 120.5,54.5C 119.448,54.3505 118.448,54.5172 117.5,55C 109.617,62.3811 102.283,70.2145 95.5,78.5C 96.6888,79.4287 98.0222,79.762 99.5,79.5C 97.0021,80.1717 94.6687,80.1717 92.5,79.5C 96.4244,73.7295 100.591,68.0628 105,62.5C 106.579,60.9588 108.413,59.7922 110.5,59C 111.305,57.8873 111.972,56.7206 112.5,55.5C 112.5,54.8333 112.833,54.5 113.5,54.5C 116.571,53.9606 118.238,52.1272 118.5,49C 117.25,42.324 117.917,35.824 120.5,29.5C 129.769,17.1009 142.102,12.6009 157.5,16C 163.263,19.0587 169.263,21.2254 175.5,22.5 Z"/></g>
<g><path style="opacity:1" fill="#3b5bf4" d="M 161.5,66.5 C 154.159,66.6663 146.826,66.4997 139.5,66C 134.217,60.7428 130.217,54.7428 127.5,48C 128.564,41.4074 130.23,35.0741 132.5,29C 138.288,26.3552 144.121,23.8552 150,21.5C 156.819,24.2442 163.485,27.2442 170,30.5C 172.195,37.3378 173.195,44.3378 173,51.5C 169.334,56.6611 165.501,61.6611 161.5,66.5 Z"/></g>
<g><path style="opacity:1" fill="#e8e9fd" d="M 149.5,26.5 C 151.12,27.8409 152.12,29.6742 152.5,32C 155.211,32.7731 157.711,33.9398 160,35.5C 164.946,32.9452 165.446,33.6118 161.5,37.5C 163.301,40.5354 163.968,43.8687 163.5,47.5C 165.288,47.2148 166.955,47.5481 168.5,48.5C 166.314,49.2208 164.147,49.8875 162,50.5C 160.692,52.6414 159.192,54.6414 157.5,56.5C 158.681,58.198 158.681,59.8647 157.5,61.5C 156.484,58.0684 154.151,56.7351 150.5,57.5C 147.425,57.0162 145.091,58.0162 143.5,60.5C 142.355,59.2243 142.355,57.891 143.5,56.5C 141.808,54.6414 140.308,52.6414 139,50.5C 136.853,49.8875 134.686,49.2208 132.5,48.5C 133.991,47.7564 135.491,47.0897 137,46.5C 137.056,43.2198 137.889,40.2198 139.5,37.5C 135.554,33.6118 136.054,32.9452 141,35.5C 143.057,33.4563 145.557,32.2897 148.5,32C 149.406,30.3005 149.739,28.4672 149.5,26.5 Z"/></g>
<g><path style="opacity:1" fill="#4561f4" d="M 145.5,35.5 C 146.5,35.5 147.5,35.5 148.5,35.5C 148.5,36.8333 148.5,38.1667 148.5,39.5C 145.046,39.7332 144.046,38.3999 145.5,35.5 Z"/></g>
<g><path style="opacity:1" fill="#4f67f4" d="M 152.5,35.5 C 157.63,36.4563 157.797,38.123 153,40.5C 152.506,38.8659 152.34,37.1992 152.5,35.5 Z"/></g>
<g><path style="opacity:1" fill="#546af4" d="M 140.5,40.5 C 146.318,41.7307 146.651,43.3974 141.5,45.5C 140.548,43.9547 140.215,42.288 140.5,40.5 Z"/></g>
<g><path style="opacity:1" fill="#596df5" d="M 157.5,40.5 C 160.084,41.0483 161.084,42.715 160.5,45.5C 155.787,45.5124 154.787,43.8457 157.5,40.5 Z"/></g>
<g><path style="opacity:1" fill="#836132" d="M 240.5,47.5 C 241.463,46.6365 241.463,45.9698 240.5,45.5C 239.583,46.1272 238.583,46.4606 237.5,46.5C 235.306,47.7665 232.972,47.7665 230.5,46.5C 229.537,46.9698 229.537,47.6365 230.5,48.5C 222.016,44.2275 220.683,38.3941 226.5,31C 235.728,26.8034 242.395,29.3034 246.5,38.5C 245.846,40.1151 245.346,41.7818 245,43.5C 244.124,45.6355 242.624,46.9688 240.5,47.5 Z"/></g>
<g><path style="opacity:1" fill="#9a0102" d="M 237.5,46.5 C 231.686,46.7659 227.686,44.2659 225.5,39C 229.09,31.3032 234.424,29.8032 241.5,34.5C 243.526,37.4037 243.359,40.4037 241,43.5C 239.482,44.1634 238.315,45.1634 237.5,46.5 Z"/></g>
<g><path style="opacity:1" fill="#566bf4" d="M 149.5,43.5 C 151.465,43.9483 151.798,44.9483 150.5,46.5C 149.614,45.675 149.281,44.675 149.5,43.5 Z"/></g>
<g><path style="opacity:1" fill="#4a351a" d="M 240.5,47.5 C 238.883,48.9723 236.883,49.639 234.5,49.5C 232.955,49.4892 231.622,49.1558 230.5,48.5C 229.537,47.6365 229.537,46.9698 230.5,46.5C 232.972,47.7665 235.306,47.7665 237.5,46.5C 238.583,46.4606 239.583,46.1272 240.5,45.5C 241.463,45.9698 241.463,46.6365 240.5,47.5 Z"/></g>
<g><path style="opacity:1" fill="#5f70f5" d="M 141.5,47.5 C 146.707,46.9402 147.707,48.6069 144.5,52.5C 142.244,51.5791 141.244,49.9124 141.5,47.5 Z"/></g>
<g><path style="opacity:1" fill="#4461f4" d="M 154.5,49.5 C 159.942,47.7014 160.609,48.7014 156.5,52.5C 155.824,51.3984 155.158,50.3984 154.5,49.5 Z"/></g>
<g><path style="opacity:0.125" fill="#6a6a6a" d="M 285.5,31.5 C 304.11,39.4434 320.11,50.7767 333.5,65.5C 322.397,56.0626 310.731,47.3959 298.5,39.5C 294.71,37.4419 290.71,35.6086 286.5,34C 285.748,33.3292 285.414,32.4959 285.5,31.5 Z"/></g>
<g><path style="opacity:1" fill="#4c65f4" d="M 149.5,50.5 C 151.564,50.7619 152.897,51.9286 153.5,54C 148.273,55.5567 146.94,54.39 149.5,50.5 Z"/></g>
<g><path style="opacity:1" fill="#006599" d="M 134.5,71.5 C 134.833,72.1667 135.167,72.8333 135.5,73.5C 134.5,74.1667 133.5,74.8333 132.5,75.5C 125.492,75.3337 118.492,75.5004 111.5,76C 107.25,76.7394 103.25,77.9061 99.5,79.5C 98.0222,79.762 96.6888,79.4287 95.5,78.5C 102.283,70.2145 109.617,62.3811 117.5,55C 118.448,54.5172 119.448,54.3505 120.5,54.5C 121.774,58.3811 123.607,62.0478 126,65.5C 128.207,68.564 131.041,70.564 134.5,71.5 Z"/></g>
<g><path style="opacity:1" fill="#ccb068" d="M 231.5,57.5 C 284.827,74.0047 317.661,109.671 330,164.5C 335.887,195.855 335.887,227.188 330,258.5C 329.767,260.78 328.934,262.78 327.5,264.5C 320.776,261.138 314.109,257.804 307.5,254.5C 309.369,253.835 311.369,253.169 313.5,252.5C 312.121,249.741 310.787,247.075 309.5,244.5C 305.677,232.333 298.677,222.333 288.5,214.5C 269.038,196.427 246.871,192.094 222,201.5C 219.097,198.268 216.597,194.768 214.5,191C 220.102,188.611 224.935,185.111 229,180.5C 231.144,175.742 231.977,170.742 231.5,165.5C 242.191,168.544 251.024,165.878 258,157.5C 262.125,147.493 260.292,138.66 252.5,131C 245.588,126.178 238.255,125.345 230.5,128.5C 230.507,122.521 229.507,116.854 227.5,111.5C 226.962,109.883 226.629,108.216 226.5,106.5C 230.789,104.046 234.289,100.712 237,96.5C 239.771,89.2578 240.104,81.9245 238,74.5C 230.728,62.3157 221.228,60.3157 209.5,68.5C 207.76,64.2801 206.426,59.9468 205.5,55.5C 214.257,55.1913 222.924,55.858 231.5,57.5 Z"/></g>
<g><path style="opacity:1" fill="#0b0804" d="M 235.5,55.5 C 254.793,61.1464 272.459,69.9797 288.5,82C 309.483,102.677 324.316,127.177 333,155.5C 338.698,182.941 340.365,210.608 338,238.5C 336.31,259.971 329.143,279.304 316.5,296.5C 321.117,299.282 324.95,302.949 328,307.5C 330.156,314.621 329.823,321.621 327,328.5C 322.238,334.275 316.238,337.942 309,339.5C 306.641,339.676 306.141,339.009 307.5,337.5C 324.651,332.909 329.818,322.576 323,306.5C 316.245,300.42 308.411,296.754 299.5,295.5C 291.677,294.344 283.677,294.177 275.5,295C 274.263,295.232 273.263,295.732 272.5,296.5C 266.46,298.372 262.126,302.205 259.5,308C 267.899,315.212 274.899,323.379 280.5,332.5C 281.29,331.391 281.79,330.058 282,328.5C 282.494,330.134 282.66,331.801 282.5,333.5C 282.5,334.833 282.5,336.167 282.5,337.5C 281.833,338.167 281.167,338.833 280.5,339.5C 270.136,317.22 252.636,304.887 228,302.5C 222.686,302.901 217.519,304.067 212.5,306C 211.269,307.405 209.936,308.571 208.5,309.5C 207.675,305.353 207.175,301.019 207,296.5C 206.434,294.277 205.6,292.277 204.5,290.5C 202.936,286.271 200.269,282.937 196.5,280.5C 197.209,279.596 198.209,279.263 199.5,279.5C 200.416,279.982 201.416,280.315 202.5,280.5C 213.677,275.532 225.344,272.866 237.5,272.5C 238.5,272.5 239.5,272.5 240.5,272.5C 248.114,268.693 255.78,264.86 263.5,261C 273.571,257.029 283.904,254.196 294.5,252.5C 299.153,251.999 303.486,252.666 307.5,254.5C 314.109,257.804 320.776,261.138 327.5,264.5C 328.934,262.78 329.767,260.78 330,258.5C 335.887,227.188 335.887,195.855 330,164.5C 317.661,109.671 284.827,74.0047 231.5,57.5C 230.737,56.7321 229.737,56.2321 228.5,56C 230.81,55.5034 233.143,55.3367 235.5,55.5 Z"/></g>
<g><path style="opacity:1" fill="#006599" d="M 320.5,58.5 C 344.337,78.135 361.837,102.468 373,131.5C 399.279,199.68 394.279,265.347 358,328.5C 341.033,353.135 319.867,373.301 294.5,389C 292.14,388.36 291.807,386.86 293.5,384.5C 295.029,380.299 297.696,376.966 301.5,374.5C 308.78,375.613 313.28,372.613 315,365.5C 353.71,327.438 374.71,281.105 378,226.5C 383.019,174.241 370.686,126.575 341,83.5C 334.15,75.1052 327.317,66.7719 320.5,58.5 Z"/></g>
<g><path style="opacity:0.325" fill="#6a6a6a" d="M 112.5,55.5 C 111.972,56.7206 111.305,57.8873 110.5,59C 108.413,59.7922 106.579,60.9588 105,62.5C 100.591,68.0628 96.4244,73.7295 92.5,79.5C 91.7326,80.172 91.0659,81.0053 90.5,82C 72.3362,89.3399 63.0029,102.84 62.5,122.5C 60.5827,117.086 60.7493,111.42 63,105.5C 68.557,94.2764 77.057,86.1098 88.5,81C 93.6667,74.5 98.8333,68 104,61.5C 106.731,59.2553 109.564,57.2553 112.5,55.5 Z"/></g>
<g><path style="opacity:1" fill="#0f0e0d" d="M 223.5,103.5 C 224.9,104.1 225.9,105.1 226.5,106.5C 226.629,108.216 226.962,109.883 227.5,111.5C 228.258,114.352 228.258,117.019 227.5,119.5C 225.314,111.646 220.981,105.146 214.5,100C 206.124,94.395 197.124,90.5617 187.5,88.5C 181.07,88.0821 174.736,87.0821 168.5,85.5C 145.326,78.1832 121.993,77.6832 98.5,84C 83.6594,88.513 72.826,97.6796 66,111.5C 65.5017,114.817 65.335,118.15 65.5,121.5C 65.5912,123.698 64.9245,124.031 63.5,122.5C 63.1667,122.5 62.8333,122.5 62.5,122.5C 63.0029,102.84 72.3362,89.3399 90.5,82C 91.0659,81.0053 91.7326,80.172 92.5,79.5C 94.6687,80.1717 97.0021,80.1717 99.5,79.5C 103.25,77.9061 107.25,76.7394 111.5,76C 118.492,75.5004 125.492,75.3337 132.5,75.5C 133.978,75.762 135.311,75.4287 136.5,74.5C 136.376,73.8933 136.043,73.56 135.5,73.5C 135.167,72.8333 134.833,72.1667 134.5,71.5C 136.544,72.0312 138.211,73.1978 139.5,75C 142.167,75.6667 144.833,75.6667 147.5,75C 151.808,71.3564 156.474,68.523 161.5,66.5C 169.67,64.4672 178.004,63.9672 186.5,65C 199.559,69.7165 207.059,78.8832 209,92.5C 214.71,95.0949 219.544,98.7615 223.5,103.5 Z"/></g>
<g><path style="opacity:0.137" fill="#989898" d="M 334.5,65.5 C 338.566,68.5628 341.899,72.2294 344.5,76.5C 340.434,73.4372 337.101,69.7706 334.5,65.5 Z"/></g>
<g><path style="opacity:1" fill="#8f6a37" d="M 315.5,88.5 C 315.611,87.8826 315.944,87.3826 316.5,87C 313.167,86.6667 309.833,86.3333 306.5,86C 305.177,85.1841 304.511,84.0174 304.5,82.5C 303.883,82.3893 303.383,82.056 303,81.5C 302.51,82.7932 302.343,84.1266 302.5,85.5C 298.726,73.9354 303.059,68.4354 315.5,69C 322.482,72.1694 324.316,77.3361 321,84.5C 319.549,86.4641 317.716,87.7974 315.5,88.5 Z"/></g>
<g><path style="opacity:1" fill="#990001" d="M 304.5,82.5 C 302.709,76.2676 305.043,72.2676 311.5,70.5C 319.82,72.6369 321.487,77.1369 316.5,84C 312.052,86.3397 308.052,85.8397 304.5,82.5 Z"/></g>
<g><path style="opacity:1" fill="#8a642b" d="M 135.5,73.5 C 136.043,73.56 136.376,73.8933 136.5,74.5C 135.311,75.4287 133.978,75.762 132.5,75.5C 133.5,74.8333 134.5,74.1667 135.5,73.5 Z"/></g>
<g><path style="opacity:0.243" fill="#797979" d="M 344.5,76.5 C 347.645,79.4595 350.312,82.7929 352.5,86.5C 348.886,83.945 346.219,80.6117 344.5,76.5 Z"/></g>
<g><path style="opacity:1" fill="#f4f4f4" d="M 168.5,85.5 C 166.167,86.1667 163.833,86.8333 161.5,87.5C 158.782,88.0427 156.115,88.7094 153.5,89.5C 142.539,87.739 131.539,86.5724 120.5,86C 128.81,87.7476 137.143,89.4142 145.5,91C 144.944,91.3826 144.611,91.8826 144.5,92.5C 138.808,93.5148 133.808,95.8481 129.5,99.5C 122.645,99.1224 115.811,98.4558 109,97.5C 104.828,97.9589 100.662,98.4589 96.5,99C 103.833,99.3333 111.167,99.6667 118.5,100C 120.577,100.192 122.577,100.692 124.5,101.5C 124.137,102.183 123.804,102.85 123.5,103.5C 119.537,106.129 115.871,109.129 112.5,112.5C 103.828,113.556 95.1614,114.723 86.5,116C 81.929,117.386 77.5956,119.219 73.5,121.5C 73.8333,121.833 74.1667,122.167 74.5,122.5C 84.9331,118.302 95.7664,115.635 107,114.5C 108.03,114.836 108.53,115.503 108.5,116.5C 106.527,117.806 104.861,119.473 103.5,121.5C 95.0029,125.581 86.6696,129.915 78.5,134.5C 73.1393,131.139 68.8059,126.806 65.5,121.5C 65.335,118.15 65.5017,114.817 66,111.5C 72.826,97.6796 83.6594,88.513 98.5,84C 121.993,77.6832 145.326,78.1832 168.5,85.5 Z"/></g>
<g><path style="opacity:1" fill="#a4a4a4" d="M 233.5,74.5 C 235.006,77.356 235.672,80.5226 235.5,84C 235.496,86.3608 235.163,88.5274 234.5,90.5C 234.608,85.1301 234.275,79.7968 233.5,74.5 Z"/></g>
<g><path style="opacity:1" fill="#897d72" d="M 168.5,85.5 C 174.736,87.0821 181.07,88.0821 187.5,88.5C 181.167,88.5 174.833,88.5 168.5,88.5C 166.393,87.5318 164.059,87.1984 161.5,87.5C 163.833,86.8333 166.167,86.1667 168.5,85.5 Z"/></g>
<g><path style="opacity:1" fill="#231a0e" d="M 304.5,82.5 C 304.511,84.0174 305.177,85.1841 306.5,86C 309.833,86.3333 313.167,86.6667 316.5,87C 315.944,87.3826 315.611,87.8826 315.5,88.5C 311.766,88.6773 308.099,88.3439 304.5,87.5C 303.5,87.1667 302.833,86.5 302.5,85.5C 302.343,84.1266 302.51,82.7932 303,81.5C 303.383,82.056 303.883,82.3893 304.5,82.5 Z"/></g>
<g><path style="opacity:1" fill="#575757" d="M 153.5,89.5 C 150.575,90.4748 147.575,91.4748 144.5,92.5C 144.611,91.8826 144.944,91.3826 145.5,91C 137.143,89.4142 128.81,87.7476 120.5,86C 131.539,86.5724 142.539,87.739 153.5,89.5 Z"/></g>
<g><path style="opacity:1" fill="#f7dec6" d="M 168.5,88.5 C 174.833,88.5 181.167,88.5 187.5,88.5C 197.124,90.5617 206.124,94.395 214.5,100C 220.981,105.146 225.314,111.646 227.5,119.5C 227.5,119.833 227.5,120.167 227.5,120.5C 228.252,126.259 227.252,131.593 224.5,136.5C 226.498,136.236 228.165,134.903 229.5,132.5C 239.695,127.174 248.195,129.174 255,138.5C 258.464,154.768 251.964,163.268 235.5,164C 231.742,162.166 228.075,160.5 224.5,159C 229.787,163.484 230.954,168.984 228,175.5C 223.398,182.06 217.231,186.56 209.5,189C 214.262,197.251 219.929,204.751 226.5,211.5C 228,212.625 229.333,213.959 230.5,215.5C 232.346,218.478 234.68,221.145 237.5,223.5C 237.833,223.333 238.167,223.167 238.5,223C 236.266,221.362 234.933,219.195 234.5,216.5C 236.415,216.216 238.081,216.549 239.5,217.5C 242.55,219.549 244.883,222.216 246.5,225.5C 247.362,230.813 247.529,236.146 247,241.5C 245.018,248.425 243.518,255.425 242.5,262.5C 240.672,265.135 239.505,268.135 239,271.5C 238.329,270.748 237.496,270.414 236.5,270.5C 235.089,268.086 233.089,266.419 230.5,265.5C 227.103,261.437 224.103,257.104 221.5,252.5C 221.029,250.421 220.363,248.421 219.5,246.5C 218.461,235.406 220.794,234.573 226.5,244C 227.167,244.667 227.833,244.667 228.5,244C 226.302,240.977 223.969,238.144 221.5,235.5C 214.168,226.002 205.668,217.669 196,210.5C 195.333,209.5 195.333,208.5 196,207.5C 199.084,204.643 201.084,201.309 202,197.5C 198.833,203.333 194.333,207.833 188.5,211C 171.693,220.309 154.026,222.476 135.5,217.5C 130.38,209.183 123.046,205.683 113.5,207C 112.944,207.383 112.611,207.883 112.5,208.5C 110.906,208.92 109.406,209.586 108,210.5C 100.496,205.653 95.1623,198.986 92,190.5C 92.7649,195.055 94.4316,199.388 97,203.5C 100.016,206.349 102.85,209.349 105.5,212.5C 101.555,213.491 97.5546,213.824 93.5,213.5C 79.1886,211.925 68.3553,204.925 61,192.5C 58.0481,181.807 60.8815,172.973 69.5,166C 78.7691,161.207 87.9358,161.374 97,166.5C 97.3899,175.114 100.89,182.281 107.5,188C 112.954,190.693 118.621,191.193 124.5,189.5C 139.302,184.875 146.468,174.875 146,159.5C 144.353,154.844 141.52,151.011 137.5,148C 134.961,147.204 132.628,147.371 130.5,148.5C 126.513,150.305 125.013,153.305 126,157.5C 126.951,151.386 130.451,149.053 136.5,150.5C 139.112,151.277 140.945,152.944 142,155.5C 145.045,176.966 135.545,187.299 113.5,186.5C 108.239,184.408 104.406,180.741 102,175.5C 99.7084,170.899 100.042,166.566 103,162.5C 109.692,158.641 114.859,153.308 118.5,146.5C 117.645,145.707 116.811,146.04 116,147.5C 112.197,144.425 109.364,145.092 107.5,149.5C 107.939,151.104 108.606,152.604 109.5,154C 108.387,155.394 107.053,156.561 105.5,157.5C 104.794,151.448 104.127,145.448 103.5,139.5C 102.192,135.224 101.192,130.89 100.5,126.5C 102.191,125.136 103.858,123.803 105.5,122.5C 118.526,108.07 134.359,98.0696 153,92.5C 154.226,92.6448 155.393,92.9781 156.5,93.5C 157.506,93.0623 157.506,92.3957 156.5,91.5C 160.302,89.6766 164.302,88.6766 168.5,88.5 Z"/></g>
<g><path style="opacity:1" fill="#8d6328" d="M 304.5,87.5 C 308.099,88.3439 311.766,88.6773 315.5,88.5C 312.36,89.6408 309.027,89.8075 305.5,89C 304.944,88.6174 304.611,88.1174 304.5,87.5 Z"/></g>
<g><path style="opacity:0.998" fill="#17130e" d="M 298.5,39.5 C 310.731,47.3959 322.397,56.0626 333.5,65.5C 333.833,65.5 334.167,65.5 334.5,65.5C 337.101,69.7706 340.434,73.4372 344.5,76.5C 346.219,80.6117 348.886,83.945 352.5,86.5C 352.351,87.552 352.517,88.552 353,89.5C 360.621,99.761 367.454,110.428 373.5,121.5C 375.967,130.398 379.133,139.065 383,147.5C 393.922,182.698 396.422,218.532 390.5,255C 390.57,255.765 390.903,256.265 391.5,256.5C 391.5,257.167 391.5,257.833 391.5,258.5C 389.52,259.848 388.353,261.848 388,264.5C 387.1,269.403 385.933,274.236 384.5,279C 384.57,279.765 384.903,280.265 385.5,280.5C 385.5,280.833 385.5,281.167 385.5,281.5C 383.194,285.085 381.861,289.085 381.5,293.5C 381.5,293.833 381.5,294.167 381.5,294.5C 377.636,299.937 374.969,305.937 373.5,312.5C 371.273,313.401 370.273,315.067 370.5,317.5C 366.113,322.583 362.447,328.249 359.5,334.5C 354.571,339.28 350.071,344.613 346,350.5C 335.564,361.774 324.398,372.108 312.5,381.5C 304.833,385.5 297.166,389.5 289.5,393.5C 287.679,394.728 286.679,396.394 286.5,398.5C 285.5,400.167 284.167,401.5 282.5,402.5C 277.811,405.128 272.811,407.295 267.5,409C 264.833,409.333 262.167,409.667 259.5,410C 249.326,409.524 239.16,409.69 229,410.5C 223.981,410.12 219.148,409.454 214.5,408.5C 220.842,408.666 227.175,408.5 233.5,408C 230.211,405.522 226.544,403.856 222.5,403C 221.29,401.961 220.29,400.794 219.5,399.5C 217.795,397.808 215.795,396.475 213.5,395.5C 202.494,388.801 195.16,379.135 191.5,366.5C 191.409,364.302 192.075,363.969 193.5,365.5C 205.15,385.963 222.483,399.13 245.5,405C 266.291,408.599 281.957,401.433 292.5,383.5C 293.167,383.5 293.5,383.833 293.5,384.5C 291.807,386.86 292.14,388.36 294.5,389C 319.867,373.301 341.033,353.135 358,328.5C 394.279,265.347 399.279,199.68 373,131.5C 361.837,102.468 344.337,78.135 320.5,58.5C 319.798,57.8843 318.798,57.8843 317.5,58.5C 310.433,52.0918 303.099,46.0918 295.5,40.5C 296.209,39.596 297.209,39.2627 298.5,39.5 Z"/></g>
<g><path style="opacity:1" fill="#1e1d1c" d="M 161.5,87.5 C 164.059,87.1984 166.393,87.5318 168.5,88.5C 164.302,88.6766 160.302,89.6766 156.5,91.5C 157.506,92.3957 157.506,93.0623 156.5,93.5C 155.393,92.9781 154.226,92.6448 153,92.5C 134.359,98.0696 118.526,108.07 105.5,122.5C 104.508,122.672 103.842,122.338 103.5,121.5C 104.861,119.473 106.527,117.806 108.5,116.5C 109.404,115.791 109.737,114.791 109.5,113.5C 110.791,113.737 111.791,113.404 112.5,112.5C 115.871,109.129 119.537,106.129 123.5,103.5C 125.048,103.179 125.715,102.179 125.5,100.5C 127.099,100.768 128.432,100.434 129.5,99.5C 133.808,95.8481 138.808,93.5148 144.5,92.5C 147.575,91.4748 150.575,90.4748 153.5,89.5C 156.115,88.7094 158.782,88.0427 161.5,87.5 Z"/></g>
<g><path style="opacity:1" fill="#464646" d="M 129.5,99.5 C 128.432,100.434 127.099,100.768 125.5,100.5C 125.715,102.179 125.048,103.179 123.5,103.5C 123.804,102.85 124.137,102.183 124.5,101.5C 122.577,100.692 120.577,100.192 118.5,100C 111.167,99.6667 103.833,99.3333 96.5,99C 100.662,98.4589 104.828,97.9589 109,97.5C 115.811,98.4558 122.645,99.1224 129.5,99.5 Z"/></g>
<g><path style="opacity:1" fill="#322e2a" d="M 142.5,99.5 C 152.172,99.3191 158.339,103.986 161,113.5C 161.667,116.167 161.667,118.833 161,121.5C 160.011,115.875 157.845,110.708 154.5,106C 148.289,101.236 142.456,101.736 137,107.5C 136.08,110.938 134.413,113.938 132,116.5C 129.802,122.761 127.802,129.095 126,135.5C 123.953,142.24 119.453,144.406 112.5,142C 107.928,138.805 105.095,134.638 104,129.5C 106.501,133.534 109.668,136.867 113.5,139.5C 114.408,138.21 114.241,136.877 113,135.5C 112.333,132.5 112.333,129.5 113,126.5C 113.665,131.322 114.832,135.988 116.5,140.5C 118.604,140.799 120.604,140.466 122.5,139.5C 125.102,129.326 128.269,119.326 132,109.5C 134.896,105.344 138.396,102.01 142.5,99.5 Z"/></g>
<g><path style="opacity:0.78" fill="#5f5f5f" d="M 352.5,86.5 C 361.524,96.8785 368.524,108.545 373.5,121.5C 367.454,110.428 360.621,99.761 353,89.5C 352.517,88.552 352.351,87.552 352.5,86.5 Z"/></g>
<g><path style="opacity:1" fill="#534b44" d="M 161.5,101.5 C 161.897,100.475 162.563,100.308 163.5,101C 167.809,103.963 170.475,107.963 171.5,113C 171.458,114.967 170.958,116.801 170,118.5C 170.291,111.172 167.458,105.505 161.5,101.5 Z"/></g>
<g><path style="opacity:1" fill="#4e4740" d="M 197.5,108.5 C 200.649,108.211 203.649,108.711 206.5,110C 201.874,110.112 197.541,111.279 193.5,113.5C 193.167,113.333 192.833,113.167 192.5,113C 194.24,111.483 195.906,109.983 197.5,108.5 Z"/></g>
<g><path style="opacity:1" fill="#4b4b4b" d="M 112.5,112.5 C 111.791,113.404 110.791,113.737 109.5,113.5C 109.737,114.791 109.404,115.791 108.5,116.5C 108.53,115.503 108.03,114.836 107,114.5C 95.7664,115.635 84.9331,118.302 74.5,122.5C 74.1667,122.167 73.8333,121.833 73.5,121.5C 77.5956,119.219 81.929,117.386 86.5,116C 95.1614,114.723 103.828,113.556 112.5,112.5 Z"/></g>
<g><path style="opacity:1" fill="#544c44" d="M 198.5,118.5 C 203.801,118.099 208.301,119.766 212,123.5C 212.667,126.167 212.667,128.833 212,131.5C 212.058,122.887 207.891,119.387 199.5,121C 196.833,122.667 194.167,124.333 191.5,126C 183.779,133.721 176.113,141.387 168.5,149C 167.241,149.982 165.908,150.315 164.5,150C 172.833,143 180.5,135.333 187.5,127C 191.067,123.92 194.733,121.087 198.5,118.5 Z"/></g>
<g><path style="opacity:0.541" fill="#6b6b6b" d="M 45.5,128.5 C 41.9522,126.48 38.1189,125.48 34,125.5C 31.7047,125.547 29.8714,126.213 28.5,127.5C 25.4128,132.678 22.0794,137.678 18.5,142.5C 20.7946,135.91 24.1279,129.91 28.5,124.5C 34.9396,122.861 40.6063,124.194 45.5,128.5 Z"/></g>
<g><path style="opacity:0.745" fill="#4a453c" d="M 45.5,128.5 C 51.263,131.335 54.5963,136.002 55.5,142.5C 55.1583,143.338 54.4916,143.672 53.5,143.5C 53.5,142.833 53.1667,142.5 52.5,142.5C 52.628,140.345 52.128,138.345 51,136.5C 46.4752,130.794 40.6418,127.461 33.5,126.5C 31.6672,126.585 30.3339,127.252 29.5,128.5C 28.8333,128.5 28.5,128.167 28.5,127.5C 29.8714,126.213 31.7047,125.547 34,125.5C 38.1189,125.48 41.9522,126.48 45.5,128.5 Z"/></g>
<g><path style="opacity:0.999" fill="#040403" d="M 28.5,127.5 C 28.5,128.167 28.8333,128.5 29.5,128.5C 34.2115,138.022 41.8782,142.689 52.5,142.5C 53.1667,142.5 53.5,142.833 53.5,143.5C 51.6249,146.588 50.2915,149.922 49.5,153.5C 48.5084,153.328 47.8417,153.662 47.5,154.5C 46.0687,155.78 45.4021,157.447 45.5,159.5C 36.5819,171.295 27.0819,171.295 17,159.5C 15.7428,157.487 14.9095,155.321 14.5,153C 15.9378,149.517 17.2712,146.017 18.5,142.5C 22.0794,137.678 25.4128,132.678 28.5,127.5 Z"/></g>
<g><path style="opacity:1" fill="#403f3f" d="M 103.5,121.5 C 103.842,122.338 104.508,122.672 105.5,122.5C 103.858,123.803 102.191,125.136 100.5,126.5C 99.8485,127.091 99.1818,127.757 98.5,128.5C 97.0052,127.295 95.6719,127.295 94.5,128.5C 89.3615,129.877 85.6949,132.877 83.5,137.5C 81.8869,136.308 80.2202,135.308 78.5,134.5C 86.6696,129.915 95.0029,125.581 103.5,121.5 Z"/></g>
<g><path style="opacity:1" fill="#ededed" d="M 94.5,128.5 C 95.2389,128.369 95.9056,128.536 96.5,129C 95.5494,129.718 95.3828,130.551 96,131.5C 97.1855,129.441 98.3521,129.274 99.5,131C 100.619,134.761 101.286,138.594 101.5,142.5C 100.167,142.5 98.8333,142.5 97.5,142.5C 92.4253,141.962 87.7586,140.295 83.5,137.5C 85.6949,132.877 89.3615,129.877 94.5,128.5 Z"/></g>
<g><path style="opacity:1" fill="#807c78" d="M 100.5,126.5 C 101.192,130.89 102.192,135.224 103.5,139.5C 102.833,140.833 102.167,142.167 101.5,143.5C 100.167,143.5 98.8333,143.5 97.5,143.5C 97.5,143.167 97.5,142.833 97.5,142.5C 98.8333,142.5 100.167,142.5 101.5,142.5C 101.286,138.594 100.619,134.761 99.5,131C 98.3521,129.274 97.1855,129.441 96,131.5C 95.3828,130.551 95.5494,129.718 96.5,129C 95.9056,128.536 95.2389,128.369 94.5,128.5C 95.6719,127.295 97.0052,127.295 98.5,128.5C 99.1818,127.757 99.8485,127.091 100.5,126.5 Z"/></g>
<g><path style="opacity:1" fill="#39332e" d="M 135.5,131.5 C 139.048,131.095 142.381,131.595 145.5,133C 141.126,133.539 136.792,133.872 132.5,134C 133.571,133.148 134.571,132.315 135.5,131.5 Z"/></g>
<g><path style="opacity:1" fill="#1a1715" d="M 190.5,143.5 C 188.265,143.795 186.265,143.461 184.5,142.5C 188.932,134.465 195.598,130.298 204.5,130C 206.013,133.429 205.347,136.429 202.5,139C 198.847,141.385 194.847,142.885 190.5,143.5 Z"/></g>
<g><path style="opacity:1" fill="#dfa4a4" d="M 199.5,130.5 C 201.948,130.01 203.615,130.843 204.5,133C 202.838,136.504 200.171,138.671 196.5,139.5C 196.129,135.997 197.129,132.997 199.5,130.5 Z"/></g>
<g><path style="opacity:1" fill="#19130c" d="M 227.5,111.5 C 229.507,116.854 230.507,122.521 230.5,128.5C 238.255,125.345 245.588,126.178 252.5,131C 260.292,138.66 262.125,147.493 258,157.5C 251.024,165.878 242.191,168.544 231.5,165.5C 231.977,170.742 231.144,175.742 229,180.5C 224.935,185.111 220.102,188.611 214.5,191C 216.597,194.768 219.097,198.268 222,201.5C 246.871,192.094 269.038,196.427 288.5,214.5C 287.833,214.5 287.167,214.5 286.5,214.5C 282.097,212.79 278.097,210.29 274.5,207C 259.253,199.416 243.253,197.416 226.5,201C 224.833,202 223.167,203 221.5,204C 224.2,205.857 225.866,208.357 226.5,211.5C 219.929,204.751 214.262,197.251 209.5,189C 217.231,186.56 223.398,182.06 228,175.5C 230.954,168.984 229.787,163.484 224.5,159C 228.075,160.5 231.742,162.166 235.5,164C 251.964,163.268 258.464,154.768 255,138.5C 248.195,129.174 239.695,127.174 229.5,132.5C 228.833,128.5 228.167,124.5 227.5,120.5C 227.5,120.167 227.5,119.833 227.5,119.5C 228.258,117.019 228.258,114.352 227.5,111.5 Z"/></g>
<g><path style="opacity:1" fill="#6b6258" d="M 227.5,120.5 C 228.167,124.5 228.833,128.5 229.5,132.5C 228.165,134.903 226.498,136.236 224.5,136.5C 227.252,131.593 228.252,126.259 227.5,120.5 Z"/></g>
<g><path style="opacity:1" fill="#c5a359" d="M 52.5,142.5 C 41.8782,142.689 34.2115,138.022 29.5,128.5C 30.3339,127.252 31.6672,126.585 33.5,126.5C 40.6418,127.461 46.4752,130.794 51,136.5C 52.128,138.345 52.628,140.345 52.5,142.5 Z"/></g>
<g><path style="opacity:1" fill="#262014" d="M 34.5,130.5 C 40.5492,131.05 45.5492,134.05 49.5,139.5C 49.1667,139.833 48.8333,140.167 48.5,140.5C 43.4862,137.659 38.8195,134.326 34.5,130.5 Z"/></g>
<g><path style="opacity:1" fill="#8d6736" d="M 355.5,157.5 C 359.637,151.621 358.97,151.121 353.5,156C 350.232,157.213 346.899,157.546 343.5,157C 342.748,156.329 342.414,155.496 342.5,154.5C 341.681,151.695 341.181,148.695 341,145.5C 340.617,146.056 340.117,146.389 339.5,146.5C 343.551,139.313 349.551,137.147 357.5,140C 362.179,144.737 362.679,149.904 359,155.5C 358.184,156.823 357.017,157.489 355.5,157.5 Z"/></g>
<g><path style="opacity:1" fill="#980000" d="M 342.5,154.5 C 341.492,143.002 346.325,139.335 357,143.5C 359.251,147.666 358.417,151.166 354.5,154C 350.466,156.569 346.466,156.736 342.5,154.5 Z"/></g>
<g><path style="opacity:0.027" fill="#6d6d6d" d="M 62.5,122.5 C 62.8333,122.5 63.1667,122.5 63.5,122.5C 63.9195,124.094 64.5862,125.594 65.5,127C 61.888,135.722 57.888,144.222 53.5,152.5C 52.3112,153.429 50.9778,153.762 49.5,153.5C 50.2915,149.922 51.6249,146.588 53.5,143.5C 54.4916,143.672 55.1583,143.338 55.5,142.5C 58.2258,138.054 60.7258,133.387 63,128.5C 63.1805,126.512 63.0138,124.512 62.5,122.5 Z"/></g>
<g><path style="opacity:1" fill="#403a34" d="M 243.5,137.5 C 245.199,137.34 246.866,137.506 248.5,138C 244.828,138.831 241.828,140.665 239.5,143.5C 244.532,145.673 247.365,149.339 248,154.5C 245.435,149.757 241.602,146.757 236.5,145.5C 236.313,147.564 235.813,149.564 235,151.5C 234.333,149.167 234.333,146.833 235,144.5C 237.441,141.546 240.275,139.213 243.5,137.5 Z"/></g>
<g><path style="opacity:0.318" fill="#626262" d="M 18.5,142.5 C 17.2712,146.017 15.9378,149.517 14.5,153C 14.9095,155.321 15.7428,157.487 17,159.5C 27.0819,171.295 36.5819,171.295 45.5,159.5C 47.9674,159.755 49.9674,160.755 51.5,162.5C 50.0278,165.269 48.8611,168.269 48,171.5C 47.4319,178.851 45.9319,185.851 43.5,192.5C 43.4947,182.529 45.1614,172.862 48.5,163.5C 47.3717,162.738 46.2051,162.071 45,161.5C 41.4139,170.206 35.2473,172.706 26.5,169C 21.5733,167.125 17.74,163.958 15,159.5C 11.3102,152.866 12.4768,147.199 18.5,142.5 Z"/></g>
<g><path style="opacity:1" fill="#8e8275" d="M 130.5,148.5 C 132.5,149.167 134.5,149.833 136.5,150.5C 130.451,149.053 126.951,151.386 126,157.5C 125.013,153.305 126.513,150.305 130.5,148.5 Z"/></g>
<g><path style="opacity:1" fill="#c5a359" d="M 47.5,154.5 C 52.497,157.978 57.6637,161.311 63,164.5C 63.4317,165.6 62.9317,166.267 61.5,166.5C 60.1508,166.154 58.8175,165.821 57.5,165.5C 55.9674,163.755 53.9674,162.755 51.5,162.5C 49.9674,160.755 47.9674,159.755 45.5,159.5C 45.4021,157.447 46.0687,155.78 47.5,154.5 Z"/></g>
<g><path style="opacity:1" fill="#4f4841" d="M 184.5,142.5 C 186.265,143.461 188.265,143.795 190.5,143.5C 188.708,144.309 186.708,144.809 184.5,145C 176.279,155.442 165.613,161.108 152.5,162C 160.015,160.163 167.015,157.163 173.5,153C 177.036,149.296 180.702,145.796 184.5,142.5 Z"/></g>
<g><path style="opacity:1" fill="#332f2a" d="M 124.5,189.5 C 124.918,188.778 125.584,188.278 126.5,188C 121.981,187.825 117.647,187.325 113.5,186.5C 135.545,187.299 145.045,176.966 142,155.5C 140.945,152.944 139.112,151.277 136.5,150.5C 134.5,149.833 132.5,149.167 130.5,148.5C 132.628,147.371 134.961,147.204 137.5,148C 141.52,151.011 144.353,154.844 146,159.5C 146.468,174.875 139.302,184.875 124.5,189.5 Z"/></g>
<g><path style="opacity:1" fill="#322514" d="M 342.5,154.5 C 342.414,155.496 342.748,156.329 343.5,157C 346.899,157.546 350.232,157.213 353.5,156C 358.97,151.121 359.637,151.621 355.5,157.5C 355.158,158.338 354.492,158.672 353.5,158.5C 349.818,158.665 346.152,158.499 342.5,158C 341.627,156.955 340.627,156.122 339.5,155.5C 338.167,152.5 338.167,149.5 339.5,146.5C 340.117,146.389 340.617,146.056 341,145.5C 341.181,148.695 341.681,151.695 342.5,154.5 Z"/></g>
<g><path style="opacity:1" fill="#815b28" d="M 339.5,155.5 C 340.627,156.122 341.627,156.955 342.5,158C 346.152,158.499 349.818,158.665 353.5,158.5C 349.721,160.95 345.721,161.117 341.5,159C 340.177,158.184 339.511,157.017 339.5,155.5 Z"/></g>
<g><path style="opacity:1" fill="#1c1712" d="M 65.5,121.5 C 68.8059,126.806 73.1393,131.139 78.5,134.5C 80.2202,135.308 81.8869,136.308 83.5,137.5C 87.7586,140.295 92.4253,141.962 97.5,142.5C 97.5,142.833 97.5,143.167 97.5,143.5C 91.0172,143.004 84.8505,141.338 79,138.5C 77.0434,139.884 76.0434,139.217 76,136.5C 73.0211,134.356 70.1878,132.022 67.5,129.5C 63.3797,138.243 59.3797,147.077 55.5,156C 57.7695,159.561 60.9362,162.061 65,163.5C 73.9701,157.742 83.3035,157.076 93,161.5C 95.2621,157.543 97.4287,153.543 99.5,149.5C 98.6736,153.813 97.3403,157.98 95.5,162C 95.6135,163.28 96.2801,164.113 97.5,164.5C 98.9905,162.874 100.49,161.208 102,159.5C 102.733,154.115 102.567,148.782 101.5,143.5C 102.167,142.167 102.833,140.833 103.5,139.5C 104.127,145.448 104.794,151.448 105.5,157.5C 107.053,156.561 108.387,155.394 109.5,154C 108.606,152.604 107.939,151.104 107.5,149.5C 109.364,145.092 112.197,144.425 116,147.5C 116.811,146.04 117.645,145.707 118.5,146.5C 114.859,153.308 109.692,158.641 103,162.5C 100.042,166.566 99.7084,170.899 102,175.5C 104.406,180.741 108.239,184.408 113.5,186.5C 117.647,187.325 121.981,187.825 126.5,188C 125.584,188.278 124.918,188.778 124.5,189.5C 118.621,191.193 112.954,190.693 107.5,188C 100.89,182.281 97.3899,175.114 97,166.5C 87.9358,161.374 78.7691,161.207 69.5,166C 60.8815,172.973 58.0481,181.807 61,192.5C 68.3553,204.925 79.1886,211.925 93.5,213.5C 96.1667,214.167 98.8333,214.833 101.5,215.5C 101.167,215.5 100.833,215.5 100.5,215.5C 94.7969,215.625 89.1302,215.292 83.5,214.5C 82.3052,214.322 81.1385,213.989 80,213.5C 78.9701,213.836 78.4701,214.503 78.5,215.5C 78.6716,216.492 78.3382,217.158 77.5,217.5C 75.8368,215.507 74.6701,213.174 74,210.5C 69.6667,206.833 65.3333,203.167 61,199.5C 55.2542,189.398 55.0875,179.231 60.5,169C 59.4558,167.826 58.4558,166.659 57.5,165.5C 58.8175,165.821 60.1508,166.154 61.5,166.5C 62.9317,166.267 63.4317,165.6 63,164.5C 57.6637,161.311 52.497,157.978 47.5,154.5C 47.8417,153.662 48.5084,153.328 49.5,153.5C 50.9778,153.762 52.3112,153.429 53.5,152.5C 57.888,144.222 61.888,135.722 65.5,127C 64.5862,125.594 63.9195,124.094 63.5,122.5C 64.9245,124.031 65.5912,123.698 65.5,121.5 Z"/></g>
<g><path style="opacity:1" fill="#4c2e04" d="M 97.5,143.5 C 98.8333,143.5 100.167,143.5 101.5,143.5C 102.567,148.782 102.733,154.115 102,159.5C 100.49,161.208 98.9905,162.874 97.5,164.5C 96.2801,164.113 95.6135,163.28 95.5,162C 97.3403,157.98 98.6736,153.813 99.5,149.5C 100.038,147.883 100.371,146.216 100.5,144.5C 99.209,144.737 98.209,144.404 97.5,143.5 Z"/></g>
<g><path style="opacity:1" fill="#006598" d="M 97.5,143.5 C 98.209,144.404 99.209,144.737 100.5,144.5C 100.371,146.216 100.038,147.883 99.5,149.5C 97.4287,153.543 95.2621,157.543 93,161.5C 83.3035,157.076 73.9701,157.742 65,163.5C 60.9362,162.061 57.7695,159.561 55.5,156C 59.3797,147.077 63.3797,138.243 67.5,129.5C 70.1878,132.022 73.0211,134.356 76,136.5C 76.0434,139.217 77.0434,139.884 79,138.5C 84.8505,141.338 91.0172,143.004 97.5,143.5 Z"/></g>
<g><path style="opacity:0.998" fill="#15110d" d="M 51.5,162.5 C 53.9674,162.755 55.9674,163.755 57.5,165.5C 56.1667,165.5 54.8333,165.5 53.5,165.5C 41.7531,218.482 48.5865,268.815 74,316.5C 80.9445,326.713 88.6112,336.379 97,345.5C 103.756,352.761 110.922,359.428 118.5,365.5C 118.833,366.833 119.167,368.167 119.5,369.5C 114.871,366.841 110.538,363.674 106.5,360C 101.64,353.806 96.1395,348.306 90,343.5C 85,337.167 80,330.833 75,324.5C 71.2884,317.156 67.1217,310.156 62.5,303.5C 58.4421,290.434 53.9421,277.434 49,264.5C 48.7205,260.541 47.8872,256.708 46.5,253C 46.1639,251.97 45.4972,251.47 44.5,251.5C 44.5,251.167 44.5,250.833 44.5,250.5C 45.1627,248.527 45.4961,246.361 45.5,244C 45.4668,241.39 44.8001,239.223 43.5,237.5C 43.5,237.167 43.5,236.833 43.5,236.5C 44.0614,235.092 44.3948,233.592 44.5,232C 43.9531,224.338 43.2864,216.838 42.5,209.5C 42.2598,203.773 42.5931,198.106 43.5,192.5C 45.9319,185.851 47.4319,178.851 48,171.5C 48.8611,168.269 50.0278,165.269 51.5,162.5 Z"/></g>
<g><path style="opacity:1" fill="#006699" d="M 57.5,165.5 C 58.4558,166.659 59.4558,167.826 60.5,169C 55.0875,179.231 55.2542,189.398 61,199.5C 65.3333,203.167 69.6667,206.833 74,210.5C 74.6701,213.174 75.8368,215.507 77.5,217.5C 77.6079,219.783 78.4412,221.783 80,223.5C 83.6475,227.982 87.4808,232.315 91.5,236.5C 90.1565,238.529 88.8231,240.529 87.5,242.5C 68.8512,276.775 73.8512,307.275 102.5,334C 111.444,340.603 121.111,345.937 131.5,350C 130.414,361.915 135.747,366.915 147.5,365C 148.056,364.617 148.389,364.117 148.5,363.5C 149.496,363.586 150.329,363.252 151,362.5C 151.97,359.556 152.804,356.556 153.5,353.5C 156.98,353.146 159.98,351.813 162.5,349.5C 168.783,358.564 177.116,361.064 187.5,357C 188.616,360.353 189.949,363.52 191.5,366.5C 195.16,379.135 202.494,388.801 213.5,395.5C 207.655,398.54 201.321,399.874 194.5,399.5C 186.957,399.52 179.624,398.354 172.5,396C 162.715,391.941 153.048,387.608 143.5,383C 136.167,378.333 128.833,373.667 121.5,369C 120.837,367.482 119.837,366.315 118.5,365.5C 110.922,359.428 103.756,352.761 97,345.5C 88.6112,336.379 80.9445,326.713 74,316.5C 48.5865,268.815 41.7531,218.482 53.5,165.5C 54.8333,165.5 56.1667,165.5 57.5,165.5 Z"/></g>
<g><path style="opacity:0.531" fill="#696969" d="M 373.5,121.5 C 390.968,156.342 398.134,193.342 395,232.5C 394.06,240.582 392.893,248.582 391.5,256.5C 390.903,256.265 390.57,255.765 390.5,255C 396.422,218.532 393.922,182.698 383,147.5C 379.133,139.065 375.967,130.398 373.5,121.5 Z"/></g>
<g><path style="opacity:1" fill="#2a54f4" d="M 286.5,214.5 C 287.72,216.282 288.386,218.282 288.5,220.5C 285.309,221.092 282.309,222.259 279.5,224C 270.833,229 262.167,234 253.5,239C 251.866,239.494 250.199,239.66 248.5,239.5C 248.665,235.818 248.499,232.152 248,228.5C 247.768,227.263 247.268,226.263 246.5,225.5C 246.253,220.924 243.919,218.257 239.5,217.5C 238.081,216.549 236.415,216.216 234.5,216.5C 233.041,216.567 231.708,216.234 230.5,215.5C 229.333,213.959 228,212.625 226.5,211.5C 225.866,208.357 224.2,205.857 221.5,204C 223.167,203 224.833,202 226.5,201C 243.253,197.416 259.253,199.416 274.5,207C 278.097,210.29 282.097,212.79 286.5,214.5 Z"/></g>
<g><path style="opacity:1" fill="#fae1c8" d="M 112.5,209.5 C 124.405,209.541 133.239,214.875 139,225.5C 138.737,224.049 138.904,222.716 139.5,221.5C 146.683,223.6 154.016,224.933 161.5,225.5C 158.809,229.185 156.142,232.852 153.5,236.5C 147.593,234.077 147.259,234.744 152.5,238.5C 159.539,245.249 164.539,253.249 167.5,262.5C 168.259,267.43 169.592,272.097 171.5,276.5C 174.658,296.626 170.492,314.96 159,331.5C 155.088,336.083 150.588,339.917 145.5,343C 146.5,343.667 147.5,343.667 148.5,343C 152.012,340.743 155.346,338.243 158.5,335.5C 159.8,338.566 160.8,341.733 161.5,345C 161.245,346.326 160.578,347.326 159.5,348C 156.471,348.785 153.638,349.951 151,351.5C 150.228,351.355 149.561,351.022 149,350.5C 149.815,352.431 150.315,354.598 150.5,357C 150.518,359.41 149.851,361.577 148.5,363.5C 137.241,364.908 132.241,359.908 133.5,348.5C 116.978,340.976 103.145,329.976 92,315.5C 78.1654,292.142 76.9987,268.142 88.5,243.5C 90.3606,240.978 92.3606,238.478 94.5,236C 87.4268,230.438 82.0934,223.605 78.5,215.5C 78.4701,214.503 78.9701,213.836 80,213.5C 81.1385,213.989 82.3052,214.322 83.5,214.5C 86.5256,216.019 89.8589,216.685 93.5,216.5C 96.0254,216.497 98.3587,216.163 100.5,215.5C 100.833,215.5 101.167,215.5 101.5,215.5C 102.496,215.586 103.329,215.252 104,214.5C 104.167,215 104.333,215.5 104.5,216C 103.496,217.798 102.996,219.632 103,221.5C 104.586,219.33 105.92,216.996 107,214.5C 109.191,213.167 111.024,211.5 112.5,209.5 Z"/></g>
<g><path style="opacity:1" fill="#cbaf68" d="M 196.5,213.5 C 192.906,217.951 189.406,222.617 186,227.5C 180.515,241.385 179.015,255.718 181.5,270.5C 181.56,274.485 179.56,276.152 175.5,275.5C 172.572,262.643 166.739,251.31 158,241.5C 157.333,240.167 157.333,238.833 158,237.5C 160.374,233.25 162.874,229.084 165.5,225C 176.035,222.899 185.368,218.399 193.5,211.5C 194.518,212.193 195.518,212.859 196.5,213.5 Z"/></g>
<g><path style="opacity:1" fill="#49433c" d="M 112.5,208.5 C 112.5,208.833 112.5,209.167 112.5,209.5C 111.024,211.5 109.191,213.167 107,214.5C 105.92,216.996 104.586,219.33 103,221.5C 102.996,219.632 103.496,217.798 104.5,216C 104.333,215.5 104.167,215 104,214.5C 103.329,215.252 102.496,215.586 101.5,215.5C 98.8333,214.833 96.1667,214.167 93.5,213.5C 97.5546,213.824 101.555,213.491 105.5,212.5C 102.85,209.349 100.016,206.349 97,203.5C 94.4316,199.388 92.7649,195.055 92,190.5C 95.1623,198.986 100.496,205.653 108,210.5C 109.406,209.586 110.906,208.92 112.5,208.5 Z"/></g>
<g><path style="opacity:1" fill="#0b0503" d="M 286.5,214.5 C 287.167,214.5 287.833,214.5 288.5,214.5C 298.677,222.333 305.677,232.333 309.5,244.5C 309.5,245.167 309.167,245.5 308.5,245.5C 306.967,241.076 304.467,237.41 301,234.5C 282.807,239.342 264.973,245.176 247.5,252C 245.912,255.628 244.246,259.128 242.5,262.5C 243.518,255.425 245.018,248.425 247,241.5C 247.529,236.146 247.362,230.813 246.5,225.5C 247.268,226.263 247.768,227.263 248,228.5C 248.499,232.152 248.665,235.818 248.5,239.5C 250.199,239.66 251.866,239.494 253.5,239C 262.167,234 270.833,229 279.5,224C 282.309,222.259 285.309,221.092 288.5,220.5C 288.386,218.282 287.72,216.282 286.5,214.5 Z"/></g>
<g><path style="opacity:1" fill="#98897b" d="M 83.5,214.5 C 89.1302,215.292 94.7969,215.625 100.5,215.5C 98.3587,216.163 96.0254,216.497 93.5,216.5C 89.8589,216.685 86.5256,216.019 83.5,214.5 Z"/></g>
<g><path style="opacity:1" fill="#2a54f4" d="M 199.5,216.5 C 205.465,221.964 211.298,227.63 217,233.5C 216.44,238.794 216.607,244.128 217.5,249.5C 206.812,250.727 196.145,252.393 185.5,254.5C 184.558,254.392 183.725,254.059 183,253.5C 182.714,241.693 186.047,231.026 193,221.5C 194.777,219.21 196.944,217.543 199.5,216.5 Z"/></g>
<g><path style="opacity:1" fill="#71675d" d="M 230.5,215.5 C 231.708,216.234 233.041,216.567 234.5,216.5C 234.933,219.195 236.266,221.362 238.5,223C 238.167,223.167 237.833,223.333 237.5,223.5C 234.68,221.145 232.346,218.478 230.5,215.5 Z"/></g>
<g><path style="opacity:1" fill="#7c5c2f" d="M 364.5,237.5 C 365.028,236.153 365.195,234.819 365,233.5C 363.736,235.607 361.903,236.607 359.5,236.5C 357.031,237.317 354.365,237.817 351.5,238C 352.056,238.383 352.389,238.883 352.5,239.5C 348.335,238.079 346.335,235.079 346.5,230.5C 349.18,218.907 355.68,215.907 366,221.5C 369.662,227.341 369.162,232.674 364.5,237.5 Z"/></g>
<g><path style="opacity:1" fill="#1a1614" d="M 239.5,217.5 C 243.919,218.257 246.253,220.924 246.5,225.5C 244.883,222.216 242.55,219.549 239.5,217.5 Z"/></g>
<g><path style="opacity:1" fill="#9a0102" d="M 359.5,236.5 C 350.305,236.771 347.805,232.771 352,224.5C 356.406,220.577 360.739,220.577 365,224.5C 366.127,229.911 364.293,233.911 359.5,236.5 Z"/></g>
<g><path style="opacity:1" fill="#3d3021" d="M 78.5,215.5 C 82.0934,223.605 87.4268,230.438 94.5,236C 92.3606,238.478 90.3606,240.978 88.5,243.5C 88.5,242.833 88.1667,242.5 87.5,242.5C 88.8231,240.529 90.1565,238.529 91.5,236.5C 87.4808,232.315 83.6475,227.982 80,223.5C 78.4412,221.783 77.6079,219.783 77.5,217.5C 78.3382,217.158 78.6716,216.492 78.5,215.5 Z"/></g>
<g><path style="opacity:1" fill="#876333" d="M 79.5,240.5 C 79.6646,237.482 79.498,234.482 79,231.5C 78.9016,234.522 78.0682,237.189 76.5,239.5C 78.9377,229.442 75.271,226.275 65.5,230C 60.573,236.334 61.9064,240.834 69.5,243.5C 71.0754,242.544 72.742,241.877 74.5,241.5C 72.9255,243.941 70.5921,245.107 67.5,245C 70.146,245.497 72.8127,245.664 75.5,245.5C 70.3803,247.932 65.7136,246.932 61.5,242.5C 57.4806,234.751 59.4806,229.251 67.5,226C 75.4093,224.451 80.076,227.618 81.5,235.5C 80.9724,237.336 80.3058,239.003 79.5,240.5 Z"/></g>
<g><path style="opacity:1" fill="#990001" d="M 76.5,239.5 C 75.5,239.833 74.8333,240.5 74.5,241.5C 72.742,241.877 71.0754,242.544 69.5,243.5C 61.9064,240.834 60.573,236.334 65.5,230C 75.271,226.275 78.9377,229.442 76.5,239.5 Z"/></g>
<g><path style="opacity:0.546" fill="#7d7d7d" d="M 42.5,209.5 C 43.2864,216.838 43.9531,224.338 44.5,232C 44.3948,233.592 44.0614,235.092 43.5,236.5C 41.7015,227.532 41.3681,218.532 42.5,209.5 Z"/></g>
<g><path style="opacity:1" fill="#2a54f3" d="M 308.5,245.5 C 309.361,247.386 310.361,249.22 311.5,251C 305.652,251.173 299.985,251.673 294.5,252.5C 283.904,254.196 273.571,257.029 263.5,261C 255.78,264.86 248.114,268.693 240.5,272.5C 240.959,269.123 241.626,265.789 242.5,262.5C 244.246,259.128 245.912,255.628 247.5,252C 264.973,245.176 282.807,239.342 301,234.5C 304.467,237.41 306.967,241.076 308.5,245.5 Z"/></g>
<g><path style="opacity:1" fill="#7f7569" d="M 153.5,236.5 C 153.167,237.167 152.833,237.833 152.5,238.5C 147.259,234.744 147.593,234.077 153.5,236.5 Z"/></g>
<g><path style="opacity:1" fill="#352715" d="M 364.5,237.5 C 362.973,237.427 361.973,238.094 361.5,239.5C 358.5,240.833 355.5,240.833 352.5,239.5C 352.389,238.883 352.056,238.383 351.5,238C 354.365,237.817 357.031,237.317 359.5,236.5C 361.903,236.607 363.736,235.607 365,233.5C 365.195,234.819 365.028,236.153 364.5,237.5 Z"/></g>
<g><path style="opacity:0.831" fill="#575757" d="M 43.5,237.5 C 44.8001,239.223 45.4668,241.39 45.5,244C 45.4961,246.361 45.1627,248.527 44.5,250.5C 43.7051,246.215 43.3718,241.881 43.5,237.5 Z"/></g>
<g><path style="opacity:1" fill="#ad7b32" d="M 364.5,237.5 C 364.027,238.906 363.027,239.573 361.5,239.5C 361.973,238.094 362.973,237.427 364.5,237.5 Z"/></g>
<g><path style="opacity:1" fill="#7d7368" d="M 221.5,235.5 C 223.969,238.144 226.302,240.977 228.5,244C 227.833,244.667 227.167,244.667 226.5,244C 220.794,234.573 218.461,235.406 219.5,246.5C 218.521,243.375 218.187,240.042 218.5,236.5C 219.791,236.737 220.791,236.404 221.5,235.5 Z"/></g>
<g><path style="opacity:1" fill="#3d2d18" d="M 79.5,240.5 C 78.9202,242.749 77.5869,244.415 75.5,245.5C 72.8127,245.664 70.146,245.497 67.5,245C 70.5921,245.107 72.9255,243.941 74.5,241.5C 74.8333,240.5 75.5,239.833 76.5,239.5C 78.0682,237.189 78.9016,234.522 79,231.5C 79.498,234.482 79.6646,237.482 79.5,240.5 Z"/></g>
<g><path style="opacity:1" fill="#0d0603" d="M 196.5,213.5 C 197.5,214.5 198.5,215.5 199.5,216.5C 196.944,217.543 194.777,219.21 193,221.5C 186.047,231.026 182.714,241.693 183,253.5C 183.725,254.059 184.558,254.392 185.5,254.5C 196.145,252.393 206.812,250.727 217.5,249.5C 218.117,249.389 218.617,249.056 219,248.5C 219.2,250.32 220.034,251.653 221.5,252.5C 224.103,257.104 227.103,261.437 230.5,265.5C 228.37,263.873 226.37,262.04 224.5,260C 221.833,259.333 219.167,259.333 216.5,260C 207.177,263.327 197.843,266.66 188.5,270C 186.416,270.697 184.749,271.864 183.5,273.5C 182.668,273.246 182.001,272.246 181.5,270.5C 179.015,255.718 180.515,241.385 186,227.5C 189.406,222.617 192.906,217.951 196.5,213.5 Z"/></g>
<g><path style="opacity:1" fill="#251b0f" d="M 320.5,58.5 C 327.317,66.7719 334.15,75.1052 341,83.5C 370.686,126.575 383.019,174.241 378,226.5C 374.71,281.105 353.71,327.438 315,365.5C 313.28,372.613 308.78,375.613 301.5,374.5C 300.957,374.44 300.624,374.107 300.5,373.5C 302.969,372.832 305.302,372.165 307.5,371.5C 311.295,368.05 312.461,363.716 311,358.5C 310.167,356.333 308.667,354.833 306.5,354C 303.833,353.667 301.167,353.333 298.5,353C 300.215,352.223 301.215,350.89 301.5,349C 300.784,346.208 300.451,343.374 300.5,340.5C 300.338,338.473 300.505,336.473 301,334.5C 301.21,336.058 301.71,337.391 302.5,338.5C 302.918,339.222 303.584,339.722 304.5,340C 303.484,340.519 302.818,341.353 302.5,342.5C 303.108,345.145 303.608,347.812 304,350.5C 310.239,351.571 314.072,355.237 315.5,361.5C 323.573,353.929 330.739,345.595 337,336.5C 379.708,267.794 387.041,195.461 359,119.5C 348.619,96.7123 334.786,76.3789 317.5,58.5C 318.798,57.8843 319.798,57.8843 320.5,58.5 Z"/></g>
<g><path style="opacity:1" fill="#391c0d" d="M 309.5,244.5 C 310.787,247.075 312.121,249.741 313.5,252.5C 311.369,253.169 309.369,253.835 307.5,254.5C 303.486,252.666 299.153,251.999 294.5,252.5C 299.985,251.673 305.652,251.173 311.5,251C 310.361,249.22 309.361,247.386 308.5,245.5C 309.167,245.5 309.5,245.167 309.5,244.5 Z"/></g>
<g><path style="opacity:1" fill="#231e1a" d="M 221.5,235.5 C 220.791,236.404 219.791,236.737 218.5,236.5C 218.187,240.042 218.521,243.375 219.5,246.5C 220.363,248.421 221.029,250.421 221.5,252.5C 220.034,251.653 219.2,250.32 219,248.5C 218.617,249.056 218.117,249.389 217.5,249.5C 216.607,244.128 216.44,238.794 217,233.5C 211.298,227.63 205.465,221.964 199.5,216.5C 198.5,215.5 197.5,214.5 196.5,213.5C 195.518,212.859 194.518,212.193 193.5,211.5C 185.368,218.399 176.035,222.899 165.5,225C 162.874,229.084 160.374,233.25 158,237.5C 157.333,238.833 157.333,240.167 158,241.5C 166.739,251.31 172.572,262.643 175.5,275.5C 179.56,276.152 181.56,274.485 181.5,270.5C 182.001,272.246 182.668,273.246 183.5,273.5C 187.782,274.725 192.116,275.892 196.5,277C 197.942,277.377 198.942,278.21 199.5,279.5C 198.209,279.263 197.209,279.596 196.5,280.5C 194.745,279.928 193.078,279.094 191.5,278C 186.511,277.501 181.511,277.334 176.5,277.5C 176.5,279.833 176.5,282.167 176.5,284.5C 187.857,286.025 194.357,292.359 196,303.5C 192.724,294.053 186.224,288.386 176.5,286.5C 176.528,291.862 176.194,297.195 175.5,302.5C 181.531,304.034 185.365,307.701 187,313.5C 184.131,310.296 180.965,307.463 177.5,305C 176.365,304.251 175.365,304.417 174.5,305.5C 173.133,310.435 171.466,315.268 169.5,320C 171.152,322.323 172.819,324.656 174.5,327C 172.167,326 169.833,325 167.5,324C 165.667,326.5 163.833,329 162,331.5C 161.614,341.686 165.447,349.853 173.5,356C 178.327,356.884 182.994,356.384 187.5,354.5C 190.256,357.673 192.256,361.34 193.5,365.5C 192.075,363.969 191.409,364.302 191.5,366.5C 189.949,363.52 188.616,360.353 187.5,357C 177.116,361.064 168.783,358.564 162.5,349.5C 159.98,351.813 156.98,353.146 153.5,353.5C 152.804,356.556 151.97,359.556 151,362.5C 150.329,363.252 149.496,363.586 148.5,363.5C 149.851,361.577 150.518,359.41 150.5,357C 150.315,354.598 149.815,352.431 149,350.5C 149.561,351.022 150.228,351.355 151,351.5C 153.638,349.951 156.471,348.785 159.5,348C 160.578,347.326 161.245,346.326 161.5,345C 160.8,341.733 159.8,338.566 158.5,335.5C 155.346,338.243 152.012,340.743 148.5,343C 147.5,343.667 146.5,343.667 145.5,343C 150.588,339.917 155.088,336.083 159,331.5C 170.492,314.96 174.658,296.626 171.5,276.5C 171.15,271.46 169.816,266.794 167.5,262.5C 164.539,253.249 159.539,245.249 152.5,238.5C 152.833,237.833 153.167,237.167 153.5,236.5C 156.142,232.852 158.809,229.185 161.5,225.5C 154.016,224.933 146.683,223.6 139.5,221.5C 138.904,222.716 138.737,224.049 139,225.5C 133.239,214.875 124.405,209.541 112.5,209.5C 112.5,209.167 112.5,208.833 112.5,208.5C 112.611,207.883 112.944,207.383 113.5,207C 123.046,205.683 130.38,209.183 135.5,217.5C 154.026,222.476 171.693,220.309 188.5,211C 194.333,207.833 198.833,203.333 202,197.5C 201.084,201.309 199.084,204.643 196,207.5C 195.333,208.5 195.333,209.5 196,210.5C 205.668,217.669 214.168,226.002 221.5,235.5 Z"/></g>
<g><path style="opacity:1" fill="#2a54f4" d="M 230.5,265.5 C 231.911,267.914 233.911,269.581 236.5,270.5C 236.833,271.167 237.167,271.833 237.5,272.5C 225.344,272.866 213.677,275.532 202.5,280.5C 201.416,280.315 200.416,279.982 199.5,279.5C 198.942,278.21 197.942,277.377 196.5,277C 192.116,275.892 187.782,274.725 183.5,273.5C 184.749,271.864 186.416,270.697 188.5,270C 197.843,266.66 207.177,263.327 216.5,260C 219.167,259.333 221.833,259.333 224.5,260C 226.37,262.04 228.37,263.873 230.5,265.5 Z"/></g>
<g><path style="opacity:1" fill="#1b160f" d="M 87.5,242.5 C 88.1667,242.5 88.5,242.833 88.5,243.5C 76.9987,268.142 78.1654,292.142 92,315.5C 103.145,329.976 116.978,340.976 133.5,348.5C 132.241,359.908 137.241,364.908 148.5,363.5C 148.389,364.117 148.056,364.617 147.5,365C 135.747,366.915 130.414,361.915 131.5,350C 121.111,345.937 111.444,340.603 102.5,334C 73.8512,307.275 68.8512,276.775 87.5,242.5 Z"/></g>
<g><path style="opacity:0.365" fill="#6d6d6d" d="M 44.5,251.5 C 45.4972,251.47 46.1639,251.97 46.5,253C 47.8872,256.708 48.7205,260.541 49,264.5C 53.9421,277.434 58.4421,290.434 62.5,303.5C 54.1364,287.071 48.1364,269.737 44.5,251.5 Z"/></g>
<g><path style="opacity:1" fill="#918477" d="M 167.5,262.5 C 169.816,266.794 171.15,271.46 171.5,276.5C 169.592,272.097 168.259,267.43 167.5,262.5 Z"/></g>
<g><path style="opacity:1" fill="#675349" d="M 230.5,265.5 C 233.089,266.419 235.089,268.086 236.5,270.5C 233.911,269.581 231.911,267.914 230.5,265.5 Z"/></g>
<g><path style="opacity:1" fill="#6a5d54" d="M 242.5,262.5 C 241.626,265.789 240.959,269.123 240.5,272.5C 239.5,272.5 238.5,272.5 237.5,272.5C 237.167,271.833 236.833,271.167 236.5,270.5C 237.496,270.414 238.329,270.748 239,271.5C 239.505,268.135 240.672,265.135 242.5,262.5 Z"/></g>
<g><path style="opacity:0.012" fill="#626262" d="M 391.5,258.5 C 389.866,266.039 387.866,273.372 385.5,280.5C 384.903,280.265 384.57,279.765 384.5,279C 385.933,274.236 387.1,269.403 388,264.5C 388.353,261.848 389.52,259.848 391.5,258.5 Z"/></g>
<g><path style="opacity:1" fill="#f9e0c8" d="M 196.5,280.5 C 200.269,282.937 202.936,286.271 204.5,290.5C 205.804,297.095 206.804,303.762 207.5,310.5C 208.107,310.376 208.44,310.043 208.5,309.5C 209.936,308.571 211.269,307.405 212.5,306C 217.519,304.067 222.686,302.901 228,302.5C 252.636,304.887 270.136,317.22 280.5,339.5C 282.568,345.335 284.068,351.335 285,357.5C 285.667,354.5 285.667,351.5 285,348.5C 283.56,344.959 282.726,341.292 282.5,337.5C 282.5,336.167 282.5,334.833 282.5,333.5C 283.489,328.025 283.822,322.358 283.5,316.5C 288.491,315.248 293.491,315.248 298.5,316.5C 298.702,324.686 299.369,332.686 300.5,340.5C 300.451,343.374 300.784,346.208 301.5,349C 301.215,350.89 300.215,352.223 298.5,353C 301.167,353.333 303.833,353.667 306.5,354C 308.667,354.833 310.167,356.333 311,358.5C 312.461,363.716 311.295,368.05 307.5,371.5C 303.089,372.34 299.423,371.173 296.5,368C 295.833,367.333 295.167,367.333 294.5,368C 295.718,369.438 296.385,371.105 296.5,373C 295.297,376.569 293.964,380.069 292.5,383.5C 281.957,401.433 266.291,408.599 245.5,405C 222.483,399.13 205.15,385.963 193.5,365.5C 192.256,361.34 190.256,357.673 187.5,354.5C 182.994,356.384 178.327,356.884 173.5,356C 165.447,349.853 161.614,341.686 162,331.5C 163.833,329 165.667,326.5 167.5,324C 169.833,325 172.167,326 174.5,327C 172.819,324.656 171.152,322.323 169.5,320C 171.466,315.268 173.133,310.435 174.5,305.5C 175.365,304.417 176.365,304.251 177.5,305C 180.965,307.463 184.131,310.296 187,313.5C 185.365,307.701 181.531,304.034 175.5,302.5C 176.194,297.195 176.528,291.862 176.5,286.5C 186.224,288.386 192.724,294.053 196,303.5C 194.357,292.359 187.857,286.025 176.5,284.5C 176.5,282.167 176.5,279.833 176.5,277.5C 181.511,277.334 186.511,277.501 191.5,278C 193.078,279.094 194.745,279.928 196.5,280.5 Z"/></g>
<g><path style="opacity:1" fill="#4b4b4b" d="M 314.5,280.5 C 313.778,280.082 313.278,279.416 313,278.5C 312.51,279.793 312.343,281.127 312.5,282.5C 311.631,280.016 310.964,277.349 310.5,274.5C 310.833,273.833 311.167,273.167 311.5,272.5C 313.287,274.858 314.287,277.525 314.5,280.5 Z"/></g>
<g><path style="opacity:1" fill="#f0d955" d="M 238.5,279.5 C 252.14,278.588 255.473,283.754 248.5,295C 237.928,299.076 233.095,295.576 234,284.5C 235.634,282.938 237.134,281.271 238.5,279.5 Z"/></g>
<g><path style="opacity:1" fill="#b0b0b0" d="M 314.5,280.5 C 316.08,284.391 316.914,288.391 317,292.5C 315.605,293.815 314.605,293.481 314,291.5C 313.304,288.522 312.804,285.522 312.5,282.5C 312.343,281.127 312.51,279.793 313,278.5C 313.278,279.416 313.778,280.082 314.5,280.5 Z"/></g>
<g><path style="opacity:1" fill="#464646" d="M 272.5,278.5 C 271.897,283.619 272.564,288.285 274.5,292.5C 273.791,293.404 272.791,293.737 271.5,293.5C 271.179,288.305 271.513,283.305 272.5,278.5 Z"/></g>
<g><path style="opacity:1" fill="#bbbbbb" d="M 274.5,292.5 C 272.564,288.285 271.897,283.619 272.5,278.5C 273.039,269.698 273.706,269.531 274.5,278C 275.336,283.01 275.336,287.844 274.5,292.5 Z"/></g>
<g><path style="opacity:0.02" fill="#7a7a7a" d="M 385.5,281.5 C 385.074,285.902 383.74,289.902 381.5,293.5C 381.861,289.085 383.194,285.085 385.5,281.5 Z"/></g>
<g><path style="opacity:1" fill="#906a38" d="M 349.5,303.5 C 348.947,301.343 347.947,301.51 346.5,304C 344.975,305.009 343.308,305.509 341.5,305.5C 343.868,304.217 346.035,302.55 348,300.5C 349.757,295.481 348.091,292.814 343,292.5C 340.784,292.653 338.617,292.986 336.5,293.5C 337.347,292.034 338.68,291.2 340.5,291C 339.207,290.51 337.873,290.343 336.5,290.5C 347.337,286.819 352.17,290.819 351,302.5C 350.617,303.056 350.117,303.389 349.5,303.5 Z"/></g>
<g><path style="opacity:1" fill="#990001" d="M 341.5,305.5 C 332.856,305.882 330.523,302.215 334.5,294.5C 335.492,294.672 336.158,294.338 336.5,293.5C 338.617,292.986 340.784,292.653 343,292.5C 348.091,292.814 349.757,295.481 348,300.5C 346.035,302.55 343.868,304.217 341.5,305.5 Z"/></g>
<g><path style="opacity:1" fill="#4f3a1d" d="M 336.5,290.5 C 337.873,290.343 339.207,290.51 340.5,291C 338.68,291.2 337.347,292.034 336.5,293.5C 336.158,294.338 335.492,294.672 334.5,294.5C 332.17,296.542 331.004,299.208 331,302.5C 330.503,300.19 330.337,297.857 330.5,295.5C 331.712,292.893 333.712,291.226 336.5,290.5 Z"/></g>
<g><path style="opacity:1" fill="#0f6482" d="M 299.5,295.5 C 290.467,295.284 281.467,295.617 272.5,296.5C 273.263,295.732 274.263,295.232 275.5,295C 283.677,294.177 291.677,294.344 299.5,295.5 Z"/></g>
<g><path style="opacity:1" fill="#02ade7" d="M 299.5,295.5 C 308.411,296.754 316.245,300.42 323,306.5C 329.818,322.576 324.651,332.909 307.5,337.5C 305.883,338.038 304.216,338.371 302.5,338.5C 302.209,332.796 301.542,327.129 300.5,321.5C 300.667,320.5 300.833,319.5 301,318.5C 301.718,319.451 302.551,319.617 303.5,319C 296.923,312.766 289.756,311.933 282,316.5C 281.433,321.834 280.933,327.167 280.5,332.5C 274.899,323.379 267.899,315.212 259.5,308C 262.126,302.205 266.46,298.372 272.5,296.5C 281.467,295.617 290.467,295.284 299.5,295.5 Z"/></g>
<g><path style="opacity:1" fill="#8f8577" d="M 204.5,290.5 C 205.6,292.277 206.434,294.277 207,296.5C 207.175,301.019 207.675,305.353 208.5,309.5C 208.44,310.043 208.107,310.376 207.5,310.5C 206.804,303.762 205.804,297.095 204.5,290.5 Z"/></g>
<g><path style="opacity:0.537" fill="#656565" d="M 381.5,294.5 C 379.789,300.982 377.122,306.982 373.5,312.5C 374.969,305.937 377.636,299.937 381.5,294.5 Z"/></g>
<g><path style="opacity:1" fill="#876331" d="M 334.5,294.5 C 330.523,302.215 332.856,305.882 341.5,305.5C 339.369,306.314 337.036,306.814 334.5,307C 337.063,308.079 339.729,308.579 342.5,308.5C 332.313,309.977 328.313,305.644 330.5,295.5C 330.337,297.857 330.503,300.19 331,302.5C 331.004,299.208 332.17,296.542 334.5,294.5 Z"/></g>
<g><path style="opacity:1" fill="#3c2c16" d="M 349.5,303.5 C 348.008,306.323 345.674,307.99 342.5,308.5C 339.729,308.579 337.063,308.079 334.5,307C 337.036,306.814 339.369,306.314 341.5,305.5C 343.308,305.509 344.975,305.009 346.5,304C 347.947,301.51 348.947,301.343 349.5,303.5 Z"/></g>
<g><path style="opacity:1" fill="#2c363a" d="M 302.5,338.5 C 301.71,337.391 301.21,336.058 301,334.5C 300.505,336.473 300.338,338.473 300.5,340.5C 299.369,332.686 298.702,324.686 298.5,316.5C 293.491,315.248 288.491,315.248 283.5,316.5C 283.822,322.358 283.489,328.025 282.5,333.5C 282.66,331.801 282.494,330.134 282,328.5C 281.79,330.058 281.29,331.391 280.5,332.5C 280.933,327.167 281.433,321.834 282,316.5C 289.756,311.933 296.923,312.766 303.5,319C 302.551,319.617 301.718,319.451 301,318.5C 300.833,319.5 300.667,320.5 300.5,321.5C 301.542,327.129 302.209,332.796 302.5,338.5 Z"/></g>
<g><path style="opacity:0.059" fill="#7c7c7c" d="M 373.5,312.5 C 373.25,314.674 372.25,316.341 370.5,317.5C 370.273,315.067 371.273,313.401 373.5,312.5 Z"/></g>
<g><path style="opacity:0.239" fill="#757575" d="M 370.5,317.5 C 368.007,323.98 364.341,329.646 359.5,334.5C 362.447,328.249 366.113,322.583 370.5,317.5 Z"/></g>
<g><path style="opacity:1" fill="#988878" d="M 245.5,329.5 C 243.658,329.277 241.825,328.943 240,328.5C 237.528,329.322 235.028,329.989 232.5,330.5C 236.655,325.978 240.988,325.645 245.5,329.5 Z"/></g>
<g><path style="opacity:1" fill="#e8d0b9" d="M 245.5,329.5 C 249.767,330.955 254.1,332.455 258.5,334C 260.803,340.202 262.803,346.535 264.5,353C 262.757,356.261 260.757,359.428 258.5,362.5C 255.656,364.845 252.99,367.345 250.5,370C 243.5,370.667 236.5,370.667 229.5,370C 225.863,366.877 222.863,363.377 220.5,359.5C 219.29,357.448 218.29,355.282 217.5,353C 218.602,347.095 219.935,341.262 221.5,335.5C 224.751,333.043 228.418,331.376 232.5,330.5C 235.028,329.989 237.528,329.322 240,328.5C 241.825,328.943 243.658,329.277 245.5,329.5 Z"/></g>
<g><path style="opacity:0.396" fill="#696969" d="M 359.5,334.5 C 356.421,340.304 352.588,345.637 348,350.5C 339.47,359.364 330.637,367.864 321.5,376C 318.778,378.358 315.778,380.191 312.5,381.5C 324.398,372.108 335.564,361.774 346,350.5C 350.071,344.613 354.571,339.28 359.5,334.5 Z"/></g>
<g><path style="opacity:1" fill="#0c0b09" d="M 240.5,338.5 C 240.5,338.833 240.5,339.167 240.5,339.5C 240.205,341.735 240.539,343.735 241.5,345.5C 241.5,345.833 241.5,346.167 241.5,346.5C 240.252,345.666 239.585,344.333 239.5,342.5C 239.511,340.955 239.844,339.622 240.5,338.5 Z"/></g>
<g><path style="opacity:1" fill="#f2d9c1" d="M 240.5,339.5 C 242.565,339.517 244.565,339.85 246.5,340.5C 247.11,341.391 247.443,342.391 247.5,343.5C 245.685,344.63 243.685,345.296 241.5,345.5C 240.539,343.735 240.205,341.735 240.5,339.5 Z"/></g>
<g><path style="opacity:1" fill="#908172" d="M 246.5,340.5 C 244.565,339.85 242.565,339.517 240.5,339.5C 240.5,339.167 240.5,338.833 240.5,338.5C 245.752,337.742 245.585,337.075 240,336.5C 236.985,336.642 234.151,337.142 231.5,338C 233.769,335.977 236.436,335.144 239.5,335.5C 239.833,331.5 240.167,331.5 240.5,335.5C 244.673,335.419 248.339,336.752 251.5,339.5C 254.849,338.17 255.182,338.67 252.5,341C 254.671,344.378 256.005,348.045 256.5,352C 253.703,355.799 250.536,359.299 247,362.5C 246.5,362 246,361.5 245.5,361C 253.625,356.429 255.625,349.929 251.5,341.5C 250.167,340.5 248.833,339.5 247.5,338.5C 246.702,338.957 246.369,339.624 246.5,340.5 Z"/></g>
<g><path style="opacity:1" fill="#655c53" d="M 282.5,337.5 C 282.726,341.292 283.56,344.959 285,348.5C 285.667,351.5 285.667,354.5 285,357.5C 284.068,351.335 282.568,345.335 280.5,339.5C 281.167,338.833 281.833,338.167 282.5,337.5 Z"/></g>
<g><path style="opacity:1" fill="#73665a" d="M 235.5,345.5 C 238.734,346.006 239.401,347.672 237.5,350.5C 231.833,350.336 231.5,350.003 236.5,349.5C 236.567,348.041 236.234,346.708 235.5,345.5 Z"/></g>
<g><path style="opacity:1" fill="#f3dac2" d="M 235.5,345.5 C 236.234,346.708 236.567,348.041 236.5,349.5C 231.5,350.003 231.833,350.336 237.5,350.5C 237.689,355.257 235.689,356.924 231.5,355.5C 231.203,352.293 230.703,348.96 230,345.5C 231.776,344.464 233.609,344.464 235.5,345.5 Z"/></g>
<g><path style="opacity:1" fill="#ad9a89" d="M 235.5,345.5 C 233.609,344.464 231.776,344.464 230,345.5C 230.703,348.96 231.203,352.293 231.5,355.5C 232.167,356.5 232.833,357.5 233.5,358.5C 232.833,358.5 232.5,358.833 232.5,359.5C 232.167,359.5 231.833,359.5 231.5,359.5C 228.866,356.886 225.866,354.553 222.5,352.5C 223.325,351.614 224.325,351.281 225.5,351.5C 225.108,348.278 225.608,345.278 227,342.5C 226.456,345.842 226.623,349.175 227.5,352.5C 228.318,349.893 228.818,347.226 229,344.5C 231.375,340.973 233.542,341.306 235.5,345.5 Z"/></g>
<g><path style="opacity:1" fill="#938474" d="M 221.5,335.5 C 219.935,341.262 218.602,347.095 217.5,353C 218.29,355.282 219.29,357.448 220.5,359.5C 217.877,358.047 216.21,355.88 215.5,353C 217.202,347.56 218.702,342.06 220,336.5C 220.383,335.944 220.883,335.611 221.5,335.5 Z"/></g>
<g><path style="opacity:1" fill="#837568" d="M 246.5,340.5 C 248.752,340.916 250.252,342.249 251,344.5C 253.22,351.437 251.053,356.27 244.5,359C 240.779,359.678 237.112,359.511 233.5,358.5C 232.833,357.5 232.167,356.5 231.5,355.5C 235.689,356.924 237.689,355.257 237.5,350.5C 239.234,351.562 240.901,351.562 242.5,350.5C 242.567,349.041 242.234,347.708 241.5,346.5C 241.5,346.167 241.5,345.833 241.5,345.5C 243.685,345.296 245.685,344.63 247.5,343.5C 247.443,342.391 247.11,341.391 246.5,340.5 Z"/></g>
<g><path style="opacity:1" fill="#f6ddc5" d="M 242.5,353.5 C 243.038,355.117 243.371,356.784 243.5,358.5C 241.076,358.808 238.743,358.474 236.5,357.5C 237.096,353.543 239.096,352.21 242.5,353.5 Z"/></g>
<g><path style="opacity:1" fill="#f4dbc3" d="M 242.5,350.5 C 245.271,350.421 247.937,350.921 250.5,352C 248.42,357.1 245.754,357.6 242.5,353.5C 242.5,352.5 242.5,351.5 242.5,350.5 Z"/></g>
<g><path style="opacity:1" fill="#f5dcc3" d="M 247.5,343.5 C 248.75,343.577 249.583,344.244 250,345.5C 250.798,347.259 250.631,348.926 249.5,350.5C 247.113,350.088 245.113,349.088 243.5,347.5C 245.188,346.479 246.521,345.145 247.5,343.5 Z"/></g>
<g><path style="opacity:1" fill="#5c5249" d="M 231.5,359.5 C 231.833,359.5 232.167,359.5 232.5,359.5C 235.989,360.93 239.656,361.764 243.5,362C 240.438,362.741 237.438,362.575 234.5,361.5C 233.808,362.025 233.308,362.692 233,363.5C 232.59,362.099 232.09,360.766 231.5,359.5 Z"/></g>
<g><path style="opacity:1" fill="#9a0102" d="M 175.5,374.5 C 171.18,380.212 166.18,380.879 160.5,376.5C 160.556,366.564 165.056,363.564 174,367.5C 175.202,369.677 175.702,372.011 175.5,374.5 Z"/></g>
<g><path style="opacity:1" fill="#906c38" d="M 177.5,369.5 C 176.833,371.167 176.167,372.833 175.5,374.5C 175.702,372.011 175.202,369.677 174,367.5C 165.056,363.564 160.556,366.564 160.5,376.5C 159.691,374.708 159.191,372.708 159,370.5C 158.617,371.056 158.117,371.389 157.5,371.5C 159.089,365.773 162.922,362.773 169,362.5C 173.242,363.252 176.076,365.585 177.5,369.5 Z"/></g>
<g><path style="opacity:0.993" fill="#231d16" d="M 118.5,365.5 C 119.837,366.315 120.837,367.482 121.5,369C 128.833,373.667 136.167,378.333 143.5,383C 153.048,387.608 162.715,391.941 172.5,396C 179.624,398.354 186.957,399.52 194.5,399.5C 201.321,399.874 207.655,398.54 213.5,395.5C 215.795,396.475 217.795,397.808 219.5,399.5C 209.569,400.923 199.569,401.923 189.5,402.5C 196.529,405.424 203.862,407.09 211.5,407.5C 207.483,408.155 203.483,408.489 199.5,408.5C 199.167,408.5 198.833,408.5 198.5,408.5C 194.618,406.959 190.618,405.126 186.5,403C 179.626,400.219 172.626,398.052 165.5,396.5C 162.088,395.958 159.088,394.625 156.5,392.5C 154.574,390.707 152.241,389.707 149.5,389.5C 145.464,385.153 140.464,382.487 134.5,381.5C 133.599,379.273 131.933,378.273 129.5,378.5C 128.292,375.956 126.292,374.622 123.5,374.5C 122.516,372.52 121.183,370.853 119.5,369.5C 119.167,368.167 118.833,366.833 118.5,365.5 Z"/></g>
<g><path style="opacity:0.09" fill="#686868" d="M 62.5,303.5 C 67.1217,310.156 71.2884,317.156 75,324.5C 80,330.833 85,337.167 90,343.5C 96.1395,348.306 101.64,353.806 106.5,360C 110.538,363.674 114.871,366.841 119.5,369.5C 121.183,370.853 122.516,372.52 123.5,374.5C 96.3807,356.55 76.0474,332.883 62.5,303.5 Z"/></g>
<g><path style="opacity:1" fill="#c78c3a" d="M 157.5,371.5 C 157.674,373.861 158.007,376.194 158.5,378.5C 156.466,376.345 156.133,374.012 157.5,371.5 Z"/></g>
<g><path style="opacity:1" fill="#5b4932" d="M 307.5,371.5 C 305.302,372.165 302.969,372.832 300.5,373.5C 300.624,374.107 300.957,374.44 301.5,374.5C 297.696,376.966 295.029,380.299 293.5,384.5C 293.5,383.833 293.167,383.5 292.5,383.5C 293.964,380.069 295.297,376.569 296.5,373C 296.385,371.105 295.718,369.438 294.5,368C 295.167,367.333 295.833,367.333 296.5,368C 299.423,371.173 303.089,372.34 307.5,371.5 Z"/></g>
<g><path style="opacity:0.204" fill="#767676" d="M 123.5,374.5 C 126.292,374.622 128.292,375.956 129.5,378.5C 127.147,377.66 125.147,376.326 123.5,374.5 Z"/></g>
<g><path style="opacity:0.039" fill="#797979" d="M 129.5,378.5 C 131.933,378.273 133.599,379.273 134.5,381.5C 132.326,381.25 130.659,380.25 129.5,378.5 Z"/></g>
<g><path style="opacity:1" fill="#604723" d="M 177.5,369.5 C 178.852,379.646 174.185,384.146 163.5,383C 161.34,382.004 159.673,380.504 158.5,378.5C 158.007,376.194 157.674,373.861 157.5,371.5C 158.117,371.389 158.617,371.056 159,370.5C 159.191,372.708 159.691,374.708 160.5,376.5C 166.18,380.879 171.18,380.212 175.5,374.5C 176.167,372.833 176.833,371.167 177.5,369.5 Z"/></g>
<g><path style="opacity:0.612" fill="#6e6e6e" d="M 134.5,381.5 C 140.464,382.487 145.464,385.153 149.5,389.5C 144.016,387.593 139.016,384.927 134.5,381.5 Z"/></g>
<g><path style="opacity:0.192" fill="#868686" d="M 149.5,389.5 C 152.241,389.707 154.574,390.707 156.5,392.5C 153.759,392.293 151.426,391.293 149.5,389.5 Z"/></g>
<g><path style="opacity:0.008" fill="#7a7a7a" d="M 312.5,381.5 C 304.178,387.663 295.512,393.33 286.5,398.5C 286.679,396.394 287.679,394.728 289.5,393.5C 297.166,389.5 304.833,385.5 312.5,381.5 Z"/></g>
<g><path style="opacity:1" fill="#006599" d="M 219.5,399.5 C 220.29,400.794 221.29,401.961 222.5,403C 226.544,403.856 230.211,405.522 233.5,408C 227.175,408.5 220.842,408.666 214.5,408.5C 213.609,407.89 212.609,407.557 211.5,407.5C 203.862,407.09 196.529,405.424 189.5,402.5C 199.569,401.923 209.569,400.923 219.5,399.5 Z"/></g>
<g><path style="opacity:0.431" fill="#717171" d="M 165.5,396.5 C 172.626,398.052 179.626,400.219 186.5,403C 190.618,405.126 194.618,406.959 198.5,408.5C 186.912,405.862 175.912,401.862 165.5,396.5 Z"/></g>
<g><path style="opacity:0.396" fill="#5e5e5d" d="M 282.5,402.5 C 274.197,409.338 264.53,412.672 253.5,412.5C 243.582,411.23 234.248,411.23 225.5,412.5C 216.587,412.016 207.921,410.682 199.5,408.5C 203.483,408.489 207.483,408.155 211.5,407.5C 212.609,407.557 213.609,407.89 214.5,408.5C 219.148,409.454 223.981,410.12 229,410.5C 239.16,409.69 249.326,409.524 259.5,410C 262.167,409.667 264.833,409.333 267.5,409C 272.811,407.295 277.811,405.128 282.5,402.5 Z"/></g>
</svg>
