<?xml version="1.0" encoding="UTF-8"?>
<svg version="1.1" xmlns="http://www.w3.org/2000/svg" width="1200" height="1200">
<path d="M0 0 C396 0 792 0 1200 0 C1200 396 1200 792 1200 1200 C804 1200 408 1200 0 1200 C0 804 0 408 0 0 Z " fill="#176677" transform="translate(0,0)"/>
<path d="M0 0 C15.56918648 -0.09052662 31.13819897 -0.16411304 46.70757675 -0.20724869 C53.93779722 -0.22781562 61.16784174 -0.25582278 68.39794922 -0.30175781 C74.7046176 -0.34180663 81.01115846 -0.3674754 87.31795049 -0.37635398 C90.65304963 -0.38153861 93.98749713 -0.39574348 97.32253265 -0.42292023 C101.05866219 -0.45214252 104.7940472 -0.45594799 108.53027344 -0.45410156 C109.61856949 -0.46848267 110.70686554 -0.48286377 111.82814026 -0.49768066 C121.33272789 -0.44716642 131.67322333 1.54545865 139 8 C146.59415482 17.75867238 148.14733754 26.41029489 148.16113281 38.52832031 C148.16609772 39.57627274 148.17106262 40.62422516 148.17617798 41.70393372 C148.19075212 45.16200422 148.1975937 48.62002886 148.203125 52.078125 C148.20888035 54.48940023 148.21463803 56.90067546 148.22039795 59.31195068 C148.23089443 64.36568413 148.23674595 69.41940173 148.24023438 74.47314453 C148.24571625 80.93353991 148.26974374 87.39372425 148.29820633 93.8540535 C148.31687394 98.83504845 148.32204051 103.81599298 148.32357025 108.79701996 C148.32658797 111.17793685 148.33458657 113.55885303 148.34775543 115.93973541 C148.36490192 119.27801868 148.3629145 122.61579154 148.35644531 125.95410156 C148.3656601 126.92795303 148.37487488 127.9018045 148.3843689 128.90516663 C148.31924384 139.68948722 145.44591192 149.39849059 137.8125 157.25 C131.45486543 161.20586151 124.1466503 164.13572544 116.59863281 164.11352539 C115.7380426 164.11344986 114.87745239 164.11337433 113.99078369 164.11329651 C113.07085632 164.10813522 112.15092896 164.10297394 111.203125 164.09765625 C109.77996979 164.09553383 109.77996979 164.09553383 108.32806396 164.09336853 C105.30201038 164.08777742 102.27603117 164.07522652 99.25 164.0625 C97.19661565 164.05748385 95.14323014 164.05292115 93.08984375 164.04882812 C88.05984423 164.0386624 83.03000523 164.01908518 78 164 C78 153.44 78 142.88 78 132 C89.625 131.6875 89.625 131.6875 93.25634766 131.61206055 C101.11955131 131.45103133 101.11955131 131.45103133 108 128 C109.97993304 123.40101321 110.28714941 119.12949974 110.25878906 114.19384766 C110.2622937 113.43528976 110.26579834 112.67673187 110.26940918 111.89518738 C110.27817148 109.40138444 110.27239571 106.90786806 110.265625 104.4140625 C110.26697351 102.67060288 110.2689156 100.92714364 110.27142334 99.1836853 C110.27436739 95.5338787 110.27010114 91.88417018 110.26074219 88.234375 C110.24936505 83.57188388 110.25590065 78.90962349 110.26788712 74.24714088 C110.27513963 70.6473316 110.27280196 67.04757633 110.26763153 63.44776535 C110.26630352 61.72948555 110.2679128 60.01120074 110.27259064 58.29292679 C110.27770993 55.88346768 110.26986977 53.47437357 110.25878906 51.06494141 C110.26283752 50.36442154 110.26688599 49.66390167 110.27105713 48.94215393 C110.22861331 43.92199787 109.75832339 39.68550574 108 35 C91.52881304 29.50960435 73.35805439 32.37734901 56 32 C56 86.45 56 140.9 56 197 C62.27 197 68.54 197 75 197 C75 207.56 75 218.12 75 229 C56.19 229 37.38 229 18 229 C18 163.99 18 98.98 18 32 C12.06 32 6.12 32 0 32 C0 21.44 0 10.88 0 0 Z " fill="#FDFEFE" transform="translate(900,511)"/>
<path d="M0 0 C1.46197637 -0.00644134 2.9239515 -0.01317065 4.38592529 -0.02017212 C7.44204695 -0.03210032 10.49805596 -0.03585765 13.55419922 -0.03466797 C17.43848582 -0.03446522 21.32203717 -0.06174059 25.20615005 -0.09621239 C28.22451993 -0.11863432 31.24271724 -0.12250085 34.2611618 -0.12144852 C35.69147011 -0.12378258 37.12178481 -0.13247977 38.55200958 -0.14811325 C49.82921158 -0.25983211 60.9802222 0.86907908 69.984375 8.3359375 C78.18188117 16.72408335 79.11808213 26.45994515 79.09790039 37.76171875 C79.09802093 38.46644821 79.09814146 39.17117767 79.09826565 39.89726257 C79.09752738 42.14768788 79.08994943 44.39802728 79.08203125 46.6484375 C79.08055846 48.0501298 79.07953983 49.45182266 79.07897949 50.85351562 C79.07376569 56.01433138 79.05980447 61.17513531 79.046875 66.3359375 C79.02625 77.8859375 79.005625 89.4359375 78.984375 101.3359375 C50.934375 101.3359375 22.884375 101.3359375 -6.015625 101.3359375 C-7.03493607 122.8739725 -7.03493607 122.8739725 -2.015625 130.3359375 C0.96127258 131.82438629 3.6830132 131.50185355 7.00439453 131.54125977 C7.72645081 131.55115936 8.44850708 131.56105896 9.19244385 131.57125854 C11.58399148 131.60289781 13.97555899 131.62764049 16.3671875 131.65234375 C18.02343264 131.67291119 19.67967251 131.6939076 21.33590698 131.71531677 C25.69899224 131.77055917 30.06212504 131.81995887 34.42529297 131.86816406 C38.87601969 131.91836327 43.32667723 131.97405757 47.77734375 132.02929688 C56.51296397 132.13690499 65.24864284 132.23783637 73.984375 132.3359375 C73.984375 142.8959375 73.984375 153.4559375 73.984375 164.3359375 C61.91828681 164.4265316 49.85242684 164.49982239 37.78607464 164.54318619 C32.18236783 164.56400518 26.57890705 164.59221865 20.9753418 164.63769531 C15.56124791 164.68135619 10.14738975 164.70511733 4.73313332 164.71544647 C2.67399196 164.72280161 0.61486259 164.737164 -1.44417763 164.75885773 C-13.36397281 164.879377 -23.33224452 164.84574778 -33.890625 158.6484375 C-41.70690351 150.14248736 -43.31621513 140.58736291 -43.30615234 129.46630859 C-43.31286957 128.39376831 -43.31958679 127.32122803 -43.32650757 126.21618652 C-43.34545922 122.68053514 -43.34941077 119.14507398 -43.3515625 115.609375 C-43.35799376 113.13945438 -43.36472237 110.66953452 -43.37173462 108.19961548 C-43.38370132 103.02319576 -43.3874162 97.84684273 -43.38623047 92.67041016 C-43.38602764 86.0634022 -43.41329606 79.45682609 -43.44777489 72.84992027 C-43.47010456 67.74697945 -43.4740661 62.64414143 -43.47301102 57.54115677 C-43.47535913 55.10689434 -43.48413772 52.67262874 -43.49967575 50.23841476 C-43.6700214 20.78788728 -43.6700214 20.78788728 -35.265625 10.2734375 C-25.41174173 0.31006664 -13.30660928 0.01385613 0 0 Z " fill="#FDFDFD" transform="translate(367.015625,510.6640625)"/>
<path d="M0 0 C15.34295136 -0.06785221 30.68583456 -0.1230603 46.02889824 -0.15543652 C53.15376044 -0.1708723 60.27852244 -0.19189845 67.40332031 -0.22631836 C73.61694539 -0.25632195 79.83049787 -0.27559888 86.04419339 -0.28226548 C89.33102699 -0.28615932 92.61760586 -0.29684088 95.90438461 -0.31719017 C99.58335285 -0.33905596 103.26189491 -0.34196302 106.94091797 -0.34057617 C108.55609566 -0.35675491 108.55609566 -0.35675491 110.2039032 -0.3732605 C121.02183024 -0.32930809 129.86339408 1.86339408 137.6875 9.6875 C140.59242682 13.35835607 141.79793007 17.53284824 143 22 C143.26166537 22.91708803 143.26166537 22.91708803 143.52861691 23.85270309 C144.03056987 26.13925531 144.1230267 28.16546306 144.12025452 30.50518799 C144.12231651 31.85128647 144.12231651 31.85128647 144.12442017 33.22457886 C144.12082489 34.20137604 144.11722961 35.17817322 144.11352539 36.18457031 C144.11367142 37.2190329 144.11381744 38.25349548 144.1139679 39.31930542 C144.11327117 42.73893327 144.10548994 46.15850666 144.09765625 49.578125 C144.09579122 51.94895396 144.09436772 54.31978331 144.09336853 56.69061279 C144.08955006 62.93116316 144.07972545 69.17169027 144.06866455 75.41223145 C144.05843606 81.7800261 144.05386782 88.1478245 144.04882812 94.515625 C144.03810262 107.01042689 144.02103419 119.50521151 144 132 C149.61 132 155.22 132 161 132 C161 142.56 161 153.12 161 164 C142.85 164 124.7 164 106 164 C105.97421875 154.95078125 105.9484375 145.9015625 105.921875 136.578125 C105.89351805 130.12649024 105.86265856 123.67490563 105.8281765 117.22330475 C105.7838136 108.86045744 105.74540515 100.49771954 105.72900391 92.13476562 C105.71600166 85.51456008 105.68907389 78.89458314 105.64538693 72.27450633 C105.62273955 68.76880551 105.60709125 65.26338698 105.60811615 61.75760651 C105.60899917 57.84500401 105.57879372 53.93297947 105.54589844 50.02050781 C105.5509288 48.85669586 105.55595917 47.69288391 105.56114197 46.49380493 C105.54722916 45.42812286 105.53331635 44.3624408 105.51898193 43.26446533 C105.51529476 42.33898518 105.51160759 41.41350502 105.50780869 40.45998001 C104.84045406 37.22711086 103.54101065 36.04391555 101 34 C86.76623732 29.25541244 71.00370325 33 56 33 C55.67 76.23 55.34 119.46 55 164 C42.79 164 30.58 164 18 164 C17.67 120.77 17.34 77.54 17 33 C11.39 32.67 5.78 32.34 0 32 C0 21.44 0 10.88 0 0 Z " fill="#FDFEFE" transform="translate(132,511)"/>
<path d="M0 0 C17.82 0 35.64 0 54 0 C54.03738281 8.5696875 54.07476563 17.139375 54.11328125 25.96875 C54.14741241 32.09206944 54.18340328 38.21535584 54.22207737 44.33864594 C54.27191136 52.26806433 54.3173771 60.19742845 54.34643555 68.12695312 C54.36945914 74.40584077 54.40290553 80.68457308 54.44870156 86.96333742 C54.47257542 90.28580891 54.48978729 93.6080952 54.49761391 96.9306488 C54.50725123 100.64605496 54.53530805 104.36090328 54.56762695 108.07617188 C54.56619186 109.16949829 54.56475677 110.26282471 54.5632782 111.38928223 C54.63949102 117.59355657 55.11902522 122.44570379 58 128 C70.34379524 135.40627715 86.60976665 131.62130965 101 132 C101 88.44 101 44.88 101 0 C113.21 0 125.42 0 138 0 C138 43.56 138 87.12 138 132 C143.94 132 149.88 132 156 132 C156 142.56 156 153.12 156 164 C141.43934475 164.06786481 126.87878853 164.12306751 112.31801033 164.15543652 C105.5563501 164.17086917 98.79479552 164.19188922 92.03320312 164.22631836 C85.50391922 164.25954861 78.97470369 164.27687012 72.4453392 164.28463173 C69.95835522 164.29016077 67.47137701 164.30095756 64.98443985 164.31719017 C61.49226322 164.33907086 58.00053529 164.34196242 54.50830078 164.34057617 C53.48762009 164.351362 52.46693939 164.36214783 51.41532898 164.3732605 C41.10073147 164.32915962 31.87508307 161.91015194 24 155 C17.45297265 147.14356718 16.70296379 138.87308223 16.77294922 129.01586914 C16.77265717 127.93220062 16.77236511 126.8485321 16.77206421 125.73202515 C16.7734525 122.16631945 16.78899032 118.60082525 16.8046875 115.03515625 C16.8084194 112.55651463 16.81126554 110.07787153 16.81326294 107.59922791 C16.82088539 101.08743185 16.84052205 94.57572554 16.8626709 88.06396484 C16.88424538 81.41440525 16.89227104 74.76481946 16.90234375 68.11523438 C16.92376917 55.07678357 16.95788844 42.03839926 17 29 C11.39 29 5.78 29 0 29 C0 19.43 0 9.86 0 0 Z " fill="#FEFEFE" transform="translate(728,511)"/>
<path d="M0 0 C1.39818267 0.00186947 2.796366 0.00329087 4.19454956 0.00428772 C7.84079864 0.00807127 11.48700667 0.01786505 15.13323975 0.0289917 C18.86746659 0.03929625 22.60170038 0.04385969 26.3359375 0.04882812 C33.63805685 0.0589587 40.94006411 0.07854074 48.2421875 0.09765625 C48.2421875 18.24765625 48.2421875 36.39765625 48.2421875 55.09765625 C37.3521875 55.09765625 26.4621875 55.09765625 15.2421875 55.09765625 C14.9121875 47.83765625 14.5821875 40.57765625 14.2421875 33.09765625 C10.00864997 32.98191555 5.78074335 32.882704 1.546875 32.82299805 C0.11146302 32.7980777 -1.32382507 32.7641275 -2.75878906 32.72045898 C-11.54908828 32.45993756 -19.42360835 32.51301822 -26.7578125 38.09765625 C-31.76887359 43.96876821 -31.90651238 50.82606925 -31.96313477 58.19262695 C-31.97303436 58.99314987 -31.98293396 59.79367279 -31.99313354 60.61845398 C-32.02461527 63.25341883 -32.04945305 65.88840169 -32.07421875 68.5234375 C-32.0947998 70.35475624 -32.11579657 72.18607035 -32.13719177 74.01737976 C-32.19229361 78.82923629 -32.24175517 83.64113484 -32.29003906 88.45306396 C-32.34919052 94.23094513 -32.4153529 100.00874977 -32.48033905 105.78656769 C-32.57819893 114.55688366 -32.66715732 123.32724951 -32.7578125 132.09765625 C-6.3578125 132.09765625 20.0421875 132.09765625 47.2421875 132.09765625 C47.2421875 142.65765625 47.2421875 153.21765625 47.2421875 164.09765625 C8.6321875 164.09765625 -29.9778125 164.09765625 -69.7578125 164.09765625 C-69.87830351 134.59074787 -69.87830351 134.59074787 -69.9085741 119.96002579 C-69.92516393 112.06411542 -69.94618783 104.16830068 -69.98413086 96.27246094 C-70.01416928 90.01853083 -70.03341953 83.76467306 -70.04007798 77.51067281 C-70.043966 74.20365506 -70.0546191 70.89689067 -70.07500267 67.58992767 C-70.09692161 63.88502462 -70.09977333 60.18054386 -70.09838867 56.47558594 C-70.1091745 55.39664063 -70.11996033 54.31769531 -70.131073 53.20605469 C-70.07099642 38.25688966 -65.43077152 25.09965453 -55.0625 14.1640625 C-39.8509019 0.52518895 -19.3657749 -0.07690238 0 0 Z " fill="#FDFEFE" transform="translate(655.7578125,510.90234375)"/>
<path d="M0 0 C12.21 0 24.42 0 37 0 C37 16.5 37 33 37 50 C47.56 50 58.12 50 69 50 C69 60.89 69 71.78 69 83 C58.44 83 47.88 83 37 83 C37.04033396 94.76152053 37.09741467 106.52263345 37.18390274 118.28390694 C37.22339569 123.74527302 37.25557536 129.20647743 37.27099609 134.66796875 C37.28615053 139.93958457 37.32057495 145.21075595 37.36830902 150.48217392 C37.38313526 152.49234019 37.39104173 154.50256991 37.39188385 156.51279068 C37.39425148 159.3307853 37.42131492 162.14754968 37.45410156 164.96533203 C37.4490712 165.79467758 37.44404083 166.62402313 37.43885803 167.47850037 C37.53380572 172.76021058 38.492546 175.80988408 42 180 C44.62723396 181.31361698 46.72610561 181.21253909 49.6640625 181.31640625 C50.6742041 181.35451416 51.6843457 181.39262207 52.72509766 181.43188477 C54.01206543 181.47498779 55.2990332 181.51809082 56.625 181.5625 C60.70875 181.706875 64.7925 181.85125 69 182 C69 192.56 69 203.12 69 214 C62.06128267 214.11521855 55.12592591 214.21463299 48.18701172 214.2746582 C45.83012605 214.29969708 43.47331721 214.33373841 41.11669922 214.37719727 C37.71562672 214.4383159 34.3155868 214.46631727 30.9140625 214.48828125 C29.87198639 214.51408768 28.82991028 214.5398941 27.7562561 214.56648254 C19.76771381 214.56949861 13.12782403 212.71911719 7.08364868 207.27339172 C0.35098612 200.25417397 -0.44557849 192.18854957 -0.43237305 182.90234375 C-0.4425647 181.81852921 -0.45275635 180.73471466 -0.46325684 179.61805725 C-0.49330138 176.05781833 -0.50263998 172.49784886 -0.51171875 168.9375 C-0.52857171 166.46027742 -0.54672278 163.98306337 -0.56611633 161.50585938 C-0.61355507 155.00236676 -0.64340429 148.4989087 -0.66955566 141.99530029 C-0.69939194 135.35226262 -0.74591176 128.70935631 -0.79101562 122.06640625 C-0.87697919 109.04433314 -0.94435554 96.0222355 -1 83 C-7.6 82.67 -14.2 82.34 -21 82 C-21 71.44 -21 60.88 -21 50 C-14.07 50 -7.14 50 0 50 C0 33.5 0 17 0 0 Z " fill="#FDFEFE" transform="translate(488,461)"/>
<path d="M0 0 C6.41915539 4.29159442 10.44753028 10.53399708 12.875 17.81640625 C13.84230924 26.45875933 11.61842274 33.17369084 7.25 40.56640625 C-0.23024853 47.65295748 -9.21207952 51.37925842 -19.5078125 51.12890625 C-27.13258817 50.21848527 -34.13590402 46.66656448 -39.125 40.81640625 C-44.58201862 33.30954307 -45.08947268 25.87594738 -44.125 16.81640625 C-42.90422799 10.20479145 -39.07642463 5.24714536 -34.125 0.81640625 C-23.55612781 -6.02575541 -10.94769962 -6.09770769 0 0 Z " fill="#0F5C70" transform="translate(1105.125,464.18359375)"/>
<path d="M0 0 C0.82830322 -0.00004028 1.65660645 -0.00008057 2.51000977 -0.00012207 C4.25837811 0.00523092 6.00674602 0.0228045 7.75488281 0.05175781 C10.42848367 0.09360886 13.09956436 0.09282639 15.7734375 0.0859375 C17.47397581 0.09643069 19.17450115 0.1093695 20.875 0.125 C21.67301025 0.12520142 22.47102051 0.12540283 23.29321289 0.12561035 C26.56331848 0.19521331 29.00814512 0.36075884 31.91015625 1.93554688 C35.0876721 5.38530513 34.5533021 9.22223668 34.53515625 13.66796875 C34.53265869 14.91924561 34.53016113 16.17052246 34.52758789 17.4597168 C34.51848389 19.05082275 34.50937988 20.64192871 34.5 22.28125 C34.479375 27.334375 34.45875 32.3875 34.4375 37.59375 C18.9275 37.59375 3.4175 37.59375 -12.5625 37.59375 C-12.645 32.416875 -12.7275 27.24 -12.8125 21.90625 C-12.86712402 19.46859253 -12.86712402 19.46859253 -12.92285156 16.98168945 C-12.9328418 15.69480225 -12.94283203 14.40791504 -12.953125 13.08203125 C-12.97407227 11.76759033 -12.99501953 10.45314941 -13.01660156 9.09887695 C-11.9488927 0.8574274 -7.50506773 -0.15419296 0 0 Z " fill="#0B6373" transform="translate(374.5625,543.40625)"/>
<path d="M0 0 C6.41915539 4.29159442 10.44753028 10.53399708 12.875 17.81640625 C13.84230924 26.45875933 11.61842274 33.17369084 7.25 40.56640625 C-0.23024853 47.65295748 -9.21207952 51.37925842 -19.5078125 51.12890625 C-27.13258817 50.21848527 -34.13590402 46.66656448 -39.125 40.81640625 C-44.58201862 33.30954307 -45.08947268 25.87594738 -44.125 16.81640625 C-42.90422799 10.20479145 -39.07642463 5.24714536 -34.125 0.81640625 C-23.55612781 -6.02575541 -10.94769962 -6.09770769 0 0 Z M-34.4375 8.12890625 C-38.81560728 13.75960553 -40.77774369 19.12992437 -40.5390625 26.2578125 C-39.60880497 32.00610192 -36.5478018 36.82107398 -32.25 40.69140625 C-25.375003 45.36640421 -19.35674282 47.02463188 -11.125 45.81640625 C-3.49501132 43.18649526 2.19064428 39.08484096 6.1875 32.00390625 C8.75819272 26.43407203 8.60126332 21.55620726 6.8125 15.75390625 C4.2283659 9.53238908 -1.12752034 4.73409906 -7.125 1.81640625 C-17.2976484 -1.32220081 -27.19462795 0.26622853 -34.4375 8.12890625 Z " fill="#F2F6F7" transform="translate(1105.125,464.18359375)"/>
<path d="M0 0 C4.5478125 -0.1546875 4.5478125 -0.1546875 9.1875 -0.3125 C10.13391357 -0.35802002 11.08032715 -0.40354004 12.05541992 -0.45043945 C16.46246268 -0.52294679 18.42392231 -0.42528734 22.07421875 2.26953125 C24.41891136 5.59395343 24.74149266 7.13611744 24.49609375 11.0625 C23.64086737 14.40259675 21.68789793 15.99970386 19 18 C18.01 18 17.02 18 16 18 C16.6496875 18.92683594 17.299375 19.85367187 17.96875 20.80859375 C18.81262221 22.01814391 19.65636558 23.22778397 20.5 24.4375 C20.92925781 25.04916016 21.35851563 25.66082031 21.80078125 26.29101562 C25 30.88671875 25 30.88671875 25 32 C22.765625 32.3046875 22.765625 32.3046875 20 32 C17.796875 29.8828125 17.796875 29.8828125 15.75 27.125 C15.06421875 26.22007812 14.3784375 25.31515625 13.671875 24.3828125 C12 22 12 22 11 20 C9.02 19.67 7.04 19.34 5 19 C5 23.29 5 27.58 5 32 C3.35 32 1.7 32 0 32 C0 21.44 0 10.88 0 0 Z " fill="#F0F5F6" transform="translate(1077,472)"/>
<path d="M0 0 C1.95825873 -0.02694851 3.91662226 -0.04637218 5.875 -0.0625 C6.96554687 -0.07410156 8.05609375 -0.08570313 9.1796875 -0.09765625 C12 0 12 0 14 1 C14.1875 3.875 14.1875 3.875 14 7 C10.57905758 9.28062828 9.31812778 9.21925007 5.3125 9.125 C3.82169922 9.09792969 3.82169922 9.09792969 2.30078125 9.0703125 C1.54152344 9.04710937 0.78226563 9.02390625 0 9 C0 6.03 0 3.06 0 0 Z " fill="#0C596E" transform="translate(1082,477)"/>
</svg>
