<?xml version="1.0" encoding="UTF-8"?>
<svg version="1.1" xmlns="http://www.w3.org/2000/svg" width="256" height="249">
<path d="M0 0 C1.48306244 0.72508977 2.96721901 1.44794541 4.45239258 2.16870117 C7.55372015 3.67835952 10.64802859 5.20118574 13.73730469 6.73535156 C18.35527918 9.0269762 22.99116574 11.28022127 27.6328125 13.5234375 C32.82738737 16.03485871 38.01826566 18.55339016 43.20227051 21.08656311 C48.96230729 23.90046746 54.73243522 26.6857012 60.5390625 29.40234375 C62.1319812 30.15004028 62.1319812 30.15004028 63.75708008 30.9128418 C65.67263478 31.80866324 67.59146883 32.69752606 69.5144043 33.57739258 C81.15974964 39.03296056 81.15974964 39.03296056 83.95710754 45.66548157 C85.52143425 50.08104672 86.65030001 54.55795976 87.70581055 59.11791992 C87.91107361 59.98578125 88.11633667 60.85364258 88.32781982 61.74780273 C88.99922257 64.59483537 89.66236044 67.44370318 90.32421875 70.29296875 C90.79069536 72.29064837 91.25723387 74.28831353 91.72383118 76.28596497 C92.69864905 80.46680174 93.66863204 84.64872928 94.63598633 88.83129883 C95.86996079 94.16228766 97.12209598 99.48882973 98.37875652 104.81450939 C99.34847405 108.93809935 100.30519935 113.06462691 101.25849342 117.1920414 C101.71426799 119.15570473 102.17470086 121.11829343 102.64008141 123.07970238 C108.78254196 149.02315827 108.78254196 149.02315827 105.22302246 156.67233276 C103.78357089 158.97846832 102.19958077 160.99388497 100.4375 163.0625 C99.89947754 163.74231934 99.36145508 164.42213867 98.80712891 165.12255859 C97.1543977 167.19477979 95.45943083 169.2243808 93.75 171.25 C89.29749082 176.58829625 84.89762707 181.95395125 80.625 187.4375 C76.77086007 192.37758628 72.85493815 197.25776718 68.875 202.09765625 C65.927908 205.68234027 62.99258239 209.27640574 60.0625 212.875 C59.23504272 213.88953247 59.23504272 213.88953247 58.39086914 214.92456055 C55.67801018 218.26153985 52.99454188 221.61558942 50.37109375 225.0234375 C49.88624512 225.65145264 49.40139648 226.27946777 48.90185547 226.92651367 C48.00034436 228.09916892 47.10435357 229.27609997 46.21533203 230.45825195 C42.19292549 235.68896097 37.89719367 240.14007158 31.4375 242.0625 C28.04166274 242.35735816 24.65741738 242.34593013 21.25048828 242.3371582 C19.71544144 242.3448246 19.71544144 242.3448246 18.14938354 242.35264587 C14.76880025 242.36653782 11.38842094 242.36558528 8.0078125 242.36328125 C5.65518111 242.36716857 3.30255043 242.37150331 0.94992065 242.37626648 C-3.98116328 242.38372797 -8.91217561 242.38343802 -13.84326172 242.37817383 C-20.15715176 242.37238127 -26.47074825 242.38930565 -32.78458977 242.4125185 C-37.64366363 242.42726291 -42.50266692 242.42812653 -47.36175919 242.42500877 C-49.68932806 242.42552169 -52.01690092 242.43075386 -54.34444809 242.44082069 C-57.60205812 242.45318026 -60.85909807 242.44639569 -64.11669922 242.43481445 C-65.07485535 242.44245819 -66.03301147 242.45010193 -67.02020264 242.45797729 C-73.82641671 242.40459357 -78.79580786 241.52033186 -84.046875 236.85546875 C-84.79453125 235.99566406 -85.5421875 235.13585937 -86.3125 234.25 C-87.16199219 233.27417969 -88.01148438 232.29835937 -88.88671875 231.29296875 C-92.67242894 226.76824332 -96.30611046 222.12482421 -99.91796875 217.4609375 C-102.91672013 213.59137203 -106.01572918 209.80843916 -109.125 206.02734375 C-116.66076911 196.86123998 -124.1482745 187.65916105 -131.44848633 178.30395508 C-133.8883308 175.18029268 -136.35030761 172.07721371 -138.84375 168.99609375 C-139.39087646 168.31877197 -139.93800293 167.6414502 -140.50170898 166.94360352 C-141.55801677 165.63819202 -142.61727504 164.33516064 -143.67993164 163.03491211 C-144.15809326 162.44331299 -144.63625488 161.85171387 -145.12890625 161.2421875 C-145.76227905 160.46464111 -145.76227905 160.46464111 -146.40844727 159.67138672 C-150.95982137 153.3262301 -150.37681857 146.17960932 -149.19313049 138.74141312 C-147.96087749 132.19072451 -146.4189464 125.70925876 -144.890625 119.22265625 C-144.40607252 117.12589202 -143.92242517 115.02891843 -143.43963623 112.93174744 C-142.42984594 108.5599769 -141.4100552 104.1906997 -140.3828125 99.82299805 C-139.06887447 94.23319733 -137.77901247 88.63816681 -136.49635696 83.04111576 C-135.50345436 78.71953338 -134.49858221 74.40080372 -133.49001312 70.08285332 C-133.00966388 68.02044955 -132.53286287 65.95721594 -132.05973053 63.89314461 C-131.39723201 61.01180582 -130.71884779 58.13466254 -130.03613281 55.25805664 C-129.84479767 54.41173172 -129.65346252 53.5654068 -129.45632935 52.69343567 C-128.09378352 47.05478377 -126.325127 42.34612203 -121.69927979 38.52233887 C-120.76194 37.98437683 -120.76194 37.98437683 -119.80566406 37.43554688 C-119.107677 37.03134521 -118.40968994 36.62714355 -117.69055176 36.21069336 C-114.38510294 34.42723374 -111.05664671 32.72174002 -107.671875 31.09375 C-106.57085953 30.55791039 -106.57085953 30.55791039 -105.44760132 30.01124573 C-103.07153599 28.85684414 -100.69220013 27.70938765 -98.3125 26.5625 C-96.64951976 25.7571979 -94.98659721 24.95177667 -93.32373047 24.14624023 C-82.36368125 18.84722848 -71.36573272 13.63544381 -60.29394531 8.57348633 C-54.85826614 6.08486695 -49.47395581 3.53774676 -44.1484375 0.8203125 C-42.60712158 0.04482056 -42.60712158 0.04482056 -41.03466797 -0.74633789 C-39.13537816 -1.70721566 -37.24520965 -2.68648547 -35.36767578 -3.68920898 C-22.2359883 -10.28480168 -12.23392092 -6.16127418 0 0 Z " fill="#336DE5" transform="translate(149.5625,6.9375)"/>
<path d="M0 0 C1.67848022 0.78262207 1.67848022 0.78262207 3.39086914 1.58105469 C5.16385376 2.42845215 5.16385376 2.42845215 6.97265625 3.29296875 C8.20883714 3.88067239 9.44508479 4.46823564 10.68139648 5.05566406 C12.5798811 5.95943217 14.47723847 6.86533551 16.37214661 7.77658081 C20.59240986 9.80516137 24.83990126 11.76313415 29.10546875 13.6953125 C31.27023846 14.70551714 33.43433481 15.71716639 35.59765625 16.73046875 C37.1125061 17.39912964 37.1125061 17.39912964 38.65795898 18.08129883 C45.28006429 21.25841804 45.28006429 21.25841804 47.24438477 24.4375 C48.06636617 26.7766033 48.57439568 29.044851 49.03515625 31.48046875 C49.49614968 33.30436292 49.96120005 35.12723511 50.4296875 36.94921875 C50.90655057 38.95864173 51.37901831 40.9691116 51.84765625 42.98046875 C52.36685512 45.1836721 52.88639703 47.38679464 53.40625 49.58984375 C53.80432861 51.28270508 53.80432861 51.28270508 54.21044922 53.00976562 C55.0421024 56.50970098 55.89633687 60.0033878 56.7578125 63.49609375 C57.03455811 64.62466797 57.31130371 65.75324219 57.59643555 66.91601562 C58.12893595 69.08500018 58.66540171 71.25301602 59.20629883 73.41992188 C59.44630615 74.40412109 59.68631348 75.38832031 59.93359375 76.40234375 C60.14677246 77.2644043 60.35995117 78.12646484 60.57958984 79.01464844 C61.058325 81.60587304 61.25234107 83.85277707 61.03515625 86.48046875 C59.49754024 88.64264832 58.00499 90.48050705 56.22265625 92.41796875 C55.20089203 93.57485459 54.18142701 94.73377442 53.1640625 95.89453125 C52.37926514 96.78446777 52.37926514 96.78446777 51.57861328 97.69238281 C49.171284 100.4812597 46.91501688 103.38045773 44.66015625 106.29296875 C40.55248062 111.57106694 36.38090239 116.79229357 32.16015625 121.98046875 C31.62471191 122.63893799 31.08926758 123.29740723 30.53759766 123.97583008 C29.04010766 125.81353064 27.54151508 127.65002718 26.03515625 129.48046875 C25.43791748 130.525979 24.84067871 131.57148926 24.2253418 132.64868164 C22.28636931 134.94510004 21.19590763 135.44724534 18.20910645 136.06454468 C14.48236339 136.32766599 10.78030683 136.39587055 7.046875 136.3828125 C5.66069899 136.39448668 4.27453363 136.40749344 2.88838196 136.42176819 C-0.01446321 136.44411877 -2.91621387 136.44331307 -5.8190918 136.42749023 C-9.52258665 136.41013486 -13.2215652 136.46081223 -16.92431355 136.53052425 C-19.78748844 136.57494293 -22.64959351 136.57732502 -25.51305199 136.56799507 C-26.87695428 136.56952564 -28.24092127 136.58507011 -29.60448647 136.61543083 C-40.2012302 136.82237456 -40.2012302 136.82237456 -44.53665161 133.52362061 C-46.56335705 131.26797459 -48.28074049 128.99816417 -49.96484375 126.48046875 C-50.87670048 125.33440495 -51.79634966 124.19439847 -52.73046875 123.06640625 C-53.56138008 121.99825541 -54.3894779 120.9279104 -55.21484375 119.85546875 C-56.15302644 118.64925757 -57.0918522 117.44354635 -58.03125 116.23828125 C-58.74885498 115.31644043 -58.74885498 115.31644043 -59.48095703 114.37597656 C-61.50617107 111.78898054 -63.55484148 109.22126694 -65.60961914 106.65771484 C-66.63238783 105.3800228 -67.65116115 104.09912155 -68.66577148 102.81494141 C-70.88256728 100.01805294 -73.11064115 97.32270621 -75.53515625 94.69921875 C-76.27507812 93.88453125 -77.015 93.06984375 -77.77734375 92.23046875 C-78.42316406 91.5653125 -79.06898437 90.90015625 -79.734375 90.21484375 C-83.02896489 82.89353288 -79.34166304 72.43096511 -77.77734375 64.85546875 C-77.55884766 63.79166992 -77.34035156 62.72787109 -77.11523438 61.63183594 C-76.41034937 58.24540954 -75.68960611 54.86269311 -74.96484375 51.48046875 C-74.72040527 50.32256836 -74.4759668 49.16466797 -74.22412109 47.97167969 C-73.49362078 44.55249924 -72.73432324 41.1410668 -71.96484375 37.73046875 C-71.74030518 36.67778809 -71.5157666 35.62510742 -71.28442383 34.54052734 C-71.0552124 33.55648926 -70.82600098 32.57245117 -70.58984375 31.55859375 C-70.39648438 30.6965332 -70.203125 29.83447266 -70.00390625 28.94628906 C-67.09309643 22.03858719 -60.44486884 19.38010812 -54.09765625 16.28515625 C-53.14470673 15.81103302 -52.1917572 15.33690979 -51.20993042 14.84841919 C-48.17447364 13.34132556 -45.1322447 11.84848546 -42.08984375 10.35546875 C-40.05164697 9.34462938 -38.01388173 8.33291938 -35.9765625 7.3203125 C-25.85726811 2.30633531 -25.85726811 2.30633531 -22.23687744 0.57220459 C-20.82334437 -0.10701276 -19.41791305 -0.80371617 -18.02630615 -1.52679443 C-11.49003457 -4.73806051 -6.27934864 -2.95580446 0 0 Z " fill="#FCFCFE" transform="translate(137.96484375,45.51953125)"/>
<path d="M0 0 C1.48306244 0.72508977 2.96721901 1.44794541 4.45239258 2.16870117 C7.55372015 3.67835952 10.64802859 5.20118574 13.73730469 6.73535156 C18.35527918 9.0269762 22.99116574 11.28022127 27.6328125 13.5234375 C32.82738737 16.03485871 38.01826566 18.55339016 43.20227051 21.08656311 C48.96230729 23.90046746 54.73243522 26.6857012 60.5390625 29.40234375 C62.1319812 30.15004028 62.1319812 30.15004028 63.75708008 30.9128418 C65.67263478 31.80866324 67.59146883 32.69752606 69.5144043 33.57739258 C81.15974964 39.03296056 81.15974964 39.03296056 83.95710754 45.66548157 C85.52143425 50.08104672 86.65030001 54.55795976 87.70581055 59.11791992 C87.91107361 59.98578125 88.11633667 60.85364258 88.32781982 61.74780273 C88.99922257 64.59483537 89.66236044 67.44370318 90.32421875 70.29296875 C90.79069536 72.29064837 91.25723387 74.28831353 91.72383118 76.28596497 C92.69864905 80.46680174 93.66863204 84.64872928 94.63598633 88.83129883 C95.86996079 94.16228766 97.12209598 99.48882973 98.37875652 104.81450939 C99.34847405 108.93809935 100.30519935 113.06462691 101.25849342 117.1920414 C101.71426799 119.15570473 102.17470086 121.11829343 102.64008141 123.07970238 C108.78254196 149.02315827 108.78254196 149.02315827 105.22302246 156.67233276 C103.78357089 158.97846832 102.19958077 160.99388497 100.4375 163.0625 C99.89947754 163.74231934 99.36145508 164.42213867 98.80712891 165.12255859 C97.1543977 167.19477979 95.45943083 169.2243808 93.75 171.25 C89.29749082 176.58829625 84.89762707 181.95395125 80.625 187.4375 C76.77086007 192.37758628 72.85493815 197.25776718 68.875 202.09765625 C65.927908 205.68234027 62.99258239 209.27640574 60.0625 212.875 C59.23504272 213.88953247 59.23504272 213.88953247 58.39086914 214.92456055 C55.67801018 218.26153985 52.99454188 221.61558942 50.37109375 225.0234375 C49.88624512 225.65145264 49.40139648 226.27946777 48.90185547 226.92651367 C48.00034436 228.09916892 47.10435357 229.27609997 46.21533203 230.45825195 C42.19292549 235.68896097 37.89719367 240.14007158 31.4375 242.0625 C28.04166274 242.35735816 24.65741738 242.34593013 21.25048828 242.3371582 C19.71544144 242.3448246 19.71544144 242.3448246 18.14938354 242.35264587 C14.76880025 242.36653782 11.38842094 242.36558528 8.0078125 242.36328125 C5.65518111 242.36716857 3.30255043 242.37150331 0.94992065 242.37626648 C-3.98116328 242.38372797 -8.91217561 242.38343802 -13.84326172 242.37817383 C-20.15715176 242.37238127 -26.47074825 242.38930565 -32.78458977 242.4125185 C-37.64366363 242.42726291 -42.50266692 242.42812653 -47.36175919 242.42500877 C-49.68932806 242.42552169 -52.01690092 242.43075386 -54.34444809 242.44082069 C-57.60205812 242.45318026 -60.85909807 242.44639569 -64.11669922 242.43481445 C-65.07485535 242.44245819 -66.03301147 242.45010193 -67.02020264 242.45797729 C-73.82641671 242.40459357 -78.79580786 241.52033186 -84.046875 236.85546875 C-84.79453125 235.99566406 -85.5421875 235.13585937 -86.3125 234.25 C-87.16199219 233.27417969 -88.01148438 232.29835937 -88.88671875 231.29296875 C-92.67242894 226.76824332 -96.30611046 222.12482421 -99.91796875 217.4609375 C-102.91672013 213.59137203 -106.01572918 209.80843916 -109.125 206.02734375 C-116.66076911 196.86123998 -124.1482745 187.65916105 -131.44848633 178.30395508 C-133.8883308 175.18029268 -136.35030761 172.07721371 -138.84375 168.99609375 C-139.39087646 168.31877197 -139.93800293 167.6414502 -140.50170898 166.94360352 C-141.55801677 165.63819202 -142.61727504 164.33516064 -143.67993164 163.03491211 C-144.15809326 162.44331299 -144.63625488 161.85171387 -145.12890625 161.2421875 C-145.76227905 160.46464111 -145.76227905 160.46464111 -146.40844727 159.67138672 C-150.95982137 153.3262301 -150.37681857 146.17960932 -149.19313049 138.74141312 C-147.96087749 132.19072451 -146.4189464 125.70925876 -144.890625 119.22265625 C-144.40607252 117.12589202 -143.92242517 115.02891843 -143.43963623 112.93174744 C-142.42984594 108.5599769 -141.4100552 104.1906997 -140.3828125 99.82299805 C-139.06887447 94.23319733 -137.77901247 88.63816681 -136.49635696 83.04111576 C-135.50345436 78.71953338 -134.49858221 74.40080372 -133.49001312 70.08285332 C-133.00966388 68.02044955 -132.53286287 65.95721594 -132.05973053 63.89314461 C-131.39723201 61.01180582 -130.71884779 58.13466254 -130.03613281 55.25805664 C-129.84479767 54.41173172 -129.65346252 53.5654068 -129.45632935 52.69343567 C-128.09378352 47.05478377 -126.325127 42.34612203 -121.69927979 38.52233887 C-120.76194 37.98437683 -120.76194 37.98437683 -119.80566406 37.43554688 C-119.107677 37.03134521 -118.40968994 36.62714355 -117.69055176 36.21069336 C-114.38510294 34.42723374 -111.05664671 32.72174002 -107.671875 31.09375 C-106.57085953 30.55791039 -106.57085953 30.55791039 -105.44760132 30.01124573 C-103.07153599 28.85684414 -100.69220013 27.70938765 -98.3125 26.5625 C-96.64951976 25.7571979 -94.98659721 24.95177667 -93.32373047 24.14624023 C-82.36368125 18.84722848 -71.36573272 13.63544381 -60.29394531 8.57348633 C-54.85826614 6.08486695 -49.47395581 3.53774676 -44.1484375 0.8203125 C-42.60712158 0.04482056 -42.60712158 0.04482056 -41.03466797 -0.74633789 C-39.13537816 -1.70721566 -37.24520965 -2.68648547 -35.36767578 -3.68920898 C-22.2359883 -10.28480168 -12.23392092 -6.16127418 0 0 Z M-38.625 5.3125 C-39.80312256 5.87807617 -40.98124512 6.44365234 -42.19506836 7.02636719 C-45.56700432 8.64665129 -48.92567845 10.29295783 -52.28271484 11.94384766 C-56.4638473 13.99545923 -60.65476638 16.02698145 -64.84375 18.0625 C-70.14382439 20.6398099 -75.44210934 23.22058225 -80.73266602 25.81738281 C-81.56031967 26.22333679 -82.38797333 26.62929077 -83.2407074 27.04754639 C-84.88608567 27.85505702 -86.53091894 28.66367913 -88.17518616 29.47344971 C-92.37951436 31.53639663 -96.5994632 33.55111636 -100.85888672 35.49804688 C-101.72041855 35.89481628 -102.58195038 36.29158569 -103.46958923 36.70037842 C-105.10273972 37.44956205 -106.74002183 38.18983209 -108.38209534 38.91925049 C-114.96414124 41.94717749 -118.9957636 45.1864143 -121.83538914 52.06732368 C-123.09980382 55.53684994 -123.91878173 59.08868868 -124.73901367 62.68481445 C-124.93452316 63.51833435 -125.13003265 64.35185425 -125.33146667 65.21063232 C-125.97131442 67.94747369 -126.6013929 70.68644538 -127.23046875 73.42578125 C-127.67432699 75.34244179 -128.11844846 77.25904139 -128.56282043 79.17558289 C-129.49102343 83.18657527 -130.41402301 87.19872367 -131.33374023 91.21166992 C-132.50872409 96.33519682 -133.69963797 101.45487024 -134.89490795 106.57369709 C-135.81617766 110.52953033 -136.72732907 114.48764395 -137.63567543 118.44646263 C-138.07037385 120.33415533 -138.50851924 122.2210579 -138.95027733 124.10711098 C-139.56875995 126.75311722 -140.17309178 129.40199553 -140.77416992 132.05200195 C-140.95647156 132.81856613 -141.13877319 133.58513031 -141.32659912 134.37492371 C-142.87761285 141.33459704 -144.29105759 148.86566689 -140.375 155.1875 C-139.13959631 156.83959567 -137.86115915 158.45965042 -136.5625 160.0625 C-136.09021973 160.65369629 -135.61793945 161.24489258 -135.13134766 161.85400391 C-131.81053631 166.00989107 -128.44562072 170.12784853 -125.06347656 174.23388672 C-123.20872387 176.49349922 -121.38206841 178.77448951 -119.5625 181.0625 C-116.71020297 184.64138216 -113.82885157 188.19532131 -110.93725586 191.74243164 C-106.24411256 197.50037724 -101.58019211 203.2767037 -97 209.125 C-96.55897949 209.68461426 -96.11795898 210.24422852 -95.66357422 210.82080078 C-93.24010096 213.89969537 -90.85109301 217.00021371 -88.4921875 220.12890625 C-87.45332386 221.48192354 -86.41426589 222.83479165 -85.375 224.1875 C-84.912146 224.815354 -84.44929199 225.44320801 -83.97241211 226.09008789 C-80.09558403 231.08877948 -75.64130009 234.41020468 -69.26161194 235.4304657 C-66.70013164 235.5796221 -64.16727574 235.60332237 -61.6015625 235.58007812 C-60.63788757 235.5870874 -59.67421265 235.59409668 -58.68133545 235.60131836 C-55.51642487 235.61883015 -52.35241865 235.60729952 -49.1875 235.59375 C-46.97607248 235.59644686 -44.76464613 235.6003309 -42.55322266 235.60534668 C-37.92664256 235.61123252 -33.30037213 235.602708 -28.67382812 235.58398438 C-22.75570016 235.56119574 -16.8382979 235.57432368 -10.92019653 235.59827423 C-6.35614596 235.61275674 -1.79226628 235.6081149 2.77178955 235.59776306 C4.95339037 235.59510257 7.13500691 235.59834157 9.31658936 235.60768127 C12.37032934 235.61788704 15.42290854 235.60228884 18.4765625 235.58007812 C19.37030579 235.58817505 20.26404907 235.59627197 21.18487549 235.60461426 C27.9834725 235.51341694 33.31471613 233.83520276 38.45629883 229.27001953 C38.93091553 228.66786621 39.40553223 228.06571289 39.89453125 227.4453125 C40.71824219 226.42244141 40.71824219 226.42244141 41.55859375 225.37890625 C42.11675781 224.65574219 42.67492187 223.93257812 43.25 223.1875 C43.85328125 222.43082031 44.4565625 221.67414063 45.078125 220.89453125 C46.87953157 218.62849128 48.66065009 216.34782114 50.4375 214.0625 C51.38859459 212.85099038 52.34035917 211.64000625 53.29296875 210.4296875 C54.61611174 208.74665542 55.93754153 207.06244669 57.25317383 205.37353516 C60.90012833 200.70176717 64.65729996 196.12681715 68.4375 191.5625 C73.63991102 185.27745745 78.74871475 178.93218987 83.7578125 172.4921875 C85.64763964 170.0628112 87.56218896 167.65539428 89.4921875 165.2578125 C89.99532471 164.6289917 90.49846191 164.0001709 91.0168457 163.35229492 C91.97683577 162.153374 92.94124311 160.95797113 93.91088867 159.7668457 C98.95313148 153.44081578 99.85877725 148.93639619 99.4375 141.0625 C99.01508801 138.07059362 98.36925542 135.15404891 97.6809082 132.21313477 C97.40034828 130.96241684 97.40034828 130.96241684 97.11412048 129.68643188 C96.49879551 126.95655372 95.86920869 124.23021723 95.23828125 121.50390625 C94.80136969 119.5902748 94.36495114 117.67653073 93.92900085 115.76268005 C93.01497549 111.76106407 92.09360302 107.76122745 91.16723633 103.76245117 C89.98625238 98.66100688 88.82582283 93.55514156 87.67118549 88.44767857 C86.77515376 84.49654076 85.86706246 80.54824718 84.95552635 76.60066032 C84.52304315 74.72027462 84.09448042 72.83898241 83.67006874 70.9567585 C80.65691014 53.92727754 80.65691014 53.92727754 70.33984375 41.13671875 C68.70049497 40.30947969 67.04402505 39.51560059 65.375 38.75 C64.45654297 38.29890869 63.53808594 37.84781738 62.59179688 37.38305664 C59.55631872 35.90641249 56.50088993 34.48025151 53.4375 33.0625 C51.8908667 32.33836914 51.8908667 32.33836914 50.31298828 31.59960938 C45.8761994 29.52307515 41.43483516 27.45730572 36.98193359 25.41552734 C24.76020367 19.80460468 12.68552697 13.89870977 0.61132812 7.97827148 C-0.54635826 7.4116832 -0.54635826 7.4116832 -1.72743225 6.83364868 C-3.17571459 6.12461447 -4.62322641 5.4140033 -6.06980896 4.70150757 C-18.738659 -1.50098395 -25.97523004 -0.9680702 -38.625 5.3125 Z " fill="#FDFDFE" transform="translate(149.5625,6.9375)"/>
<path d="M0 0 C1.2065625 0.0309375 1.2065625 0.0309375 2.4375 0.0625 C2.59605469 0.62839844 2.75460938 1.19429688 2.91796875 1.77734375 C3.62145114 3.98884364 4.35108 6.01037333 5.4375 8.0625 C7.80927882 9.47052691 7.80927882 9.47052691 10.4375 9.0625 C12.74254044 7.73096734 12.74254044 7.73096734 14.4375 6.0625 C16.95320636 7.03632182 18.17694098 7.52401135 19.375 10 C19.395625 10.680625 19.41625 11.36125 19.4375 12.0625 C18.9425 12.51625 18.4475 12.97 17.9375 13.4375 C17.4425 13.97375 16.9475 14.51 16.4375 15.0625 C16.67033149 18.21171909 16.67033149 18.21171909 17.4375 21.0625 C19.7475 21.7225 22.0575 22.3825 24.4375 23.0625 C24.4375 25.0425 24.4375 27.0225 24.4375 29.0625 C21.7975 30.0525 19.1575 31.0425 16.4375 32.0625 C17.03877409 36.76834554 17.03877409 36.76834554 18.125 41.375 C18.2796875 42.2103125 18.2796875 42.2103125 18.4375 43.0625 C17.7775 43.7225 17.1175 44.3825 16.4375 45.0625 C11.88194444 44.50694444 11.88194444 44.50694444 10.4375 43.0625 C8.43791636 43.02169217 6.43704746 43.01995644 4.4375 43.0625 C3.4475 45.7025 2.4575 48.3425 1.4375 51.0625 C-0.2125 51.0625 -1.8625 51.0625 -3.5625 51.0625 C-3.76746094 50.49660156 -3.97242188 49.93070313 -4.18359375 49.34765625 C-4.45300781 48.61417969 -4.72242188 47.88070312 -5 47.125 C-5.26683594 46.39410156 -5.53367188 45.66320312 -5.80859375 44.91015625 C-6.41636948 43.07944322 -6.41636948 43.07944322 -7.5625 42.0625 C-10.02059998 41.8124227 -10.02059998 41.8124227 -12.5625 42.0625 C-13.2225 42.7225 -13.8825 43.3825 -14.5625 44.0625 C-17.1875 43.6875 -17.1875 43.6875 -19.5625 43.0625 C-20.25 41.3125 -20.25 41.3125 -20.5625 39.0625 C-20.0675 38.423125 -19.5725 37.78375 -19.0625 37.125 C-17.24319452 35.11177159 -17.24319452 35.11177159 -17.875 32.3125 C-18.2153125 31.19875 -18.2153125 31.19875 -18.5625 30.0625 C-20.8725 29.4025 -23.1825 28.7425 -25.5625 28.0625 C-25.5625 26.0825 -25.5625 24.1025 -25.5625 22.0625 C-21.6025 20.5775 -21.6025 20.5775 -17.5625 19.0625 C-17.39568891 16.14597826 -17.39568891 16.14597826 -17.5625 13.0625 C-18.2225 12.4025 -18.8825 11.7425 -19.5625 11.0625 C-19.1875 8.9375 -19.1875 8.9375 -18.5625 7.0625 C-16.1875 6.4375 -16.1875 6.4375 -13.5625 6.0625 C-12.9025 6.7225 -12.2425 7.3825 -11.5625 8.0625 C-7.97906024 8.22927282 -7.97906024 8.22927282 -4.5625 8.0625 C-4.418125 6.928125 -4.27375 5.79375 -4.125 4.625 C-3.40786082 0.08311856 -3.40786082 0.08311856 0 0 Z " fill="#3C73E6" transform="translate(140.5625,114.9375)"/>
<path d="M0 0 C5.67549553 2.04317839 9.29873721 5.59747441 12 11 C12.56350726 15.61891196 12.4422879 19.09841312 10.375 23.3125 C7.05215511 27.07256133 4.5015961 29.56165386 -0.5859375 30.453125 C-5.58025786 30.75415253 -9.09390812 30.52556497 -13.0625 27.3125 C-16.85419678 23.42102173 -17.85832253 20.48761339 -18.375 15.0625 C-18.2533715 10.75685125 -16.78850531 8.31606036 -14 5 C-9.13691505 0.71585374 -6.54615737 -0.43641049 0 0 Z " fill="#FBFCFE" transform="translate(143,125)"/>
<path d="M0 0 C2.3125 -0.3125 2.3125 -0.3125 5 0 C5.433125 0.825 5.86625 1.65 6.3125 2.5 C6.869375 3.325 7.42625 4.15 8 5 C10.70881687 5.37498085 13.25273322 5.13082223 16 5 C16.66 5.66 17.32 6.32 18 7 C17.46428571 10.53571429 17.46428571 10.53571429 16 12 C15.66625723 14.41583753 15.66625723 14.41583753 16 17 C16.515625 17.515625 17.03125 18.03125 17.5625 18.5625 C18.036875 19.036875 18.51125 19.51125 19 20 C18.875 22.125 18.875 22.125 18 24 C15 25 15 25 12.5 25.1875 C9.65907562 25.80628654 9.65907562 25.80628654 8.1875 29.0625 C7.795625 30.031875 7.40375 31.00125 7 32 C4.625 31.75 4.625 31.75 2 31 C0.6875 28.9375 0.6875 28.9375 0 27 C-1.918125 27.061875 -1.918125 27.061875 -3.875 27.125 C-6.0546875 27.1953125 -6.0546875 27.1953125 -8 27 C-8.66 26.34 -9.32 25.68 -10 25 C-9.64463409 22.37029226 -8.97860593 19.92512075 -8.25 17.375 C-8.1675 16.59125 -8.085 15.8075 -8 15 C-8.495 14.505 -8.99 14.01 -9.5 13.5 C-9.995 13.005 -10.49 12.51 -11 12 C-10.6875 9.3125 -10.6875 9.3125 -10 7 C-7.36 6.67 -4.72 6.34 -2 6 C-1.34 4.02 -0.68 2.04 0 0 Z " fill="#3B73E6" transform="translate(104,110)"/>
<path d="M0 0 C0.99 0 1.98 0 3 0 C3 9.9 3 19.8 3 30 C2.01 30 1.02 30 0 30 C-0.33 29.34 -0.66 28.68 -1 28 C-1.515625 28.515625 -2.03125 29.03125 -2.5625 29.5625 C-6.04426568 31.61584899 -8.1631596 30.97665028 -12 30 C-14.58455285 28.10466125 -14.96275506 27.11173483 -16 24 C-16.57706178 18.67454416 -16.90094499 14.43588107 -14 9.8125 C-9.90996287 7.3414359 -7.72409784 7.45789041 -3 8 C-2.34 8.66 -1.68 9.32 -1 10 C-0.67 6.7 -0.34 3.4 0 0 Z " fill="#EFF3FC" transform="translate(146,192)"/>
<path d="M0 0 C3.47984756 2.69865729 4.69511777 4.1440664 5.40234375 8.44921875 C5.58512351 13.34040509 5.34314969 17.1792575 2 21 C-1.21553446 23.32849047 -4.11021377 23.54457007 -8 23 C-10.92483867 21.17452064 -13.43429205 19.13141589 -15 16 C-15.53118252 11.08003072 -15.75105553 7.22672403 -13.125 2.9375 C-9.17355604 -0.66528714 -5.1728113 -0.90078266 0 0 Z " fill="#EAF0FC" transform="translate(120,200)"/>
<path d="M0 0 C3.0625 2.0625 3.0625 2.0625 5 5 C5 7.31 5 9.62 5 12 C-0.28 12 -5.56 12 -11 12 C-10.01 13.98 -9.02 15.96 -8 18 C-3.71 18 0.58 18 5 18 C5 18.99 5 19.98 5 21 C0.80642919 23.09678541 -4.44475309 22.55270329 -9 22 C-12.48242391 19.47353559 -13.65226822 18.04319535 -15 14 C-15.57279236 6.8973747 -15.57279236 6.8973747 -13.125 3.0625 C-9.22490475 -0.72288656 -5.2343373 -0.78515059 0 0 Z " fill="#E7EEFC" transform="translate(170,200)"/>
<path d="M0 0 C2.475 0.495 2.475 0.495 5 1 C5.66 0.67 6.32 0.34 7 0 C14.39358264 -0.46943382 14.39358264 -0.46943382 16.60498047 1.24243164 C18.37426415 3.47153091 18.34970824 4.63115759 18.29296875 7.44921875 C18.28330078 8.29677734 18.27363281 9.14433594 18.26367188 10.01757812 C18.23853516 10.89865234 18.21339844 11.77972656 18.1875 12.6875 C18.16719727 14.02651367 18.16719727 14.02651367 18.14648438 15.39257812 C18.11114079 17.59566166 18.06180493 19.79752582 18 22 C17.01 22 16.02 22 15 22 C14.93941406 20.86820313 14.87882812 19.73640625 14.81640625 18.5703125 C14.73200083 17.08852855 14.64735283 15.6067584 14.5625 14.125 C14.52318359 13.37863281 14.48386719 12.63226563 14.44335938 11.86328125 C14.28426376 7.80013136 14.28426376 7.80013136 13 4 C10.08347826 3.83318891 10.08347826 3.83318891 7 4 C4.06552643 6.93447357 4.53841577 10.18259456 4.375 14.125 C4.33632812 14.87910156 4.29765625 15.63320312 4.2578125 16.41015625 C4.16348969 18.27303184 4.08065338 20.13648255 4 22 C2.68 22 1.36 22 0 22 C0 14.74 0 7.48 0 0 Z " fill="#F5F7FD" transform="translate(81,200)"/>
<path d="M0 0 C0.46631259 4.42349306 0.70483126 8.59480463 0 13 C-3.22476811 16.8159756 -7.28130536 17.82032634 -12 19 C-12 13.72 -12 8.44 -12 3 C-3.375 0 -3.375 0 0 0 Z " fill="#3C73E6" transform="translate(156,89)"/>
<path d="M0 0 C0.59721264 4.47245911 0.88570469 8.55566038 0 13 C-2.9224568 15.98069416 -6.09055242 17.59644423 -10 19 C-10.66 19 -11.32 19 -12 19 C-12 13.72 -12 8.44 -12 3 C-4.125 -0.375 -4.125 -0.375 0 0 Z " fill="#366FE5" transform="translate(125,89)"/>
<path d="M0 0 C4.48688907 0.5278693 7.73727501 1.29491 12 3 C12 8.28 12 13.56 12 19 C2.89655172 15.96551724 2.89655172 15.96551724 0 13 C-0.52036508 8.62568106 -0.34211809 4.38417991 0 0 Z " fill="#3971E5" transform="translate(131,89)"/>
<path d="M0 0 C10.875 2.875 10.875 2.875 12 4 C12.07319621 6.69654854 12.09242537 9.36691458 12.0625 12.0625 C12.05798828 12.82111328 12.05347656 13.57972656 12.04882812 14.36132812 C12.0370068 16.24091871 12.01907078 18.12046899 12 20 C7.70816541 18.35442612 3.95419701 16.32599824 0 14 C0 9.38 0 4.76 0 0 Z " fill="#3A72E6" transform="translate(99,88)"/>
<path d="M0 0 C4.48688907 0.5278693 7.73727501 1.29491 12 3 C12 8.28 12 13.56 12 19 C2.89655172 15.96551724 2.89655172 15.96551724 0 13 C-0.52036508 8.62568106 -0.34211809 4.38417991 0 0 Z " fill="#3A71E6" transform="translate(118,61)"/>
<path d="M0 0 C2 1.0625 2 1.0625 3 3 C3.3898913 6.57400356 3.37020241 9.09763163 2 12.4375 C-0.58915116 14.46027435 -2.81417139 14.6226043 -6.0546875 14.44921875 C-8 14 -8 14 -10.5625 11.875 C-12.34196438 8.31607124 -12.2227635 6.74980806 -11 3 C-8.64926414 -1.1483574 -4.23831445 -0.62691735 0 0 Z " fill="#F9FAFE" transform="translate(112,119)"/>
<path d="M0 0 C2.28837946 1.66525266 2.92598387 2.55880584 3.3984375 5.375 C3.39070313 6.24125 3.38296875 7.1075 3.375 8 C3.38273437 8.86625 3.39046875 9.7325 3.3984375 10.625 C2.92584138 13.44204351 2.28599151 14.33111887 0 16 C-3 16.4375 -3 16.4375 -6 16 C-7.875 14.5625 -7.875 14.5625 -9 12 C-9.99918844 4.31180003 -9.99918844 4.31180003 -7.6640625 1.24609375 C-5.09032086 -0.68119166 -3.11296207 -0.38912026 0 0 Z " fill="#356EE5" transform="translate(118,203)"/>
<path d="M0 0 C0.59723137 4.47259936 0.89084293 8.55632785 0 13 C-2.93947888 15.9499583 -6.12062475 17.54772106 -10 19 C-10.33 19 -10.66 19 -11 19 C-11 13.39 -11 7.78 -11 2 C-3 0 -3 0 0 0 Z " fill="#346DE5" transform="translate(143,61)"/>
<path d="M0 0 C5.10094527 -0.6511845 5.10094527 -0.6511845 7.671875 1.2109375 C9.42996653 3.57919021 9.36906139 5.07621148 9.3125 8 C9.30863281 8.86625 9.30476562 9.7325 9.30078125 10.625 C9 13 9 13 7 16 C3.5 16.375 3.5 16.375 0 16 C-2.15942819 12.76085771 -2.27232978 11.75140267 -2.25 8 C-2.25515625 7.13375 -2.2603125 6.2675 -2.265625 5.375 C-2 3 -2 3 0 0 Z " fill="#356EE5" transform="translate(136,203)"/>
<path d="M0 0 C0.99 0.33 1.98 0.66 3 1 C2.360625 1.7425 1.72125 2.485 1.0625 3.25 C-1.27335786 5.99393661 -1.27335786 5.99393661 -2 10 C1.96 10 5.92 10 10 10 C10 10.33 10 10.66 10 11 C6.04 11 2.08 11 -2 11 C-1.01 13.31 -0.02 15.62 1 18 C5.29 18 9.58 18 14 18 C14 18.99 14 19.98 14 21 C9.80642919 23.09678541 4.55524691 22.55270329 0 22 C-3.48242391 19.47353559 -4.65226822 18.04319535 -6 14 C-6.57279236 6.8973747 -6.57279236 6.8973747 -4.125 3.0625 C-2 1 -2 1 0 0 Z " fill="#EFF3FC" transform="translate(161,200)"/>
<path d="M0 0 C-4.56193634 3.93453717 -9.12420028 4.16584919 -15 4 C-18.14545992 3.29046378 -21.04793448 2.29016197 -24 1 C-15.88484627 -4.41010249 -8.70296747 -2.66417371 0 0 Z " fill="#4277E7" transform="translate(124,86)"/>
<path d="M0 0 C-6.23702011 4.1580134 -11.88309191 4.40533149 -19 3 C-21.02024799 2.3974699 -23.03233469 1.75679435 -25 1 C-16.58839066 -4.60773956 -8.98513131 -2.80785353 0 0 Z " fill="#3E74E6" transform="translate(143,58)"/>
<path d="M0 0 C-3.26768472 3.26768472 -6.85329208 3.89382334 -11.375 4.3125 C-15.76315676 3.93421062 -18.95062302 2.70500083 -23 1 C-14.98796294 -4.34135804 -8.81251523 -2.31908296 0 0 Z " fill="#3D74E6" transform="translate(156,86)"/>
<path d="M0 0 C3.5625 0.375 3.5625 0.375 5.5 2.25 C6.5625 4.375 6.5625 4.375 6.5625 6.375 C2.2725 6.375 -2.0175 6.375 -6.4375 6.375 C-4.97955607 0.5432243 -4.97955607 0.5432243 0 0 Z " fill="#3870E5" transform="translate(165.4375,202.625)"/>
<path d="M0 0 C0.78375 0.04125 1.5675 0.0825 2.375 0.125 C1.055 1.115 -0.265 2.105 -1.625 3.125 C-1.12743908 5.88141416 -1.12743908 5.88141416 0.375 8.125 C0.5625 11.0625 0.5625 11.0625 0.375 14.125 C-2.1904594 16.6904594 -4.10186668 16.66546087 -7.625 17.125 C-7.955 18.775 -8.285 20.425 -8.625 22.125 C-9.615 21.795 -10.605 21.465 -11.625 21.125 C-10.875 16.375 -10.875 16.375 -8.625 14.125 C-5.5 14 -5.5 14 -2.625 14.125 C-1.85257731 12.28799211 -1.85257731 12.28799211 -1.625 10.125 C-2.099375 9.650625 -2.57375 9.17625 -3.0625 8.6875 C-4.625 7.125 -4.625 7.125 -4.9375 4.5625 C-4.48449924 1.02909406 -3.55456597 0.16926505 0 0 Z " fill="#E8EFFC" transform="translate(123.625,119.875)"/>
<path d="M0 0 C2.125 0.375 2.125 0.375 4 1 C3.01 1 2.02 1 1 1 C0.67 3.31 0.34 5.62 0 8 C-0.99 7.67 -1.98 7.34 -3 7 C-2.25 2.25 -2.25 2.25 0 0 Z " fill="#D6E2F9" transform="translate(115,134)"/>
<path d="M0 0 C0.78375 0.04125 1.5675 0.0825 2.375 0.125 C0.04166667 2.45833333 -2.29166667 4.79166667 -4.625 7.125 C-4.75 4.75 -4.75 4.75 -4.625 2.125 C-2.625 0.125 -2.625 0.125 0 0 Z " fill="#D5E1F9" transform="translate(123.625,119.875)"/>
</svg>
