<?xml version="1.0" encoding="UTF-8"?>
<!DOCTYPE svg PUBLIC "-//W3C//DTD SVG 1.1//EN" "http://www.w3.org/Graphics/SVG/1.1/DTD/svg11.dtd">
<svg xmlns="http://www.w3.org/2000/svg" version="1.1" width="1417px" height="1417px" style="shape-rendering:geometricPrecision; text-rendering:geometricPrecision; image-rendering:optimizeQuality; fill-rule:evenodd; clip-rule:evenodd" xmlns:xlink="http://www.w3.org/1999/xlink">
<g><path style="opacity:0.964" fill="#000000" d="M 1096.5,571.5 C 1169.86,643.568 1193.36,729.568 1167,829.5C 1136.94,915.222 1078.44,971.389 991.5,998C 906.984,1019.75 829.318,1005.42 758.5,955C 703.82,954.804 649.153,954.304 594.5,953.5C 594.34,951.801 594.506,950.134 595,948.5C 599.765,943.228 604.265,937.895 608.5,932.5C 610.262,931.738 611.262,930.404 611.5,928.5C 632.918,901.348 654.585,874.348 676.5,847.5C 657.057,795.762 654.223,743.096 668,689.5C 675.068,665.274 685.402,642.607 699,621.5C 698.605,618.135 698.772,614.802 699.5,611.5C 703.66,611.502 706.16,609.502 707,605.5C 710.101,604.638 710.935,602.972 709.5,600.5C 710.095,597.887 710.929,597.887 712,600.5C 715.481,598.399 718.481,595.732 721,592.5C 721.49,591.207 721.657,589.873 721.5,588.5C 723.681,588.716 725.347,587.883 726.5,586C 721.344,574.858 716.344,563.692 711.5,552.5C 710.158,553.902 709.324,553.569 709,551.5C 708.907,548.993 708.074,546.826 706.5,545C 706.784,543.044 706.784,540.877 706.5,538.5C 704.058,538.646 703.391,537.813 704.5,536C 703.552,535.517 702.552,535.351 701.5,535.5C 700.416,531.582 699.416,527.582 698.5,523.5C 697.264,524.246 695.93,524.579 694.5,524.5C 694.822,528.439 693.489,529.272 690.5,527C 688.86,524.224 689.527,522.224 692.5,521C 690.85,515.783 689.516,510.45 688.5,505C 688.759,503.739 689.426,502.739 690.5,502C 688.36,498.141 687.694,494.141 688.5,490C 734.796,462.607 780.962,435.107 827,407.5C 825.334,377.538 838,355.872 865,342.5C 865.5,322.169 865.667,301.836 865.5,281.5C 843.357,274.684 827.024,261.017 816.5,240.5C 816.238,236.434 814.905,235.767 812.5,238.5C 810.62,238.229 809.287,238.896 808.5,240.5C 802.021,242.909 795.688,245.575 789.5,248.5C 787.847,248.66 786.514,249.326 785.5,250.5C 731.381,274.195 677.381,297.861 623.5,321.5C 621.847,321.66 620.514,322.326 619.5,323.5C 611.683,327.328 603.683,330.662 595.5,333.5C 593.973,333.427 592.973,334.094 592.5,335.5C 581.999,339.66 571.666,343.993 561.5,348.5C 559.973,348.427 558.973,349.094 558.5,350.5C 558.167,350.5 557.833,350.5 557.5,350.5C 555.973,350.427 554.973,351.094 554.5,352.5C 543.957,356.613 533.624,360.946 523.5,365.5C 521.847,365.66 520.514,366.326 519.5,367.5C 523.001,421.432 498.501,455.099 446,468.5C 409.268,591.53 372.434,714.53 335.5,837.5C 335.833,838.167 336.167,838.833 336.5,839.5C 383.715,859.924 405.549,895.924 402,947.5C 396.504,979.369 380.004,1003.54 352.5,1020C 392.328,1020.62 431.995,1020.62 471.5,1020C 470.098,1018.66 470.431,1017.82 472.5,1017.5C 501.155,1024.6 520.988,1042.6 532,1071.5C 539.824,1118.29 521.991,1150.79 478.5,1169C 477.207,1169.49 475.873,1169.66 474.5,1169.5C 474.784,1172.78 474.451,1175.94 473.5,1179C 474.5,1179.33 475.5,1179.67 476.5,1180C 494.125,1181.41 511.791,1181.91 529.5,1181.5C 529.5,1189.83 529.5,1198.17 529.5,1206.5C 379.166,1206.67 228.833,1206.5 78.5,1206C 77.2084,1202.43 76.5417,1198.6 76.5,1194.5C 76.8333,1190.83 77.1667,1187.17 77.5,1183.5C 92.122,1182.68 106.789,1182.18 121.5,1182C 122.756,1181.58 123.423,1180.75 123.5,1179.5C 124.833,1179.5 125.5,1178.83 125.5,1177.5C 125.461,1176.42 125.127,1175.42 124.5,1174.5C 125.397,1174.33 126.397,1174 127.5,1173.5C 126.902,1172.21 126.402,1170.87 126,1169.5C 125.333,1168.17 124.667,1168.17 124,1169.5C 123.517,1168.55 123.351,1167.55 123.5,1166.5C 114.179,1164.35 105.846,1160.19 98.5,1154C 69.7446,1128.53 62.2446,1097.7 76,1061.5C 86.64,1041.36 102.473,1027.02 123.5,1018.5C 163.492,1018.28 203.492,1018.11 243.5,1018C 206.397,992.94 191.23,958.107 198,913.5C 209.892,868.609 238.725,842.109 284.5,834C 285.099,832.378 285.766,830.878 286.5,829.5C 288.074,827.898 288.741,825.898 288.5,823.5C 289.234,822.292 289.567,820.959 289.5,819.5C 290.537,818.07 291.204,816.403 291.5,814.5C 292.5,810.499 293.5,806.499 294.5,802.5C 295.931,801.22 296.598,799.553 296.5,797.5C 296.5,796.833 296.5,796.167 296.5,795.5C 297.674,794.486 298.34,793.153 298.5,791.5C 298.5,790.833 298.5,790.167 298.5,789.5C 299.906,789.027 300.573,788.027 300.5,786.5C 300.338,784.473 300.505,782.473 301,780.5C 304.93,769.403 308.43,758.069 311.5,746.5C 312.674,745.486 313.34,744.153 313.5,742.5C 318.922,725.174 323.922,707.508 328.5,689.5C 329.906,689.027 330.573,688.027 330.5,686.5C 352.12,610.139 374.453,533.972 397.5,458C 359.961,434.418 346.461,400.918 357,357.5C 364.8,334.033 379.966,317.2 402.5,307C 437.611,293.957 469.111,299.79 497,324.5C 600.615,279.272 704.115,233.939 807.5,188.5C 808.612,186.401 809.279,184.067 809.5,181.5C 809.5,181.167 809.5,180.833 809.5,180.5C 811.115,177.377 812.115,174.044 812.5,170.5C 819.675,150.988 832.341,136.155 850.5,126C 891.313,108.578 925.48,117.078 953,151.5C 968.863,177.361 971.863,204.694 962,233.5C 953.289,255.286 938.122,270.619 916.5,279.5C 915.167,300.833 915.167,322.167 916.5,343.5C 928.861,349.694 938.028,359.028 944,371.5C 946.404,377.962 948.571,384.462 950.5,391C 1000.43,419.639 1051.1,447.306 1102.5,474C 1106.18,475.841 1109.52,478.174 1112.5,481C 1111.87,481.75 1111.37,482.584 1111,483.5C 1110.67,483.167 1110.33,482.833 1110,482.5C 1106.87,487.063 1106.04,492.063 1107.5,497.5C 1106.39,499.385 1105.56,501.385 1105,503.5C 1099.86,503.517 1098.7,505.851 1101.5,510.5C 1098.1,517.605 1095.26,524.605 1093,531.5C 1092.35,533.235 1092.52,534.902 1093.5,536.5C 1092.5,537.333 1091.5,538.167 1090.5,539C 1091.62,539.249 1092.62,539.749 1093.5,540.5C 1092.79,542.776 1092.29,545.109 1092,547.5C 1090.28,550.73 1088.28,551.064 1086,548.5C 1083.05,548.909 1080.39,549.909 1078,551.5C 1077.75,550.376 1077.25,549.376 1076.5,548.5C 1074.56,550.316 1073.89,552.316 1074.5,554.5C 1075.19,553.975 1075.69,553.308 1076,552.5C 1076.98,554.059 1077.81,555.726 1078.5,557.5C 1084.73,562.822 1090.73,567.489 1096.5,571.5 Z M 1072.5,494.5 C 1073.69,494.97 1074.36,495.97 1074.5,497.5C 1072.45,513.218 1070.11,528.885 1067.5,544.5C 1066.19,543.687 1065.02,542.687 1064,541.5C 1063.67,543.167 1063.33,544.833 1063,546.5C 995.271,504.538 922.771,493.705 845.5,514C 802.847,526.397 765.68,547.897 734,578.5C 731.334,556.19 729.834,533.856 729.5,511.5C 768.06,489.096 806.227,466.096 844,442.5C 847.201,446.036 850.701,449.203 854.5,452C 861.157,454.661 867.823,457.327 874.5,460C 903.729,465.459 926.563,455.959 943,431.5C 986.442,452.139 1029.61,473.139 1072.5,494.5 Z M 1095.5,508.5 C 1096.77,509.077 1096.77,509.743 1095.5,510.5C 1094.54,510.03 1094.54,509.363 1095.5,508.5 Z M 1091.5,515.5 C 1095.45,516.476 1095.45,517.476 1091.5,518.5C 1090.44,517.575 1090.44,516.575 1091.5,515.5 Z M 1082.5,535.5 C 1084.34,535.639 1084.67,536.306 1083.5,537.5C 1082.7,537.043 1082.37,536.376 1082.5,535.5 Z M 1081.5,545.5 C 1082.31,548.484 1081.31,548.984 1078.5,547C 1079.74,546.768 1080.74,546.268 1081.5,545.5 Z"/></g>
<g><path style="opacity:1" fill="#69cdbd" d="M 877.5,162.5 C 882.511,162.334 887.511,162.501 892.5,163C 895.909,164.696 897.242,167.529 896.5,171.5C 901.478,171.319 905.478,173.152 908.5,177C 912.257,177.358 915.424,178.858 918,181.5C 928.404,202.768 924.238,220.601 905.5,235C 899.192,237.795 892.525,239.295 885.5,239.5C 878.506,239.149 871.839,237.649 865.5,235C 859.229,228.939 854.063,222.105 850,214.5C 845.987,202.913 847.32,192.246 854,182.5C 856.386,181.237 858.219,179.403 859.5,177C 862.418,175.227 865.418,173.727 868.5,172.5C 868.34,170.801 868.506,169.134 869,167.5C 871.425,164.945 874.259,163.278 877.5,162.5 Z"/></g>
<g><path style="opacity:0.447" fill="#6a5360" d="M 812.5,170.5 C 812.115,174.044 811.115,177.377 809.5,180.5C 808.402,179.399 808.235,178.066 809,176.5C 809.739,174.111 810.905,172.111 812.5,170.5 Z"/></g>
<g><path style="opacity:0.004" fill="#a28194" d="M 809.5,181.5 C 809.279,184.067 808.612,186.401 807.5,188.5C 806.489,186.598 806.322,184.598 807,182.5C 807.671,181.748 808.504,181.414 809.5,181.5 Z"/></g>
<g><path style="opacity:1" fill="#040706" d="M 893.5,197.5 C 894.024,199.306 894.691,200.972 895.5,202.5C 897.085,203.002 897.585,204.002 897,205.5C 894.147,208.052 891.647,210.885 889.5,214C 886.271,214.586 883.271,214.086 880.5,212.5C 880.66,210.801 880.494,209.134 880,207.5C 877.064,205.237 876.73,202.57 879,199.5C 881.112,196.716 883.779,194.716 887,193.5C 889.419,194.566 891.586,195.9 893.5,197.5 Z"/></g>
<g><path style="opacity:1" fill="#305d56" d="M 893.5,197.5 C 894.675,197.281 895.675,197.614 896.5,198.5C 895.754,199.736 895.421,201.07 895.5,202.5C 894.691,200.972 894.024,199.306 893.5,197.5 Z"/></g>
<g><path style="opacity:0.039" fill="#b495ad" d="M 816.5,240.5 C 814.801,240.473 813.467,239.806 812.5,238.5C 814.905,235.767 816.238,236.434 816.5,240.5 Z"/></g>
<g><path style="opacity:0.016" fill="#ac94aa" d="M 812.5,238.5 C 811.713,240.104 810.38,240.771 808.5,240.5C 809.287,238.896 810.62,238.229 812.5,238.5 Z"/></g>
<g><path style="opacity:0.008" fill="#b398a9" d="M 789.5,248.5 C 788.713,250.104 787.38,250.771 785.5,250.5C 786.514,249.326 787.847,248.66 789.5,248.5 Z"/></g>
<g><path style="opacity:0.008" fill="#ad8ea3" d="M 623.5,321.5 C 622.713,323.104 621.38,323.771 619.5,323.5C 620.514,322.326 621.847,321.66 623.5,321.5 Z"/></g>
<g><path style="opacity:0.016" fill="#7b576c" d="M 595.5,333.5 C 595.027,334.906 594.027,335.573 592.5,335.5C 592.973,334.094 593.973,333.427 595.5,333.5 Z"/></g>
<g><path style="opacity:1" fill="#69cebe" d="M 429.5,346.5 C 437.972,346.852 446.306,348.019 454.5,350C 465.135,353.633 471.969,360.8 475,371.5C 479.564,394.875 471.064,411.375 449.5,421C 443.296,421.227 437.129,421.727 431,422.5C 427.15,420.638 423.317,418.804 419.5,417C 416.708,414.01 413.375,412.177 409.5,411.5C 409.649,410.448 409.483,409.448 409,408.5C 404.572,404.171 402.238,398.838 402,392.5C 400.843,383.915 401.509,375.582 404,367.5C 408.279,362.383 412.779,357.383 417.5,352.5C 421.528,350.286 425.528,348.286 429.5,346.5 Z"/></g>
<g><path style="opacity:0.043" fill="#785d6c" d="M 561.5,348.5 C 561.027,349.906 560.027,350.573 558.5,350.5C 558.973,349.094 559.973,348.427 561.5,348.5 Z"/></g>
<g><path style="opacity:0.02" fill="#876b7e" d="M 557.5,350.5 C 557.027,351.906 556.027,352.573 554.5,352.5C 554.973,351.094 555.973,350.427 557.5,350.5 Z"/></g>
<g><path style="opacity:0.02" fill="#94798a" d="M 523.5,365.5 C 522.713,367.104 521.38,367.771 519.5,367.5C 520.514,366.326 521.847,365.66 523.5,365.5 Z"/></g>
<g><path style="opacity:1" fill="#030807" d="M 439.5,376.5 C 448.556,377.729 451.722,382.729 449,391.5C 447.611,393.227 445.944,394.561 444,395.5C 438.554,394.553 434.72,391.553 432.5,386.5C 432.86,384.392 433.527,382.392 434.5,380.5C 436.419,379.388 438.086,378.054 439.5,376.5 Z"/></g>
<g><path style="opacity:0.011" fill="#000000" d="M 1072.5,494.5 C 1072.33,497.957 1071.33,498.29 1069.5,495.5C 1070.32,494.614 1071.32,494.281 1072.5,494.5 Z"/></g>
<g><path style="opacity:0.022" fill="#000000" d="M 1062.5,504.5 C 1064.36,503.207 1066.36,503.207 1068.5,504.5C 1068.19,505.308 1067.69,505.975 1067,506.5C 1065.53,505.733 1064.03,505.067 1062.5,504.5 Z"/></g>
<g><path style="opacity:1" fill="#6acfbf" d="M 681.5,751.5 C 681.283,746.77 681.617,742.103 682.5,737.5C 689.129,671.047 719.795,616.38 774.5,573.5C 794.619,559.647 814.953,548.647 835.5,540.5C 837.898,540.741 839.898,540.074 841.5,538.5C 928.519,512.849 1007.19,528.349 1077.5,585C 1145.18,648.053 1169.01,724.886 1149,815.5C 1127.62,886.754 1083.12,937.921 1015.5,969C 942.119,998.11 870.452,994.443 800.5,958C 789.62,951.783 779.286,944.783 769.5,937C 722.833,936.667 676.167,936.333 629.5,936C 627.993,935.163 627.493,933.996 628,932.5C 652.068,904.16 676.235,875.993 700.5,848C 687.125,817.253 680.791,785.087 681.5,751.5 Z"/></g>
<g><path style="opacity:1" fill="#396e66" d="M 841.5,538.5 C 839.898,540.074 837.898,540.741 835.5,540.5C 836.99,538.72 838.99,538.054 841.5,538.5 Z"/></g>
<g><path style="opacity:0.004" fill="#000000" d="M 1096.5,571.5 C 1096.37,570.761 1096.54,570.094 1097,569.5C 1097.69,570.437 1097.53,571.103 1096.5,571.5 Z"/></g>
<g><path style="opacity:0.004" fill="#000000" d="M 709.5,600.5 C 709.217,601.289 708.717,601.956 708,602.5C 707.472,601.184 707.972,600.517 709.5,600.5 Z"/></g>
<g><path style="opacity:0.616" fill="#74636d" d="M 330.5,686.5 C 330.573,688.027 329.906,689.027 328.5,689.5C 328.285,687.821 328.952,686.821 330.5,686.5 Z"/></g>
<g><path style="opacity:1" fill="#010201" d="M 805.5,732.5 C 826.615,732.984 840.448,743.317 847,763.5C 847.793,785.394 837.626,799.56 816.5,806C 795.125,806.314 781.292,796.147 775,775.5C 774.126,761.149 779.293,749.316 790.5,740C 795.624,737.373 800.624,734.873 805.5,732.5 Z"/></g>
<g><path style="opacity:1" fill="#010202" d="M 907.5,732.5 C 928.845,732.668 942.678,743.001 949,763.5C 949.793,785.394 939.626,799.56 918.5,806C 897.125,806.314 883.292,796.147 877,775.5C 875.586,761.482 880.419,749.982 891.5,741C 896.743,737.668 902.077,734.835 907.5,732.5 Z"/></g>
<g><path style="opacity:1" fill="#010202" d="M 1011.5,732.5 C 1032.85,732.668 1046.68,743.001 1053,763.5C 1053.76,785.419 1043.59,799.585 1022.5,806C 1001.13,806.314 987.292,796.147 981,775.5C 980.117,761.185 985.284,749.352 996.5,740C 1001.62,737.373 1006.62,734.873 1011.5,732.5 Z"/></g>
<g><path style="opacity:1" fill="#182f2c" d="M 682.5,737.5 C 681.617,742.103 681.283,746.77 681.5,751.5C 680.837,749.359 680.503,747.025 680.5,744.5C 680.529,741.731 681.195,739.397 682.5,737.5 Z"/></g>
<g><path style="opacity:0.012" fill="#ac8da0" d="M 313.5,742.5 C 313.34,744.153 312.674,745.486 311.5,746.5C 311.229,744.62 311.896,743.287 313.5,742.5 Z"/></g>
<g><path style="opacity:0.725" fill="#7a6573" d="M 300.5,786.5 C 300.573,788.027 299.906,789.027 298.5,789.5C 298.285,787.821 298.952,786.821 300.5,786.5 Z"/></g>
<g><path style="opacity:0.039" fill="#b899ab" d="M 298.5,791.5 C 298.34,793.153 297.674,794.486 296.5,795.5C 296.229,793.62 296.896,792.287 298.5,791.5 Z"/></g>
<g><path style="opacity:0.29" fill="#b092a5" d="M 296.5,797.5 C 296.598,799.553 295.931,801.22 294.5,802.5C 294.077,800.219 294.744,798.552 296.5,797.5 Z"/></g>
<g><path style="opacity:0.094" fill="#bd9ab0" d="M 291.5,814.5 C 291.204,816.403 290.537,818.07 289.5,819.5C 289.077,817.219 289.744,815.552 291.5,814.5 Z"/></g>
<g><path style="opacity:0.569" fill="#7f6b74" d="M 288.5,823.5 C 288.741,825.898 288.074,827.898 286.5,829.5C 286.259,827.102 286.926,825.102 288.5,823.5 Z"/></g>
<g><path style="opacity:1" fill="#6acebe" d="M 286.5,857.5 C 294.507,857.334 302.507,857.5 310.5,858C 317.807,861.116 320.474,866.616 318.5,874.5C 322.495,875.117 325.828,873.951 328.5,871C 334.73,869.965 340.73,870.632 346.5,873C 351.083,876.912 354.917,881.412 358,886.5C 358.667,891.167 358.667,895.833 358,900.5C 354.713,902.453 353.88,905.119 355.5,908.5C 359.016,909.986 362.682,911.153 366.5,912C 368.378,913.543 369.878,915.376 371,917.5C 371.667,925.833 371.667,934.167 371,942.5C 370.208,944.587 369.041,946.421 367.5,948C 363.287,949.587 359.12,951.087 355,952.5C 354.293,955.761 355.293,958.428 358,960.5C 359.126,966.79 358.459,972.79 356,978.5C 352.065,983.11 347.565,986.943 342.5,990C 337.833,990.667 333.167,990.667 328.5,990C 321.347,984.19 317.847,986.023 318,995.5C 316.833,999.333 314.333,1001.83 310.5,1003C 302.5,1003.67 294.5,1003.67 286.5,1003C 282.667,1001.83 280.167,999.333 279,995.5C 279.535,986.821 276.369,984.821 269.5,989.5C 263.208,991.182 257.208,990.682 251.5,988C 246.966,983.801 242.799,979.301 239,974.5C 238.333,970.167 238.333,965.833 239,961.5C 240.934,958.966 242.268,956.299 243,953.5C 239.595,951.147 235.762,949.98 231.5,950C 228.865,948.039 227.031,945.539 226,942.5C 225.333,934.5 225.333,926.5 226,918.5C 229.372,911.732 234.872,909.065 242.5,910.5C 242.559,906.73 241.392,903.396 239,900.5C 237.874,894.21 238.541,888.21 241,882.5C 244.912,877.917 249.412,874.083 254.5,871C 258.833,870.333 263.167,870.333 267.5,871C 270.259,872.494 272.925,873.828 275.5,875C 277.853,871.595 279.02,867.762 279,863.5C 281.114,860.879 283.614,858.879 286.5,857.5 Z"/></g>
<g><path style="opacity:1" fill="#020403" d="M 297.5,913.5 C 311.355,915.288 316.855,922.954 314,936.5C 303.712,951.132 293.379,951.132 283,936.5C 280.786,928.921 282.62,922.421 288.5,917C 291.422,915.397 294.422,914.23 297.5,913.5 Z"/></g>
<g><path style="opacity:0.043" fill="#7e6572" d="M 611.5,928.5 C 611.262,930.404 610.262,931.738 608.5,932.5C 608.468,930.381 609.468,929.048 611.5,928.5 Z"/></g>
<g><path style="opacity:0.011" fill="#000000" d="M 442.5,1018.5 C 446.311,1017.35 450.311,1017.19 454.5,1018C 450.613,1019.23 446.613,1019.4 442.5,1018.5 Z"/></g>
<g><path style="opacity:0.01" fill="#000000" d="M 462.5,1018.5 C 463.251,1017.43 464.251,1017.26 465.5,1018C 464.552,1018.48 463.552,1018.65 462.5,1018.5 Z"/></g>
<g><path style="opacity:0.706" fill="#7a6576" d="M 244.5,1019.5 C 245.497,1018.29 246.497,1018.45 247.5,1020C 246.423,1020.47 245.423,1020.3 244.5,1019.5 Z"/></g>
<g><path style="opacity:1" fill="#6acebe" d="M 141.5,1037.5 C 248.834,1037.33 356.167,1037.5 463.5,1038C 497.464,1046.05 513.297,1067.88 511,1103.5C 504.46,1128.2 488.626,1143.03 463.5,1148C 409.844,1149.11 356.177,1149.61 302.5,1149.5C 248.49,1149.61 194.49,1149.11 140.5,1148C 101.828,1136.83 87.3282,1111.66 97,1072.5C 106.139,1053.52 120.972,1041.85 141.5,1037.5 Z"/></g>
<g><path style="opacity:0.87" fill="#000000" d="M 599.5,1056.5 C 617.823,1053.85 634.823,1057.02 650.5,1066C 661.51,1074.19 665.677,1085.02 663,1098.5C 658.067,1105.49 651.567,1107.32 643.5,1104C 638.909,1099.53 635.409,1094.36 633,1088.5C 623.453,1079.04 612.286,1076.88 599.5,1082C 590.081,1087.87 589.081,1094.87 596.5,1103C 609.364,1108.05 622.697,1112.05 636.5,1115C 668.727,1125.5 678.06,1146.33 664.5,1177.5C 656.771,1187.74 646.771,1194.57 634.5,1198C 616.898,1202.24 599.898,1200.91 583.5,1194C 566.474,1184.7 558.64,1170.54 560,1151.5C 568.752,1140.97 577.419,1140.97 586,1151.5C 587.842,1157.52 590.508,1163.19 594,1168.5C 597.018,1171.53 600.518,1173.7 604.5,1175C 611.167,1175.67 617.833,1175.67 624.5,1175C 633.07,1172.43 638.07,1166.77 639.5,1158C 638.999,1151.81 635.999,1147.15 630.5,1144C 620.468,1140.46 610.135,1137.79 599.5,1136C 588.513,1132.71 578.68,1127.21 570,1119.5C 555.996,1098.06 559.163,1079.56 579.5,1064C 585.655,1061.22 591.988,1059.22 598.5,1058C 599.056,1057.62 599.389,1057.12 599.5,1056.5 Z"/></g>
<g><path style="opacity:0.882" fill="#000000" d="M 736.5,1056.5 C 794.118,1052.95 821.951,1079.95 820,1137.5C 818.389,1152.67 812.889,1166.33 803.5,1178.5C 811.39,1182.25 818.723,1186.91 825.5,1192.5C 826.632,1194.69 827.299,1197.03 827.5,1199.5C 826.561,1203.07 825.228,1206.4 823.5,1209.5C 817.794,1209.83 812.128,1209.5 806.5,1208.5C 799.196,1203.54 791.862,1198.54 784.5,1193.5C 756.988,1204.78 730.988,1202.11 706.5,1185.5C 690.033,1169.94 682.699,1150.78 684.5,1128C 682.945,1090.15 700.278,1066.32 736.5,1056.5 Z M 745.5,1081.5 C 770.171,1081 784.337,1093 788,1117.5C 790.077,1132.78 787.244,1146.94 779.5,1160C 778.5,1160.67 777.5,1160.67 776.5,1160C 769.061,1154.02 760.727,1149.86 751.5,1147.5C 744.197,1148.95 741.03,1153.29 742,1160.5C 743.873,1162.71 746.04,1164.54 748.5,1166C 752.998,1168 757.332,1170.33 761.5,1173C 738.816,1176.94 723.983,1167.77 717,1145.5C 712.411,1128.35 714.411,1112.02 723,1096.5C 724.812,1093.72 726.979,1091.22 729.5,1089C 734.837,1086.07 740.171,1083.57 745.5,1081.5 Z"/></g>
<g><path style="opacity:0.883" fill="#000000" d="M 849.5,1056.5 C 861.036,1054.52 868.203,1059.18 871,1070.5C 871.333,1098.5 871.667,1126.5 872,1154.5C 874.997,1167.83 883.33,1174.5 897,1174.5C 905.917,1175.19 913.583,1172.52 920,1166.5C 922.995,1161.52 924.995,1156.18 926,1150.5C 926.333,1122.17 926.667,1093.83 927,1065.5C 933.968,1055.47 942.634,1053.8 953,1060.5C 953.583,1062 954.416,1063.33 955.5,1064.5C 956.667,1096.16 956.833,1127.83 956,1159.5C 951.777,1179.39 939.944,1192.22 920.5,1198C 910.149,1200.06 899.816,1200.89 889.5,1200.5C 878.135,1198.87 867.469,1195.03 857.5,1189C 846.362,1179.1 840.528,1166.93 840,1152.5C 839.333,1124.5 839.333,1096.5 840,1068.5C 841.194,1062.82 844.36,1058.82 849.5,1056.5 Z"/></g>
<g><path style="opacity:0.872" fill="#000000" d="M 1145.5,1056.5 C 1154.84,1056.33 1164.17,1056.5 1173.5,1057C 1190.5,1059.57 1202.33,1068.74 1209,1084.5C 1211.31,1092.64 1209.14,1099.14 1202.5,1104C 1195.16,1107.09 1188.99,1105.59 1184,1099.5C 1175.44,1079.32 1161.28,1074.16 1141.5,1084C 1136.92,1087.44 1135.42,1091.94 1137,1097.5C 1140.21,1101.92 1144.38,1105.09 1149.5,1107C 1162.2,1109.96 1174.86,1113.3 1187.5,1117C 1214.2,1128.69 1222.03,1148.19 1211,1175.5C 1203.6,1187.22 1193.1,1194.72 1179.5,1198C 1163.95,1201.63 1148.61,1200.97 1133.5,1196C 1116.64,1189.26 1106.97,1176.93 1104.5,1159C 1104.68,1150.15 1109.18,1144.98 1118,1143.5C 1121.4,1144.35 1124.57,1145.69 1127.5,1147.5C 1132.23,1154.08 1136.23,1161.08 1139.5,1168.5C 1142.45,1171.29 1145.79,1173.46 1149.5,1175C 1162.76,1178.33 1173.93,1175.16 1183,1165.5C 1185.55,1158.95 1184.72,1152.95 1180.5,1147.5C 1177.61,1145.44 1174.61,1143.6 1171.5,1142C 1155.41,1139.33 1140.08,1134.66 1125.5,1128C 1109.56,1117.74 1103.72,1103.24 1108,1084.5C 1111.29,1075.54 1117.12,1068.71 1125.5,1064C 1132.17,1061.08 1138.83,1058.58 1145.5,1056.5 Z"/></g>
<g><path style="opacity:0.851" fill="#000000" d="M 994.5,1058.5 C 1023.17,1058.33 1051.84,1058.5 1080.5,1059C 1088.1,1062.43 1090.6,1068.26 1088,1076.5C 1086.41,1079.76 1083.91,1081.92 1080.5,1083C 1058.5,1083.5 1036.5,1083.67 1014.5,1083.5C 1014.5,1093.5 1014.5,1103.5 1014.5,1113.5C 1035.17,1113.33 1055.84,1113.5 1076.5,1114C 1083.19,1117.56 1085.36,1123.06 1083,1130.5C 1080.78,1134.03 1077.62,1136.19 1073.5,1137C 1053.84,1137.5 1034.17,1137.67 1014.5,1137.5C 1014.5,1148.83 1014.5,1160.17 1014.5,1171.5C 1036.84,1171.33 1059.17,1171.5 1081.5,1172C 1090.11,1175.28 1092.95,1181.45 1090,1190.5C 1089.5,1191.5 1089,1192.5 1088.5,1193.5C 1085.47,1195.6 1082.13,1197.1 1078.5,1198C 1051.83,1198.67 1025.17,1198.67 998.5,1198C 990.72,1197.03 985.553,1192.87 983,1185.5C 982.333,1147.17 982.333,1108.83 983,1070.5C 985.019,1064.65 988.852,1060.65 994.5,1058.5 Z"/></g>
<g><path style="opacity:0.884" fill="#000000" d="M 1231.5,1058.5 C 1264.5,1058.33 1297.5,1058.5 1330.5,1059C 1337.38,1060.43 1340.38,1064.59 1339.5,1071.5C 1339.33,1074.17 1339.17,1076.83 1339,1079.5C 1336.55,1081.97 1333.72,1083.8 1330.5,1085C 1319.17,1085.5 1307.84,1085.67 1296.5,1085.5C 1296.67,1120.17 1296.5,1154.83 1296,1189.5C 1293.26,1196.24 1288.26,1199.9 1281,1200.5C 1274.68,1199.52 1270.02,1196.19 1267,1190.5C 1266.5,1155.5 1266.33,1120.5 1266.5,1085.5C 1255.16,1085.67 1243.83,1085.5 1232.5,1085C 1222.65,1081.47 1219.65,1074.64 1223.5,1064.5C 1225.93,1062.06 1228.59,1060.06 1231.5,1058.5 Z"/></g>
<g><path style="opacity:1" fill="#010202" d="M 397.5,1069.5 C 401.833,1069.5 406.167,1069.5 410.5,1069.5C 410.5,1087.17 410.5,1104.83 410.5,1122.5C 403.167,1122.5 395.833,1122.5 388.5,1122.5C 388.5,1121.5 388.5,1120.5 388.5,1119.5C 389.496,1103.34 389.83,1087.01 389.5,1070.5C 392.385,1070.81 395.052,1070.47 397.5,1069.5 Z"/></g>
<g><path style="opacity:1" fill="#020403" d="M 165.5,1069.5 C 172.833,1069.5 180.167,1069.5 187.5,1069.5C 187.5,1087.17 187.5,1104.83 187.5,1122.5C 180.167,1122.5 172.833,1122.5 165.5,1122.5C 165.5,1104.83 165.5,1087.17 165.5,1069.5 Z"/></g>
<g><path style="opacity:1" fill="#010202" d="M 220.5,1069.5 C 227.833,1069.5 235.167,1069.5 242.5,1069.5C 242.5,1087.17 242.5,1104.83 242.5,1122.5C 235.167,1122.5 227.833,1122.5 220.5,1122.5C 220.5,1104.83 220.5,1087.17 220.5,1069.5 Z"/></g>
<g><path style="opacity:1" fill="#020403" d="M 275.5,1069.5 C 282.833,1069.5 290.167,1069.5 297.5,1069.5C 297.667,1086.84 297.5,1104.17 297,1121.5C 289.921,1122.48 282.755,1122.81 275.5,1122.5C 275.5,1104.83 275.5,1087.17 275.5,1069.5 Z"/></g>
<g><path style="opacity:1" fill="#080e0d" d="M 332.5,1069.5 C 339.833,1069.5 347.167,1069.5 354.5,1069.5C 354.667,1086.84 354.5,1104.17 354,1121.5C 346.667,1122.83 339.333,1122.83 332,1121.5C 331.182,1104.09 331.348,1086.76 332.5,1069.5 Z"/></g>
<g><path style="opacity:1" fill="#020404" d="M 441.5,1069.5 C 448.833,1069.5 456.167,1069.5 463.5,1069.5C 463.5,1087.17 463.5,1104.83 463.5,1122.5C 456.167,1122.5 448.833,1122.5 441.5,1122.5C 441.5,1104.83 441.5,1087.17 441.5,1069.5 Z"/></g>
<g><path style="opacity:1" fill="#12221f" d="M 397.5,1069.5 C 395.052,1070.47 392.385,1070.81 389.5,1070.5C 389.83,1087.01 389.496,1103.34 388.5,1119.5C 388.5,1102.83 388.5,1086.17 388.5,1069.5C 391.5,1069.5 394.5,1069.5 397.5,1069.5 Z"/></g>
<g><path style="opacity:1" fill="#67c9ba" d="M 148.5,1163.5 C 249.834,1163.33 351.167,1163.5 452.5,1164C 453.833,1172.33 453.833,1180.67 452.5,1189C 351.167,1189.5 249.834,1189.67 148.5,1189.5C 148.5,1180.83 148.5,1172.17 148.5,1163.5 Z"/></g>
<g><path style="opacity:0.004" fill="#83707f" d="M 125.5,1177.5 C 125.5,1178.83 124.833,1179.5 123.5,1179.5C 123.5,1178.17 124.167,1177.5 125.5,1177.5 Z"/></g>
</svg>
