<?xml version="1.0" encoding="UTF-8"?>
<svg version="1.1" xmlns="http://www.w3.org/2000/svg" width="250" height="250">
<path d="M0,0 L7,0 L7,1 L11,1 L11,2 L13,2 L13,3 L15,3 L15,4 L16,4 L16,5 L17,5 L17,6 L19,6 L19,7 L20,7 L20,9 L21,9 L21,10 L22,10 L22,12 L23,12 L23,14 L24,14 L24,20 L25,20 L25,23 L24,23 L24,28 L23,28 L23,30 L22,30 L22,32 L21,32 L21,34 L20,34 L20,35 L19,35 L19,36 L18,36 L18,37 L16,37 L16,38 L15,38 L15,39 L14,39 L14,40 L11,40 L11,41 L6,41 L6,42 L1,42 L1,41 L-4,41 L-4,40 L-6,40 L-6,39 L-7,39 L-7,38 L-9,38 L-9,37 L-10,37 L-10,36 L-11,36 L-11,35 L-12,35 L-12,34 L-13,34 L-13,32 L-14,32 L-14,31 L-15,31 L-15,29 L-16,29 L-16,25 L-17,25 L-17,17 L-16,17 L-16,13 L-15,13 L-15,11 L-14,11 L-14,10 L-13,10 L-13,8 L-12,8 L-12,7 L-11,7 L-11,6 L-10,6 L-10,5 L-9,5 L-9,4 L-7,4 L-7,3 L-5,3 L-5,2 L-3,2 L-3,1 L0,1 Z M0,4 L0,5 L-3,5 L-3,6 L-5,6 L-5,7 L-6,7 L-6,8 L-8,8 L-8,9 L-9,9 L-9,11 L-10,11 L-10,12 L-11,12 L-11,14 L-12,14 L-12,17 L-13,17 L-13,25 L-12,25 L-12,28 L-11,28 L-11,30 L-10,30 L-10,32 L-9,32 L-9,33 L-8,33 L-8,34 L-7,34 L-7,35 L-5,35 L-5,36 L-3,36 L-3,37 L-1,37 L-1,38 L9,38 L9,37 L11,37 L11,36 L13,36 L13,35 L14,35 L14,34 L15,34 L15,33 L16,33 L16,32 L17,32 L17,31 L18,31 L18,30 L19,30 L19,28 L20,28 L20,24 L21,24 L21,19 L20,19 L20,14 L19,14 L19,12 L18,12 L18,11 L17,11 L17,10 L16,10 L16,9 L15,9 L15,8 L14,8 L14,7 L12,7 L12,6 L11,6 L11,5 L7,5 L7,4 Z " fill="#000000" transform="translate(212,21)"/>
<path d="M0,0 L3,0 L3,1 L4,1 L4,9 L8,9 L8,12 L7,12 L7,13 L4,13 L4,20 L3,20 L3,22 L0,22 L0,13 L-3,13 L-3,12 L-5,12 L-5,10 L-4,10 L-4,9 L-1,9 L-1,8 L0,8 Z " fill="#000000" transform="translate(18,24)"/>
<path d="M0,0 L16,0 L16,1 L23,1 L23,2 L29,2 L29,3 L33,3 L33,4 L35,4 L35,5 L39,5 L39,6 L42,6 L42,7 L44,7 L44,8 L46,8 L46,9 L48,9 L48,10 L50,10 L50,11 L51,11 L51,12 L53,12 L53,13 L55,13 L55,14 L57,14 L57,15 L58,15 L58,16 L60,16 L60,17 L61,17 L61,18 L62,18 L62,19 L64,19 L64,20 L65,20 L65,21 L66,21 L66,22 L67,22 L67,23 L68,23 L68,24 L69,24 L69,25 L70,25 L70,26 L71,26 L71,27 L72,27 L72,28 L73,28 L73,29 L74,29 L74,30 L75,30 L75,31 L76,31 L76,32 L77,32 L77,33 L78,33 L78,35 L79,35 L79,36 L80,36 L80,37 L81,37 L81,38 L82,38 L82,40 L83,40 L83,42 L84,42 L84,43 L85,43 L85,45 L86,45 L86,47 L87,47 L87,49 L88,49 L88,50 L89,50 L89,53 L90,53 L90,56 L91,56 L91,57 L92,57 L92,60 L93,60 L93,64 L94,64 L94,67 L95,67 L95,71 L96,71 L96,78 L97,78 L97,100 L96,100 L96,108 L95,108 L95,112 L94,112 L94,114 L93,114 L93,118 L92,118 L92,121 L91,121 L91,123 L90,123 L90,126 L89,126 L89,128 L88,128 L88,130 L87,130 L87,132 L86,132 L86,134 L85,134 L85,136 L84,136 L84,137 L83,137 L83,138 L82,138 L82,140 L81,140 L81,142 L80,142 L80,143 L79,143 L79,144 L78,144 L78,146 L77,146 L77,147 L76,147 L76,148 L75,148 L75,149 L74,149 L74,150 L73,150 L73,151 L72,151 L72,152 L71,152 L71,153 L70,153 L70,154 L69,154 L69,155 L68,155 L68,156 L67,156 L67,157 L66,157 L66,158 L64,158 L64,159 L63,159 L63,160 L62,160 L62,161 L60,161 L60,162 L59,162 L59,163 L58,163 L58,164 L56,164 L56,165 L54,165 L54,166 L53,166 L53,167 L51,167 L51,168 L49,168 L49,169 L47,169 L47,170 L46,170 L46,171 L43,171 L43,172 L40,172 L40,173 L38,173 L38,174 L35,174 L35,175 L31,175 L31,176 L27,176 L27,177 L23,177 L23,178 L12,178 L12,179 L3,179 L3,178 L-8,178 L-8,177 L-12,177 L-12,176 L-15,176 L-15,175 L-19,175 L-19,174 L-23,174 L-23,173 L-24,173 L-24,172 L-27,172 L-27,171 L-30,171 L-30,170 L-32,170 L-32,169 L-33,169 L-33,168 L-36,168 L-36,167 L-38,167 L-38,166 L-39,166 L-39,165 L-40,165 L-40,164 L-42,164 L-42,163 L-44,163 L-44,162 L-45,162 L-45,161 L-46,161 L-46,160 L-48,160 L-48,159 L-49,159 L-49,158 L-50,158 L-50,157 L-51,157 L-51,156 L-52,156 L-52,155 L-53,155 L-53,154 L-55,154 L-55,153 L-56,153 L-56,151 L-58,151 L-58,150 L-59,150 L-59,148 L-60,148 L-60,147 L-61,147 L-61,146 L-62,146 L-62,145 L-63,145 L-63,143 L-64,143 L-64,142 L-65,142 L-65,141 L-66,141 L-66,139 L-67,139 L-67,138 L-68,138 L-68,136 L-69,136 L-69,134 L-70,134 L-70,132 L-71,132 L-71,131 L-72,131 L-72,129 L-73,129 L-73,127 L-74,127 L-74,124 L-75,124 L-75,123 L-76,123 L-76,119 L-77,119 L-77,116 L-78,116 L-78,114 L-79,114 L-79,110 L-80,110 L-80,103 L-81,103 L-81,92 L-82,92 L-82,87 L-81,87 L-81,75 L-80,75 L-80,69 L-79,69 L-79,65 L-78,65 L-78,63 L-77,63 L-77,59 L-76,59 L-76,56 L-75,56 L-75,54 L-74,54 L-74,52 L-73,52 L-73,50 L-72,50 L-72,48 L-71,48 L-71,46 L-70,46 L-70,44 L-69,44 L-69,42 L-68,42 L-68,41 L-67,41 L-67,39 L-66,39 L-66,38 L-65,38 L-65,37 L-64,37 L-64,36 L-63,36 L-63,34 L-62,34 L-62,33 L-61,33 L-61,32 L-60,32 L-60,31 L-59,31 L-59,30 L-58,30 L-58,28 L-57,28 L-57,27 L-56,27 L-56,26 L-55,26 L-55,25 L-54,25 L-54,24 L-52,24 L-52,23 L-51,23 L-51,22 L-50,22 L-50,21 L-49,21 L-49,20 L-48,20 L-48,19 L-46,19 L-46,18 L-45,18 L-45,17 L-44,17 L-44,16 L-42,16 L-42,15 L-41,15 L-41,14 L-40,14 L-40,13 L-38,13 L-38,12 L-36,12 L-36,11 L-35,11 L-35,10 L-33,10 L-33,9 L-30,9 L-30,8 L-28,8 L-28,7 L-26,7 L-26,6 L-23,6 L-23,5 L-20,5 L-20,4 L-18,4 L-18,3 L-14,3 L-14,2 L-8,2 L-8,1 L0,1 Z M-5,4 L-5,5 L-9,5 L-9,6 L-14,6 L-14,7 L-18,7 L-18,8 L-20,8 L-20,9 L-22,9 L-22,10 L-26,10 L-26,11 L-28,11 L-28,12 L-30,12 L-30,13 L-32,13 L-32,14 L-34,14 L-34,15 L-36,15 L-36,16 L-37,16 L-37,17 L-39,17 L-39,18 L-40,18 L-40,19 L-42,19 L-42,20 L-43,20 L-43,21 L-44,21 L-44,22 L-46,22 L-46,23 L-47,23 L-47,24 L-48,24 L-48,25 L-49,25 L-49,26 L-50,26 L-50,27 L-51,27 L-51,28 L-53,28 L-53,29 L-54,29 L-54,31 L-55,31 L-55,32 L-56,32 L-56,33 L-57,33 L-57,34 L-58,34 L-58,35 L-59,35 L-59,36 L-60,36 L-60,38 L7,38 L7,41 L6,41 L6,42 L-64,42 L-64,43 L-65,43 L-65,45 L-66,45 L-66,47 L-67,47 L-67,48 L-68,48 L-68,51 L-69,51 L-69,53 L-70,53 L-70,54 L-71,54 L-71,57 L-72,57 L-72,60 L-73,60 L-73,62 L-74,62 L-74,65 L-75,65 L-75,69 L-76,69 L-76,74 L-77,74 L-77,78 L-78,78 L-78,100 L-77,100 L-77,104 L-76,104 L-76,110 L-75,110 L-75,114 L-74,114 L-74,117 L-73,117 L-73,119 L-72,119 L-72,122 L-71,122 L-71,125 L-70,125 L-70,126 L-69,126 L-69,128 L-68,128 L-68,131 L-67,131 L-67,132 L-66,132 L-66,133 L-65,133 L-65,135 L-64,135 L-64,137 L-63,137 L-63,138 L-62,138 L-62,139 L-61,139 L-61,141 L-60,141 L-60,142 L-59,142 L-59,143 L-58,143 L-58,145 L-57,145 L-57,146 L-4,146 L-4,147 L-3,147 L-3,148 L-2,148 L-2,149 L-3,149 L-3,150 L-51,150 L-51,152 L-50,152 L-50,153 L-49,153 L-49,154 L-48,154 L-48,155 L-47,155 L-47,156 L-45,156 L-45,157 L-44,157 L-44,158 L-43,158 L-43,159 L-41,159 L-41,160 L-40,160 L-40,161 L-38,161 L-38,162 L-37,162 L-37,163 L-35,163 L-35,164 L-33,164 L-33,165 L-31,165 L-31,166 L-29,166 L-29,167 L-27,167 L-27,168 L-25,168 L-25,169 L-22,169 L-22,170 L-19,170 L-19,171 L-16,171 L-16,172 L-13,172 L-13,173 L-8,173 L-8,174 L1,174 L1,175 L15,175 L15,174 L24,174 L24,173 L29,173 L29,172 L31,172 L31,171 L35,171 L35,170 L38,170 L38,169 L41,169 L41,168 L42,168 L42,167 L45,167 L45,166 L46,166 L46,165 L47,165 L47,164 L23,164 L23,161 L54,161 L54,160 L57,160 L57,159 L58,159 L58,158 L59,158 L59,157 L61,157 L61,156 L62,156 L62,155 L63,155 L63,154 L64,154 L64,153 L65,153 L65,152 L67,152 L67,151 L68,151 L68,150 L69,150 L69,149 L70,149 L70,148 L71,148 L71,146 L72,146 L72,145 L73,145 L73,144 L74,144 L74,143 L75,143 L75,142 L76,142 L76,140 L77,140 L77,139 L78,139 L78,138 L79,138 L79,137 L78,137 L78,136 L70,136 L70,133 L72,133 L72,132 L79,132 L79,133 L80,133 L80,132 L82,132 L82,131 L83,131 L83,130 L84,130 L84,127 L85,127 L85,125 L86,125 L86,124 L87,124 L87,121 L88,121 L88,118 L89,118 L89,115 L90,115 L90,113 L91,113 L91,108 L92,108 L92,102 L93,102 L93,96 L94,96 L94,83 L93,83 L93,77 L92,77 L92,71 L91,71 L91,66 L90,66 L90,63 L89,63 L89,61 L88,61 L88,58 L87,58 L87,55 L86,55 L86,54 L85,54 L85,51 L84,51 L84,49 L83,49 L83,47 L82,47 L82,46 L81,46 L81,44 L80,44 L80,42 L79,42 L79,41 L78,41 L78,40 L77,40 L77,38 L76,38 L76,37 L75,37 L75,36 L74,36 L74,35 L73,35 L73,33 L72,33 L72,32 L71,32 L71,31 L70,31 L70,30 L69,30 L69,29 L68,29 L68,28 L67,28 L67,27 L66,27 L66,26 L65,26 L65,25 L63,25 L63,24 L62,24 L62,23 L59,23 L59,22 L58,22 L58,23 L49,23 L49,22 L32,22 L32,20 L33,20 L33,19 L54,19 L54,17 L52,17 L52,16 L51,16 L51,15 L49,15 L49,14 L47,14 L47,13 L45,13 L45,12 L44,12 L44,11 L41,11 L41,10 L38,10 L38,9 L36,9 L36,8 L33,8 L33,7 L29,7 L29,6 L24,6 L24,5 L21,5 L21,4 Z " fill="#000000" transform="translate(108,33)"/>
<path d="M0,0 L12,0 L12,1 L13,1 L13,2 L14,2 L14,3 L15,3 L15,8 L14,8 L14,9 L13,9 L13,10 L12,10 L12,11 L11,11 L11,12 L10,12 L10,13 L9,13 L9,14 L8,14 L8,15 L7,15 L7,16 L4,16 L4,15 L3,15 L3,14 L2,14 L2,13 L1,13 L1,12 L0,12 L0,11 L-1,11 L-1,10 L-2,10 L-2,8 L-3,8 L-3,3 L-2,3 L-2,2 L-1,2 L-1,1 L0,1 Z M3,3 L3,4 L1,4 L1,7 L2,7 L2,8 L3,8 L3,9 L4,9 L4,10 L5,10 L5,11 L7,11 L7,10 L8,10 L8,9 L9,9 L9,8 L10,8 L10,7 L11,7 L11,4 L9,4 L9,3 L8,3 L8,4 L4,4 L4,3 Z " fill="#000000" transform="translate(210,36)"/>
<path d="M0,0 L5,0 L5,1 L9,1 L9,2 L11,2 L11,3 L15,3 L15,2 L17,2 L17,1 L21,1 L21,0 L27,0 L27,1 L30,1 L30,2 L32,2 L32,3 L36,3 L36,2 L38,2 L38,1 L42,1 L42,0 L48,0 L48,1 L51,1 L51,2 L53,2 L53,3 L57,3 L57,2 L60,2 L60,1 L63,1 L63,0 L69,0 L69,1 L72,1 L72,2 L74,2 L74,3 L78,3 L78,2 L81,2 L81,1 L84,1 L84,0 L90,0 L90,1 L93,1 L93,2 L95,2 L95,3 L99,3 L99,2 L102,2 L102,1 L105,1 L105,0 L111,0 L111,1 L114,1 L114,2 L116,2 L116,3 L120,3 L120,2 L122,2 L122,1 L126,1 L126,0 L132,0 L132,1 L135,1 L135,2 L137,2 L137,3 L143,3 L143,6 L135,6 L135,5 L132,5 L132,4 L126,4 L126,5 L123,5 L123,6 L114,6 L114,5 L111,5 L111,4 L105,4 L105,5 L102,5 L102,6 L93,6 L93,5 L90,5 L90,4 L84,4 L84,5 L81,5 L81,6 L72,6 L72,5 L69,5 L69,4 L63,4 L63,5 L60,5 L60,6 L51,6 L51,5 L48,5 L48,4 L42,4 L42,5 L39,5 L39,6 L30,6 L30,5 L27,5 L27,4 L21,4 L21,5 L18,5 L18,6 L9,6 L9,5 L6,5 L6,4 L0,4 L0,5 L-4,5 L-4,6 L-11,6 L-11,5 L-12,5 L-12,3 L-6,3 L-6,2 L-4,2 L-4,1 L0,1 Z " fill="#000000" transform="translate(50,99)"/>
<path d="M0,0 L2,0 L2,1 L13,1 L13,2 L16,2 L16,3 L18,3 L18,4 L21,4 L21,5 L22,5 L22,6 L23,6 L23,7 L24,7 L24,11 L23,11 L23,13 L21,13 L21,14 L20,14 L20,15 L18,15 L18,16 L15,16 L15,17 L9,17 L9,18 L-8,18 L-8,17 L-13,17 L-13,16 L-17,16 L-17,15 L-19,15 L-19,14 L-20,14 L-20,13 L-21,13 L-21,12 L-22,12 L-22,7 L-21,7 L-21,6 L-20,6 L-20,5 L-19,5 L-19,4 L-17,4 L-17,3 L-14,3 L-14,2 L-12,2 L-12,1 L0,1 Z M-4,4 L-4,5 L-12,5 L-12,6 L-15,6 L-15,7 L-17,7 L-17,8 L-18,8 L-18,11 L-16,11 L-16,12 L-13,12 L-13,13 L-11,13 L-11,14 L-4,14 L-4,15 L6,15 L6,14 L13,14 L13,13 L15,13 L15,12 L18,12 L18,11 L20,11 L20,8 L18,8 L18,7 L17,7 L17,6 L13,6 L13,5 L6,5 L6,4 Z " fill="#000000" transform="translate(115,113)"/>
<path d="M0,0 L9,0 L9,1 L12,1 L12,2 L18,2 L18,1 L21,1 L21,0 L30,0 L30,1 L33,1 L33,2 L39,2 L39,1 L42,1 L42,0 L51,0 L51,1 L54,1 L54,2 L60,2 L60,1 L63,1 L63,0 L72,0 L72,1 L75,1 L75,2 L81,2 L81,1 L84,1 L84,0 L93,0 L93,1 L96,1 L96,2 L102,2 L102,1 L105,1 L105,0 L114,0 L114,1 L117,1 L117,2 L123,2 L123,1 L126,1 L126,0 L135,0 L135,1 L138,1 L138,2 L143,2 L143,3 L144,3 L144,5 L143,5 L143,6 L139,6 L139,5 L135,5 L135,4 L127,4 L127,5 L123,5 L123,6 L118,6 L118,5 L114,5 L114,4 L106,4 L106,5 L102,5 L102,6 L97,6 L97,5 L93,5 L93,4 L85,4 L85,5 L81,5 L81,6 L76,6 L76,5 L72,5 L72,4 L64,4 L64,5 L60,5 L60,6 L55,6 L55,5 L51,5 L51,4 L43,4 L43,5 L39,5 L39,6 L34,6 L34,5 L30,5 L30,4 L22,4 L22,5 L18,5 L18,6 L13,6 L13,5 L9,5 L9,4 L1,4 L1,5 L-3,5 L-3,6 L-7,6 L-7,5 L-9,5 L-9,3 L-7,3 L-7,2 L-3,2 L-3,1 L0,1 Z " fill="#000000" transform="translate(48,142)"/>
<path d="M0,0 L6,0 L6,1 L8,1 L8,3 L9,3 L9,5 L10,5 L10,7 L9,7 L9,12 L10,12 L10,13 L11,13 L11,15 L12,15 L12,16 L13,16 L13,17 L14,17 L14,18 L15,18 L15,19 L16,19 L16,20 L17,20 L17,21 L18,21 L18,22 L20,22 L20,23 L21,23 L21,24 L22,24 L22,25 L24,25 L24,26 L25,26 L25,27 L26,27 L26,28 L28,28 L28,29 L30,29 L30,30 L32,30 L32,31 L33,31 L33,32 L36,32 L36,33 L37,33 L37,34 L38,34 L38,36 L37,36 L37,37 L35,37 L35,36 L33,36 L33,35 L31,35 L31,34 L29,34 L29,33 L27,33 L27,32 L26,32 L26,31 L24,31 L24,30 L23,30 L23,29 L21,29 L21,28 L20,28 L20,27 L19,27 L19,26 L17,26 L17,25 L16,25 L16,24 L15,24 L15,23 L14,23 L14,22 L13,22 L13,21 L12,21 L12,20 L11,20 L11,19 L10,19 L10,18 L9,18 L9,17 L8,17 L8,16 L7,16 L7,15 L6,15 L6,13 L1,13 L1,12 L-1,12 L-1,11 L-2,11 L-2,10 L-3,10 L-3,8 L-4,8 L-4,5 L-3,5 L-3,3 L-2,3 L-2,2 L-1,2 L-1,1 L0,1 Z M1,4 L1,5 L0,5 L0,8 L1,8 L1,9 L4,9 L4,8 L6,8 L6,5 L5,5 L5,4 Z " fill="#000000" transform="translate(18,192)"/>
</svg>
