<?xml version="1.0" encoding="UTF-8"?>
<svg version="1.1" xmlns="http://www.w3.org/2000/svg" width="160" height="160">
<path d="M0 0 C1.31253754 -0.00281982 2.62507507 -0.00563965 3.97738647 -0.00854492 C5.44561781 -0.00660032 6.91384901 -0.00455213 8.38208008 -0.00241089 C9.91753175 -0.00376486 11.45298311 -0.00554477 12.98843384 -0.00772095 C17.17013463 -0.01229573 21.35181087 -0.01050554 25.53351212 -0.00734186 C29.89994627 -0.00481849 34.26637826 -0.00715573 38.6328125 -0.00872803 C45.96688211 -0.01054979 53.30094168 -0.00814324 60.63500977 -0.00338745 C69.12660751 0.00205518 77.61818124 0.00029253 86.1097784 -0.00521386 C93.38703842 -0.00974479 100.66429119 -0.01039563 107.94155216 -0.00777519 C112.29383297 -0.00621231 116.64610248 -0.00601895 120.99838257 -0.00931168 C125.08915715 -0.01219011 129.17990064 -0.01021521 133.27067184 -0.00441742 C134.77638065 -0.00308967 136.28209205 -0.00348419 137.78779984 -0.00568008 C139.83460652 -0.00839098 141.8814189 -0.0043973 143.92822266 0 C145.07639969 0.00037703 146.22457672 0.00075405 147.407547 0.0011425 C149.96411133 0.12698364 149.96411133 0.12698364 150.96411133 1.12698364 C151.06304782 3.13695824 151.09043416 5.15046433 151.09109497 7.16287231 C151.09391479 8.47540985 151.09673462 9.78794739 151.09963989 11.14025879 C151.09769529 12.60849013 151.0956471 14.07672133 151.09350586 15.54495239 C151.09485983 17.08040407 151.09663975 18.61585542 151.09881592 20.15130615 C151.1033907 24.33300695 151.10160051 28.51468318 151.09843683 32.69638443 C151.09591346 37.06281859 151.0982507 41.42925058 151.099823 45.79568481 C151.10164476 53.12975443 151.09923821 60.46381399 151.09448242 67.79788208 C151.08903979 76.28947982 151.09080244 84.78105356 151.09630883 93.27265072 C151.10083977 100.54991074 151.1014906 107.82716351 151.09887016 115.10442448 C151.09730728 119.45670528 151.09711392 123.80897479 151.10040665 128.16125488 C151.10328508 132.25202947 151.10131018 136.34277295 151.09551239 140.43354416 C151.09418464 141.93925296 151.09457916 143.44496436 151.09677505 144.95067215 C151.09948595 146.99747884 151.09549227 149.04429121 151.09109497 151.09109497 C151.09052943 152.81336052 151.09052943 152.81336052 151.08995247 154.57041931 C150.96411133 157.12698364 150.96411133 157.12698364 149.96411133 158.12698364 C147.95413673 158.22592013 145.94063064 158.25330647 143.92822266 158.25396729 C142.61568512 158.25678711 141.30314758 158.25960693 139.95083618 158.26251221 C138.48260484 158.26056761 137.01437364 158.25851942 135.54614258 158.25637817 C134.0106909 158.25773215 132.47523955 158.25951206 130.93978882 158.26168823 C126.75808802 158.26626302 122.57641179 158.26447282 118.39471054 158.26130915 C114.02827638 158.25878578 109.66184439 158.26112302 105.29541016 158.26269531 C97.96134054 158.26451708 90.62728098 158.26211052 83.29321289 158.25735474 C74.80161515 158.2519121 66.31004141 158.25367475 57.81844425 158.25918114 C50.54118424 158.26371208 43.26393147 158.26436292 35.98667049 158.26174247 C31.63438969 158.26017959 27.28212018 158.25998623 22.92984009 158.26327896 C18.83906551 158.2661574 14.74832202 158.2641825 10.65755081 158.2583847 C9.15184201 158.25705696 7.64613061 158.25745147 6.14042282 158.25964737 C4.09361613 158.26235827 2.04680376 158.25836459 0 158.25396729 C-1.14817703 158.25359026 -2.29635406 158.25321323 -3.47932434 158.25282478 C-6.03588867 158.12698364 -6.03588867 158.12698364 -7.03588867 157.12698364 C-7.13482516 155.11700904 -7.1622115 153.10350295 -7.16287231 151.09109497 C-7.16569214 149.77855743 -7.16851196 148.4660199 -7.17141724 147.1137085 C-7.16947263 145.64547716 -7.16742445 144.17724596 -7.1652832 142.70901489 C-7.16663718 141.17356322 -7.16841709 139.63811186 -7.17059326 138.10266113 C-7.17516805 133.92096034 -7.17337785 129.7392841 -7.17021418 125.55758286 C-7.16769081 121.1911487 -7.17002805 116.82471671 -7.17160034 112.45828247 C-7.17342211 105.12421286 -7.17101555 97.7901533 -7.16625977 90.45608521 C-7.16081713 81.96448746 -7.16257978 73.47291373 -7.16808617 64.98131657 C-7.17261711 57.70405655 -7.17326794 50.42680378 -7.1706475 43.14954281 C-7.16908462 38.797262 -7.16889126 34.44499249 -7.17218399 30.0927124 C-7.17506243 26.00193782 -7.17308753 21.91119433 -7.16728973 17.82042313 C-7.16596199 16.31471432 -7.1663565 14.80900292 -7.1685524 13.30329514 C-7.1712633 11.25648845 -7.16726962 9.20967607 -7.16287231 7.16287231 C-7.16230678 5.44060677 -7.16230678 5.44060677 -7.16172981 3.68354797 C-6.92401454 -1.14582971 -4.23556599 0.00139083 0 0 Z " fill="#191A22" transform="translate(8.035888671875,0.873016357421875)"/>
<path d="M0 0 C1.31253754 -0.00281982 2.62507507 -0.00563965 3.97738647 -0.00854492 C5.44561781 -0.00660032 6.91384901 -0.00455213 8.38208008 -0.00241089 C9.91753175 -0.00376486 11.45298311 -0.00554477 12.98843384 -0.00772095 C17.17013463 -0.01229573 21.35181087 -0.01050554 25.53351212 -0.00734186 C29.89994627 -0.00481849 34.26637826 -0.00715573 38.6328125 -0.00872803 C45.96688211 -0.01054979 53.30094168 -0.00814324 60.63500977 -0.00338745 C69.12660751 0.00205518 77.61818124 0.00029253 86.1097784 -0.00521386 C93.38703842 -0.00974479 100.66429119 -0.01039563 107.94155216 -0.00777519 C112.29383297 -0.00621231 116.64610248 -0.00601895 120.99838257 -0.00931168 C125.08915715 -0.01219011 129.17990064 -0.01021521 133.27067184 -0.00441742 C134.77638065 -0.00308967 136.28209205 -0.00348419 137.78779984 -0.00568008 C139.83460652 -0.00839098 141.8814189 -0.0043973 143.92822266 0 C145.07639969 0.00037703 146.22457672 0.00075405 147.407547 0.0011425 C149.96411133 0.12698364 149.96411133 0.12698364 150.96411133 1.12698364 C151.06304782 3.13695824 151.09043416 5.15046433 151.09109497 7.16287231 C151.09391479 8.47540985 151.09673462 9.78794739 151.09963989 11.14025879 C151.09769529 12.60849013 151.0956471 14.07672133 151.09350586 15.54495239 C151.09485983 17.08040407 151.09663975 18.61585542 151.09881592 20.15130615 C151.1033907 24.33300695 151.10160051 28.51468318 151.09843683 32.69638443 C151.09591346 37.06281859 151.0982507 41.42925058 151.099823 45.79568481 C151.10164476 53.12975443 151.09923821 60.46381399 151.09448242 67.79788208 C151.08903979 76.28947982 151.09080244 84.78105356 151.09630883 93.27265072 C151.10083977 100.54991074 151.1014906 107.82716351 151.09887016 115.10442448 C151.09730728 119.45670528 151.09711392 123.80897479 151.10040665 128.16125488 C151.10328508 132.25202947 151.10131018 136.34277295 151.09551239 140.43354416 C151.09418464 141.93925296 151.09457916 143.44496436 151.09677505 144.95067215 C151.09948595 146.99747884 151.09549227 149.04429121 151.09109497 151.09109497 C151.09052943 152.81336052 151.09052943 152.81336052 151.08995247 154.57041931 C150.96411133 157.12698364 150.96411133 157.12698364 149.96411133 158.12698364 C147.95413673 158.22592013 145.94063064 158.25330647 143.92822266 158.25396729 C142.61568512 158.25678711 141.30314758 158.25960693 139.95083618 158.26251221 C138.48260484 158.26056761 137.01437364 158.25851942 135.54614258 158.25637817 C134.0106909 158.25773215 132.47523955 158.25951206 130.93978882 158.26168823 C126.75808802 158.26626302 122.57641179 158.26447282 118.39471054 158.26130915 C114.02827638 158.25878578 109.66184439 158.26112302 105.29541016 158.26269531 C97.96134054 158.26451708 90.62728098 158.26211052 83.29321289 158.25735474 C74.80161515 158.2519121 66.31004141 158.25367475 57.81844425 158.25918114 C50.54118424 158.26371208 43.26393147 158.26436292 35.98667049 158.26174247 C31.63438969 158.26017959 27.28212018 158.25998623 22.92984009 158.26327896 C18.83906551 158.2661574 14.74832202 158.2641825 10.65755081 158.2583847 C9.15184201 158.25705696 7.64613061 158.25745147 6.14042282 158.25964737 C4.09361613 158.26235827 2.04680376 158.25836459 0 158.25396729 C-1.14817703 158.25359026 -2.29635406 158.25321323 -3.47932434 158.25282478 C-6.03588867 158.12698364 -6.03588867 158.12698364 -7.03588867 157.12698364 C-7.13482516 155.11700904 -7.1622115 153.10350295 -7.16287231 151.09109497 C-7.16569214 149.77855743 -7.16851196 148.4660199 -7.17141724 147.1137085 C-7.16947263 145.64547716 -7.16742445 144.17724596 -7.1652832 142.70901489 C-7.16663718 141.17356322 -7.16841709 139.63811186 -7.17059326 138.10266113 C-7.17516805 133.92096034 -7.17337785 129.7392841 -7.17021418 125.55758286 C-7.16769081 121.1911487 -7.17002805 116.82471671 -7.17160034 112.45828247 C-7.17342211 105.12421286 -7.17101555 97.7901533 -7.16625977 90.45608521 C-7.16081713 81.96448746 -7.16257978 73.47291373 -7.16808617 64.98131657 C-7.17261711 57.70405655 -7.17326794 50.42680378 -7.1706475 43.14954281 C-7.16908462 38.797262 -7.16889126 34.44499249 -7.17218399 30.0927124 C-7.17506243 26.00193782 -7.17308753 21.91119433 -7.16728973 17.82042313 C-7.16596199 16.31471432 -7.1663565 14.80900292 -7.1685524 13.30329514 C-7.1712633 11.25648845 -7.16726962 9.20967607 -7.16287231 7.16287231 C-7.16230678 5.44060677 -7.16230678 5.44060677 -7.16172981 3.68354797 C-6.92401454 -1.14582971 -4.23556599 0.00139083 0 0 Z M-0.03588867 7.12698364 C-0.03588867 54.64698364 -0.03588867 102.16698364 -0.03588867 151.12698364 C47.48411133 151.12698364 95.00411133 151.12698364 143.96411133 151.12698364 C143.96411133 103.60698364 143.96411133 56.08698364 143.96411133 7.12698364 C96.44411133 7.12698364 48.92411133 7.12698364 -0.03588867 7.12698364 Z " fill="#A1A1F3" transform="translate(8.035888671875,0.873016357421875)"/>
<path d="M0 0 C10.23 0 20.46 0 31 0 C31.020625 4.929375 31.04125 9.85875 31.0625 14.9375 C31.071604 16.49460693 31.08070801 18.05171387 31.09008789 19.65600586 C31.09258545 20.87167236 31.09508301 22.08733887 31.09765625 23.33984375 C31.10551147 25.21724243 31.10551147 25.21724243 31.11352539 27.13256836 C31 30 31 30 30 31 C27.78144736 31.08783542 25.56011504 31.10694609 23.33984375 31.09765625 C22.12417725 31.09515869 20.90851074 31.09266113 19.65600586 31.09008789 C18.09889893 31.08098389 16.54179199 31.07187988 14.9375 31.0625 C10.008125 31.041875 5.07875 31.02125 0 31 C0 20.77 0 10.54 0 0 Z " fill="#94DC96" transform="translate(47,82)"/>
<path d="M0 0 C10.23 0 20.46 0 31 0 C31.020625 4.929375 31.04125 9.85875 31.0625 14.9375 C31.071604 16.49460693 31.08070801 18.05171387 31.09008789 19.65600586 C31.09258545 20.87167236 31.09508301 22.08733887 31.09765625 23.33984375 C31.10551147 25.21724243 31.10551147 25.21724243 31.11352539 27.13256836 C31 30 31 30 30 31 C27.78144736 31.08783542 25.56011504 31.10694609 23.33984375 31.09765625 C22.12417725 31.09515869 20.90851074 31.09266113 19.65600586 31.09008789 C18.09889893 31.08098389 16.54179199 31.07187988 14.9375 31.0625 C10.008125 31.041875 5.07875 31.02125 0 31 C0 20.77 0 10.54 0 0 Z " fill="#DC9597" transform="translate(82,12)"/>
<path d="M0 0 C9.57 0 19.14 0 29 0 C29 9.57 29 19.14 29 29 C19.43 29 9.86 29 0 29 C0 19.43 0 9.86 0 0 Z " fill="#444438" transform="translate(13,118)"/>
<path d="M0 0 C9.57 0 19.14 0 29 0 C29 9.57 29 19.14 29 29 C19.43 29 9.86 29 0 29 C0 19.43 0 9.86 0 0 Z " fill="#48363F" transform="translate(13,83)"/>
<path d="M0 0 C9.57 0 19.14 0 29 0 C29 9.57 29 19.14 29 29 C19.43 29 9.86 29 0 29 C0 19.43 0 9.86 0 0 Z " fill="#394C44" transform="translate(83,48)"/>
<path d="M0 0 C9.57 0 19.14 0 29 0 C29 9.57 29 19.14 29 29 C19.43 29 9.86 29 0 29 C0 19.43 0 9.86 0 0 Z " fill="#4F4F49" transform="translate(48,48)"/>
<path d="M0 0 C9.57 0 19.14 0 29 0 C29 9.57 29 19.14 29 29 C19.43 29 9.86 29 0 29 C0 19.43 0 9.86 0 0 Z " fill="#394C44" transform="translate(13,48)"/>
<path d="M0 0 C9.57 0 19.14 0 29 0 C29 9.57 29 19.14 29 29 C19.43 29 9.86 29 0 29 C0 19.43 0 9.86 0 0 Z " fill="#34463B" transform="translate(118,13)"/>
<path d="M0 0 C9.57 0 19.14 0 29 0 C29 9.57 29 19.14 29 29 C19.43 29 9.86 29 0 29 C0 19.43 0 9.86 0 0 Z " fill="#3B4E47" transform="translate(48,13)"/>
<path d="M0 0 C9.57 0 19.14 0 29 0 C29 9.57 29 19.14 29 29 C19.43 29 9.86 29 0 29 C0 19.43 0 9.86 0 0 Z " fill="#4C4C44" transform="translate(13,13)"/>
<path d="M0 0 C6.93 0 13.86 0 21 0 C21 6.93 21 13.86 21 21 C14.07 21 7.14 21 0 21 C0 14.07 0 7.14 0 0 Z " fill="#384A42" transform="translate(52,87)"/>
<path d="M0 0 C6.93 0 13.86 0 21 0 C21 6.93 21 13.86 21 21 C14.07 21 7.14 21 0 21 C0 14.07 0 7.14 0 0 Z " fill="#4A3842" transform="translate(87,17)"/>
<path d="M0 0 C9.57 0 19.14 0 29 0 C29 9.57 29 19.14 29 29 C19.43 29 9.86 29 0 29 C0 19.43 0 9.86 0 0 Z M4 4 C4 10.93 4 17.86 4 25 C10.93 25 17.86 25 25 25 C25 18.07 25 11.14 25 4 C18.07 4 11.14 4 4 4 Z " fill="#F4F4A5" transform="translate(13,118)"/>
<path d="M0 0 C9.57 0 19.14 0 29 0 C29 9.57 29 19.14 29 29 C19.43 29 9.86 29 0 29 C0 19.43 0 9.86 0 0 Z M4 4 C4 10.93 4 17.86 4 25 C10.93 25 17.86 25 25 25 C25 18.07 25 11.14 25 4 C18.07 4 11.14 4 4 4 Z " fill="#F5A5A5" transform="translate(13,83)"/>
<path d="M0 0 C9.57 0 19.14 0 29 0 C29 9.57 29 19.14 29 29 C19.43 29 9.86 29 0 29 C0 19.43 0 9.86 0 0 Z M4 4 C4 10.93 4 17.86 4 25 C10.93 25 17.86 25 25 25 C25 18.07 25 11.14 25 4 C18.07 4 11.14 4 4 4 Z " fill="#A4F5A4" transform="translate(83,48)"/>
<path d="M0 0 C9.57 0 19.14 0 29 0 C29 9.57 29 19.14 29 29 C19.43 29 9.86 29 0 29 C0 19.43 0 9.86 0 0 Z M4 4 C4 10.93 4 17.86 4 25 C10.93 25 17.86 25 25 25 C25 18.07 25 11.14 25 4 C18.07 4 11.14 4 4 4 Z " fill="#F5F5A5" transform="translate(48,48)"/>
<path d="M0 0 C9.57 0 19.14 0 29 0 C29 9.57 29 19.14 29 29 C19.43 29 9.86 29 0 29 C0 19.43 0 9.86 0 0 Z M4 4 C4 10.93 4 17.86 4 25 C10.93 25 17.86 25 25 25 C25 18.07 25 11.14 25 4 C18.07 4 11.14 4 4 4 Z " fill="#A4F5A4" transform="translate(13,48)"/>
<path d="M0 0 C9.57 0 19.14 0 29 0 C29 9.57 29 19.14 29 29 C19.43 29 9.86 29 0 29 C0 19.43 0 9.86 0 0 Z M4 4 C4 10.93 4 17.86 4 25 C10.93 25 17.86 25 25 25 C25 18.07 25 11.14 25 4 C18.07 4 11.14 4 4 4 Z " fill="#A3F5A4" transform="translate(118,13)"/>
<path d="M0 0 C9.57 0 19.14 0 29 0 C29 9.57 29 19.14 29 29 C19.43 29 9.86 29 0 29 C0 19.43 0 9.86 0 0 Z M4 4 C4 10.93 4 17.86 4 25 C10.93 25 17.86 25 25 25 C25 18.07 25 11.14 25 4 C18.07 4 11.14 4 4 4 Z " fill="#A4F5A4" transform="translate(48,13)"/>
<path d="M0 0 C9.57 0 19.14 0 29 0 C29 9.57 29 19.14 29 29 C19.43 29 9.86 29 0 29 C0 19.43 0 9.86 0 0 Z M4 4 C4 10.93 4 17.86 4 25 C10.93 25 17.86 25 25 25 C25 18.07 25 11.14 25 4 C18.07 4 11.14 4 4 4 Z " fill="#F5F5A5" transform="translate(13,13)"/>
<path d="M0 0 C0.66209473 -0.00095673 1.32418945 -0.00191345 2.00634766 -0.00289917 C3.40852961 -0.00358076 4.8107147 -0.00172792 6.21289062 0.00244141 C8.36595713 0.00779004 10.51881502 0.0024958 12.671875 -0.00390625 C14.03125046 -0.00324546 15.3906258 -0.00196429 16.75 0 C18.61785156 0.00169189 18.61785156 0.00169189 20.5234375 0.00341797 C23.375 0.1328125 23.375 0.1328125 24.375 1.1328125 C24.46290975 3.42432667 24.48194038 5.71853774 24.47265625 8.01171875 C24.4712413 8.6983812 24.46982635 9.38504364 24.46836853 10.09251404 C24.46275479 12.29349051 24.45020007 14.49436659 24.4375 16.6953125 C24.43248676 18.18424333 24.42792355 19.67317574 24.42382812 21.16210938 C24.41278093 24.81904325 24.39550713 28.47591808 24.375 32.1328125 C21.42883462 33.60589519 18.89737406 33.13575942 15.6171875 33.01171875 C14.62261032 32.97630226 14.62261032 32.97630226 13.60794067 32.94017029 C11.48840871 32.86354434 9.36924315 32.77951607 7.25 32.6953125 C5.81382006 32.64209069 4.3776222 32.5893503 2.94140625 32.53710938 C-0.58095436 32.40793106 -4.10302352 32.2721122 -7.625 32.1328125 C-7.64965504 27.73625077 -7.66783842 23.3397253 -7.67993164 18.94311523 C-7.68497121 17.44636332 -7.69180287 15.94961634 -7.70043945 14.45288086 C-7.71252159 12.30581443 -7.71823191 10.15881288 -7.72265625 8.01171875 C-7.72789307 6.7182251 -7.73312988 5.42473145 -7.73852539 4.09204102 C-7.53146656 -1.30529246 -4.78558557 0.00433477 0 0 Z M-6.625 2.1328125 C-6.625 11.7028125 -6.625 21.2728125 -6.625 31.1328125 C2.945 31.1328125 12.515 31.1328125 22.375 31.1328125 C22.375 21.5628125 22.375 11.9928125 22.375 2.1328125 C12.805 2.1328125 3.235 2.1328125 -6.625 2.1328125 Z " fill="#4B6954" transform="translate(19.625,45.8671875)"/>
<path d="M0 0 C5.094375 -0.020625 10.18875 -0.04125 15.4375 -0.0625 C17.04681396 -0.071604 18.65612793 -0.08070801 20.31420898 -0.09008789 C21.57048096 -0.09258545 22.82675293 -0.09508301 24.12109375 -0.09765625 C26.06133423 -0.10551147 26.06133423 -0.10551147 28.04077148 -0.11352539 C31 0 31 0 32 1 C32.10012401 3.20650656 32.1308118 5.41622386 32.1328125 7.625 C32.13376923 8.28709473 32.13472595 8.94918945 32.13571167 9.63134766 C32.13639326 11.03352961 32.13454042 12.4357147 32.13037109 13.83789062 C32.12502246 15.99095713 32.1303167 18.14381502 32.13671875 20.296875 C32.13605796 21.65625046 32.13477679 23.0156258 32.1328125 24.375 C32.13168457 25.62023437 32.13055664 26.86546875 32.12939453 28.1484375 C32 31 32 31 31 32 C28.70848583 32.08790975 26.41427476 32.10694038 24.12109375 32.09765625 C22.86482178 32.09515869 21.6085498 32.09266113 20.31420898 32.09008789 C18.70489502 32.08098389 17.09558105 32.07187988 15.4375 32.0625 C10.343125 32.041875 5.24875 32.02125 0 32 C0 21.44 0 10.88 0 0 Z M1 1 C1 10.57 1 20.14 1 30 C10.57 30 20.14 30 30 30 C30 20.43 30 10.86 30 1 C20.43 1 10.86 1 1 1 Z " fill="#696955" transform="translate(12,12)"/>
<path d="M0 0 C1.25159912 0.00523682 2.50319824 0.01047363 3.79272461 0.01586914 C4.78942421 0.01799156 4.78942421 0.01799156 5.80625916 0.02015686 C7.93590735 0.02577021 10.06545175 0.03832485 12.19506836 0.05102539 C13.63582205 0.05603868 15.07657739 0.06060188 16.51733398 0.06469727 C20.05577938 0.07574394 23.59416375 0.09301747 27.13256836 0.11352539 C28.59355681 3.03550229 28.24391737 5.61246014 28.23022461 8.87133789 C28.22880966 9.53438934 28.22739471 10.1974408 28.22593689 10.88058472 C28.2203359 12.99994402 28.20778336 15.11919798 28.19506836 17.23852539 C28.19005348 18.67472178 28.18549055 20.11091983 28.18139648 21.54711914 C28.17036618 25.06928884 28.15310095 28.59139684 28.13256836 32.11352539 C25.24779593 33.55591161 22.84467105 33.13701567 19.62866211 33.02758789 C18.3312207 32.98375977 17.0337793 32.93993164 15.69702148 32.89477539 C15.02034424 32.86899414 14.34366699 32.84321289 13.64648438 32.81665039 C11.57497762 32.7387101 9.5033171 32.67162087 7.43139648 32.60571289 C-2.73938964 32.24156739 -2.73938964 32.24156739 -3.86743164 31.11352539 C-3.96755565 28.90701883 -3.99824344 26.69730153 -4.00024414 24.48852539 C-4.00120087 23.82643066 -4.00215759 23.16433594 -4.00314331 22.48217773 C-4.0038249 21.07999578 -4.00197206 19.67781069 -3.99780273 18.27563477 C-3.9924541 16.12256826 -3.99774834 13.96971037 -4.00415039 11.81665039 C-4.00348961 10.45727493 -4.00220843 9.0978996 -4.00024414 7.73852539 C-3.99911621 6.49329102 -3.99798828 5.24805664 -3.99682617 3.96508789 C-3.82377302 0.1513882 -3.82377302 0.1513882 0 0 Z M-2.86743164 2.11352539 C-2.86743164 11.68352539 -2.86743164 21.25352539 -2.86743164 31.11352539 C6.70256836 31.11352539 16.27256836 31.11352539 26.13256836 31.11352539 C26.13256836 21.54352539 26.13256836 11.97352539 26.13256836 2.11352539 C16.56256836 2.11352539 6.99256836 2.11352539 -2.86743164 2.11352539 Z " fill="#63634C" transform="translate(15.867431640625,115.886474609375)"/>
<path d="M0 0 C4.39656173 -0.02465504 8.7930872 -0.04283842 13.18969727 -0.05493164 C14.68644918 -0.05997121 16.18319616 -0.06680287 17.67993164 -0.07543945 C19.82699807 -0.08752159 21.97399962 -0.09323191 24.12109375 -0.09765625 C26.06133423 -0.10551147 26.06133423 -0.10551147 28.04077148 -0.11352539 C31 0 31 0 32 1 C32.10012401 3.20650656 32.1308118 5.41622386 32.1328125 7.625 C32.13376923 8.28709473 32.13472595 8.94918945 32.13571167 9.63134766 C32.13639326 11.03352961 32.13454042 12.4357147 32.13037109 13.83789062 C32.12502246 15.99095713 32.1303167 18.14381502 32.13671875 20.296875 C32.13605796 21.65625046 32.13477679 23.0156258 32.1328125 24.375 C32.13168457 25.62023437 32.13055664 26.86546875 32.12939453 28.1484375 C32 31 32 31 31 32 C28.79349344 32.10012401 26.58377614 32.1308118 24.375 32.1328125 C23.71290527 32.13376923 23.05081055 32.13472595 22.36865234 32.13571167 C20.96647039 32.13639326 19.5642853 32.13454042 18.16210938 32.13037109 C16.00904287 32.12502246 13.85618498 32.1303167 11.703125 32.13671875 C10.34374954 32.13605796 8.9843742 32.13477679 7.625 32.1328125 C6.37976563 32.13168457 5.13453125 32.13055664 3.8515625 32.12939453 C1 32 1 32 0 31 C-0.08790975 28.70848583 -0.10694038 26.41427476 -0.09765625 24.12109375 C-0.0962413 23.4344313 -0.09482635 22.74776886 -0.09336853 22.04029846 C-0.08775479 19.83932199 -0.07520007 17.63844591 -0.0625 15.4375 C-0.05748676 13.94856917 -0.05292355 12.45963676 -0.04882812 10.97070312 C-0.03778093 7.31376925 -0.02050713 3.65689442 0 0 Z M1 2 C1 11.57 1 21.14 1 31 C10.57 31 20.14 31 30 31 C30 21.43 30 11.86 30 2 C20.43 2 10.86 2 1 2 Z " fill="#664951" transform="translate(12,81)"/>
<path d="M0 0 C0.66209473 -0.00095673 1.32418945 -0.00191345 2.00634766 -0.00289917 C3.40852961 -0.00358076 4.8107147 -0.00172792 6.21289062 0.00244141 C8.36595713 0.00779004 10.51881502 0.0024958 12.671875 -0.00390625 C14.03125046 -0.00324546 15.3906258 -0.00196429 16.75 0 C18.61785156 0.00169189 18.61785156 0.00169189 20.5234375 0.00341797 C23.375 0.1328125 23.375 0.1328125 24.375 1.1328125 C24.47512401 3.33931906 24.5058118 5.54903636 24.5078125 7.7578125 C24.50876923 8.41990723 24.50972595 9.08200195 24.51071167 9.76416016 C24.51139326 11.16634211 24.50954042 12.5685272 24.50537109 13.97070312 C24.50002246 16.12376963 24.5053167 18.27662752 24.51171875 20.4296875 C24.51105796 21.78906296 24.50977679 23.1484383 24.5078125 24.5078125 C24.50668457 25.75304687 24.50555664 26.99828125 24.50439453 28.28125 C24.375 31.1328125 24.375 31.1328125 23.375 32.1328125 C21.16849344 32.23293651 18.95877614 32.2636243 16.75 32.265625 C16.08790527 32.26658173 15.42581055 32.26753845 14.74365234 32.26852417 C13.34147039 32.26920576 11.9392853 32.26735292 10.53710938 32.26318359 C8.38404287 32.25783496 6.23118498 32.2631292 4.078125 32.26953125 C2.71874954 32.26887046 1.3593742 32.26758929 0 32.265625 C-1.24523437 32.26449707 -2.49046875 32.26336914 -3.7734375 32.26220703 C-6.625 32.1328125 -6.625 32.1328125 -7.625 31.1328125 C-7.72512401 28.92630594 -7.7558118 26.71658864 -7.7578125 24.5078125 C-7.75876923 23.84571777 -7.75972595 23.18362305 -7.76071167 22.50146484 C-7.76139326 21.09928289 -7.75954042 19.6970978 -7.75537109 18.29492188 C-7.75002246 16.14185537 -7.7553167 13.98899748 -7.76171875 11.8359375 C-7.76105796 10.47656204 -7.75977679 9.1171867 -7.7578125 7.7578125 C-7.75668457 6.51257812 -7.75555664 5.26734375 -7.75439453 3.984375 C-7.51426781 -1.30747426 -4.67358012 0.00423332 0 0 Z M-6.625 1.1328125 C-6.625 10.7028125 -6.625 20.2728125 -6.625 30.1328125 C2.945 30.1328125 12.515 30.1328125 22.375 30.1328125 C22.375 20.5628125 22.375 10.9928125 22.375 1.1328125 C12.805 1.1328125 3.235 1.1328125 -6.625 1.1328125 Z " fill="#4A6853" transform="translate(89.625,46.8671875)"/>
</svg>
