<?xml version="1.0" encoding="UTF-8"?>
<!DOCTYPE svg PUBLIC "-//W3C//DTD SVG 1.1//EN" "http://www.w3.org/Graphics/SVG/1.1/DTD/svg11.dtd">
<svg xmlns="http://www.w3.org/2000/svg" version="1.1" width="864px" height="865px" style="shape-rendering:geometricPrecision; text-rendering:geometricPrecision; image-rendering:optimizeQuality; fill-rule:evenodd; clip-rule:evenodd" xmlns:xlink="http://www.w3.org/1999/xlink">
<g><path style="opacity:0.985" fill="#0065cc" d="M 417.5,71.5 C 542.291,70.3213 643.124,118.321 720,215.5C 790.416,314.28 809.083,422.28 776,539.5C 740.585,645.915 671.419,721.415 568.5,766C 485.13,798.355 400.797,801.022 315.5,774C 217.357,738.834 146.19,674.001 102,579.5C 61.433,482.965 60.7663,386.298 100,289.5C 137.577,205.257 198.077,143.423 281.5,104C 324.92,84.6436 370.254,73.8103 417.5,71.5 Z M 425.5,128.5 C 532.079,130.203 616.913,173.536 680,258.5C 738.772,347.349 750.105,442.016 714,542.5C 667.761,650.382 586.594,713.882 470.5,733C 455.849,735.227 441.182,735.727 426.5,734.5C 422.996,731.656 422.663,728.489 425.5,725C 526.336,679.464 583.502,601.631 597,491.5C 600.322,451.089 595.322,411.755 582,373.5C 556.812,315.659 512.978,281.826 450.5,272C 387.462,266.883 336.962,289.383 299,339.5C 267.372,387.906 261.706,439.239 282,493.5C 305.019,546.511 344.852,579.011 401.5,591C 435.154,596.731 467.654,592.897 499,579.5C 502.248,580.245 504.415,582.245 505.5,585.5C 473.374,637.407 427.041,668.574 366.5,679C 295.1,687.362 235.6,664.862 188,611.5C 144.007,551.902 124.341,484.902 129,410.5C 140.17,303.92 191.337,223.087 282.5,168C 327.148,143.425 374.814,130.258 425.5,128.5 Z M 418.5,328.5 C 463.452,325.559 497.952,342.892 522,380.5C 545.817,430.076 537.983,473.909 498.5,512C 465.581,537.616 429.581,542.95 390.5,528C 350.212,508.78 329.212,476.78 327.5,432C 328.592,394.96 344.259,365.96 374.5,345C 388.192,336.606 402.859,331.106 418.5,328.5 Z"/></g>
</svg>
