<svg id="svg" version="1.1" xmlns="http://www.w3.org/2000/svg" xmlns:xlink="http://www.w3.org/1999/xlink" width="400" height="400" viewBox="0, 0, 400,400"><g id="svgg"><path id="path0" d="M110.792 89.300 C 110.727 167.761,110.814 320.547,110.924 320.657 C 111.329 321.062,208.805 320.807,212.346 320.391 C 216.153 319.944,229.310 317.836,232.800 317.114 C 233.790 316.910,235.410 316.648,236.400 316.532 C 237.390 316.417,238.371 316.160,238.580 315.961 C 238.789 315.763,239.240 315.600,239.583 315.600 C 239.926 315.600,242.264 314.794,244.778 313.808 C 247.293 312.823,249.437 312.104,249.543 312.210 C 249.649 312.316,250.144 312.136,250.643 311.809 C 251.972 310.938,254.173 309.706,257.949 307.720 C 259.791 306.751,261.569 305.688,261.900 305.358 C 262.230 305.027,263.820 303.866,265.433 302.778 C 267.046 301.689,269.408 299.761,270.683 298.492 C 273.711 295.477,277.200 291.658,277.200 291.359 C 277.200 291.228,278.190 289.717,279.400 288.000 C 280.610 286.283,281.600 284.726,281.599 284.539 C 281.598 284.353,281.944 283.480,282.368 282.600 C 282.791 281.720,283.616 279.740,284.201 278.200 C 284.785 276.660,285.429 275.087,285.632 274.705 C 285.834 274.323,286.000 273.659,286.000 273.229 C 286.000 272.799,286.154 272.352,286.343 272.235 C 286.531 272.119,286.806 271.073,286.953 269.912 C 287.099 268.750,287.395 266.810,287.610 265.600 C 288.112 262.769,289.180 250.291,288.951 249.921 C 288.856 249.767,288.602 248.056,288.387 246.120 C 288.027 242.877,287.735 240.857,287.009 236.600 C 286.859 235.720,286.571 234.595,286.368 234.100 C 285.974 233.137,285.786 232.697,284.214 229.050 C 283.656 227.758,283.200 226.548,283.200 226.362 C 283.200 225.659,281.190 221.728,279.921 219.948 C 277.145 216.055,275.203 213.660,274.147 212.830 C 273.545 212.357,272.644 211.368,272.145 210.633 C 271.646 209.898,270.427 208.785,269.438 208.159 C 268.449 207.533,267.438 206.656,267.192 206.210 C 266.477 204.916,259.618 200.554,257.087 199.785 C 255.815 199.399,254.680 198.929,254.564 198.741 C 254.448 198.554,253.997 198.400,253.562 198.400 C 253.128 198.400,252.321 198.104,251.770 197.743 C 251.218 197.382,250.100 196.948,249.284 196.779 C 248.468 196.610,246.540 196.116,245.000 195.682 C 243.460 195.249,241.120 194.663,239.800 194.381 C 238.480 194.098,237.253 193.789,237.074 193.694 C 236.487 193.382,238.101 192.000,239.052 192.000 C 240.015 192.000,244.033 190.335,247.259 188.600 C 248.281 188.050,249.365 187.600,249.667 187.600 C 249.969 187.600,251.563 186.614,253.208 185.408 C 254.854 184.203,256.345 183.213,256.521 183.208 C 257.567 183.182,266.800 175.158,266.800 174.276 C 266.800 174.042,267.610 172.819,268.600 171.559 C 269.590 170.299,270.400 169.155,270.400 169.017 C 270.400 168.879,270.731 168.411,271.136 167.977 C 271.541 167.542,272.067 166.785,272.305 166.293 C 275.326 160.063,277.200 155.232,277.200 153.675 C 277.200 153.165,277.403 152.368,277.651 151.905 C 277.899 151.441,278.140 150.148,278.185 149.031 C 278.231 147.914,278.404 145.020,278.570 142.600 C 278.792 139.361,278.695 136.723,278.202 132.600 C 277.835 129.520,277.448 126.280,277.344 125.400 C 277.240 124.520,277.010 123.440,276.833 123.000 C 276.656 122.560,276.287 121.480,276.013 120.600 C 275.739 119.720,274.724 117.413,273.757 115.473 C 272.791 113.533,272.000 111.765,272.000 111.545 C 272.000 111.088,269.802 107.799,268.701 106.608 C 268.298 106.172,267.524 104.912,266.981 103.808 C 266.438 102.703,265.590 101.480,265.097 101.089 C 262.138 98.741,258.209 95.445,257.374 94.611 C 256.840 94.076,255.727 93.325,254.901 92.942 C 254.076 92.559,252.738 91.696,251.930 91.023 C 250.612 89.927,248.003 88.464,245.800 87.587 C 245.360 87.411,243.200 86.515,241.000 85.594 C 238.800 84.674,236.370 83.834,235.600 83.729 C 234.830 83.623,233.840 83.382,233.400 83.193 C 232.960 83.004,231.970 82.758,231.200 82.647 C 230.430 82.536,228.990 82.278,228.000 82.076 C 214.925 79.396,210.261 79.208,156.700 79.204 L 110.800 79.200 110.792 89.300 M202.000 116.571 C 229.238 118.020,242.025 135.912,233.283 160.342 C 232.940 161.300,232.466 162.290,232.230 162.542 C 231.993 162.794,231.288 163.686,230.662 164.524 C 229.227 166.444,221.745 171.998,219.494 172.814 C 218.562 173.151,217.170 173.715,216.400 174.065 C 214.309 175.017,211.666 175.874,209.200 176.398 C 207.990 176.656,206.370 177.058,205.600 177.291 C 203.301 177.989,153.585 178.222,153.160 177.538 C 152.597 176.630,152.725 117.172,153.291 116.490 C 153.735 115.955,191.612 116.018,202.000 116.571 M203.400 214.808 C 207.140 215.005,211.550 215.368,213.200 215.613 C 223.497 217.145,225.762 217.683,229.400 219.462 C 232.035 220.749,236.333 223.563,237.381 224.686 C 237.748 225.079,238.740 226.120,239.586 227.000 C 241.235 228.715,242.800 231.253,242.800 232.212 C 242.800 232.535,242.967 232.800,243.171 232.800 C 243.375 232.800,243.909 233.780,244.357 234.978 C 247.507 243.396,247.254 256.020,243.796 262.959 C 243.248 264.058,242.800 265.171,242.800 265.433 C 242.800 266.088,239.456 270.192,237.015 272.532 C 233.031 276.352,232.579 276.736,231.088 277.562 C 230.256 278.023,229.232 278.400,228.811 278.400 C 228.391 278.400,227.943 278.568,227.816 278.774 C 227.530 279.237,221.571 281.584,219.400 282.089 C 212.167 283.771,204.700 284.145,177.800 284.173 L 153.000 284.200 152.905 249.621 C 152.831 222.496,152.917 214.973,153.305 214.727 C 153.983 214.296,194.978 214.362,203.400 214.808 " stroke="none" fill="#040505" fill-rule="evenodd"></path><path id="path1" d="M50.000 24.951 C 50.000 44.676,49.902 49.184,49.463 49.548 C 49.084 49.862,41.774 50.024,24.663 50.097 C 8.823 50.164,0.400 50.339,0.400 50.600 C 0.400 50.861,8.833 51.035,24.700 51.100 C 46.980 51.193,49.042 51.257,49.500 51.877 C 50.026 52.588,50.260 97.188,49.748 99.100 L 49.507 100.000 25.253 100.006 C 2.548 100.012,-0.779 100.154,0.145 101.078 C 0.322 101.255,11.566 101.490,25.133 101.600 L 49.800 101.800 49.903 125.448 C 49.988 144.916,49.911 149.176,49.466 149.545 C 49.083 149.863,41.833 150.024,24.563 150.097 C 8.656 150.164,0.200 150.339,0.200 150.600 C 0.200 150.861,8.667 151.035,24.600 151.100 C 46.974 151.193,49.042 151.257,49.500 151.877 C 50.026 152.588,50.260 197.188,49.748 199.100 L 49.507 200.000 25.253 200.006 C 2.548 200.012,-0.779 200.154,0.145 201.078 C 0.322 201.255,11.566 201.490,25.133 201.600 L 49.800 201.800 49.903 225.448 C 49.988 244.916,49.911 249.176,49.466 249.545 C 49.083 249.863,41.833 250.024,24.563 250.097 C 8.656 250.164,0.200 250.339,0.200 250.600 C 0.200 250.861,8.667 251.035,24.600 251.100 C 46.974 251.193,49.042 251.257,49.500 251.877 C 50.026 252.588,50.260 297.188,49.748 299.100 L 49.507 300.000 25.253 300.006 C 2.548 300.012,-0.779 300.154,0.145 301.078 C 0.322 301.255,11.566 301.490,25.133 301.600 L 49.800 301.800 49.903 325.448 C 49.988 344.916,49.911 349.176,49.466 349.545 C 49.083 349.863,41.859 350.024,24.663 350.097 C 8.823 350.164,0.400 350.339,0.400 350.600 C 0.400 350.861,8.833 351.035,24.700 351.100 C 46.980 351.193,49.042 351.257,49.500 351.877 C 49.887 352.400,50.000 357.925,50.000 376.276 C 50.000 397.097,50.073 400.000,50.600 400.000 C 51.127 400.000,51.200 397.092,51.200 376.229 C 51.200 355.152,51.271 352.386,51.829 351.829 C 52.596 351.061,97.811 350.856,99.226 351.614 C 99.978 352.016,100.000 352.709,100.000 376.014 C 100.000 399.702,100.010 400.000,100.797 400.000 C 101.583 400.000,101.595 399.667,101.697 375.700 L 101.800 351.400 125.400 351.296 C 147.232 351.199,149.037 351.242,149.500 351.872 C 149.887 352.399,150.000 357.927,150.000 376.276 C 150.000 397.097,150.073 400.000,150.600 400.000 C 151.127 400.000,151.200 397.092,151.200 376.229 C 151.200 355.152,151.271 352.386,151.829 351.829 C 152.596 351.061,197.811 350.856,199.226 351.614 C 199.978 352.016,200.000 352.709,200.000 376.014 C 200.000 399.702,200.010 400.000,200.797 400.000 C 201.583 400.000,201.595 399.667,201.697 375.700 L 201.800 351.400 225.400 351.296 C 247.232 351.199,249.037 351.242,249.500 351.872 C 249.887 352.399,250.000 357.927,250.000 376.276 C 250.000 397.097,250.073 400.000,250.600 400.000 C 251.127 400.000,251.200 397.092,251.200 376.229 C 251.200 355.152,251.271 352.386,251.829 351.829 C 252.596 351.061,297.811 350.856,299.226 351.614 C 299.978 352.016,300.000 352.709,300.000 376.014 C 300.000 399.702,300.010 400.000,300.797 400.000 C 301.583 400.000,301.595 399.667,301.697 375.700 L 301.800 351.400 325.400 351.296 C 347.232 351.199,349.037 351.242,349.500 351.872 C 349.887 352.399,350.000 357.927,350.000 376.276 C 350.000 397.097,350.073 400.000,350.600 400.000 C 351.127 400.000,351.200 397.092,351.200 376.229 C 351.200 355.152,351.271 352.386,351.829 351.829 C 352.386 351.271,355.152 351.200,376.229 351.200 C 397.092 351.200,400.000 351.127,400.000 350.600 C 400.000 350.073,397.097 350.000,376.276 350.000 C 357.927 350.000,352.399 349.887,351.872 349.500 C 351.242 349.037,351.199 347.232,351.296 325.400 L 351.400 301.800 375.700 301.697 C 399.667 301.595,400.000 301.583,400.000 300.797 C 400.000 300.010,399.702 300.000,376.014 300.000 C 352.709 300.000,352.016 299.978,351.614 299.226 C 350.856 297.811,351.061 252.596,351.829 251.829 C 352.386 251.271,355.152 251.200,376.229 251.200 C 397.092 251.200,400.000 251.127,400.000 250.600 C 400.000 250.073,397.097 250.000,376.276 250.000 C 357.927 250.000,352.399 249.887,351.872 249.500 C 351.242 249.037,351.199 247.232,351.296 225.400 L 351.400 201.800 375.700 201.697 C 399.667 201.595,400.000 201.583,400.000 200.797 C 400.000 200.010,399.702 200.000,376.014 200.000 C 352.709 200.000,352.016 199.978,351.614 199.226 C 350.856 197.811,351.061 152.596,351.829 151.829 C 352.386 151.271,355.152 151.200,376.229 151.200 C 397.092 151.200,400.000 151.127,400.000 150.600 C 400.000 150.073,397.097 150.000,376.276 150.000 C 357.927 150.000,352.399 149.887,351.872 149.500 C 351.242 149.037,351.199 147.232,351.296 125.400 L 351.400 101.800 375.700 101.697 C 399.667 101.595,400.000 101.583,400.000 100.797 C 400.000 100.010,399.702 100.000,376.014 100.000 C 352.709 100.000,352.016 99.978,351.614 99.226 C 350.856 97.811,351.061 52.596,351.829 51.829 C 352.386 51.271,355.152 51.200,376.229 51.200 C 397.092 51.200,400.000 51.127,400.000 50.600 C 400.000 50.073,397.108 50.000,376.374 50.000 C 360.852 50.000,352.482 49.858,351.974 49.586 C 351.222 49.184,351.200 48.488,351.200 24.986 C 351.200 3.754,351.127 0.800,350.600 0.800 C 350.073 0.800,350.000 3.750,350.000 24.951 C 350.000 44.844,349.904 49.182,349.455 49.554 C 349.060 49.882,342.420 49.978,325.355 49.903 L 301.800 49.800 301.600 25.400 C 301.425 4.067,301.325 1.000,300.800 1.000 C 300.274 1.000,300.187 4.007,300.097 25.254 L 299.994 49.508 299.097 49.749 C 297.464 50.186,252.807 50.032,251.974 49.586 C 251.222 49.184,251.200 48.488,251.200 24.986 C 251.200 3.754,251.127 0.800,250.600 0.800 C 250.073 0.800,250.000 3.750,250.000 24.951 C 250.000 44.844,249.904 49.182,249.455 49.554 C 249.060 49.882,242.420 49.978,225.355 49.903 L 201.800 49.800 201.600 25.400 C 201.425 4.067,201.325 1.000,200.800 1.000 C 200.274 1.000,200.187 4.007,200.097 25.254 L 199.994 49.508 199.097 49.749 C 197.464 50.186,152.807 50.032,151.974 49.586 C 151.222 49.184,151.200 48.488,151.200 24.986 C 151.200 3.754,151.127 0.800,150.600 0.800 C 150.073 0.800,150.000 3.750,150.000 24.951 C 150.000 44.844,149.904 49.182,149.455 49.554 C 149.060 49.882,142.420 49.978,125.355 49.903 L 101.800 49.800 101.600 25.400 C 101.425 4.067,101.325 1.000,100.800 1.000 C 100.274 1.000,100.187 4.007,100.097 25.254 L 99.994 49.508 99.097 49.749 C 97.464 50.186,52.807 50.032,51.974 49.586 C 51.222 49.184,51.200 48.488,51.200 24.986 C 51.200 3.754,51.127 0.800,50.600 0.800 C 50.073 0.800,50.000 3.750,50.000 24.951 M99.226 51.614 C 100.183 52.126,100.467 98.573,99.520 99.520 C 98.573 100.467,52.126 100.183,51.614 99.226 C 50.856 97.811,51.061 52.596,51.829 51.829 C 52.596 51.061,97.811 50.856,99.226 51.614 M149.597 51.993 C 149.878 52.520,149.984 57.235,149.911 65.994 C 149.802 78.971,149.814 79.200,150.600 79.200 C 151.386 79.200,151.398 78.970,151.290 65.839 C 151.192 54.038,151.254 52.403,151.818 51.839 C 152.595 51.062,197.794 50.848,199.226 51.614 C 199.968 52.011,200.000 52.591,200.000 65.614 C 200.000 78.904,200.017 79.200,200.795 79.200 C 201.571 79.200,201.592 78.868,201.695 65.300 L 201.800 51.400 225.484 51.297 C 248.865 51.195,249.174 51.204,249.599 51.999 C 249.895 52.550,249.994 58.598,249.915 71.169 C 249.796 90.199,249.810 90.398,251.295 90.400 C 251.353 90.400,251.349 81.869,251.286 71.442 C 251.185 54.473,251.240 52.417,251.815 51.842 C 252.595 51.062,297.789 50.845,299.226 51.614 C 300.183 52.126,300.467 98.573,299.520 99.520 C 299.161 99.879,294.613 100.000,281.520 100.000 C 264.032 100.000,264.001 100.001,264.796 100.796 C 265.562 101.562,266.229 101.595,282.696 101.696 L 299.800 101.800 299.903 125.681 L 300.006 149.563 298.703 149.801 C 297.986 149.933,293.127 149.986,287.904 149.920 C 278.372 149.800,278.001 149.845,278.000 151.133 C 277.999 151.280,282.585 151.346,288.190 151.281 C 294.963 151.202,298.652 151.307,299.190 151.595 C 300.179 152.124,300.498 198.542,299.520 199.520 C 299.159 199.881,293.972 200.000,278.635 200.000 L 258.231 200.000 259.815 200.814 C 261.336 201.594,262.171 201.631,280.600 201.714 L 299.800 201.800 299.903 225.681 L 300.006 249.563 298.599 249.827 C 297.826 249.972,295.337 250.022,293.069 249.938 C 289.110 249.791,288.952 249.817,289.100 250.593 C 289.245 251.356,289.504 251.393,293.791 251.266 C 300.787 251.061,300.000 247.979,300.000 275.565 C 300.000 295.184,299.907 299.179,299.443 299.564 C 299.043 299.897,294.722 300.015,284.005 299.985 C 270.146 299.948,269.069 299.995,268.320 300.672 C 267.540 301.377,268.016 301.406,283.658 301.600 L 299.800 301.800 299.903 325.653 L 300.006 349.505 299.103 349.747 C 297.173 350.264,252.589 350.026,251.862 349.495 C 251.222 349.027,251.180 347.611,251.286 330.142 C 251.396 311.958,251.374 311.312,250.669 311.806 C 249.979 312.290,249.941 313.324,249.984 330.698 C 250.021 345.995,249.935 349.156,249.470 349.542 C 249.056 349.886,242.776 349.980,225.355 349.903 L 201.800 349.800 201.695 335.500 L 201.590 321.200 200.695 321.200 L 199.800 321.200 199.910 335.351 L 200.020 349.502 199.110 349.745 C 197.172 350.264,152.590 350.027,151.861 349.494 C 151.225 349.029,151.179 347.881,151.285 335.094 C 151.398 321.428,151.387 321.200,150.600 321.200 C 149.813 321.200,149.802 321.428,149.915 335.139 C 150.010 346.694,149.933 349.157,149.470 349.542 C 149.056 349.886,142.778 349.980,125.355 349.903 L 101.800 349.800 101.697 325.700 L 101.594 301.600 105.997 301.600 C 110.108 301.600,110.400 301.548,110.400 300.814 C 110.400 300.087,110.070 300.018,106.100 299.914 L 101.800 299.800 101.800 275.600 L 101.800 251.400 106.100 251.400 C 110.134 251.400,110.401 251.350,110.401 250.600 C 110.401 249.850,110.134 249.800,106.100 249.800 L 101.800 249.800 101.697 225.700 L 101.594 201.600 105.997 201.600 C 110.108 201.600,110.400 201.548,110.400 200.814 C 110.400 200.087,110.070 200.018,106.100 199.914 L 101.800 199.800 101.800 175.600 L 101.800 151.400 106.100 151.400 C 110.134 151.400,110.401 151.350,110.401 150.600 C 110.401 149.850,110.134 149.800,106.100 149.800 L 101.800 149.800 101.697 125.700 L 101.594 101.600 105.997 101.600 C 110.108 101.600,110.400 101.548,110.400 100.814 C 110.400 100.087,110.070 100.018,106.100 99.914 L 101.800 99.800 101.696 76.000 C 101.639 62.910,101.678 51.975,101.784 51.700 C 102.161 50.714,149.066 51.002,149.597 51.993 M349.586 51.974 C 350.033 52.809,350.186 97.466,349.747 99.103 L 349.505 100.006 325.653 99.903 L 301.800 99.800 301.696 76.000 C 301.639 62.910,301.678 51.975,301.784 51.700 C 302.154 50.731,349.065 50.999,349.586 51.974 M99.903 125.653 L 100.006 149.505 99.103 149.747 C 97.466 150.186,52.809 150.033,51.974 149.586 C 51.187 149.165,50.695 102.638,51.470 101.864 C 51.618 101.715,62.553 101.640,75.770 101.697 L 99.800 101.800 99.903 125.653 M349.903 125.355 C 349.978 142.499,349.883 149.059,349.552 149.458 C 349.174 149.913,345.078 149.989,325.448 149.903 L 301.800 149.800 301.697 125.697 L 301.594 101.594 325.697 101.697 L 349.800 101.800 349.903 125.355 M200.000 133.182 L 200.000 149.564 198.700 149.801 C 197.985 149.932,187.455 149.985,175.300 149.919 C 153.427 149.801,153.200 149.808,153.200 150.600 C 153.200 151.392,153.429 151.399,175.802 151.287 C 191.445 151.209,198.654 151.308,199.213 151.607 C 200.002 152.029,200.019 152.348,199.911 164.820 L 199.800 177.600 200.695 177.600 L 201.589 177.600 201.695 164.500 L 201.800 151.400 218.700 151.400 C 235.334 151.400,235.600 151.387,235.600 150.600 C 235.600 149.813,235.333 149.800,218.700 149.800 L 201.800 149.800 201.696 133.300 C 201.593 117.132,201.575 116.800,200.796 116.800 C 200.014 116.800,200.000 117.097,200.000 133.182 M99.226 151.614 C 100.183 152.126,100.467 198.573,99.520 199.520 C 98.573 200.467,52.126 200.183,51.614 199.226 C 50.856 197.811,51.061 152.596,51.829 151.829 C 52.596 151.061,97.811 150.856,99.226 151.614 M349.586 151.974 C 350.033 152.809,350.186 197.466,349.747 199.103 L 349.505 200.006 325.653 199.903 L 301.800 199.800 301.696 176.000 C 301.639 162.910,301.678 151.975,301.784 151.700 C 302.154 150.731,349.065 150.999,349.586 151.974 M250.600 187.243 C 249.869 187.599,249.800 188.029,249.800 192.197 C 249.800 196.373,249.868 196.793,250.600 197.127 C 251.378 197.482,251.400 197.347,251.400 192.146 C 251.400 189.206,251.400 186.812,251.400 186.827 C 251.400 186.842,251.040 187.029,250.600 187.243 M99.903 225.653 L 100.006 249.505 99.103 249.747 C 97.466 250.186,52.809 250.033,51.974 249.586 C 51.187 249.165,50.695 202.638,51.470 201.864 C 51.618 201.715,62.553 201.640,75.770 201.697 L 99.800 201.800 99.903 225.653 M349.903 225.355 C 349.978 242.499,349.883 249.059,349.552 249.458 C 349.174 249.913,345.078 249.989,325.448 249.903 L 301.800 249.800 301.697 225.697 L 301.594 201.594 325.697 201.697 L 349.800 201.800 349.903 225.355 M200.000 232.182 L 200.000 249.564 198.700 249.801 C 197.985 249.932,187.455 249.985,175.300 249.919 C 153.427 249.801,153.200 249.808,153.200 250.600 C 153.200 251.392,153.429 251.399,175.802 251.287 C 191.259 251.210,198.657 251.309,199.203 251.601 C 199.979 252.017,200.000 252.454,200.000 268.014 C 200.000 283.703,200.015 284.000,200.796 284.000 C 201.575 284.000,201.593 283.668,201.696 267.700 L 201.800 251.400 224.100 251.400 C 246.133 251.400,246.400 251.390,246.400 250.600 C 246.400 249.810,246.133 249.800,224.100 249.800 L 201.800 249.800 201.696 232.300 C 201.594 215.132,201.576 214.800,200.796 214.800 C 200.014 214.800,200.000 215.097,200.000 232.182 M99.226 251.614 C 100.183 252.126,100.467 298.573,99.520 299.520 C 98.573 300.467,52.126 300.183,51.614 299.226 C 50.856 297.811,51.061 252.596,51.829 251.829 C 52.596 251.061,97.811 250.856,99.226 251.614 M349.586 251.974 C 350.033 252.809,350.186 297.466,349.747 299.103 L 349.505 300.006 325.653 299.903 L 301.800 299.800 301.696 276.000 C 301.639 262.910,301.678 251.975,301.784 251.700 C 302.154 250.731,349.065 250.999,349.586 251.974 M99.903 325.653 L 100.006 349.505 99.103 349.747 C 97.466 350.186,52.809 350.033,51.974 349.586 C 51.187 349.165,50.695 302.638,51.470 301.864 C 51.618 301.715,62.553 301.640,75.770 301.697 L 99.800 301.800 99.903 325.653 M349.903 325.355 C 349.978 342.499,349.883 349.059,349.552 349.458 C 349.174 349.913,345.078 349.989,325.448 349.903 L 301.800 349.800 301.697 325.697 L 301.594 301.594 325.697 301.697 L 349.800 301.800 349.903 325.355 " stroke="none" fill="#21b451" fill-rule="evenodd"></path><path id="path2" d="M-0.000 24.700 L -0.000 49.400 24.479 49.288 C 37.942 49.226,49.007 49.127,49.067 49.067 C 49.127 49.007,49.226 37.942,49.288 24.479 L 49.400 -0.000 24.700 -0.000 L 0.000 0.000 -0.000 24.700 M52.009 24.500 C 52.124 37.975,52.259 49.045,52.309 49.100 C 52.359 49.155,62.930 49.200,75.800 49.200 L 99.200 49.200 99.200 25.233 C 99.200 12.051,99.309 0.981,99.443 0.633 C 99.663 0.060,97.411 -0.000,75.743 -0.000 L 51.800 -0.000 52.009 24.500 M101.906 24.600 L 102.012 49.200 125.606 49.200 L 149.200 49.200 149.205 25.500 C 149.208 12.465,149.319 1.395,149.452 0.900 L 149.693 0.000 125.747 -0.000 L 101.800 -0.000 101.906 24.600 M152.009 24.500 C 152.124 37.975,152.259 49.045,152.309 49.100 C 152.359 49.155,162.930 49.200,175.800 49.200 L 199.200 49.200 199.200 25.233 C 199.200 12.051,199.309 0.981,199.443 0.633 C 199.663 0.060,197.411 -0.000,175.743 -0.000 L 151.800 -0.000 152.009 24.500 M201.906 24.600 L 202.012 49.200 225.606 49.200 L 249.200 49.200 249.205 25.500 C 249.208 12.465,249.319 1.395,249.452 0.900 L 249.693 0.000 225.747 -0.000 L 201.800 -0.000 201.906 24.600 M252.009 24.500 C 252.124 37.975,252.259 49.045,252.309 49.100 C 252.359 49.155,262.930 49.200,275.800 49.200 L 299.200 49.200 299.200 25.233 C 299.200 12.051,299.309 0.981,299.443 0.633 C 299.663 0.060,297.411 -0.000,275.743 -0.000 L 251.800 -0.000 252.009 24.500 M301.906 24.600 L 302.012 49.200 325.606 49.200 L 349.200 49.200 349.205 25.500 C 349.208 12.465,349.319 1.395,349.452 0.900 L 349.693 0.000 325.747 -0.000 L 301.800 -0.000 301.906 24.600 M352.009 24.500 C 352.124 37.975,352.259 49.045,352.309 49.100 C 352.359 49.155,363.110 49.200,376.200 49.200 L 400.000 49.200 400.000 24.600 L 400.000 0.000 375.900 -0.000 L 351.800 -0.000 352.009 24.500 M0.000 75.600 L 0.000 99.200 24.600 99.200 L 49.200 99.200 49.200 75.843 C 49.200 54.913,49.134 52.460,48.567 52.243 C 48.219 52.109,37.149 52.000,23.967 52.000 L 0.000 52.000 0.000 75.600 M52.448 52.542 C 52.117 52.941,52.022 59.345,52.097 76.045 L 52.200 99.000 75.600 99.000 L 99.000 99.000 99.000 75.600 L 99.000 52.200 75.952 52.097 C 56.827 52.011,52.826 52.087,52.448 52.542 M102.500 52.265 C 102.108 52.423,102.000 57.517,102.000 75.847 L 102.000 99.228 106.100 99.114 L 110.200 99.000 110.307 88.900 L 110.414 78.800 129.807 78.800 L 149.200 78.800 149.200 65.643 C 149.200 54.014,149.126 52.457,148.567 52.243 C 147.811 51.953,103.221 51.974,102.500 52.265 M152.483 52.477 C 152.126 52.834,152.000 56.317,152.000 65.880 L 152.000 78.800 175.605 78.800 L 199.211 78.800 199.105 65.500 L 199.000 52.200 175.983 52.097 C 158.414 52.018,152.852 52.108,152.483 52.477 M202.500 52.265 C 202.114 52.421,202.000 55.474,202.000 65.633 L 202.000 78.800 207.100 78.810 C 210.088 78.817,214.519 79.160,217.800 79.639 C 220.880 80.089,224.030 80.545,224.800 80.653 C 225.570 80.761,226.560 81.009,227.000 81.204 C 227.440 81.399,228.610 81.638,229.600 81.735 C 230.590 81.832,232.120 82.125,233.000 82.386 C 233.880 82.647,235.320 83.001,236.200 83.173 C 237.671 83.460,240.976 84.667,242.689 85.543 C 243.080 85.743,243.850 86.081,244.400 86.295 C 244.950 86.508,246.255 87.067,247.300 87.536 L 249.200 88.390 249.200 70.438 C 249.200 54.437,249.131 52.459,248.567 52.243 C 247.811 51.953,203.221 51.974,202.500 52.265 M252.483 52.477 C 252.120 52.840,252.000 57.540,252.000 71.480 C 252.000 92.222,251.784 90.701,254.942 92.199 C 256.204 92.798,257.266 93.632,262.367 98.030 L 263.735 99.208 281.367 99.104 L 299.000 99.000 299.000 75.600 L 299.000 52.200 275.983 52.097 C 258.414 52.018,252.852 52.108,252.483 52.477 M302.500 52.265 C 302.108 52.423,302.000 57.514,302.000 75.833 L 302.000 99.200 325.600 99.200 L 349.200 99.200 349.200 75.843 C 349.200 54.913,349.134 52.460,348.567 52.243 C 347.811 51.953,303.221 51.974,302.500 52.265 M352.446 52.545 C 352.118 52.940,352.022 59.424,352.097 76.045 L 352.200 99.000 376.100 99.103 L 400.000 99.206 400.000 75.603 L 400.000 52.000 376.449 52.000 C 357.060 52.000,352.818 52.096,352.446 52.545 M0.000 125.847 L 0.000 149.693 0.900 149.452 C 1.395 149.319,12.465 149.208,25.500 149.205 L 49.200 149.200 49.200 125.600 L 49.200 102.000 24.600 102.000 L 0.000 102.000 0.000 125.847 M52.243 102.633 C 51.926 103.459,51.926 147.741,52.243 148.567 C 52.460 149.134,54.913 149.200,75.843 149.200 L 99.200 149.200 99.200 125.600 L 99.200 102.000 75.843 102.000 C 54.913 102.000,52.460 102.066,52.243 102.633 M102.000 125.600 L 102.000 149.200 105.957 149.200 C 109.197 149.200,109.958 149.085,110.157 148.567 C 110.473 147.744,110.464 104.080,110.148 102.900 C 109.918 102.044,109.715 102.000,105.953 102.000 L 102.000 102.000 102.000 125.600 M267.084 102.800 C 267.199 103.240,267.452 103.600,267.647 103.600 C 267.841 103.600,268.000 103.828,268.000 104.107 C 268.000 104.386,268.704 105.466,269.564 106.507 C 271.285 108.590,276.267 118.437,276.998 121.200 C 278.110 125.405,278.050 125.032,279.200 135.000 C 279.623 138.673,279.502 144.696,278.939 147.900 L 278.711 149.200 288.955 149.200 L 299.200 149.200 299.200 125.600 L 299.200 102.000 283.037 102.000 C 267.072 102.000,266.877 102.010,267.084 102.800 M302.000 125.600 L 302.000 149.200 325.600 149.200 L 349.200 149.200 349.200 125.600 L 349.200 102.000 325.600 102.000 L 302.000 102.000 302.000 125.600 M352.243 102.633 C 351.926 103.459,351.926 147.741,352.243 148.567 C 352.460 149.134,354.948 149.200,376.243 149.200 L 400.000 149.200 400.000 125.600 L 400.000 102.000 376.243 102.000 C 354.948 102.000,352.460 102.066,352.243 102.633 M153.600 133.000 L 153.600 149.200 176.400 149.200 L 199.200 149.200 199.200 133.480 C 199.200 121.787,199.077 117.637,198.720 117.280 C 198.358 116.918,192.747 116.800,175.920 116.800 L 153.600 116.800 153.600 133.000 M202.000 133.374 L 202.000 149.209 218.700 149.104 L 235.400 149.000 235.544 147.600 C 235.864 144.492,234.065 136.671,231.983 132.119 C 231.058 130.098,226.491 125.190,224.574 124.158 C 223.818 123.751,223.200 123.279,223.200 123.109 C 223.200 122.939,222.840 122.800,222.400 122.800 C 221.960 122.800,221.600 122.620,221.600 122.400 C 221.600 122.180,221.362 122.000,221.071 122.000 C 220.780 122.000,219.439 121.466,218.090 120.812 C 216.742 120.159,215.135 119.505,214.519 119.357 C 213.904 119.210,213.220 118.953,213.000 118.786 C 212.547 118.442,209.654 118.063,205.100 117.751 L 202.000 117.539 202.000 133.374 M0.000 175.600 L 0.000 199.200 24.600 199.200 L 49.200 199.200 49.200 175.843 C 49.200 154.913,49.134 152.460,48.567 152.243 C 48.219 152.109,37.149 152.000,23.967 152.000 L 0.000 152.000 0.000 175.600 M52.448 152.542 C 52.117 152.941,52.022 159.345,52.097 176.045 L 52.200 199.000 75.600 199.000 L 99.000 199.000 99.000 175.600 L 99.000 152.200 75.952 152.097 C 56.827 152.011,52.826 152.087,52.448 152.542 M102.500 152.265 C 102.108 152.423,102.000 157.517,102.000 175.847 L 102.000 199.228 106.100 199.114 L 110.200 199.000 110.311 176.400 C 110.371 163.970,110.323 153.395,110.203 152.900 C 109.990 152.020,104.274 151.549,102.500 152.265 M154.100 152.263 C 153.715 152.420,153.600 155.315,153.600 164.833 L 153.600 177.200 176.406 177.200 L 199.211 177.200 199.106 164.700 L 199.000 152.200 176.800 152.130 C 164.590 152.091,154.375 152.151,154.100 152.263 M202.500 152.265 C 202.115 152.420,202.000 155.323,202.000 164.876 C 202.000 176.536,202.042 177.268,202.700 177.001 C 203.085 176.845,204.390 176.568,205.600 176.385 C 210.158 175.698,217.383 173.452,218.580 172.350 C 218.789 172.157,219.215 172.000,219.528 172.000 C 220.131 172.000,226.508 167.691,226.733 167.131 C 226.807 166.949,227.100 166.800,227.386 166.800 C 227.671 166.800,228.356 166.215,228.907 165.500 C 229.458 164.785,230.300 163.756,230.777 163.213 C 232.206 161.588,235.068 153.674,234.635 152.547 C 234.427 152.004,203.811 151.736,202.500 152.265 M278.214 153.173 C 277.876 153.826,277.600 154.721,277.600 155.161 C 277.600 155.602,277.398 156.466,277.150 157.081 C 276.903 157.697,276.560 158.560,276.388 159.000 C 276.217 159.440,275.429 161.119,274.638 162.732 C 273.847 164.344,273.200 165.840,273.200 166.055 C 273.200 166.271,272.693 167.111,272.073 167.923 C 271.453 168.736,270.288 170.300,269.482 171.400 C 268.677 172.500,267.834 173.617,267.609 173.883 C 267.384 174.149,267.200 174.554,267.200 174.783 C 267.200 175.240,264.254 178.400,263.828 178.400 C 263.681 178.400,262.797 179.210,261.861 180.200 C 260.926 181.190,259.945 182.000,259.681 182.000 C 259.416 182.000,259.200 182.150,259.200 182.332 C 259.200 182.515,258.705 182.915,258.100 183.220 C 252.172 186.215,252.013 186.448,252.006 192.202 L 252.000 197.005 253.100 197.461 C 257.491 199.281,256.638 199.225,278.400 199.109 L 299.000 199.000 299.000 175.600 L 299.000 152.200 288.914 152.093 L 278.828 151.986 278.214 153.173 M302.500 152.265 C 302.108 152.423,302.000 157.514,302.000 175.833 L 302.000 199.200 325.600 199.200 L 349.200 199.200 349.200 175.843 C 349.200 154.913,349.134 152.460,348.567 152.243 C 347.811 151.953,303.221 151.974,302.500 152.265 M352.446 152.545 C 352.118 152.940,352.022 159.424,352.097 176.045 L 352.200 199.000 376.100 199.103 L 400.000 199.206 400.000 175.603 L 400.000 152.000 376.449 152.000 C 357.060 152.000,352.818 152.096,352.446 152.545 M247.600 189.197 C 244.874 190.669,241.004 192.400,240.406 192.414 C 240.073 192.422,239.350 192.686,238.800 193.000 L 237.800 193.572 238.875 193.586 C 239.912 193.600,244.745 194.700,247.574 195.566 C 249.335 196.105,249.250 196.298,249.116 192.071 L 249.000 188.440 247.600 189.197 M0.000 225.847 L 0.000 249.693 0.900 249.452 C 1.395 249.319,12.465 249.208,25.500 249.205 L 49.200 249.200 49.200 225.600 L 49.200 202.000 24.600 202.000 L 0.000 202.000 0.000 225.847 M52.243 202.633 C 51.926 203.459,51.926 247.741,52.243 248.567 C 52.460 249.134,54.913 249.200,75.843 249.200 L 99.200 249.200 99.200 225.600 L 99.200 202.000 75.843 202.000 C 54.913 202.000,52.460 202.066,52.243 202.633 M102.000 225.600 L 102.000 249.200 105.957 249.200 C 109.197 249.200,109.958 249.085,110.157 248.567 C 110.473 247.744,110.464 204.080,110.148 202.900 C 109.918 202.044,109.715 202.000,105.953 202.000 L 102.000 202.000 102.000 225.600 M264.006 202.745 C 266.174 203.903,275.200 212.448,277.482 215.502 C 278.097 216.326,278.930 217.359,279.333 217.800 C 280.231 218.782,282.800 223.098,282.800 223.627 C 282.800 223.838,282.958 224.323,283.151 224.705 C 283.345 225.087,283.960 226.480,284.519 227.800 C 285.077 229.120,285.909 231.053,286.367 232.096 C 286.825 233.138,287.200 234.433,287.200 234.972 C 287.200 235.511,287.357 236.050,287.550 236.169 C 287.742 236.288,288.007 237.334,288.139 238.493 C 288.271 239.652,288.478 241.230,288.600 242.000 C 288.721 242.770,289.022 244.705,289.267 246.300 L 289.713 249.200 294.457 249.200 L 299.200 249.200 299.200 225.600 L 299.200 202.000 280.906 202.000 C 262.833 202.000,262.629 202.009,264.006 202.745 M302.000 225.600 L 302.000 249.200 325.600 249.200 L 349.200 249.200 349.200 225.600 L 349.200 202.000 325.600 202.000 L 302.000 202.000 302.000 225.600 M352.243 202.633 C 351.926 203.459,351.926 247.741,352.243 248.567 C 352.460 249.134,354.948 249.200,376.243 249.200 L 400.000 249.200 400.000 225.600 L 400.000 202.000 376.243 202.000 C 354.948 202.000,352.460 202.066,352.243 202.633 M153.600 232.200 L 153.600 249.200 176.400 249.200 L 199.200 249.200 199.200 232.200 L 199.200 215.200 176.400 215.200 L 153.600 215.200 153.600 232.200 M202.000 232.154 L 202.000 249.200 224.029 249.200 L 246.059 249.200 245.882 245.900 C 245.451 237.834,242.716 231.311,237.565 226.062 C 235.804 224.268,234.124 222.800,233.831 222.800 C 233.538 222.800,233.073 222.529,232.798 222.198 C 232.070 221.321,226.498 218.748,224.400 218.320 C 223.410 218.118,221.610 217.789,220.400 217.590 C 219.190 217.390,217.120 217.041,215.800 216.813 C 214.480 216.585,211.870 216.239,210.000 216.044 C 208.130 215.849,205.565 215.559,204.300 215.399 L 202.000 215.108 202.000 232.154 M0.000 275.600 L 0.000 299.200 24.600 299.200 L 49.200 299.200 49.200 275.843 C 49.200 254.913,49.134 252.460,48.567 252.243 C 48.219 252.109,37.149 252.000,23.967 252.000 L 0.000 252.000 0.000 275.600 M52.448 252.542 C 52.117 252.941,52.022 259.345,52.097 276.045 L 52.200 299.000 75.600 299.000 L 99.000 299.000 99.000 275.600 L 99.000 252.200 75.952 252.097 C 56.827 252.011,52.826 252.087,52.448 252.542 M102.500 252.265 C 102.108 252.423,102.000 257.517,102.000 275.847 L 102.000 299.228 106.100 299.114 L 110.200 299.000 110.311 276.400 C 110.371 263.970,110.323 253.395,110.203 252.900 C 109.990 252.020,104.274 251.549,102.500 252.265 M154.095 252.331 C 153.700 252.583,153.613 255.994,153.695 268.027 L 153.800 283.400 176.400 283.400 L 199.000 283.400 199.000 267.800 L 199.000 252.200 176.800 252.104 C 164.590 252.052,154.373 252.153,154.095 252.331 M202.500 252.265 C 202.112 252.421,202.000 255.919,202.000 267.857 L 202.000 283.247 206.700 283.061 C 209.285 282.959,212.480 282.684,213.800 282.451 C 215.120 282.217,216.920 281.919,217.800 281.788 C 218.680 281.658,219.760 281.394,220.200 281.204 C 220.640 281.013,222.016 280.494,223.257 280.050 C 224.498 279.607,226.467 278.784,227.632 278.222 C 228.797 277.660,229.997 277.200,230.298 277.200 C 230.600 277.200,231.643 276.454,232.616 275.542 C 233.589 274.630,234.973 273.484,235.692 272.995 C 236.412 272.506,237.893 270.957,238.984 269.553 C 240.076 268.149,241.075 266.910,241.205 266.800 C 241.335 266.690,241.769 265.880,242.168 265.000 C 242.568 264.120,243.140 262.860,243.439 262.200 C 244.272 260.362,246.059 253.131,245.829 252.531 C 245.626 252.003,203.788 251.745,202.500 252.265 M289.825 252.487 C 289.736 252.769,289.560 254.440,289.433 256.200 C 288.736 265.843,287.165 273.441,284.791 278.656 C 284.377 279.567,283.911 280.827,283.757 281.456 C 283.603 282.085,283.370 282.690,283.238 282.800 C 282.793 283.174,282.000 284.787,282.000 285.319 C 282.000 285.611,281.685 286.198,281.300 286.625 C 280.055 288.004,278.400 290.337,278.400 290.711 C 278.400 291.048,276.254 293.654,272.962 297.314 C 272.213 298.146,271.600 298.913,271.600 299.019 C 271.600 299.124,277.765 299.163,285.300 299.105 L 299.000 299.000 299.000 275.600 L 299.000 252.200 294.493 252.087 C 291.096 252.002,289.945 252.100,289.825 252.487 M302.500 252.265 C 302.108 252.423,302.000 257.514,302.000 275.833 L 302.000 299.200 325.600 299.200 L 349.200 299.200 349.200 275.843 C 349.200 254.913,349.134 252.460,348.567 252.243 C 347.811 251.953,303.221 251.974,302.500 252.265 M352.446 252.545 C 352.118 252.940,352.022 259.424,352.097 276.045 L 352.200 299.000 376.100 299.103 L 400.000 299.206 400.000 275.603 L 400.000 252.000 376.449 252.000 C 357.060 252.000,352.818 252.096,352.446 252.545 M0.000 325.847 L 0.000 349.693 0.900 349.452 C 1.395 349.319,12.465 349.208,25.500 349.205 L 49.200 349.200 49.200 325.600 L 49.200 302.000 24.600 302.000 L 0.000 302.000 0.000 325.847 M52.243 302.633 C 51.926 303.459,51.926 347.741,52.243 348.567 C 52.460 349.134,54.913 349.200,75.843 349.200 L 99.200 349.200 99.200 325.600 L 99.200 302.000 75.843 302.000 C 54.913 302.000,52.460 302.066,52.243 302.633 M102.000 325.600 L 102.000 349.200 125.600 349.200 L 149.200 349.200 149.200 335.604 L 149.200 322.008 129.900 321.904 L 110.600 321.800 110.375 312.000 C 110.251 306.610,110.116 302.155,110.075 302.100 C 110.034 302.045,108.200 302.000,106.000 302.000 L 102.000 302.000 102.000 325.600 M267.200 302.400 C 267.200 302.620,267.022 302.800,266.804 302.800 C 266.360 302.800,261.474 306.409,261.267 306.890 C 261.193 307.061,260.907 307.200,260.631 307.200 C 259.858 307.200,253.065 311.104,252.500 311.873 C 251.974 312.589,251.731 347.233,252.243 348.567 C 252.460 349.134,254.913 349.200,275.843 349.200 L 299.200 349.200 299.200 325.600 L 299.200 302.000 283.200 302.000 C 272.800 302.000,267.200 302.140,267.200 302.400 M302.000 325.600 L 302.000 349.200 325.600 349.200 L 349.200 349.200 349.200 325.600 L 349.200 302.000 325.600 302.000 L 302.000 302.000 302.000 325.600 M352.243 302.633 C 351.926 303.459,351.926 347.741,352.243 348.567 C 352.460 349.134,354.948 349.200,376.243 349.200 L 400.000 349.200 400.000 325.600 L 400.000 302.000 376.243 302.000 C 354.948 302.000,352.460 302.066,352.243 302.633 M247.380 313.519 C 247.171 313.695,246.010 314.170,244.800 314.575 C 243.590 314.980,242.429 315.467,242.220 315.656 C 242.011 315.845,241.514 316.000,241.115 316.000 C 240.716 316.000,240.077 316.158,239.695 316.351 C 238.267 317.072,236.093 317.600,234.552 317.600 C 233.676 317.600,232.789 317.764,232.580 317.965 C 232.371 318.165,231.210 318.417,230.000 318.524 C 228.790 318.631,225.820 319.082,223.400 319.527 C 217.508 320.610,213.115 321.138,207.672 321.416 C 205.182 321.543,202.887 321.745,202.572 321.866 C 202.092 322.050,202.000 324.255,202.000 335.643 L 202.000 349.200 225.600 349.200 L 249.200 349.200 249.200 331.200 C 249.200 312.040,249.195 311.994,247.380 313.519 M152.000 334.967 C 152.000 342.099,152.109 348.219,152.243 348.567 C 152.460 349.134,154.913 349.200,175.843 349.200 L 199.200 349.200 199.200 335.600 L 199.200 322.000 175.600 322.000 L 152.000 322.000 152.000 334.967 M0.000 376.000 L 0.000 400.000 24.600 400.000 L 49.200 400.000 49.200 376.243 C 49.200 354.948,49.134 352.460,48.567 352.243 C 48.219 352.109,37.149 352.000,23.967 352.000 L 0.000 352.000 0.000 376.000 M52.483 352.477 C 52.117 352.843,52.000 358.633,52.000 376.480 L 52.000 400.000 75.603 400.000 L 99.206 400.000 99.103 376.100 L 99.000 352.200 75.983 352.097 C 58.414 352.018,52.852 352.108,52.483 352.477 M102.500 352.265 C 102.108 352.423,102.000 357.594,102.000 376.233 L 102.000 400.000 125.600 400.000 L 149.200 400.000 149.200 376.243 C 149.200 354.948,149.134 352.460,148.567 352.243 C 147.811 351.953,103.221 351.974,102.500 352.265 M152.483 352.477 C 152.117 352.843,152.000 358.633,152.000 376.480 L 152.000 400.000 175.603 400.000 L 199.206 400.000 199.103 376.100 L 199.000 352.200 175.983 352.097 C 158.414 352.018,152.852 352.108,152.483 352.477 M202.500 352.265 C 202.108 352.423,202.000 357.594,202.000 376.233 L 202.000 400.000 225.600 400.000 L 249.200 400.000 249.200 376.243 C 249.200 354.948,249.134 352.460,248.567 352.243 C 247.811 351.953,203.221 351.974,202.500 352.265 M252.483 352.477 C 252.117 352.843,252.000 358.633,252.000 376.480 L 252.000 400.000 275.603 400.000 L 299.206 400.000 299.103 376.100 L 299.000 352.200 275.983 352.097 C 258.414 352.018,252.852 352.108,252.483 352.477 M302.500 352.265 C 302.108 352.423,302.000 357.594,302.000 376.233 L 302.000 400.000 325.600 400.000 L 349.200 400.000 349.200 376.243 C 349.200 354.948,349.134 352.460,348.567 352.243 C 347.811 351.953,303.221 351.974,302.500 352.265 M352.480 352.480 C 352.118 352.842,352.000 358.720,352.000 376.480 L 352.000 400.000 376.000 400.000 L 400.000 400.000 400.000 376.000 L 400.000 352.000 376.480 352.000 C 358.720 352.000,352.842 352.118,352.480 352.480 " stroke="none" fill="#fbfbfb" fill-rule="evenodd"></path><path id="path3" d="M49.458 0.878 C 49.322 1.385,49.208 12.465,49.205 25.500 L 49.200 49.200 25.500 49.205 C 3.301 49.211,0.000 49.307,-0.000 49.947 C -0.000 50.422,48.888 50.025,49.466 49.545 C 49.900 49.185,50.000 44.595,50.000 24.951 C 50.000 3.750,50.073 0.800,50.600 0.800 C 51.127 0.800,51.200 3.754,51.200 24.986 C 51.200 48.488,51.222 49.184,51.974 49.586 C 52.807 50.032,97.464 50.186,99.097 49.749 L 99.994 49.508 100.097 25.254 C 100.187 4.007,100.274 1.000,100.800 1.000 C 101.325 1.000,101.425 4.067,101.600 25.400 L 101.800 49.800 125.355 49.903 C 142.420 49.978,149.060 49.882,149.455 49.554 C 149.904 49.182,150.000 44.844,150.000 24.951 C 150.000 3.750,150.073 0.800,150.600 0.800 C 151.127 0.800,151.200 3.754,151.200 24.986 C 151.200 48.488,151.222 49.184,151.974 49.586 C 152.807 50.032,197.464 50.186,199.097 49.749 L 199.994 49.508 200.097 25.254 C 200.187 4.007,200.274 1.000,200.800 1.000 C 201.325 1.000,201.425 4.067,201.600 25.400 L 201.800 49.800 225.355 49.903 C 242.420 49.978,249.060 49.882,249.455 49.554 C 249.904 49.182,250.000 44.844,250.000 24.951 C 250.000 3.750,250.073 0.800,250.600 0.800 C 251.127 0.800,251.200 3.754,251.200 24.986 C 251.200 48.488,251.222 49.184,251.974 49.586 C 252.807 50.032,297.464 50.186,299.097 49.749 L 299.994 49.508 300.097 25.254 C 300.187 4.007,300.274 1.000,300.800 1.000 C 301.325 1.000,301.425 4.067,301.600 25.400 L 301.800 49.800 325.355 49.903 C 342.420 49.978,349.060 49.882,349.455 49.554 C 349.904 49.182,350.000 44.844,350.000 24.951 C 350.000 3.750,350.073 0.800,350.600 0.800 C 351.127 0.800,351.200 3.754,351.200 24.986 C 351.200 48.488,351.222 49.184,351.974 49.586 C 353.024 50.148,400.000 50.162,400.000 49.600 C 400.000 49.338,391.800 49.200,376.200 49.200 C 363.110 49.200,352.358 49.155,352.308 49.100 C 352.257 49.045,352.122 38.020,352.008 24.600 L 351.800 0.200 350.752 0.078 C 349.196 -0.102,349.211 -0.360,349.205 25.500 L 349.200 49.200 325.603 49.200 L 302.006 49.200 301.903 24.700 L 301.800 0.200 300.845 0.065 C 299.240 -0.162,299.212 0.263,299.206 25.100 L 299.200 49.200 275.800 49.200 C 262.930 49.200,252.358 49.155,252.308 49.100 C 252.257 49.045,252.122 38.020,252.008 24.600 L 251.800 0.200 250.752 0.078 C 249.196 -0.102,249.211 -0.360,249.205 25.500 L 249.200 49.200 225.603 49.200 L 202.006 49.200 201.903 24.700 L 201.800 0.200 200.845 0.065 C 199.240 -0.162,199.212 0.263,199.206 25.100 L 199.200 49.200 175.800 49.200 C 162.930 49.200,152.358 49.155,152.308 49.100 C 152.257 49.045,152.122 38.020,152.008 24.600 L 151.800 0.200 150.752 0.078 C 149.196 -0.102,149.211 -0.360,149.205 25.500 L 149.200 49.200 125.603 49.200 L 102.006 49.200 101.903 24.700 L 101.800 0.200 100.845 0.065 C 99.240 -0.162,99.212 0.263,99.206 25.100 L 99.200 49.200 75.800 49.200 C 62.930 49.200,52.358 49.155,52.308 49.100 C 52.257 49.045,52.122 38.020,52.008 24.600 L 51.800 0.200 50.752 0.078 C 49.943 -0.015,49.648 0.167,49.458 0.878 M-0.000 51.500 C -0.000 51.894,5.060 52.000,23.967 52.000 C 37.149 52.000,48.219 52.109,48.567 52.243 C 49.134 52.460,49.200 54.913,49.200 75.843 L 49.200 99.200 24.600 99.200 C 5.187 99.200,-0.000 99.305,-0.000 99.700 C -0.000 100.214,49.062 100.271,49.576 99.758 C 50.016 99.318,50.038 52.818,49.599 51.997 C 49.071 51.012,-0.000 50.520,-0.000 51.500 M51.829 51.829 C 51.061 52.596,50.856 97.811,51.614 99.226 C 52.126 100.183,98.573 100.467,99.520 99.520 C 100.467 98.573,100.183 52.126,99.226 51.614 C 97.811 50.856,52.596 51.061,51.829 51.829 M101.784 51.700 C 101.678 51.975,101.639 62.910,101.696 76.000 L 101.800 99.800 105.967 99.800 C 108.388 99.800,110.190 99.632,110.268 99.400 C 110.353 99.145,108.879 99.046,106.201 99.126 L 102.000 99.251 102.000 75.869 C 102.000 54.915,102.066 52.460,102.633 52.243 C 103.459 51.926,147.741 51.926,148.567 52.243 C 149.126 52.457,149.200 54.014,149.200 65.643 L 149.200 78.800 129.700 78.896 L 110.200 78.992 129.200 79.107 C 139.650 79.170,148.605 79.123,149.100 79.003 L 150.000 78.785 150.000 65.766 C 150.000 57.557,149.847 52.462,149.586 51.974 C 149.065 50.999,102.154 50.731,101.784 51.700 M151.829 51.829 C 151.076 52.581,150.854 78.800,151.600 78.800 C 151.858 78.800,152.000 74.216,152.000 65.849 C 152.000 55.406,152.106 52.810,152.545 52.446 C 152.940 52.118,159.424 52.022,176.045 52.097 L 199.000 52.200 199.105 65.500 L 199.211 78.800 175.705 78.897 L 152.200 78.993 175.200 79.107 C 187.850 79.170,198.605 79.123,199.100 79.003 L 200.000 78.785 200.000 65.406 C 200.000 52.589,199.968 52.011,199.226 51.614 C 197.811 50.856,152.596 51.061,151.829 51.829 M201.782 51.703 C 201.676 51.979,201.636 58.234,201.694 65.603 L 201.800 79.000 207.600 79.018 L 213.400 79.035 207.700 78.907 L 202.000 78.778 202.000 65.632 C 202.000 54.013,202.074 52.457,202.633 52.243 C 203.459 51.926,247.741 51.926,248.567 52.243 C 249.131 52.459,249.200 54.438,249.200 70.457 L 249.200 88.428 248.300 87.992 C 247.431 87.571,247.427 87.578,248.184 88.183 C 248.615 88.528,249.155 88.748,249.384 88.672 C 249.966 88.478,250.165 53.056,249.590 51.981 C 249.064 50.998,202.157 50.725,201.782 51.703 M251.829 51.829 C 250.801 52.856,250.916 90.400,251.947 90.400 C 252.086 90.400,252.152 81.965,252.092 71.655 C 252.003 56.099,252.079 52.833,252.537 52.452 C 252.942 52.116,259.238 52.021,276.045 52.097 L 299.000 52.200 299.000 75.600 L 299.000 99.000 280.926 99.000 C 266.535 99.000,263.030 99.099,263.726 99.486 C 264.975 100.180,298.828 100.212,299.520 99.520 C 300.467 98.573,300.183 52.126,299.226 51.614 C 297.811 50.856,252.596 51.061,251.829 51.829 M301.784 51.700 C 301.678 51.975,301.639 62.910,301.696 76.000 L 301.800 99.800 325.653 99.903 L 349.505 100.006 349.747 99.103 C 350.186 97.466,350.033 52.809,349.586 51.974 C 349.065 50.999,302.154 50.731,301.784 51.700 M351.829 51.829 C 351.061 52.596,350.856 97.811,351.614 99.226 C 352.086 100.108,400.000 100.481,400.000 99.603 C 400.000 99.346,391.571 99.170,376.100 99.103 L 352.200 99.000 352.097 76.045 C 352.022 59.424,352.118 52.940,352.446 52.545 C 352.818 52.096,357.060 52.000,376.449 52.000 C 391.883 52.000,400.000 51.862,400.000 51.600 C 400.000 50.847,352.585 51.072,351.829 51.829 M99.000 75.600 L 99.000 99.000 75.600 99.000 L 52.200 99.000 52.097 76.045 C 52.022 59.345,52.117 52.941,52.448 52.542 C 52.826 52.087,56.827 52.011,75.952 52.097 L 99.000 52.200 99.000 75.600 M348.567 52.243 C 349.134 52.460,349.200 54.913,349.200 75.843 L 349.200 99.200 325.600 99.200 L 302.000 99.200 302.000 75.833 C 302.000 57.514,302.108 52.423,302.500 52.265 C 303.221 51.974,347.811 51.953,348.567 52.243 M217.700 79.876 C 218.085 79.976,218.715 79.976,219.100 79.876 C 219.485 79.775,219.170 79.693,218.400 79.693 C 217.630 79.693,217.315 79.775,217.700 79.876 M221.600 80.400 C 222.968 80.838,224.019 80.838,223.000 80.400 C 222.560 80.211,221.840 80.062,221.400 80.068 C 220.757 80.077,220.796 80.143,221.600 80.400 M229.633 81.744 C 229.725 81.823,230.340 82.008,231.000 82.156 C 231.876 82.352,232.038 82.315,231.600 82.018 C 231.060 81.653,229.232 81.398,229.633 81.744 M237.400 83.812 C 239.473 84.558,240.194 84.540,238.454 83.784 C 237.714 83.463,236.814 83.208,236.454 83.218 C 236.094 83.227,236.520 83.495,237.400 83.812 M256.200 93.079 C 257.488 94.394,260.081 96.443,259.200 95.450 C 258.650 94.829,257.660 93.950,257.000 93.496 C 256.340 93.042,255.980 92.854,256.200 93.079 M261.170 97.312 C 261.703 97.910,262.301 98.400,262.498 98.400 C 262.886 98.400,262.272 97.750,260.998 96.812 C 260.413 96.381,260.458 96.514,261.170 97.312 M-0.000 101.700 C -0.000 101.865,11.070 102.000,24.600 102.000 L 49.200 102.000 49.200 125.600 L 49.200 149.200 25.500 149.205 C 3.301 149.211,0.000 149.307,-0.000 149.947 C -0.000 150.422,48.888 150.025,49.466 149.545 C 50.227 148.913,50.260 102.071,49.500 101.790 C 48.639 101.472,-0.000 101.384,-0.000 101.700 M51.470 101.864 C 50.695 102.638,51.187 149.165,51.974 149.586 C 52.809 150.033,97.466 150.186,99.103 149.747 L 100.006 149.505 99.903 125.653 L 99.800 101.800 75.770 101.697 C 62.553 101.640,51.618 101.715,51.470 101.864 M101.697 125.700 L 101.800 149.800 105.995 149.800 C 109.890 149.800,110.196 149.743,110.287 149.000 C 110.342 148.560,110.284 148.425,110.160 148.700 C 110.001 149.051,108.753 149.200,105.967 149.200 L 102.000 149.200 102.000 125.600 L 102.000 102.000 105.971 102.000 C 109.416 102.000,109.966 102.093,110.124 102.700 C 110.262 103.227,110.319 103.177,110.354 102.500 C 110.399 101.618,110.310 101.600,105.997 101.600 L 101.594 101.600 101.697 125.700 M266.400 101.972 C 266.400 102.181,266.608 102.481,266.862 102.638 C 267.148 102.815,267.215 102.748,267.038 102.462 C 266.824 102.116,270.815 102.000,282.976 102.000 L 299.200 102.000 299.200 125.600 L 299.200 149.200 288.975 149.200 L 278.751 149.200 278.963 147.300 L 279.174 145.400 278.757 147.133 C 278.038 150.122,277.626 150.001,288.487 149.995 C 293.829 149.992,298.606 149.880,299.103 149.747 L 300.006 149.505 299.903 125.653 L 299.800 101.800 283.100 101.696 C 272.722 101.631,266.400 101.735,266.400 101.972 M301.697 125.697 L 301.800 149.800 325.448 149.903 C 345.078 149.989,349.174 149.913,349.552 149.458 C 349.883 149.059,349.978 142.499,349.903 125.355 L 349.800 101.800 325.697 101.697 L 301.594 101.594 301.697 125.697 M351.467 101.867 C 350.694 102.639,351.189 149.166,351.974 149.586 C 353.024 150.148,400.000 150.162,400.000 149.600 C 400.000 149.338,391.814 149.200,376.243 149.200 C 354.948 149.200,352.460 149.134,352.243 148.567 C 351.880 147.621,351.962 103.079,352.328 102.503 C 352.572 102.119,358.012 101.982,376.422 101.900 L 400.200 101.794 375.967 101.697 C 362.638 101.644,351.613 101.720,351.467 101.867 M99.200 125.600 L 99.200 149.200 75.843 149.200 C 54.913 149.200,52.460 149.134,52.243 148.567 C 51.926 147.741,51.926 103.459,52.243 102.633 C 52.460 102.066,54.913 102.000,75.843 102.000 L 99.200 102.000 99.200 125.600 M349.200 125.600 L 349.200 149.200 325.600 149.200 L 302.000 149.200 302.000 125.600 L 302.000 102.000 325.600 102.000 L 349.200 102.000 349.200 125.600 M269.638 106.977 C 269.988 107.430,270.573 108.245,270.938 108.789 C 271.302 109.333,271.600 109.588,271.600 109.356 C 271.600 109.123,271.015 108.308,270.300 107.543 C 269.585 106.779,269.287 106.524,269.638 106.977 M163.472 116.700 C 168.792 116.763,177.612 116.763,183.072 116.700 C 188.533 116.637,184.180 116.585,173.400 116.585 C 162.620 116.585,158.153 116.637,163.472 116.700 M274.800 116.478 C 274.800 116.605,275.069 117.224,275.398 117.854 C 275.726 118.484,275.990 118.730,275.985 118.400 C 275.979 118.070,275.710 117.451,275.387 117.024 C 275.064 116.596,274.800 116.351,274.800 116.478 M153.295 132.886 C 153.203 148.630,153.226 149.186,153.974 149.586 C 154.808 150.032,197.467 150.186,199.100 149.748 L 200.000 149.507 200.000 133.633 C 200.000 117.749,199.923 116.800,198.640 116.800 C 198.418 116.800,198.453 117.013,198.720 117.280 C 199.077 117.637,199.200 121.787,199.200 133.480 L 199.200 149.200 176.404 149.200 L 153.609 149.200 153.500 132.900 L 153.391 116.600 153.295 132.886 M201.783 117.701 C 201.677 117.976,201.638 125.311,201.695 134.001 L 201.800 149.800 218.567 149.800 C 229.389 149.800,235.381 149.658,235.467 149.400 C 235.555 149.136,229.870 149.037,218.800 149.109 L 202.000 149.217 202.000 133.429 L 202.000 117.642 204.100 117.495 L 206.200 117.348 204.087 117.274 C 202.706 117.226,201.908 117.373,201.783 117.701 M208.400 118.000 C 208.730 118.213,209.450 118.373,210.000 118.354 L 211.000 118.320 210.000 118.000 C 208.458 117.506,207.636 117.506,208.400 118.000 M217.600 120.600 C 218.150 120.914,218.780 121.172,219.000 121.172 C 219.220 121.172,218.950 120.914,218.400 120.600 C 217.850 120.286,217.220 120.028,217.000 120.028 C 216.780 120.028,217.050 120.286,217.600 120.600 M223.203 123.073 C 223.204 123.253,223.744 123.707,224.403 124.081 C 225.943 124.958,225.942 124.698,224.400 123.600 C 223.740 123.130,223.201 122.893,223.203 123.073 M277.646 125.200 C 277.665 125.530,277.824 126.250,278.000 126.800 L 278.320 127.800 278.354 126.800 C 278.373 126.250,278.213 125.530,278.000 125.200 C 277.655 124.667,277.616 124.667,277.646 125.200 M278.468 131.400 C 278.474 131.840,278.624 132.650,278.800 133.200 L 279.120 134.200 279.132 133.200 C 279.138 132.650,278.989 131.840,278.800 131.400 L 278.456 130.600 278.468 131.400 M279.340 140.000 C 279.340 141.870,279.409 142.635,279.493 141.700 C 279.577 140.765,279.577 139.235,279.493 138.300 C 279.409 137.365,279.340 138.130,279.340 140.000 M235.062 142.200 C 235.196 143.080,235.372 143.875,235.453 143.967 C 235.756 144.310,235.529 142.168,235.181 141.400 C 234.929 140.842,234.893 141.085,235.062 142.200 M-0.000 151.500 C -0.000 151.894,5.060 152.000,23.967 152.000 C 37.149 152.000,48.219 152.109,48.567 152.243 C 49.134 152.460,49.200 154.913,49.200 175.843 L 49.200 199.200 24.600 199.200 C 5.187 199.200,-0.000 199.305,-0.000 199.700 C -0.000 200.214,49.062 200.271,49.576 199.758 C 50.016 199.318,50.038 152.818,49.599 151.997 C 49.071 151.012,-0.000 150.520,-0.000 151.500 M51.829 151.829 C 51.061 152.596,50.856 197.811,51.614 199.226 C 52.126 200.183,98.573 200.467,99.520 199.520 C 100.467 198.573,100.183 152.126,99.226 151.614 C 97.811 150.856,52.596 151.061,51.829 151.829 M101.789 151.686 C 101.681 151.969,101.639 162.910,101.696 176.000 L 101.800 199.800 105.967 199.800 C 108.388 199.800,110.190 199.632,110.268 199.400 C 110.353 199.145,108.879 199.046,106.201 199.126 L 102.000 199.251 102.000 175.869 C 102.000 154.915,102.066 152.460,102.633 152.243 C 103.870 151.768,109.922 151.975,110.160 152.500 C 110.284 152.775,110.342 152.640,110.288 152.200 C 110.167 151.204,102.159 150.720,101.789 151.686 M153.900 151.632 C 153.253 152.009,153.207 153.007,153.294 164.720 L 153.388 177.400 153.500 164.906 L 153.611 152.412 154.506 152.196 C 154.998 152.076,165.210 152.028,177.200 152.089 L 199.000 152.200 199.106 164.700 C 199.172 172.575,199.357 177.200,199.606 177.200 C 200.474 177.200,200.102 152.083,199.226 151.614 C 198.171 151.049,154.871 151.066,153.900 151.632 M201.867 151.467 C 201.720 151.613,201.642 157.508,201.694 164.567 L 201.788 177.400 201.900 165.020 C 201.984 155.733,202.135 152.562,202.506 152.326 C 203.365 151.780,234.167 151.927,234.720 152.480 C 234.987 152.747,235.200 152.782,235.200 152.560 C 235.200 151.276,234.255 151.200,218.187 151.200 C 209.357 151.200,202.013 151.320,201.867 151.467 M278.223 152.089 C 277.880 152.578,277.607 153.253,277.616 153.589 C 277.625 153.932,277.895 153.715,278.232 153.093 L 278.833 151.986 288.916 152.093 L 299.000 152.200 299.000 175.600 L 299.000 199.000 278.296 199.104 C 260.500 199.193,257.387 199.122,256.134 198.598 C 255.333 198.263,254.607 198.059,254.522 198.145 C 252.996 199.670,297.612 201.084,299.438 199.568 C 300.460 198.720,300.255 152.164,299.226 151.614 C 297.466 150.672,278.921 151.091,278.223 152.089 M301.784 151.700 C 301.678 151.975,301.639 162.910,301.696 176.000 L 301.800 199.800 325.653 199.903 L 349.505 200.006 349.747 199.103 C 350.186 197.466,350.033 152.809,349.586 151.974 C 349.065 150.999,302.154 150.731,301.784 151.700 M351.829 151.829 C 351.061 152.596,350.856 197.811,351.614 199.226 C 352.086 200.108,400.000 200.481,400.000 199.603 C 400.000 199.346,391.571 199.170,376.100 199.103 L 352.200 199.000 352.097 176.045 C 352.022 159.424,352.118 152.940,352.446 152.545 C 352.818 152.096,357.060 152.000,376.449 152.000 C 391.883 152.000,400.000 151.862,400.000 151.600 C 400.000 150.847,352.585 151.072,351.829 151.829 M99.000 175.600 L 99.000 199.000 75.600 199.000 L 52.200 199.000 52.097 176.045 C 52.022 159.345,52.117 152.941,52.448 152.542 C 52.826 152.087,56.827 152.011,75.952 152.097 L 99.000 152.200 99.000 175.600 M348.567 152.243 C 349.134 152.460,349.200 154.913,349.200 175.843 L 349.200 199.200 325.600 199.200 L 302.000 199.200 302.000 175.833 C 302.000 157.514,302.108 152.423,302.500 152.265 C 303.221 151.974,347.811 151.953,348.567 152.243 M234.446 154.067 C 234.421 154.434,234.296 155.064,234.170 155.467 C 233.952 156.162,233.963 156.163,234.397 155.487 C 234.648 155.096,234.773 154.466,234.673 154.087 C 234.511 153.468,234.488 153.466,234.446 154.067 M216.200 173.414 C 215.540 173.717,215.281 173.972,215.624 173.982 C 215.966 173.992,216.596 173.736,217.024 173.413 C 217.972 172.696,217.769 172.696,216.200 173.414 M203.400 176.800 C 202.381 177.238,203.432 177.238,204.800 176.800 C 205.604 176.543,205.643 176.477,205.000 176.468 C 204.560 176.462,203.840 176.611,203.400 176.800 M165.128 177.500 C 171.359 177.562,181.439 177.562,187.528 177.500 C 193.618 177.438,188.520 177.387,176.200 177.387 C 163.880 177.387,158.898 177.438,165.128 177.500 M251.614 187.574 C 251.101 188.532,251.076 195.984,251.583 196.786 C 251.824 197.167,251.996 195.528,252.077 192.085 C 252.144 189.177,252.161 186.799,252.114 186.799 C 252.067 186.800,251.842 187.148,251.614 187.574 M248.562 188.462 C 248.385 188.748,248.452 188.815,248.738 188.638 C 249.075 188.430,249.200 189.395,249.200 192.203 C 249.200 196.003,249.188 196.051,248.300 195.808 C 247.500 195.589,247.481 195.612,248.124 196.014 C 249.610 196.943,250.000 196.242,250.000 192.645 C 250.000 188.438,249.491 186.958,248.562 188.462 M238.176 192.971 C 237.201 193.689,238.066 194.160,239.866 193.890 C 240.775 193.754,240.682 193.705,239.400 193.646 C 237.804 193.572,237.803 193.570,238.800 193.000 C 239.350 192.686,239.609 192.422,239.376 192.414 C 239.144 192.406,238.604 192.657,238.176 192.971 M242.000 194.382 C 242.330 194.605,242.945 194.791,243.367 194.794 C 244.390 194.802,244.071 194.573,242.600 194.244 C 241.724 194.048,241.562 194.085,242.000 194.382 M-0.000 201.700 C -0.000 201.865,11.070 202.000,24.600 202.000 L 49.200 202.000 49.200 225.600 L 49.200 249.200 25.500 249.205 C 3.301 249.211,0.000 249.307,-0.000 249.947 C -0.000 250.422,48.888 250.025,49.466 249.545 C 50.227 248.913,50.260 202.071,49.500 201.790 C 48.639 201.472,-0.000 201.384,-0.000 201.700 M51.470 201.864 C 50.695 202.638,51.187 249.165,51.974 249.586 C 52.809 250.033,97.466 250.186,99.103 249.747 L 100.006 249.505 99.903 225.653 L 99.800 201.800 75.770 201.697 C 62.553 201.640,51.618 201.715,51.470 201.864 M101.697 225.700 L 101.800 249.800 105.995 249.800 C 109.890 249.800,110.196 249.743,110.287 249.000 C 110.342 248.560,110.284 248.425,110.160 248.700 C 110.001 249.051,108.753 249.200,105.967 249.200 L 102.000 249.200 102.000 225.600 L 102.000 202.000 105.971 202.000 C 109.416 202.000,109.966 202.093,110.124 202.700 C 110.262 203.227,110.319 203.177,110.354 202.500 C 110.399 201.618,110.310 201.600,105.997 201.600 L 101.594 201.600 101.697 225.700 M280.900 201.898 L 299.200 202.008 299.200 225.604 L 299.200 249.200 294.456 249.200 L 289.713 249.200 289.279 247.100 L 288.846 245.000 289.060 247.000 C 289.178 248.100,289.460 249.225,289.686 249.500 C 290.120 250.027,297.352 250.216,299.103 249.747 L 300.006 249.505 299.903 225.653 L 299.800 201.800 281.200 201.794 L 262.600 201.788 280.900 201.898 M301.697 225.697 L 301.800 249.800 325.448 249.903 C 345.078 249.989,349.174 249.913,349.552 249.458 C 349.883 249.059,349.978 242.499,349.903 225.355 L 349.800 201.800 325.697 201.697 L 301.594 201.594 301.697 225.697 M351.467 201.867 C 350.694 202.639,351.189 249.166,351.974 249.586 C 353.024 250.148,400.000 250.162,400.000 249.600 C 400.000 249.338,391.814 249.200,376.243 249.200 C 354.948 249.200,352.460 249.134,352.243 248.567 C 351.880 247.621,351.962 203.079,352.328 202.503 C 352.572 202.119,358.012 201.982,376.422 201.900 L 400.200 201.794 375.967 201.697 C 362.638 201.644,351.613 201.720,351.467 201.867 M99.200 225.600 L 99.200 249.200 75.843 249.200 C 54.913 249.200,52.460 249.134,52.243 248.567 C 51.926 247.741,51.926 203.459,52.243 202.633 C 52.460 202.066,54.913 202.000,75.843 202.000 L 99.200 202.000 99.200 225.600 M349.200 225.600 L 349.200 249.200 325.600 249.200 L 302.000 249.200 302.000 225.600 L 302.000 202.000 325.600 202.000 L 349.200 202.000 349.200 225.600 M264.800 203.346 C 264.800 203.456,265.340 203.930,266.000 204.400 C 266.660 204.870,267.200 205.164,267.200 205.054 C 267.200 204.944,266.660 204.470,266.000 204.000 C 265.340 203.530,264.800 203.236,264.800 203.346 M267.567 206.145 C 268.100 206.801,269.600 207.793,269.600 207.489 C 269.600 207.413,269.015 206.922,268.300 206.399 C 267.496 205.810,267.216 205.713,267.567 206.145 M270.000 207.725 C 270.000 207.794,270.585 208.379,271.300 209.025 L 272.600 210.200 271.425 208.900 C 270.330 207.688,270.000 207.416,270.000 207.725 M272.800 210.752 C 272.800 211.142,274.355 212.598,274.523 212.364 C 274.587 212.274,274.226 211.801,273.720 211.314 C 273.214 210.827,272.800 210.574,272.800 210.752 M153.467 215.067 C 152.699 215.834,153.189 249.166,153.974 249.586 C 154.808 250.032,197.467 250.186,199.100 249.748 L 200.000 249.507 200.000 232.396 C 200.000 217.163,199.931 215.259,199.367 215.043 C 198.501 214.710,153.800 214.733,153.467 215.067 M201.783 215.300 C 201.677 215.575,201.638 223.450,201.696 232.800 L 201.800 249.800 223.577 249.903 C 237.825 249.971,245.493 249.867,245.757 249.603 C 246.028 249.332,238.927 249.200,224.080 249.200 L 202.000 249.200 202.000 232.229 C 202.000 216.403,202.047 215.246,202.700 215.076 C 203.356 214.904,203.355 214.890,202.687 214.846 C 202.296 214.821,201.889 215.025,201.783 215.300 M199.200 232.200 L 199.200 249.200 176.400 249.200 L 153.600 249.200 153.600 232.200 L 153.600 215.200 176.400 215.200 L 199.200 215.200 199.200 232.200 M205.105 215.483 C 205.602 215.579,206.322 215.575,206.705 215.475 C 207.087 215.375,206.680 215.296,205.800 215.301 C 204.920 215.305,204.607 215.387,205.105 215.483 M208.500 215.887 C 209.105 215.978,210.095 215.978,210.700 215.887 C 211.305 215.795,210.810 215.720,209.600 215.720 C 208.390 215.720,207.895 215.795,208.500 215.887 M213.400 216.390 C 214.164 216.728,216.714 216.957,216.367 216.656 C 216.275 216.576,215.390 216.404,214.400 216.273 C 213.198 216.114,212.866 216.153,213.400 216.390 M218.021 217.221 C 218.555 217.560,221.542 217.781,221.167 217.455 C 221.075 217.375,220.199 217.208,219.221 217.082 C 218.070 216.935,217.646 216.984,218.021 217.221 M280.185 219.500 C 280.802 220.435,281.383 221.200,281.476 221.200 C 281.764 221.200,280.233 218.766,279.632 218.269 C 279.320 218.011,279.568 218.565,280.185 219.500 M239.200 227.800 C 239.946 228.570,240.647 229.200,240.757 229.200 C 240.867 229.200,240.346 228.570,239.600 227.800 C 238.854 227.030,238.153 226.400,238.043 226.400 C 237.933 226.400,238.454 227.030,239.200 227.800 M284.414 228.054 C 284.406 228.194,284.663 228.914,284.984 229.654 C 285.306 230.394,285.569 230.730,285.570 230.400 C 285.572 229.824,284.443 227.534,284.414 228.054 M286.207 232.679 C 286.807 234.114,287.200 234.762,287.200 234.316 C 287.200 233.884,285.985 231.200,285.789 231.200 C 285.679 231.200,285.867 231.866,286.207 232.679 M287.228 236.276 C 287.318 237.315,287.944 238.196,287.972 237.324 C 287.987 236.842,287.820 236.336,287.600 236.200 C 287.380 236.064,287.213 236.098,287.228 236.276 M288.068 240.400 C 288.088 241.439,288.718 243.146,288.732 242.200 C 288.738 241.760,288.589 241.040,288.400 240.600 C 288.189 240.110,288.061 240.032,288.068 240.400 M245.206 241.033 C 245.209 241.455,245.395 242.070,245.618 242.400 C 245.915 242.838,245.952 242.676,245.756 241.800 C 245.427 240.329,245.198 240.010,245.206 241.033 M-0.000 251.500 C -0.000 251.894,5.060 252.000,23.967 252.000 C 37.149 252.000,48.219 252.109,48.567 252.243 C 49.134 252.460,49.200 254.913,49.200 275.843 L 49.200 299.200 24.600 299.200 C 5.187 299.200,-0.000 299.305,-0.000 299.700 C -0.000 300.214,49.062 300.271,49.576 299.758 C 50.016 299.318,50.038 252.818,49.599 251.997 C 49.071 251.012,-0.000 250.520,-0.000 251.500 M51.829 251.829 C 51.061 252.596,50.856 297.811,51.614 299.226 C 52.126 300.183,98.573 300.467,99.520 299.520 C 100.467 298.573,100.183 252.126,99.226 251.614 C 97.811 250.856,52.596 251.061,51.829 251.829 M101.789 251.686 C 101.681 251.969,101.639 262.910,101.696 276.000 L 101.800 299.800 105.967 299.800 C 108.388 299.800,110.190 299.632,110.268 299.400 C 110.353 299.145,108.879 299.046,106.201 299.126 L 102.000 299.251 102.000 275.869 C 102.000 254.915,102.066 252.460,102.633 252.243 C 103.870 251.768,109.922 251.975,110.160 252.500 C 110.284 252.775,110.342 252.640,110.288 252.200 C 110.167 251.204,102.159 250.720,101.789 251.686 M153.871 251.700 C 153.245 252.159,153.198 253.501,153.295 268.000 L 153.400 283.800 175.920 283.903 C 190.989 283.972,198.698 283.869,199.220 283.589 C 200.433 282.940,200.439 252.263,199.226 251.614 C 198.018 250.968,154.758 251.050,153.871 251.700 M201.784 251.698 C 201.678 251.975,201.638 259.221,201.695 267.801 L 201.800 283.400 205.400 283.422 L 209.000 283.445 205.500 283.307 L 202.000 283.170 202.000 267.793 L 202.000 252.415 202.900 252.195 C 203.395 252.074,213.295 252.026,224.900 252.087 C 238.839 252.162,245.955 252.064,245.867 251.800 C 245.652 251.154,202.031 251.053,201.784 251.698 M289.867 251.467 C 289.235 252.098,289.851 252.200,294.300 252.200 L 299.000 252.200 299.000 275.600 L 299.000 299.000 285.300 299.105 C 275.753 299.179,271.600 299.080,271.600 298.782 C 271.600 298.546,271.420 298.464,271.200 298.600 C 270.980 298.736,270.800 299.107,270.800 299.424 C 270.800 300.202,298.744 300.296,299.520 299.520 C 300.467 298.573,300.183 252.126,299.226 251.614 C 298.382 251.162,290.299 251.035,289.867 251.467 M301.784 251.700 C 301.678 251.975,301.639 262.910,301.696 276.000 L 301.800 299.800 325.653 299.903 L 349.505 300.006 349.747 299.103 C 350.186 297.466,350.033 252.809,349.586 251.974 C 349.065 250.999,302.154 250.731,301.784 251.700 M351.829 251.829 C 351.061 252.596,350.856 297.811,351.614 299.226 C 352.086 300.108,400.000 300.481,400.000 299.603 C 400.000 299.346,391.571 299.170,376.100 299.103 L 352.200 299.000 352.097 276.045 C 352.022 259.424,352.118 252.940,352.446 252.545 C 352.818 252.096,357.060 252.000,376.449 252.000 C 391.883 252.000,400.000 251.862,400.000 251.600 C 400.000 250.847,352.585 251.072,351.829 251.829 M99.000 275.600 L 99.000 299.000 75.600 299.000 L 52.200 299.000 52.097 276.045 C 52.022 259.345,52.117 252.941,52.448 252.542 C 52.826 252.087,56.827 252.011,75.952 252.097 L 99.000 252.200 99.000 275.600 M199.000 267.800 L 199.000 283.400 176.400 283.400 L 153.800 283.400 153.695 268.027 C 153.613 255.994,153.700 252.583,154.095 252.331 C 154.373 252.153,164.590 252.052,176.800 252.104 L 199.000 252.200 199.000 267.800 M348.567 252.243 C 349.134 252.460,349.200 254.913,349.200 275.843 L 349.200 299.200 325.600 299.200 L 302.000 299.200 302.000 275.833 C 302.000 257.514,302.108 252.423,302.500 252.265 C 303.221 251.974,347.811 251.953,348.567 252.243 M289.274 254.644 C 289.233 255.768,289.115 257.568,289.011 258.644 L 288.822 260.600 289.230 258.642 C 289.454 257.566,289.573 255.766,289.493 254.642 L 289.348 252.600 289.274 254.644 M245.429 255.029 C 245.281 255.615,245.238 256.172,245.332 256.266 C 245.427 256.360,245.624 255.958,245.771 255.371 C 245.919 254.785,245.962 254.228,245.868 254.134 C 245.773 254.040,245.576 254.442,245.429 255.029 M288.449 263.400 C 288.416 263.840,288.296 264.650,288.183 265.200 L 287.977 266.200 288.406 265.219 C 288.642 264.679,288.761 263.869,288.672 263.419 C 288.513 262.621,288.507 262.621,288.449 263.400 M287.654 268.267 C 287.625 268.744,287.496 269.464,287.370 269.867 C 287.152 270.561,287.164 270.562,287.596 269.888 C 287.847 269.497,287.975 268.777,287.881 268.288 C 287.709 267.401,287.709 267.401,287.654 268.267 M233.739 274.646 L 231.800 276.492 233.600 274.990 C 236.015 272.974,236.199 272.800,235.919 272.800 C 235.786 272.800,234.805 273.631,233.739 274.646 M211.600 282.806 C 211.178 283.082,211.415 283.123,212.400 282.942 C 214.125 282.625,214.451 282.398,213.167 282.406 C 212.635 282.409,211.930 282.589,211.600 282.806 M275.978 293.500 L 274.600 295.000 276.100 293.622 C 277.496 292.338,277.784 292.000,277.478 292.000 C 277.412 292.000,276.737 292.675,275.978 293.500 M273.601 296.198 C 273.086 296.748,272.739 297.264,272.832 297.346 C 272.924 297.428,273.419 296.978,273.930 296.347 C 275.076 294.935,274.874 294.844,273.601 296.198 M-0.000 301.700 C -0.000 301.865,11.070 302.000,24.600 302.000 L 49.200 302.000 49.200 325.600 L 49.200 349.200 25.500 349.205 C 3.301 349.211,0.000 349.307,-0.000 349.947 C -0.000 350.422,48.888 350.025,49.466 349.545 C 50.227 348.913,50.260 302.071,49.500 301.790 C 48.639 301.472,-0.000 301.384,-0.000 301.700 M51.470 301.864 C 50.695 302.638,51.187 349.165,51.974 349.586 C 52.809 350.033,97.466 350.186,99.103 349.747 L 100.006 349.505 99.903 325.653 L 99.800 301.800 75.770 301.697 C 62.553 301.640,51.618 301.715,51.470 301.864 M101.697 325.700 L 101.800 349.800 125.355 349.903 C 142.550 349.979,149.059 349.883,149.460 349.550 C 149.911 349.176,149.991 346.634,149.905 335.447 L 149.800 321.800 130.138 321.600 C 119.324 321.490,110.560 321.535,110.662 321.700 C 110.764 321.865,119.477 322.000,130.024 322.000 L 149.200 322.000 149.200 335.600 L 149.200 349.200 125.600 349.200 L 102.000 349.200 102.000 325.600 L 102.000 302.000 105.971 302.000 C 109.416 302.000,109.966 302.093,110.124 302.700 C 110.262 303.227,110.319 303.177,110.354 302.500 C 110.399 301.618,110.310 301.600,105.997 301.600 L 101.594 301.600 101.697 325.700 M283.100 301.898 L 299.200 302.009 299.200 325.605 L 299.200 349.200 275.843 349.200 C 254.913 349.200,252.460 349.134,252.243 348.567 C 252.109 348.219,252.000 339.931,252.000 330.149 L 252.000 312.364 252.982 311.382 C 254.279 310.084,253.701 310.113,252.296 311.416 L 251.200 312.432 251.200 330.802 C 251.200 348.554,251.226 349.186,251.974 349.586 C 252.809 350.033,297.466 350.186,299.103 349.747 L 300.006 349.505 299.903 325.653 L 299.800 301.800 283.400 301.793 L 267.000 301.786 283.100 301.898 M301.697 325.697 L 301.800 349.800 325.448 349.903 C 345.078 349.989,349.174 349.913,349.552 349.458 C 349.883 349.059,349.978 342.499,349.903 325.355 L 349.800 301.800 325.697 301.697 L 301.594 301.594 301.697 325.697 M351.467 301.867 C 350.694 302.639,351.189 349.166,351.974 349.586 C 353.024 350.148,400.000 350.162,400.000 349.600 C 400.000 349.338,391.814 349.200,376.243 349.200 C 354.948 349.200,352.460 349.134,352.243 348.567 C 351.880 347.621,351.962 303.079,352.328 302.503 C 352.572 302.119,358.012 301.982,376.422 301.900 L 400.200 301.794 375.967 301.697 C 362.638 301.644,351.613 301.720,351.467 301.867 M99.200 325.600 L 99.200 349.200 75.843 349.200 C 54.913 349.200,52.460 349.134,52.243 348.567 C 51.926 347.741,51.926 303.459,52.243 302.633 C 52.460 302.066,54.913 302.000,75.843 302.000 L 99.200 302.000 99.200 325.600 M349.200 325.600 L 349.200 349.200 325.600 349.200 L 302.000 349.200 302.000 325.600 L 302.000 302.000 325.600 302.000 L 349.200 302.000 349.200 325.600 M248.700 313.065 C 249.090 313.222,249.200 317.234,249.200 331.233 L 249.200 349.200 225.600 349.200 L 202.000 349.200 202.000 335.643 C 202.000 320.441,201.731 321.653,205.133 321.536 C 206.718 321.482,206.793 321.447,205.627 321.305 C 204.872 321.213,203.654 321.251,202.922 321.388 L 201.590 321.638 201.695 335.719 L 201.800 349.800 225.355 349.903 C 242.420 349.978,249.060 349.882,249.455 349.554 C 250.023 349.083,250.309 314.871,249.757 313.433 C 249.624 313.085,249.219 312.814,248.857 312.832 C 248.442 312.852,248.384 312.938,248.700 313.065 M235.400 317.200 L 233.800 317.486 235.200 317.537 C 235.970 317.565,236.870 317.413,237.200 317.200 C 237.855 316.777,237.762 316.777,235.400 317.200 M231.200 318.000 L 230.200 318.320 231.276 318.360 C 231.868 318.382,232.464 318.220,232.600 318.000 C 232.881 317.545,232.620 317.545,231.200 318.000 M226.400 318.800 C 225.576 319.064,225.541 319.126,226.200 319.154 C 226.640 319.173,227.270 319.013,227.600 318.800 C 228.301 318.347,227.814 318.347,226.400 318.800 M217.900 320.282 C 218.395 320.378,219.205 320.378,219.700 320.282 C 220.195 320.187,219.790 320.109,218.800 320.109 C 217.810 320.109,217.405 320.187,217.900 320.282 M210.700 321.089 C 211.415 321.178,212.585 321.178,213.300 321.089 C 214.015 321.001,213.430 320.928,212.000 320.928 C 210.570 320.928,209.985 321.001,210.700 321.089 M151.700 321.863 C 150.738 322.255,151.003 349.066,151.974 349.586 C 152.810 350.033,197.467 350.186,199.105 349.747 L 200.010 349.504 199.905 335.652 L 199.800 321.800 176.000 321.730 C 162.910 321.691,151.975 321.751,151.700 321.863 M199.200 335.600 L 199.200 349.200 175.843 349.200 C 154.913 349.200,152.460 349.134,152.243 348.567 C 152.109 348.219,152.000 342.099,152.000 334.967 L 152.000 322.000 175.600 322.000 L 199.200 322.000 199.200 335.600 M-0.000 351.500 C -0.000 351.894,5.060 352.000,23.967 352.000 C 37.149 352.000,48.219 352.109,48.567 352.243 C 49.134 352.460,49.200 354.948,49.200 376.243 C 49.200 391.814,49.338 400.000,49.600 400.000 C 50.239 400.000,50.141 352.743,49.500 351.879 C 48.842 350.992,-0.000 350.618,-0.000 351.500 M51.829 351.829 C 51.072 352.585,50.847 400.000,51.600 400.000 C 51.862 400.000,52.000 391.883,52.000 376.449 C 52.000 357.060,52.096 352.818,52.545 352.446 C 52.940 352.118,59.424 352.022,76.045 352.097 L 99.000 352.200 99.103 376.100 C 99.170 391.571,99.346 400.000,99.603 400.000 C 100.481 400.000,100.108 352.086,99.226 351.614 C 97.811 350.856,52.596 351.061,51.829 351.829 M101.867 351.467 C 101.720 351.613,101.644 362.638,101.697 375.967 L 101.794 400.200 101.900 376.422 C 101.982 358.012,102.119 352.572,102.503 352.328 C 103.079 351.962,147.621 351.880,148.567 352.243 C 149.134 352.460,149.200 354.948,149.200 376.243 C 149.200 391.814,149.338 400.000,149.600 400.000 C 150.162 400.000,150.148 353.024,149.586 351.974 C 149.166 351.189,102.639 350.694,101.867 351.467 M151.829 351.829 C 151.072 352.585,150.847 400.000,151.600 400.000 C 151.862 400.000,152.000 391.883,152.000 376.449 C 152.000 357.060,152.096 352.818,152.545 352.446 C 152.940 352.118,159.424 352.022,176.045 352.097 L 199.000 352.200 199.103 376.100 C 199.170 391.571,199.346 400.000,199.603 400.000 C 200.481 400.000,200.108 352.086,199.226 351.614 C 197.811 350.856,152.596 351.061,151.829 351.829 M201.867 351.467 C 201.720 351.613,201.644 362.638,201.697 375.967 L 201.794 400.200 201.900 376.422 C 201.982 358.012,202.119 352.572,202.503 352.328 C 203.079 351.962,247.621 351.880,248.567 352.243 C 249.134 352.460,249.200 354.948,249.200 376.243 C 249.200 391.814,249.338 400.000,249.600 400.000 C 250.162 400.000,250.148 353.024,249.586 351.974 C 249.166 351.189,202.639 350.694,201.867 351.467 M251.829 351.829 C 251.072 352.585,250.847 400.000,251.600 400.000 C 251.862 400.000,252.000 391.883,252.000 376.449 C 252.000 357.060,252.096 352.818,252.545 352.446 C 252.940 352.118,259.424 352.022,276.045 352.097 L 299.000 352.200 299.103 376.100 C 299.170 391.571,299.346 400.000,299.603 400.000 C 300.481 400.000,300.108 352.086,299.226 351.614 C 297.811 350.856,252.596 351.061,251.829 351.829 M301.867 351.467 C 301.720 351.613,301.644 362.638,301.697 375.967 L 301.794 400.200 301.900 376.422 C 301.982 358.012,302.119 352.572,302.503 352.328 C 303.079 351.962,347.621 351.880,348.567 352.243 C 349.134 352.460,349.200 354.948,349.200 376.243 C 349.200 391.814,349.338 400.000,349.600 400.000 C 350.162 400.000,350.148 353.024,349.586 351.974 C 349.166 351.189,302.639 350.694,301.867 351.467 M351.829 351.829 C 351.072 352.585,350.847 400.000,351.600 400.000 C 351.862 400.000,352.000 391.893,352.000 376.480 C 352.000 358.720,352.118 352.842,352.480 352.480 C 352.842 352.118,358.720 352.000,376.480 352.000 C 391.893 352.000,400.000 351.862,400.000 351.600 C 400.000 350.847,352.585 351.072,351.829 351.829 " stroke="none" fill="#8ed8a4" fill-rule="evenodd"></path><path id="path4" d="M110.574 89.200 C 110.574 94.810,110.630 97.105,110.699 94.300 C 110.768 91.495,110.768 86.905,110.699 84.100 C 110.630 81.295,110.574 83.590,110.574 89.200 M210.515 79.649 C 215.360 79.942,222.393 80.919,228.000 82.079 C 228.990 82.284,230.520 82.526,231.400 82.618 C 233.706 82.857,231.495 82.140,228.200 81.580 C 226.880 81.356,224.810 80.994,223.600 80.775 C 217.982 79.763,212.663 79.211,209.000 79.262 L 205.000 79.317 210.515 79.649 M233.404 83.206 C 233.538 83.423,234.207 83.600,234.890 83.600 C 236.401 83.600,236.249 83.400,234.480 83.063 C 233.655 82.906,233.252 82.960,233.404 83.206 M237.200 84.047 C 237.750 84.265,239.730 85.079,241.600 85.856 C 243.470 86.633,245.450 87.455,246.000 87.683 C 246.550 87.911,247.507 88.363,248.128 88.688 C 248.748 89.012,249.333 89.200,249.429 89.104 C 249.632 88.901,245.446 86.800,244.837 86.800 C 244.610 86.800,243.831 86.467,243.105 86.059 C 241.682 85.260,237.184 83.584,236.573 83.625 C 236.368 83.639,236.650 83.829,237.200 84.047 M252.192 91.191 C 252.924 92.000,256.970 94.198,256.587 93.579 C 256.471 93.390,255.481 92.750,254.388 92.155 C 253.294 91.560,252.400 90.921,252.400 90.736 C 252.400 90.551,252.192 90.400,251.938 90.400 C 251.674 90.400,251.783 90.740,252.192 91.191 M257.200 94.195 C 257.200 94.795,263.393 100.004,264.088 99.988 C 264.370 99.981,264.240 99.772,263.800 99.522 C 263.360 99.273,262.910 98.963,262.800 98.834 C 262.163 98.088,257.200 93.977,257.200 94.195 M266.000 101.666 C 266.000 102.126,268.000 105.766,268.688 106.557 C 269.861 107.906,272.000 111.105,272.000 111.511 C 272.000 112.113,275.220 118.514,275.421 118.312 C 275.523 118.210,275.078 117.063,274.432 115.763 C 273.785 114.463,272.780 112.410,272.197 111.200 C 271.614 109.990,270.449 108.100,269.608 107.000 C 268.768 105.900,267.683 104.280,267.197 103.400 C 266.276 101.731,266.000 101.331,266.000 101.666 M110.588 125.800 C 110.588 139.000,110.638 144.342,110.700 137.671 C 110.761 131.001,110.761 120.201,110.700 113.671 C 110.638 107.142,110.588 112.600,110.588 125.800 M153.280 116.480 C 152.737 117.023,152.560 149.600,153.100 149.600 C 153.265 149.600,153.351 142.225,153.291 133.210 L 153.183 116.820 154.194 116.566 C 156.531 115.979,198.641 116.570,199.404 117.200 C 200.049 117.733,200.108 117.733,199.933 117.200 C 199.555 116.048,154.409 115.351,153.280 116.480 M201.867 116.667 C 201.274 117.259,201.697 117.393,203.700 117.248 C 205.249 117.136,205.590 117.012,205.000 116.776 C 203.998 116.375,202.220 116.313,201.867 116.667 M206.800 117.459 C 218.747 119.248,229.327 125.345,232.352 132.185 C 234.289 136.564,235.194 140.308,235.593 145.600 L 235.910 149.800 235.836 145.200 C 235.686 135.911,231.827 128.229,224.954 123.540 C 220.530 120.521,211.248 117.163,207.600 117.261 C 206.610 117.287,206.250 117.376,206.800 117.459 M275.600 119.072 C 275.600 119.393,276.374 121.861,276.833 123.000 C 277.010 123.440,277.240 124.520,277.344 125.400 C 277.448 126.280,277.835 129.520,278.203 132.600 C 278.832 137.865,278.836 141.891,278.221 147.800 C 278.024 149.687,278.047 149.654,278.628 147.200 C 279.498 143.526,279.191 134.346,277.940 126.600 C 277.344 122.908,275.600 117.297,275.600 119.072 M153.067 151.867 C 152.733 152.200,152.711 176.502,153.043 177.367 C 153.303 178.046,198.010 178.363,199.062 177.694 C 199.317 177.532,189.507 177.452,177.262 177.516 C 165.018 177.579,154.590 177.530,154.089 177.405 L 153.178 177.179 153.289 164.389 C 153.350 157.355,153.385 151.600,153.367 151.600 C 153.348 151.600,153.213 151.720,153.067 151.867 M234.919 153.301 C 234.859 154.574,234.927 154.799,235.191 154.200 C 235.633 153.199,235.700 151.600,235.300 151.601 C 235.135 151.601,234.964 152.366,234.919 153.301 M277.443 152.233 C 277.309 152.581,277.200 153.256,277.200 153.734 C 277.200 154.551,276.133 157.763,274.654 161.400 C 274.153 162.633,274.136 162.828,274.582 162.251 C 275.316 161.299,277.600 155.021,277.600 153.953 C 277.600 153.510,277.786 152.799,278.014 152.374 C 278.252 151.929,278.270 151.600,278.057 151.600 C 277.853 151.600,277.576 151.885,277.443 152.233 M110.588 175.600 C 110.588 188.690,110.638 194.045,110.700 187.500 C 110.761 180.955,110.761 170.245,110.700 163.700 C 110.638 157.155,110.588 162.510,110.588 175.600 M233.415 158.356 C 232.434 161.299,230.244 164.785,228.415 166.313 C 226.867 167.606,220.612 172.000,220.319 172.000 C 219.706 172.000,216.368 173.702,216.575 173.908 C 216.688 174.021,217.010 173.941,217.290 173.729 C 217.571 173.517,218.526 173.116,219.412 172.837 C 221.486 172.185,229.200 166.481,230.671 164.512 C 231.292 163.680,231.993 162.794,232.230 162.542 C 232.897 161.830,234.995 155.662,234.678 155.345 C 234.571 155.237,234.002 156.592,233.415 158.356 M273.321 164.101 C 272.137 166.675,271.811 167.251,271.136 167.977 C 270.731 168.411,270.400 168.879,270.400 169.017 C 270.400 169.155,269.590 170.299,268.600 171.559 C 267.610 172.819,266.800 174.042,266.800 174.276 C 266.800 175.123,257.555 183.200,256.585 183.200 C 256.056 183.200,251.600 186.532,251.600 186.928 C 251.600 187.154,252.005 186.983,252.500 186.548 C 253.509 185.661,256.660 183.600,257.009 183.600 C 257.434 183.600,261.400 180.504,262.449 179.352 C 263.027 178.718,264.124 177.719,264.889 177.131 C 265.654 176.543,266.565 175.461,266.913 174.727 C 267.262 173.992,268.082 172.763,268.736 171.996 C 270.434 170.003,272.763 166.463,273.435 164.854 C 274.074 163.326,273.975 162.679,273.321 164.101 M214.000 174.475 C 211.931 175.346,211.344 175.528,209.200 175.962 C 207.990 176.206,205.740 176.661,204.200 176.971 C 202.251 177.363,201.812 177.545,202.754 177.567 C 203.498 177.585,204.758 177.436,205.554 177.235 C 206.349 177.034,207.990 176.653,209.200 176.389 C 213.042 175.549,217.378 173.941,215.567 174.027 C 215.255 174.042,214.550 174.244,214.000 174.475 M247.200 188.613 C 244.170 190.279,240.031 192.000,239.052 192.000 C 238.073 192.000,236.610 193.277,237.066 193.732 C 237.500 194.167,238.008 194.038,237.900 193.522 C 237.845 193.258,238.520 192.804,239.400 192.511 C 241.879 191.687,246.985 189.435,247.133 189.100 C 247.207 188.935,247.477 188.794,247.733 188.787 C 247.990 188.780,248.549 188.510,248.976 188.187 C 250.177 187.279,249.199 187.514,247.200 188.613 M239.800 194.400 C 240.976 194.906,242.782 194.906,242.000 194.400 C 241.670 194.187,240.860 194.022,240.200 194.034 C 239.170 194.053,239.113 194.105,239.800 194.400 M243.000 195.002 C 245.524 195.875,249.259 196.874,249.417 196.717 C 249.685 196.448,244.388 194.792,243.389 194.832 C 242.955 194.849,242.780 194.925,243.000 195.002 M252.000 197.800 C 252.274 198.130,252.802 198.400,253.174 198.400 C 253.546 198.400,254.595 198.760,255.506 199.200 C 256.416 199.640,257.665 199.988,258.281 199.973 C 259.188 199.951,259.060 199.849,257.600 199.432 C 256.610 199.150,254.930 198.532,253.867 198.059 C 251.573 197.040,251.342 197.008,252.000 197.800 M262.253 201.915 C 262.116 202.135,263.078 203.009,264.388 203.858 C 265.699 204.706,266.966 205.765,267.205 206.210 C 267.444 206.656,268.449 207.533,269.438 208.159 C 270.427 208.785,271.646 209.898,272.145 210.633 C 272.644 211.368,273.545 212.357,274.147 212.830 C 275.203 213.660,277.145 216.055,279.921 219.948 C 281.190 221.728,283.200 225.659,283.200 226.362 C 283.200 226.548,283.621 227.668,284.134 228.850 C 284.648 230.033,285.193 231.341,285.344 231.757 C 285.495 232.174,285.706 232.427,285.813 232.320 C 286.028 232.105,284.462 228.024,283.933 227.420 C 283.750 227.211,283.600 226.750,283.600 226.395 C 283.600 225.203,280.056 218.678,278.824 217.600 C 278.698 217.490,278.059 216.680,277.402 215.800 C 276.376 214.423,272.896 210.898,267.600 205.870 C 266.830 205.139,265.480 204.016,264.600 203.373 C 263.720 202.730,262.887 202.049,262.750 201.860 C 262.613 201.670,262.389 201.695,262.253 201.915 M110.588 225.800 C 110.588 239.000,110.638 244.342,110.700 237.671 C 110.761 231.001,110.761 220.201,110.700 213.671 C 110.638 207.142,110.588 212.600,110.588 225.800 M153.300 214.665 C 152.738 214.892,152.540 249.600,153.100 249.600 C 153.265 249.600,153.400 241.815,153.400 232.300 L 153.400 215.000 176.200 214.795 L 199.000 214.590 176.400 214.527 C 163.970 214.492,153.575 214.554,153.300 214.665 M205.400 215.215 C 206.720 215.379,208.610 215.512,209.600 215.511 L 211.400 215.508 209.800 215.177 C 208.920 214.995,207.030 214.862,205.600 214.882 L 203.000 214.918 205.400 215.215 M215.800 216.422 C 226.118 218.305,228.533 219.104,233.490 222.275 C 240.879 227.001,245.977 236.726,245.994 246.124 C 245.998 248.410,246.143 249.559,246.407 249.396 C 247.739 248.573,244.663 232.800,243.171 232.800 C 242.967 232.800,242.800 232.535,242.800 232.212 C 242.800 231.253,241.235 228.715,239.586 227.000 C 238.740 226.120,237.748 225.079,237.381 224.686 C 236.333 223.563,232.035 220.749,229.400 219.462 C 226.386 217.988,223.615 217.225,218.200 216.376 C 213.322 215.612,211.544 215.646,215.800 216.422 M286.026 233.276 C 286.012 233.648,286.156 234.049,286.347 234.167 C 286.538 234.285,286.819 235.241,286.973 236.291 C 287.127 237.341,287.420 239.190,287.626 240.400 C 287.923 242.143,288.642 247.715,288.775 249.300 C 288.789 249.465,288.944 249.600,289.121 249.600 C 289.774 249.600,287.606 236.061,286.590 233.800 C 286.267 233.081,286.041 232.871,286.026 233.276 M152.983 252.101 C 152.877 252.376,152.838 259.711,152.895 268.401 L 153.000 284.200 176.367 284.200 C 195.603 284.200,199.765 284.105,199.913 283.661 C 200.055 283.235,199.920 283.215,199.266 283.564 C 198.684 283.876,191.784 283.976,175.920 283.903 L 153.400 283.800 153.400 267.700 C 153.400 258.845,153.349 251.600,153.287 251.600 C 153.226 251.600,153.088 251.825,152.983 252.101 M246.055 253.000 C 245.898 256.161,242.475 266.264,241.244 267.200 C 241.099 267.310,240.025 268.615,238.856 270.100 C 237.687 271.585,236.612 272.802,236.466 272.804 C 236.320 272.806,235.120 273.732,233.800 274.862 C 232.480 275.992,230.680 277.238,229.800 277.630 C 228.920 278.022,228.510 278.356,228.888 278.372 C 229.266 278.387,230.256 278.023,231.088 277.562 C 232.579 276.736,233.031 276.352,237.015 272.532 C 239.456 270.192,242.800 266.088,242.800 265.433 C 242.800 265.171,243.251 264.052,243.802 262.946 C 245.131 260.280,246.489 254.806,246.292 252.914 L 246.134 251.400 246.055 253.000 M288.483 257.500 C 288.226 260.745,287.837 264.390,287.618 265.600 C 287.399 266.810,287.099 268.750,286.953 269.912 C 286.806 271.073,286.531 272.119,286.343 272.235 C 286.154 272.352,286.009 272.842,286.021 273.324 C 286.111 277.161,288.588 264.259,289.001 257.800 C 289.127 255.820,289.322 253.615,289.434 252.900 C 289.545 252.185,289.482 251.600,289.293 251.600 C 289.104 251.600,288.740 254.255,288.483 257.500 M110.588 275.600 C 110.588 288.690,110.638 294.045,110.700 287.500 C 110.761 280.955,110.761 270.245,110.700 263.700 C 110.638 257.155,110.588 262.510,110.588 275.600 M285.369 275.043 C 284.771 276.859,283.074 281.131,282.368 282.600 C 281.944 283.480,281.598 284.353,281.599 284.539 C 281.600 284.726,280.610 286.283,279.400 288.000 C 278.190 289.717,277.200 291.228,277.200 291.359 C 277.200 291.602,274.161 294.982,271.491 297.708 C 270.635 298.582,270.104 299.445,270.265 299.704 C 270.461 300.022,270.599 299.985,270.719 299.580 C 270.814 299.261,271.146 298.796,271.457 298.548 C 272.421 297.777,278.400 290.649,278.400 290.272 C 278.400 290.076,278.965 289.202,279.656 288.330 C 281.141 286.454,283.600 281.777,283.600 280.827 C 283.600 280.460,283.752 279.989,283.938 279.780 C 284.527 279.117,286.115 274.782,285.862 274.528 C 285.728 274.395,285.507 274.626,285.369 275.043 M226.278 279.075 C 224.614 279.950,220.106 281.442,217.600 281.947 C 213.907 282.691,213.727 282.758,215.800 282.615 C 219.165 282.383,227.166 279.825,227.816 278.774 C 228.129 278.268,227.624 278.367,226.278 279.075 M210.600 283.200 L 209.000 283.486 210.800 283.537 C 211.790 283.565,212.870 283.413,213.200 283.200 C 213.913 282.739,213.172 282.739,210.600 283.200 M201.600 283.680 C 201.600 283.856,202.545 283.979,203.700 283.954 C 205.882 283.905,205.672 283.748,203.100 283.503 C 202.275 283.425,201.600 283.504,201.600 283.680 M264.400 303.467 C 262.970 304.479,261.710 305.443,261.600 305.609 C 261.490 305.775,259.780 306.754,257.800 307.785 C 254.425 309.542,253.083 310.400,253.708 310.400 C 253.855 310.400,254.656 310.012,255.488 309.538 C 256.320 309.064,257.959 308.166,259.131 307.543 C 260.303 306.920,262.283 305.634,263.531 304.686 C 264.779 303.737,266.115 302.840,266.500 302.693 C 266.885 302.546,267.200 302.239,267.200 302.013 C 267.200 301.459,267.338 301.387,264.400 303.467 M110.589 311.600 L 110.600 321.400 130.100 321.504 C 143.024 321.573,149.600 321.471,149.600 321.204 C 149.600 320.938,142.991 320.800,130.207 320.800 L 110.814 320.800 110.696 311.300 L 110.577 301.800 110.589 311.600 M251.762 311.258 C 251.005 312.110,251.006 312.113,251.878 311.656 C 252.850 311.146,253.449 310.400,252.886 310.400 C 252.687 310.400,252.181 310.786,251.762 311.258 M244.600 313.838 C 242.180 314.806,239.921 315.599,239.580 315.599 C 239.239 315.600,238.789 315.763,238.580 315.961 C 238.371 316.160,237.390 316.417,236.400 316.532 C 235.410 316.648,233.790 316.911,232.800 317.118 C 231.810 317.325,227.940 318.013,224.200 318.647 C 220.460 319.281,217.806 319.858,218.303 319.928 C 218.800 319.999,220.960 319.747,223.103 319.368 C 225.246 318.989,227.810 318.550,228.800 318.391 C 235.130 317.376,238.634 316.570,241.800 315.402 C 243.780 314.671,246.345 313.744,247.500 313.343 C 248.655 312.941,249.600 312.474,249.600 312.306 C 249.600 311.855,249.397 311.917,244.600 313.838 M211.800 320.400 L 210.200 320.686 212.200 320.720 C 213.300 320.739,214.920 320.605,215.800 320.423 L 217.400 320.092 215.400 320.103 C 214.300 320.109,212.680 320.242,211.800 320.400 M151.867 321.067 C 151.720 321.213,151.600 321.438,151.600 321.567 C 151.600 321.695,162.475 321.800,175.766 321.800 C 195.053 321.800,199.848 321.699,199.517 321.300 C 199.068 320.759,152.403 320.530,151.867 321.067 M201.600 321.128 C 201.600 321.309,203.175 321.388,205.100 321.305 C 210.166 321.086,210.409 320.900,205.700 320.846 C 203.445 320.821,201.600 320.948,201.600 321.128 " stroke="none" fill="#7c7c7c" fill-rule="evenodd"></path></g></svg>