<?xml version="1.0" encoding="UTF-8"?>
<!DOCTYPE svg PUBLIC "-//W3C//DTD SVG 1.1//EN" "http://www.w3.org/Graphics/SVG/1.1/DTD/svg11.dtd">
<svg xmlns="http://www.w3.org/2000/svg" version="1.1" width="1662px" height="1297px" style="shape-rendering:geometricPrecision; text-rendering:geometricPrecision; image-rendering:optimizeQuality; fill-rule:evenodd; clip-rule:evenodd" xmlns:xlink="http://www.w3.org/1999/xlink">
<g><path style="opacity:1" fill="#fefefe" d="M -0.5,-0.5 C 553.5,-0.5 1107.5,-0.5 1661.5,-0.5C 1661.5,431.833 1661.5,864.167 1661.5,1296.5C 1107.5,1296.5 553.5,1296.5 -0.5,1296.5C -0.5,864.167 -0.5,431.833 -0.5,-0.5 Z"/></g>
<g><path style="opacity:1" fill="#53c61b" d="M 755.5,129.5 C 754.876,131.754 753.543,133.421 751.5,134.5C 750.833,134.833 750.167,135.167 749.5,135.5C 744.024,136.104 740.691,133.771 739.5,128.5C 739.5,128.167 739.5,127.833 739.5,127.5C 739.822,122.511 742.489,119.844 747.5,119.5C 753.465,120.137 756.132,123.47 755.5,129.5 Z"/></g>
<g><path style="opacity:1" fill="#7a7a7a" d="M 774.5,122.5 C 775.777,123.694 776.444,125.36 776.5,127.5C 776.167,129.167 775.833,130.833 775.5,132.5C 774.513,129.232 774.18,125.898 774.5,122.5 Z"/></g>
<g><path style="opacity:1" fill="#6c6c6c" d="M 779.5,131.5 C 780.5,131.5 781.5,131.5 782.5,131.5C 782.5,129.5 782.5,127.5 782.5,125.5C 781.5,125.5 780.5,125.5 779.5,125.5C 780.868,124.694 782.201,123.694 783.5,122.5C 784.487,125.768 784.82,129.102 784.5,132.5C 782.585,132.784 780.919,132.451 779.5,131.5 Z"/></g>
<g><path style="opacity:1" fill="#7a7a7a" d="M 859.5,122.5 C 860.777,123.694 861.444,125.36 861.5,127.5C 861.167,129.167 860.833,130.833 860.5,132.5C 859.513,129.232 859.18,125.898 859.5,122.5 Z"/></g>
<g><path style="opacity:1" fill="#6c6c6c" d="M 898.5,122.5 C 899.806,125.687 899.806,129.02 898.5,132.5C 897.996,129.701 896.996,127.201 895.5,125C 896.942,124.623 897.942,123.79 898.5,122.5 Z"/></g>
<g><path style="opacity:1" fill="#6b6b6b" d="M 876.5,126.5 C 875.849,123.17 874.516,122.837 872.5,125.5C 871.479,124.998 871.312,124.332 872,123.5C 873.388,122.446 874.888,122.28 876.5,123C 877.791,124.292 877.791,125.458 876.5,126.5 Z"/></g>
<g><path style="opacity:1" fill="#dcdcdc" d="M 883.5,123.5 C 885.101,126.423 884.768,129.09 882.5,131.5C 881.914,131.291 881.414,130.957 881,130.5C 880.503,128.19 880.337,125.857 880.5,123.5C 881.5,122.167 882.5,122.167 883.5,123.5 Z"/></g>
<g><path style="opacity:1" fill="#dcdcdc" d="M 891.5,123.5 C 893.101,126.423 892.768,129.09 890.5,131.5C 889.914,131.291 889.414,130.957 889,130.5C 888.503,128.19 888.337,125.857 888.5,123.5C 889.5,122.167 890.5,122.167 891.5,123.5 Z"/></g>
<g><path style="opacity:1" fill="#6b6b6b" d="M 919.5,126.5 C 918.849,123.17 917.516,122.837 915.5,125.5C 914.479,124.998 914.312,124.332 915,123.5C 916.388,122.446 917.888,122.28 919.5,123C 920.791,124.292 920.791,125.458 919.5,126.5 Z"/></g>
<g><path style="opacity:1" fill="#656565" d="M 765.5,133.5 C 764.833,133.833 764.167,134.167 763.5,134.5C 762.817,132.824 761.483,132.157 759.5,132.5C 759.5,130.5 759.5,128.5 759.5,126.5C 760.99,124.72 762.99,124.054 765.5,124.5C 765.5,127.5 765.5,130.5 765.5,133.5 Z"/></g>
<g><path style="opacity:1" fill="#777777" d="M 790.5,125.5 C 789.504,125.414 788.671,125.748 788,126.5C 787.506,128.134 787.34,129.801 787.5,131.5C 788.5,131.5 789.5,131.5 790.5,131.5C 789.791,132.404 788.791,132.737 787.5,132.5C 787.719,133.675 787.386,134.675 786.5,135.5C 785.511,131.893 785.177,128.226 785.5,124.5C 787.415,124.216 789.081,124.549 790.5,125.5 Z"/></g>
<g><path style="opacity:1" fill="#818281" d="M 793.5,124.5 C 794.748,125.334 795.415,126.667 795.5,128.5C 795.167,129.833 794.833,131.167 794.5,132.5C 793.52,129.914 793.187,127.247 793.5,124.5 Z"/></g>
<g><path style="opacity:1" fill="#6e6e6e" d="M 796.5,124.5 C 798.199,124.34 799.866,124.506 801.5,125C 800.552,125.483 799.552,125.649 798.5,125.5C 798.808,127.924 798.474,130.257 797.5,132.5C 796.52,129.914 796.187,127.247 796.5,124.5 Z"/></g>
<g><path style="opacity:1" fill="#707070" d="M 845.5,125.5 C 846.919,124.549 848.585,124.216 850.5,124.5C 850.823,128.226 850.489,131.893 849.5,135.5C 848.614,134.675 848.281,133.675 848.5,132.5C 847.209,132.737 846.209,132.404 845.5,131.5C 846.5,131.5 847.5,131.5 848.5,131.5C 848.5,129.5 848.5,127.5 848.5,125.5C 847.5,125.5 846.5,125.5 845.5,125.5 Z"/></g>
<g><path style="opacity:1" fill="#424242" d="M 908.5,123.5 C 909.765,124.514 910.431,126.014 910.5,128C 910.333,129.5 910.167,131 910,132.5C 909.971,129.633 909.138,127.133 907.5,125C 908.056,124.617 908.389,124.117 908.5,123.5 Z"/></g>
<g><path style="opacity:1" fill="#525252" d="M 957.5,123.5 C 959.364,122.207 961.364,122.207 963.5,123.5C 961.527,126.246 960.027,129.246 959,132.5C 958.802,129.422 959.635,126.588 961.5,124C 960.207,123.51 958.873,123.343 957.5,123.5 Z"/></g>
<g><path style="opacity:1" fill="#8d8d8d" d="M 969.5,131.5 C 969.912,129.027 968.912,127.694 966.5,127.5C 964.74,123.43 965.906,122.097 970,123.5C 970.684,124.784 970.517,125.951 969.5,127C 972.106,128.65 972.106,130.15 969.5,131.5 Z"/></g>
<g><path style="opacity:1" fill="#f9f9f9" d="M 761.5,125.5 C 762.693,125.97 763.36,126.97 763.5,128.5C 762.709,132.285 761.709,132.285 760.5,128.5C 760.685,127.416 761.018,126.416 761.5,125.5 Z"/></g>
<g><path style="opacity:1" fill="#f0f0f0" d="M 771.5,125.5 C 773.444,129.116 772.444,131.116 768.5,131.5C 768.34,129.801 768.506,128.134 769,126.5C 769.671,125.748 770.504,125.414 771.5,125.5 Z"/></g>
<g><path style="opacity:1" fill="#f2f2f2" d="M 779.5,125.5 C 780.5,125.5 781.5,125.5 782.5,125.5C 782.5,127.5 782.5,129.5 782.5,131.5C 781.5,131.5 780.5,131.5 779.5,131.5C 779.5,129.5 779.5,127.5 779.5,125.5 Z"/></g>
<g><path style="opacity:1" fill="#f6f6f6" d="M 790.5,125.5 C 790.5,127.5 790.5,129.5 790.5,131.5C 789.5,131.5 788.5,131.5 787.5,131.5C 787.34,129.801 787.506,128.134 788,126.5C 788.671,125.748 789.504,125.414 790.5,125.5 Z"/></g>
<g><path style="opacity:1" fill="#f2f2f2" d="M 845.5,125.5 C 846.5,125.5 847.5,125.5 848.5,125.5C 848.5,127.5 848.5,129.5 848.5,131.5C 847.5,131.5 846.5,131.5 845.5,131.5C 845.5,129.5 845.5,127.5 845.5,125.5 Z"/></g>
<g><path style="opacity:1" fill="#636363" d="M 933.5,122.5 C 934.777,123.694 935.444,125.36 935.5,127.5C 935.167,129.167 934.833,130.833 934.5,132.5C 933.107,131.137 931.441,130.304 929.5,130C 930.793,129.51 932.127,129.343 933.5,129.5C 932.933,127.031 932.933,124.698 933.5,122.5 Z"/></g>
<g><path style="opacity:1" fill="#434343" d="M 986.5,128.5 C 989.287,126.795 988.954,125.628 985.5,125C 987.112,124.28 988.612,124.446 990,125.5C 990.667,127.833 990.667,130.167 990,132.5C 988.312,131.675 988.145,130.675 989.5,129.5C 988.675,128.614 987.675,128.281 986.5,128.5 Z"/></g>
<g><path style="opacity:1" fill="#4c4c4c" d="M 805.5,124.5 C 807.167,124.5 808.833,124.5 810.5,124.5C 810.665,127.85 810.498,131.183 810,134.5C 808.612,135.554 807.112,135.72 805.5,135C 810.832,133.428 810.666,132.261 805,131.5C 804.297,129.071 804.463,126.738 805.5,124.5 Z"/></g>
<g><path style="opacity:1" fill="#f0f0f0" d="M 806.5,125.5 C 808.484,125.484 809.484,126.484 809.5,128.5C 808.167,132.5 806.833,132.5 805.5,128.5C 805.685,127.416 806.018,126.416 806.5,125.5 Z"/></g>
<g><path style="opacity:1" fill="#4b4b4b" d="M 820.5,124.5 C 824.838,124.622 825.172,124.955 821.5,125.5C 821.663,127.857 821.497,130.19 821,132.5C 820.503,129.854 820.336,127.187 820.5,124.5 Z"/></g>
<g><path style="opacity:1" fill="#4d4d4d" d="M 836.5,122.5 C 837.83,123.832 839.497,124.665 841.5,125C 843.98,130.438 842.313,132.938 836.5,132.5C 836.5,129.167 836.5,125.833 836.5,122.5 Z"/></g>
<g><path style="opacity:1" fill="#f0f0f0" d="M 838.5,125.5 C 840.484,125.484 841.484,126.484 841.5,128.5C 840.167,132.5 838.833,132.5 837.5,128.5C 837.685,127.416 838.018,126.416 838.5,125.5 Z"/></g>
<g><path style="opacity:1" fill="#494949" d="M 946.5,126.5 C 945.07,126.421 943.736,126.754 942.5,127.5C 941.948,125.997 941.948,124.331 942.5,122.5C 948.324,122.347 948.657,123.013 943.5,124.5C 944.602,125.176 945.602,125.842 946.5,126.5 Z"/></g>
<g><path style="opacity:1" fill="#4c4c4c" d="M 992.5,122.5 C 993.83,123.832 995.497,124.665 997.5,125C 999.98,130.438 998.313,132.938 992.5,132.5C 992.5,129.167 992.5,125.833 992.5,122.5 Z"/></g>
<g><path style="opacity:1" fill="#f0f0f0" d="M 994.5,125.5 C 996.484,125.484 997.484,126.484 997.5,128.5C 996.167,132.5 994.833,132.5 993.5,128.5C 993.685,127.416 994.018,126.416 994.5,125.5 Z"/></g>
<g><path style="opacity:1" fill="#535353" d="M 1016.5,127.5 C 1015.05,130.4 1016.05,131.733 1019.5,131.5C 1018.12,132.801 1016.62,132.801 1015,131.5C 1014.13,128.621 1014.46,125.955 1016,123.5C 1015.67,125.019 1015.84,126.352 1016.5,127.5 Z"/></g>
<g><path style="opacity:1" fill="#707070" d="M 771.5,125.5 C 770.504,125.414 769.671,125.748 769,126.5C 768.506,128.134 768.34,129.801 768.5,131.5C 765.637,128.603 766.137,126.269 770,124.5C 770.765,124.57 771.265,124.903 771.5,125.5 Z"/></g>
<g><path style="opacity:1" fill="#565656" d="M 771.5,125.5 C 772.693,125.97 773.36,126.97 773.5,128.5C 773.324,132.275 771.657,133.275 768.5,131.5C 772.444,131.116 773.444,129.116 771.5,125.5 Z"/></g>
<g><path style="opacity:1" fill="#777777" d="M 779.5,125.5 C 779.5,127.5 779.5,129.5 779.5,131.5C 776.833,129.5 776.833,127.5 779.5,125.5 Z"/></g>
<g><path style="opacity:1" fill="#777777" d="M 845.5,125.5 C 845.5,127.5 845.5,129.5 845.5,131.5C 842.833,129.5 842.833,127.5 845.5,125.5 Z"/></g>
<g><path style="opacity:1" fill="#4e4e4e" d="M 852.5,124.5 C 854.167,124.5 855.833,124.5 857.5,124.5C 857.665,127.85 857.498,131.183 857,134.5C 855.612,135.554 854.112,135.72 852.5,135C 857.832,133.428 857.666,132.261 852,131.5C 851.297,129.071 851.463,126.738 852.5,124.5 Z"/></g>
<g><path style="opacity:1" fill="#f0f0f0" d="M 853.5,125.5 C 855.484,125.484 856.484,126.484 856.5,128.5C 855.167,132.5 853.833,132.5 852.5,128.5C 852.685,127.416 853.018,126.416 853.5,125.5 Z"/></g>
<g><path style="opacity:1" fill="#808080" d="M 867.5,124.5 C 868.059,128.034 869.059,131.534 870.5,135C 870.167,135.167 869.833,135.333 869.5,135.5C 866.723,132.182 866.056,128.515 867.5,124.5 Z"/></g>
<g><path style="opacity:1" fill="#5f5f5f" d="M 926.5,123.5 C 927.933,125.914 928.433,128.581 928,131.5C 926.612,132.554 925.112,132.72 923.5,132C 928.214,130.944 928.547,129.277 924.5,127C 925.973,126.29 926.64,125.124 926.5,123.5 Z"/></g>
<g><path style="opacity:1" fill="#f6f6f6" d="M 966.5,127.5 C 968.912,127.694 969.912,129.027 969.5,131.5C 968.5,131.5 967.5,131.5 966.5,131.5C 966.5,130.167 966.5,128.833 966.5,127.5 Z"/></g>
<g><path style="opacity:1" fill="#525252" d="M 977.5,122.5 C 981.243,122.459 981.41,123.126 978,124.5C 977.667,126.934 978.834,127.934 981.5,127.5C 982.465,123.834 982.632,125.168 982,131.5C 980.951,132.517 979.784,132.684 978.5,132C 979.91,131.632 980.91,130.799 981.5,129.5C 976.801,128.993 975.468,126.659 977.5,122.5 Z"/></g>
<g><path style="opacity:1" fill="#b8b8b8" d="M 1019.5,131.5 C 1016.05,131.733 1015.05,130.4 1016.5,127.5C 1017.54,126.209 1018.71,126.209 1020,127.5C 1020.76,129.066 1020.6,130.399 1019.5,131.5 Z"/></g>
<g><path style="opacity:1" fill="#525252" d="M 876.5,126.5 C 876.141,128.371 875.141,129.871 873.5,131C 874.833,131.333 876.167,131.667 877.5,132C 870.127,132.423 869.794,130.59 876.5,126.5 Z"/></g>
<g><path style="opacity:1" fill="#525252" d="M 919.5,126.5 C 919.141,128.371 918.141,129.871 916.5,131C 917.833,131.333 919.167,131.667 920.5,132C 913.127,132.423 912.794,130.59 919.5,126.5 Z"/></g>
<g><path style="opacity:1" fill="#636363" d="M 966.5,127.5 C 966.5,128.833 966.5,130.167 966.5,131.5C 967.5,131.5 968.5,131.5 969.5,131.5C 968.116,132.801 966.616,132.801 965,131.5C 964.156,129.537 964.656,128.204 966.5,127.5 Z"/></g>
<g><path style="opacity:1" fill="#bfbfbf" d="M 739.5,127.5 C 739.5,127.833 739.5,128.167 739.5,128.5C 738.761,128.369 738.094,128.536 737.5,129C 738.782,131.79 737.948,133.957 735,135.5C 733.991,133.975 733.491,132.308 733.5,130.5C 731.079,130.878 728.746,131.545 726.5,132.5C 730.065,129.085 734.398,127.419 739.5,127.5 Z"/></g>
<g><path style="opacity:1" fill="#787878" d="M 790.5,125.5 C 793.167,127.5 793.167,129.5 790.5,131.5C 790.5,129.5 790.5,127.5 790.5,125.5 Z"/></g>
<g><path style="opacity:1" fill="#414141" d="M 813.5,124.5 C 816.95,123.756 818.616,125.09 818.5,128.5C 812.304,128.574 811.97,129.741 817.5,132C 816.167,132.667 814.833,132.667 813.5,132C 812.221,129.502 812.221,127.002 813.5,124.5 Z"/></g>
<g><path style="opacity:1" fill="#fafafa" d="M 814.5,125.5 C 815.756,125.461 816.756,125.961 817.5,127C 816.167,127.667 814.833,127.667 813.5,127C 814.056,126.617 814.389,126.117 814.5,125.5 Z"/></g>
<g><path style="opacity:1" fill="#696969" d="M 828.5,125.5 C 828.56,124.957 828.893,124.624 829.5,124.5C 830.427,126.113 831.261,127.779 832,129.5C 832.739,127.779 833.573,126.113 834.5,124.5C 834.833,124.667 835.167,124.833 835.5,125C 834.426,127.456 833.426,129.956 832.5,132.5C 830.79,130.357 829.457,128.023 828.5,125.5 Z"/></g>
<g><path style="opacity:1" fill="#717171" d="M 880.5,123.5 C 880.337,125.857 880.503,128.19 881,130.5C 881.414,130.957 881.914,131.291 882.5,131.5C 884.768,129.09 885.101,126.423 883.5,123.5C 885.763,125.766 886.096,128.433 884.5,131.5C 879.05,132.527 877.216,130.193 879,124.5C 879.383,123.944 879.883,123.611 880.5,123.5 Z"/></g>
<g><path style="opacity:1" fill="#717171" d="M 888.5,123.5 C 888.337,125.857 888.503,128.19 889,130.5C 889.414,130.957 889.914,131.291 890.5,131.5C 892.768,129.09 893.101,126.423 891.5,123.5C 893.763,125.766 894.096,128.433 892.5,131.5C 887.05,132.527 885.216,130.193 887,124.5C 887.383,123.944 887.883,123.611 888.5,123.5 Z"/></g>
<g><path style="opacity:1" fill="#656565" d="M 946.5,126.5 C 947.117,126.611 947.617,126.944 948,127.5C 948.983,122.646 951.483,121.479 955.5,124C 954.451,124.492 953.451,124.326 952.5,123.5C 951.5,123.833 950.833,124.5 950.5,125.5C 954.552,125.707 956.052,127.707 955,131.5C 952.618,132.866 950.452,132.533 948.5,130.5C 946.809,132.256 944.809,132.756 942.5,132C 941.549,131.282 941.383,130.449 942,129.5C 945.462,132.244 946.962,131.244 946.5,126.5 Z"/></g>
<g><path style="opacity:1" fill="#f8f8f8" d="M 951.5,127.5 C 954.861,128.203 955.194,129.537 952.5,131.5C 950.358,130.563 950.024,129.23 951.5,127.5 Z"/></g>
<g><path style="opacity:1" fill="#3d3d3d" d="M 986.5,128.5 C 984.94,130.129 985.273,131.296 987.5,132C 986.552,132.483 985.552,132.649 984.5,132.5C 984.157,130.517 984.824,129.183 986.5,128.5 Z"/></g>
<g><path style="opacity:1" fill="#6c6c6c" d="M 1022.5,122.5 C 1026.1,126.438 1026.44,130.772 1023.5,135.5C 1023.17,135.333 1022.83,135.167 1022.5,135C 1024.94,130.881 1024.94,126.714 1022.5,122.5 Z"/></g>
<g><path style="opacity:1" fill="#797979" d="M 1000.5,125.5 C 1001.46,127.265 1001.79,129.265 1001.5,131.5C 1003.11,131.094 1004.44,131.094 1005.5,131.5C 1000.14,132.816 998.474,130.816 1000.5,125.5 Z"/></g>
<g><path style="opacity:1" fill="#dcdcdc" d="M 1190.5,486.5 C 1198.21,499.248 1204.87,512.581 1210.5,526.5C 1203.33,513.484 1196.66,500.151 1190.5,486.5 Z"/></g>
<g><path style="opacity:1" fill="#dedede" d="M 1137.5,579.5 C 1129.85,577.337 1122.35,574.67 1115,571.5C 1114.5,571.667 1114,571.833 1113.5,572C 1114.94,572.377 1115.94,573.21 1116.5,574.5C 1109.04,571.268 1101.7,567.768 1094.5,564C 1021.1,538.153 945.765,520.653 868.5,511.5C 874.729,562.319 876.896,613.319 875,664.5C 875.403,613.095 872.57,561.928 866.5,511C 794.581,503.345 722.581,502.512 650.5,508.5C 722.387,500.394 794.387,500.727 866.5,509.5C 855.319,424.792 835.319,343.459 806.5,265.5C 804.127,259.557 802.294,253.557 801,247.5C 805.393,258.012 809.393,268.678 813,279.5C 816.633,286.627 820.466,293.627 824.5,300.5C 824.154,301.696 823.654,301.696 823,300.5C 821.333,297.5 819.667,294.5 818,291.5C 836.065,347.091 850.398,403.758 861,461.5C 863.66,477.444 865.826,493.444 867.5,509.5C 961.965,520.937 1051.96,544.27 1137.5,579.5 Z"/></g>
<g><path style="opacity:1" fill="#f0f0f0" d="M 1137.5,579.5 C 1174.55,593.43 1209.89,609.097 1243.5,626.5C 1243.67,627.492 1243.34,628.158 1242.5,628.5C 1198.86,614.181 1156.86,596.181 1116.5,574.5C 1115.94,573.21 1114.94,572.377 1113.5,572C 1114,571.833 1114.5,571.667 1115,571.5C 1122.35,574.67 1129.85,577.337 1137.5,579.5 Z"/></g>
<g><path style="opacity:1" fill="#d4d7d2" d="M 1232.5,578.5 C 1237.99,590.794 1242.83,603.461 1247,616.5C 1248.18,615.269 1249.35,615.269 1250.5,616.5C 1249.91,618.382 1249.24,620.215 1248.5,622C 1250.38,622.198 1252.05,622.698 1253.5,623.5C 1251.5,623.5 1249.5,623.5 1247.5,623.5C 1246.19,621.852 1244.86,620.186 1243.5,618.5C 1244.17,617.833 1244.83,617.167 1245.5,616.5C 1241.15,603.802 1236.81,591.135 1232.5,578.5 Z"/></g>
<g><path style="opacity:1" fill="#55c61e" d="M 241.5,623.5 C 245.433,622.857 248.766,623.857 251.5,626.5C 252.833,629.5 252.833,632.5 251.5,635.5C 250.167,636.5 248.833,637.5 247.5,638.5C 241.657,640.033 237.99,638.033 236.5,632.5C 236.5,631.167 236.5,629.833 236.5,628.5C 237.167,625.833 238.833,624.167 241.5,623.5 Z"/></g>
<g><path style="opacity:1" fill="#55c61f" d="M 1247.5,623.5 C 1249.5,623.5 1251.5,623.5 1253.5,623.5C 1257.32,624.5 1258.99,627 1258.5,631C 1258.99,635 1257.32,637.5 1253.5,638.5C 1251.5,638.5 1249.5,638.5 1247.5,638.5C 1246.17,637.5 1244.83,636.5 1243.5,635.5C 1242.96,633.883 1242.63,632.216 1242.5,630.5C 1242.5,629.833 1242.5,629.167 1242.5,628.5C 1243.34,628.158 1243.67,627.492 1243.5,626.5C 1244.83,625.5 1246.17,624.5 1247.5,623.5 Z"/></g>
<g><path style="opacity:1" fill="#7a7a7a" d="M 1277.5,625.5 C 1278.78,626.694 1279.44,628.36 1279.5,630.5C 1279.17,632.167 1278.83,633.833 1278.5,635.5C 1277.51,632.232 1277.18,628.898 1277.5,625.5 Z"/></g>
<g><path style="opacity:1" fill="#6c6c6c" d="M 1282.5,634.5 C 1283.5,634.5 1284.5,634.5 1285.5,634.5C 1285.5,632.5 1285.5,630.5 1285.5,628.5C 1284.5,628.5 1283.5,628.5 1282.5,628.5C 1283.87,627.694 1285.2,626.694 1286.5,625.5C 1287.49,628.768 1287.82,632.102 1287.5,635.5C 1285.59,635.784 1283.92,635.451 1282.5,634.5 Z"/></g>
<g><path style="opacity:1" fill="#565656" d="M 1340.5,633.5 C 1341.57,632.566 1342.9,632.232 1344.5,632.5C 1344.84,630.517 1344.18,629.183 1342.5,628.5C 1342.91,627.357 1343.57,626.357 1344.5,625.5C 1345.21,628.027 1345.88,630.527 1346.5,633C 1345.95,633.925 1345.29,634.758 1344.5,635.5C 1343.48,634.147 1342.14,633.48 1340.5,633.5 Z"/></g>
<g><path style="opacity:1" fill="#161616" d="M 1466.5,627.5 C 1465.05,626.698 1463.38,626.198 1461.5,626C 1463.58,625.192 1465.58,625.359 1467.5,626.5C 1467.38,627.107 1467.04,627.44 1466.5,627.5 Z"/></g>
<g><path style="opacity:1" fill="#676767" d="M 1501.5,628.5 C 1500.5,628.5 1499.5,628.5 1498.5,628.5C 1498.5,630.5 1498.5,632.5 1498.5,634.5C 1499.5,634.5 1500.5,634.5 1501.5,634.5C 1500.08,635.451 1498.41,635.784 1496.5,635.5C 1496.18,632.102 1496.51,628.768 1497.5,625.5C 1498.8,626.694 1500.13,627.694 1501.5,628.5 Z"/></g>
<g><path style="opacity:1" fill="#c5c5c5" d="M 1388.5,626.5 C 1388.5,629.167 1388.5,631.833 1388.5,634.5C 1387.5,635.833 1386.5,635.833 1385.5,634.5C 1384.17,631.833 1384.17,629.167 1385.5,626.5C 1386.5,625.167 1387.5,625.167 1388.5,626.5 Z"/></g>
<g><path style="opacity:1" fill="#545454" d="M 1428.5,626.5 C 1432.24,625.258 1433.24,626.591 1431.5,630.5C 1429.16,630.225 1429.16,629.392 1431.5,628C 1430.76,626.961 1429.76,626.461 1428.5,626.5 Z"/></g>
<g><path style="opacity:1" fill="#4d4d4d" d="M 1473.5,625.5 C 1469.74,627.079 1469.74,628.579 1473.5,630C 1471.14,630.589 1470.14,632.089 1470.5,634.5C 1469.9,632.38 1469.57,630.213 1469.5,628C 1470.03,625.98 1471.37,625.147 1473.5,625.5 Z"/></g>
<g><path style="opacity:1" fill="#696969" d="M 258.5,627.5 C 259.833,627.5 261.167,627.5 262.5,627.5C 262.5,630.5 262.5,633.5 262.5,636.5C 262.158,637.338 261.492,637.672 260.5,637.5C 259.895,635.974 258.729,634.974 257,634.5C 256.333,632.5 256.333,630.5 257,628.5C 257.383,627.944 257.883,627.611 258.5,627.5 Z"/></g>
<g><path style="opacity:1" fill="#777777" d="M 1293.5,628.5 C 1292.5,628.414 1291.67,628.748 1291,629.5C 1290.51,631.134 1290.34,632.801 1290.5,634.5C 1291.5,634.5 1292.5,634.5 1293.5,634.5C 1292.79,635.404 1291.79,635.737 1290.5,635.5C 1290.72,636.675 1290.39,637.675 1289.5,638.5C 1288.51,634.893 1288.18,631.226 1288.5,627.5C 1290.41,627.216 1292.08,627.549 1293.5,628.5 Z"/></g>
<g><path style="opacity:1" fill="#818281" d="M 1296.5,627.5 C 1297.75,628.334 1298.41,629.667 1298.5,631.5C 1298.17,632.833 1297.83,634.167 1297.5,635.5C 1296.52,632.914 1296.19,630.247 1296.5,627.5 Z"/></g>
<g><path style="opacity:1" fill="#6e6e6e" d="M 1299.5,627.5 C 1301.2,627.34 1302.87,627.506 1304.5,628C 1303.55,628.483 1302.55,628.649 1301.5,628.5C 1301.81,630.924 1301.47,633.257 1300.5,635.5C 1299.52,632.914 1299.19,630.247 1299.5,627.5 Z"/></g>
<g><path style="opacity:1" fill="#424242" d="M 1401.5,626.5 C 1402.76,627.514 1403.43,629.014 1403.5,631C 1403.33,632.5 1403.17,634 1403,635.5C 1402.97,632.633 1402.14,630.133 1400.5,628C 1401.06,627.617 1401.39,627.117 1401.5,626.5 Z"/></g>
<g><path style="opacity:1" fill="#464646" d="M 1414.5,625.5 C 1415.64,628.64 1415.81,631.973 1415,635.5C 1414.97,632.633 1414.14,630.133 1412.5,628C 1413.38,627.292 1414.05,626.458 1414.5,625.5 Z"/></g>
<g><path style="opacity:1" fill="#777777" d="M 1418.5,626.5 C 1420.34,626.639 1420.67,627.306 1419.5,628.5C 1418.7,628.043 1418.37,627.376 1418.5,626.5 Z"/></g>
<g><path style="opacity:1" fill="#787878" d="M 1428.5,626.5 C 1428.36,628.337 1427.69,628.67 1426.5,627.5C 1426.96,626.702 1427.62,626.369 1428.5,626.5 Z"/></g>
<g><path style="opacity:1" fill="#4a4a4a" d="M 1450.5,629.5 C 1449.18,629.33 1448.01,629.663 1447,630.5C 1446.33,629.167 1446.33,627.833 1447,626.5C 1447.98,627.814 1449.15,628.814 1450.5,629.5 Z"/></g>
<g><path style="opacity:1" fill="#bdbdbd" d="M 1473.5,625.5 C 1474.12,625.611 1474.62,625.944 1475,626.5C 1474.93,628.342 1475.1,630.009 1475.5,631.5C 1474.63,633.69 1472.96,634.69 1470.5,634.5C 1470.14,632.089 1471.14,630.589 1473.5,630C 1469.74,628.579 1469.74,627.079 1473.5,625.5 Z"/></g>
<g><path style="opacity:1" fill="#4a4a4a" d="M 1523.5,629.5 C 1522.18,629.33 1521.01,629.663 1520,630.5C 1519.33,629.167 1519.33,627.833 1520,626.5C 1520.98,627.814 1522.15,628.814 1523.5,629.5 Z"/></g>
<g><path style="opacity:1" fill="#f0f0f0" d="M 1274.5,628.5 C 1276.44,632.116 1275.44,634.116 1271.5,634.5C 1271.34,632.801 1271.51,631.134 1272,629.5C 1272.67,628.748 1273.5,628.414 1274.5,628.5 Z"/></g>
<g><path style="opacity:1" fill="#f2f2f2" d="M 1282.5,628.5 C 1283.5,628.5 1284.5,628.5 1285.5,628.5C 1285.5,630.5 1285.5,632.5 1285.5,634.5C 1284.5,634.5 1283.5,634.5 1282.5,634.5C 1282.5,632.5 1282.5,630.5 1282.5,628.5 Z"/></g>
<g><path style="opacity:1" fill="#f6f6f6" d="M 1293.5,628.5 C 1293.5,630.5 1293.5,632.5 1293.5,634.5C 1292.5,634.5 1291.5,634.5 1290.5,634.5C 1290.34,632.801 1290.51,631.134 1291,629.5C 1291.67,628.748 1292.5,628.414 1293.5,628.5 Z"/></g>
<g><path style="opacity:1" fill="#b3b3b3" d="M 1342.5,628.5 C 1344.18,629.183 1344.84,630.517 1344.5,632.5C 1342.9,632.232 1341.57,632.566 1340.5,633.5C 1339.83,633.5 1339.17,633.5 1338.5,633.5C 1338.5,632.833 1338.5,632.167 1338.5,631.5C 1340.43,631.229 1341.76,630.229 1342.5,628.5 Z"/></g>
<g><path style="opacity:1" fill="#4c4c4c" d="M 1348.5,625.5 C 1351.6,625.413 1351.93,625.913 1349.5,627C 1349.83,627.333 1350.17,627.667 1350.5,628C 1349.73,630.405 1349.23,632.905 1349,635.5C 1348.77,632.905 1348.27,630.405 1347.5,628C 1348.25,627.329 1348.59,626.496 1348.5,625.5 Z"/></g>
<g><path style="opacity:1" fill="#f2f2f2" d="M 1356.5,628.5 C 1356.5,630.5 1356.5,632.5 1356.5,634.5C 1355.5,634.5 1354.5,634.5 1353.5,634.5C 1353.5,632.5 1353.5,630.5 1353.5,628.5C 1354.5,628.5 1355.5,628.5 1356.5,628.5 Z"/></g>
<g><path style="opacity:1" fill="#6c6c6c" d="M 1385.5,626.5 C 1384.17,629.167 1384.17,631.833 1385.5,634.5C 1384.01,633.688 1383.34,632.355 1383.5,630.5C 1383.34,628.645 1384.01,627.312 1385.5,626.5 Z"/></g>
<g><path style="opacity:1" fill="#7a7a7a" d="M 1388.5,626.5 C 1391.17,629.167 1391.17,631.833 1388.5,634.5C 1388.5,631.833 1388.5,629.167 1388.5,626.5 Z"/></g>
<g><path style="opacity:1" fill="#757575" d="M 1393.5,626.5 C 1396.65,625.268 1398.32,626.601 1398.5,630.5C 1398.38,634.002 1396.71,635.502 1393.5,635C 1396.38,633.334 1397.21,630.834 1396,627.5C 1395.33,626.748 1394.5,626.414 1393.5,626.5 Z"/></g>
<g><path style="opacity:1" fill="#5c5c5c" d="M 1486.5,627.5 C 1487.89,629.847 1487.73,632.181 1486,634.5C 1486.11,632.111 1486.28,629.778 1486.5,627.5 Z"/></g>
<g><path style="opacity:1" fill="#4c4c4c" d="M 1493.5,628.5 C 1491.77,628.815 1490.11,628.981 1488.5,629C 1490.15,627.323 1491.82,627.156 1493.5,628.5 Z"/></g>
<g><path style="opacity:1" fill="#f1f1f1" d="M 1501.5,628.5 C 1501.5,630.5 1501.5,632.5 1501.5,634.5C 1500.5,634.5 1499.5,634.5 1498.5,634.5C 1498.5,632.5 1498.5,630.5 1498.5,628.5C 1499.5,628.5 1500.5,628.5 1501.5,628.5 Z"/></g>
<g><path style="opacity:1" fill="#575757" d="M 1505.5,628.5 C 1507.18,627.156 1508.85,627.323 1510.5,629C 1508.89,628.981 1507.23,628.815 1505.5,628.5 Z"/></g>
<g><path style="opacity:1" fill="#f3f3f3" d="M 258.5,628.5 C 259.693,628.97 260.36,629.97 260.5,631.5C 259.709,635.285 258.709,635.285 257.5,631.5C 257.685,630.416 258.018,629.416 258.5,628.5 Z"/></g>
<g><path style="opacity:1" fill="#4c4c4c" d="M 1308.5,627.5 C 1310.17,627.5 1311.83,627.5 1313.5,627.5C 1313.67,630.85 1313.5,634.183 1313,637.5C 1311.61,638.554 1310.11,638.72 1308.5,638C 1313.83,636.428 1313.67,635.261 1308,634.5C 1307.3,632.071 1307.46,629.738 1308.5,627.5 Z"/></g>
<g><path style="opacity:1" fill="#f0f0f0" d="M 1309.5,628.5 C 1311.48,628.484 1312.48,629.484 1312.5,631.5C 1311.17,635.5 1309.83,635.5 1308.5,631.5C 1308.69,630.416 1309.02,629.416 1309.5,628.5 Z"/></g>
<g><path style="opacity:1" fill="#4b4b4b" d="M 1323.5,627.5 C 1327.84,627.622 1328.17,627.955 1324.5,628.5C 1324.66,630.857 1324.5,633.19 1324,635.5C 1323.5,632.854 1323.34,630.187 1323.5,627.5 Z"/></g>
<g><path style="opacity:1" fill="#4c4c4c" d="M 1360.5,627.5 C 1362.17,627.5 1363.83,627.5 1365.5,627.5C 1365.67,630.85 1365.5,634.183 1365,637.5C 1363.61,638.554 1362.11,638.72 1360.5,638C 1365.83,636.428 1365.67,635.261 1360,634.5C 1359.3,632.071 1359.46,629.738 1360.5,627.5 Z"/></g>
<g><path style="opacity:1" fill="#f0f0f0" d="M 1361.5,628.5 C 1363.48,628.484 1364.48,629.484 1364.5,631.5C 1363.17,635.5 1361.83,635.5 1360.5,631.5C 1360.69,630.416 1361.02,629.416 1361.5,628.5 Z"/></g>
<g><path style="opacity:1" fill="#606060" d="M 1393.5,626.5 C 1392.94,628.801 1392.44,631.134 1392,633.5C 1391.33,631.5 1391.33,629.5 1392,627.5C 1392.38,626.944 1392.88,626.611 1393.5,626.5 Z"/></g>
<g><path style="opacity:1" fill="#6c6c6c" d="M 1421.5,632.5 C 1422.59,630.641 1423.43,628.641 1424,626.5C 1424.96,629.375 1424.13,631.375 1421.5,632.5 Z"/></g>
<g><path style="opacity:1" fill="#595959" d="M 1454.5,626.5 C 1454.8,627.897 1455.13,629.397 1455.5,631C 1454.87,631.75 1454.37,632.584 1454,633.5C 1453.3,631.071 1453.46,628.738 1454.5,626.5 Z"/></g>
<g><path style="opacity:1" fill="#656565" d="M 1266.5,637.5 C 1265.9,635.974 1264.73,634.974 1263,634.5C 1261.1,629.087 1262.93,626.753 1268.5,627.5C 1268.66,630.518 1268.5,633.518 1268,636.5C 1267.62,637.056 1267.12,637.389 1266.5,637.5 Z"/></g>
<g><path style="opacity:1" fill="#f9f9f9" d="M 1264.5,628.5 C 1265.69,628.97 1266.36,629.97 1266.5,631.5C 1265.71,635.285 1264.71,635.285 1263.5,631.5C 1263.69,630.416 1264.02,629.416 1264.5,628.5 Z"/></g>
<g><path style="opacity:1" fill="#707070" d="M 1274.5,628.5 C 1273.5,628.414 1272.67,628.748 1272,629.5C 1271.51,631.134 1271.34,632.801 1271.5,634.5C 1268.64,631.603 1269.14,629.269 1273,627.5C 1273.76,627.57 1274.26,627.903 1274.5,628.5 Z"/></g>
<g><path style="opacity:1" fill="#565656" d="M 1274.5,628.5 C 1275.69,628.97 1276.36,629.97 1276.5,631.5C 1276.32,635.275 1274.66,636.275 1271.5,634.5C 1275.44,634.116 1276.44,632.116 1274.5,628.5 Z"/></g>
<g><path style="opacity:1" fill="#777777" d="M 1282.5,628.5 C 1282.5,630.5 1282.5,632.5 1282.5,634.5C 1279.83,632.5 1279.83,630.5 1282.5,628.5 Z"/></g>
<g><path style="opacity:1" fill="#4f4f4f" d="M 1356.5,628.5 C 1355.5,628.5 1354.5,628.5 1353.5,628.5C 1353.5,630.5 1353.5,632.5 1353.5,634.5C 1354.5,634.5 1355.5,634.5 1356.5,634.5C 1355.43,635.434 1354.1,635.768 1352.5,635.5C 1352.33,632.15 1352.5,628.817 1353,625.5C 1353.98,626.814 1355.15,627.814 1356.5,628.5 Z"/></g>
<g><path style="opacity:1" fill="#656565" d="M 1466.5,627.5 C 1465.77,630.179 1464.94,632.846 1464,635.5C 1463.02,632.183 1463.86,629.516 1466.5,627.5 Z"/></g>
<g><path style="opacity:1" fill="#323232" d="M 1493.5,628.5 C 1494.22,630.556 1494.88,632.723 1495.5,635C 1493.29,635.789 1491.29,635.622 1489.5,634.5C 1490.82,634.67 1491.99,634.337 1493,633.5C 1493.53,632.184 1493.03,631.517 1491.5,631.5C 1492.55,630.778 1493.22,629.778 1493.5,628.5 Z"/></g>
<g><path style="opacity:1" fill="#626262" d="M 1501.5,628.5 C 1502.83,629.833 1504.17,629.833 1505.5,628.5C 1504.86,631.547 1505.86,633.713 1508.5,635C 1506.54,635.624 1504.87,635.124 1503.5,633.5C 1502.82,633.863 1502.15,634.196 1501.5,634.5C 1501.5,632.5 1501.5,630.5 1501.5,628.5 Z"/></g>
<g><path style="opacity:1" fill="#cbcbcb" d="M 1242.5,630.5 C 1242.63,632.216 1242.96,633.883 1243.5,635.5C 1241.27,636.228 1239.43,637.561 1238,639.5C 1237.67,639.167 1237.33,638.833 1237,638.5C 1234.77,640.377 1232.27,641.21 1229.5,641C 1232,639.92 1234.33,638.586 1236.5,637C 1234.01,636.374 1234.01,635.541 1236.5,634.5C 1236.17,634.167 1235.83,633.833 1235.5,633.5C 1233.92,634.456 1232.26,635.123 1230.5,635.5C 1233.78,632.334 1237.78,630.668 1242.5,630.5 Z"/></g>
<g><path style="opacity:1" fill="#606060" d="M 1338.5,631.5 C 1338.5,632.167 1338.5,632.833 1338.5,633.5C 1337.34,635.377 1335.67,635.877 1333.5,635C 1332,633.129 1330,632.129 1327.5,632C 1328.79,631.51 1330.13,631.343 1331.5,631.5C 1331.52,625.949 1333.85,624.449 1338.5,627C 1337.45,627.492 1336.45,627.326 1335.5,626.5C 1334.5,626.833 1333.83,627.5 1333.5,628.5C 1335.54,629.065 1337.21,630.065 1338.5,631.5 Z"/></g>
<g><path style="opacity:1" fill="#f8f8f8" d="M 1334.5,630.5 C 1337.86,631.203 1338.19,632.537 1335.5,634.5C 1333.36,633.563 1333.02,632.23 1334.5,630.5 Z"/></g>
<g><path style="opacity:1" fill="#767676" d="M 1377.5,633.5 C 1379.7,631.738 1380.87,629.404 1381,626.5C 1382.6,629.971 1381.43,632.304 1377.5,633.5 Z"/></g>
<g><path style="opacity:1" fill="#636363" d="M 1450.5,629.5 C 1451.59,629.62 1452.25,630.287 1452.5,631.5C 1452.46,632.416 1452.12,633.083 1451.5,633.5C 1451.57,632.041 1451.23,630.708 1450.5,629.5 Z"/></g>
<g><path style="opacity:1" fill="#636363" d="M 1523.5,629.5 C 1524.59,629.62 1525.25,630.287 1525.5,631.5C 1525.46,632.416 1525.12,633.083 1524.5,633.5C 1524.57,632.041 1524.23,630.708 1523.5,629.5 Z"/></g>
<g><path style="opacity:1" fill="#eff0ef" d="M 236.5,632.5 C 237.99,638.033 241.657,640.033 247.5,638.5C 248.96,640.463 250.627,642.296 252.5,644C 250.867,644.48 249.534,645.313 248.5,646.5C 247.345,646.422 246.012,646.088 244.5,645.5C 245.77,643.452 246.103,641.452 245.5,639.5C 243.832,644.678 241.499,649.511 238.5,654C 229.516,658.409 223.016,655.909 219,646.5C 217.93,642.858 218.764,639.858 221.5,637.5C 225.837,634.054 230.837,632.388 236.5,632.5 Z"/></g>
<g><path style="opacity:1" fill="#787878" d="M 1293.5,628.5 C 1296.17,630.5 1296.17,632.5 1293.5,634.5C 1293.5,632.5 1293.5,630.5 1293.5,628.5 Z"/></g>
<g><path style="opacity:1" fill="#414141" d="M 1316.5,627.5 C 1319.95,626.756 1321.62,628.09 1321.5,631.5C 1315.3,631.574 1314.97,632.741 1320.5,635C 1319.17,635.667 1317.83,635.667 1316.5,635C 1315.22,632.502 1315.22,630.002 1316.5,627.5 Z"/></g>
<g><path style="opacity:1" fill="#fafafa" d="M 1317.5,628.5 C 1318.76,628.461 1319.76,628.961 1320.5,630C 1319.17,630.667 1317.83,630.667 1316.5,630C 1317.06,629.617 1317.39,629.117 1317.5,628.5 Z"/></g>
<g><path style="opacity:1" fill="#757575" d="M 1356.5,628.5 C 1359.17,630.5 1359.17,632.5 1356.5,634.5C 1356.5,632.5 1356.5,630.5 1356.5,628.5 Z"/></g>
<g><path style="opacity:1" fill="#3b3b3b" d="M 1431.5,634.5 C 1431.5,633.167 1431.5,631.833 1431.5,630.5C 1433.48,632.168 1435.81,632.834 1438.5,632.5C 1438.66,631.127 1438.49,629.793 1438,628.5C 1437.35,629.696 1436.85,629.696 1436.5,628.5C 1437.14,627.354 1437.98,626.354 1439,625.5C 1439.23,628.095 1439.73,630.595 1440.5,633C 1439.87,633.75 1439.37,634.584 1439,635.5C 1436.82,633.168 1434.32,632.835 1431.5,634.5 Z"/></g>
<g><path style="opacity:1" fill="#616161" d="M 1491.5,631.5 C 1490.45,632.222 1489.78,633.222 1489.5,634.5C 1488.6,633.791 1488.26,632.791 1488.5,631.5C 1489.5,631.5 1490.5,631.5 1491.5,631.5 Z"/></g>
<g><path style="opacity:1" fill="#eaeaea" d="M 1491.5,631.5 C 1493.03,631.517 1493.53,632.184 1493,633.5C 1491.99,634.337 1490.82,634.67 1489.5,634.5C 1489.78,633.222 1490.45,632.222 1491.5,631.5 Z"/></g>
<g><path style="opacity:1" fill="#d7d7d7" d="M 258.5,627.5 C 257.883,627.611 257.383,627.944 257,628.5C 256.333,630.5 256.333,632.5 257,634.5C 258.729,634.974 259.895,635.974 260.5,637.5C 259.178,637.67 258.011,637.337 257,636.5C 256.536,637.094 256.369,637.761 256.5,638.5C 256.631,639.376 256.298,640.043 255.5,640.5C 254.113,638.79 252.779,637.123 251.5,635.5C 252.833,632.5 252.833,629.5 251.5,626.5C 253.735,625.772 255.568,624.439 257,622.5C 257.333,622.833 257.667,623.167 258,623.5C 260.231,621.623 262.731,620.79 265.5,621C 263.5,622 261.5,623 259.5,624C 258.304,624.654 258.304,625.154 259.5,625.5C 280.174,617.667 300.841,610.167 321.5,603C 300.624,611.782 279.624,619.949 258.5,627.5 Z"/></g>
<g><path style="opacity:1" fill="#4c4c4c" d="M 1475.5,631.5 C 1475.34,635.273 1473.68,636.273 1470.5,634.5C 1472.96,634.69 1474.63,633.69 1475.5,631.5 Z"/></g>
<g><path style="opacity:1" fill="#171717" d="M 1377.5,633.5 C 1378.95,634.302 1380.62,634.802 1382.5,635C 1380.42,635.808 1378.42,635.641 1376.5,634.5C 1376.62,633.893 1376.96,633.56 1377.5,633.5 Z"/></g>
<g><path style="opacity:1" fill="#202020" d="M 1421.5,632.5 C 1421.39,633.117 1421.06,633.617 1420.5,634C 1421.83,634.333 1423.17,634.667 1424.5,635C 1422.5,635.667 1420.5,635.667 1418.5,635C 1419.08,633.583 1420.08,632.75 1421.5,632.5 Z"/></g>
<g><path style="opacity:1" fill="#5b5b5b" d="M 1431.5,634.5 C 1429.58,635.94 1427.91,635.607 1426.5,633.5C 1426.67,633.167 1426.83,632.833 1427,632.5C 1428.11,634.037 1429.61,634.703 1431.5,634.5 Z"/></g>
<g><path style="opacity:1" fill="#555555" d="M 1451.5,633.5 C 1450.8,635.344 1449.46,635.844 1447.5,635C 1448.9,634.59 1450.23,634.09 1451.5,633.5 Z"/></g>
<g><path style="opacity:1" fill="#555555" d="M 1524.5,633.5 C 1523.8,635.344 1522.46,635.844 1520.5,635C 1521.9,634.59 1523.23,634.09 1524.5,633.5 Z"/></g>
<g><path style="opacity:1" fill="#898989" d="M 1527.5,625.5 C 1531.29,629.584 1531.46,633.918 1528,638.5C 1528.82,634.188 1528.66,629.854 1527.5,625.5 Z"/></g>
<g><path style="opacity:1" fill="#aeb2ac" d="M 236.5,628.5 C 236.5,629.833 236.5,631.167 236.5,632.5C 230.837,632.388 225.837,634.054 221.5,637.5C 224.728,633.354 229.061,631.188 234.5,631C 235.066,630.005 235.733,629.172 236.5,628.5 Z"/></g>
<g><path style="opacity:1" fill="#fefefe" d="M 759.5,126.5 C 759.5,128.5 759.5,130.5 759.5,132.5C 761.483,132.157 762.817,132.824 763.5,134.5C 764.167,134.167 764.833,133.833 765.5,133.5C 890.873,175.73 998.706,244.73 1089,340.5C 1129.31,384.65 1163.15,433.317 1190.5,486.5C 1196.66,500.151 1203.33,513.484 1210.5,526.5C 1219.18,543.197 1226.52,560.531 1232.5,578.5C 1236.81,591.135 1241.15,603.802 1245.5,616.5C 1244.83,617.167 1244.17,617.833 1243.5,618.5C 1244.86,620.186 1246.19,621.852 1247.5,623.5C 1246.17,624.5 1244.83,625.5 1243.5,626.5C 1209.89,609.097 1174.55,593.43 1137.5,579.5C 1051.96,544.27 961.965,520.937 867.5,509.5C 865.826,493.444 863.66,477.444 861,461.5C 850.398,403.758 836.065,347.091 818,291.5C 819.667,294.5 821.333,297.5 823,300.5C 823.654,301.696 824.154,301.696 824.5,300.5C 820.466,293.627 816.633,286.627 813,279.5C 809.393,268.678 805.393,258.012 801,247.5C 802.294,253.557 804.127,259.557 806.5,265.5C 835.319,343.459 855.319,424.792 866.5,509.5C 794.387,500.727 722.387,500.394 650.5,508.5C 643.07,508.302 635.736,508.969 628.5,510.5C 637.136,432.611 654.636,356.611 681,282.5C 690.317,265.533 698.817,248.2 706.5,230.5C 719.041,205.229 730.041,179.229 739.5,152.5C 742.874,150.414 744.708,147.414 745,143.5C 743.748,145.001 742.748,146.668 742,148.5C 741.333,149.833 740.667,149.833 740,148.5C 739.626,149.416 739.126,150.25 738.5,151C 734.647,151.587 730.98,151.254 727.5,150C 728.91,151.372 730.577,152.205 732.5,152.5C 732.804,153.15 733.137,153.817 733.5,154.5C 717.738,186.464 703.738,219.131 691.5,252.5C 666.872,314.282 648.372,378.282 636,444.5C 632.014,466.388 628.847,488.388 626.5,510.5C 612.121,512.34 597.787,514.507 583.5,517C 597.504,515.833 611.504,514.333 625.5,512.5C 617.304,591.868 617.637,671.201 626.5,750.5C 599.34,747.453 572.34,743.62 545.5,739C 572.606,744.907 599.939,749.407 627.5,752.5C 627.833,759.167 628.167,759.167 628.5,752.5C 700.613,761.371 772.613,761.704 844.5,753.5C 851.93,753.698 859.264,753.031 866.5,751.5C 857.862,829.396 840.362,905.396 814,979.5C 804.683,996.467 796.183,1013.8 788.5,1031.5C 773.361,1062.24 760.361,1093.91 749.5,1126.5C 748.167,1126.5 746.833,1126.5 745.5,1126.5C 745.674,1124.14 746.007,1121.81 746.5,1119.5C 745.167,1119.5 743.833,1119.5 742.5,1119.5C 738.434,1104.47 733.268,1089.8 727,1075.5C 726.833,1076 726.667,1076.5 726.5,1077C 731.831,1090.33 736.331,1103.83 740,1117.5C 737.667,1112.83 735.333,1108.17 733,1103.5C 732.333,1104.5 732.333,1105.5 733,1106.5C 736.55,1113.6 740.05,1120.6 743.5,1127.5C 741.457,1128.58 740.124,1130.25 739.5,1132.5C 625.46,1094.68 524.794,1035.18 437.5,954C 384.02,902.053 340.02,843.22 305.5,777.5C 299.008,763.182 292.008,749.182 284.5,735.5C 270.564,706.71 258.564,677.043 248.5,646.5C 249.534,645.313 250.867,644.48 252.5,644C 250.627,642.296 248.96,640.463 247.5,638.5C 248.833,637.5 250.167,636.5 251.5,635.5C 252.779,637.123 254.113,638.79 255.5,640.5C 256.298,640.043 256.631,639.376 256.5,638.5C 257.167,638.5 257.833,638.5 258.5,638.5C 290.617,655.057 323.617,669.723 357.5,682.5C 369.378,688.188 381.712,693.021 394.5,697C 399.326,699.246 403.992,701.746 408.5,704.5C 408.489,703.559 408.989,702.892 410,702.5C 453.935,718.024 498.768,729.858 544.5,738C 494.677,727.294 445.677,713.627 397.5,697C 392.09,693.628 386.423,690.795 380.5,688.5C 342.507,668.274 303.174,650.941 262.5,636.5C 262.5,633.5 262.5,630.5 262.5,627.5C 261.167,627.5 259.833,627.5 258.5,627.5C 279.624,619.949 300.624,611.782 321.5,603C 300.841,610.167 280.174,617.667 259.5,625.5C 258.304,625.154 258.304,624.654 259.5,624C 261.5,623 263.5,622 265.5,621C 262.731,620.79 260.231,621.623 258,623.5C 257.667,623.167 257.333,622.833 257,622.5C 255.568,624.439 253.735,625.772 251.5,626.5C 248.766,623.857 245.433,622.857 241.5,623.5C 242.919,622.549 244.585,622.216 246.5,622.5C 284.664,506.428 345.498,404.428 429,316.5C 512.91,233.592 611.077,173.092 723.5,135C 724.373,133.955 725.373,133.122 726.5,132.5C 728.746,131.545 731.079,130.878 733.5,130.5C 733.491,132.308 733.991,133.975 735,135.5C 737.948,133.957 738.782,131.79 737.5,129C 738.094,128.536 738.761,128.369 739.5,128.5C 740.691,133.771 744.024,136.104 749.5,135.5C 749.682,137.591 749.348,139.591 748.5,141.5C 749.628,142.262 750.795,142.929 752,143.5C 756.273,156.321 760.94,168.987 766,181.5C 762.327,168.952 758.16,156.452 753.5,144C 753.667,143.5 753.833,143 754,142.5C 756.667,147.833 759.333,153.167 762,158.5C 762.167,158 762.333,157.5 762.5,157C 758.919,149.34 755.252,141.84 751.5,134.5C 753.543,133.421 754.876,131.754 755.5,129.5C 756.496,129.414 757.329,129.748 758,130.5C 758.21,128.942 758.71,127.609 759.5,126.5 Z"/></g>
<g><path style="opacity:1" fill="#797979" d="M 497.5,628.5 C 498.461,630.265 498.795,632.265 498.5,634.5C 500.109,634.094 501.443,634.094 502.5,634.5C 497.141,635.816 495.474,633.816 497.5,628.5 Z"/></g>
<g><path style="opacity:1" fill="#828282" d="M 352.5,627.5 C 353.935,628.79 354.935,630.456 355.5,632.5C 356.427,630.887 357.261,629.221 358,627.5C 358.395,630.597 357.562,633.264 355.5,635.5C 353.599,633.272 352.599,630.605 352.5,627.5 Z"/></g>
<g><path style="opacity:1" fill="#6c6c6c" d="M 519.5,625.5 C 523.103,629.438 523.437,633.772 520.5,638.5C 520.167,638.333 519.833,638.167 519.5,638C 521.939,633.881 521.939,629.714 519.5,625.5 Z"/></g>
<g><path style="opacity:1" fill="#2a2a2a" d="M 515.5,625.5 C 516.21,627.893 516.877,630.393 517.5,633C 516.874,633.75 516.374,634.584 516,635.5C 514.796,634.141 513.296,633.141 511.5,632.5C 512.557,632.094 513.891,632.094 515.5,632.5C 514.933,630.031 514.933,627.698 515.5,625.5 Z"/></g>
<g><path style="opacity:1" fill="#3d3d3d" d="M 483.5,631.5 C 481.94,633.129 482.273,634.296 484.5,635C 483.552,635.483 482.552,635.649 481.5,635.5C 481.157,633.517 481.824,632.183 483.5,631.5 Z"/></g>
<g><path style="opacity:1" fill="#656565" d="M 443.5,629.5 C 444.117,629.611 444.617,629.944 445,630.5C 445.983,625.646 448.483,624.479 452.5,627C 451.451,627.492 450.451,627.326 449.5,626.5C 448.5,626.833 447.833,627.5 447.5,628.5C 451.552,628.707 453.052,630.707 452,634.5C 449.618,635.866 447.452,635.533 445.5,633.5C 443.809,635.256 441.809,635.756 439.5,635C 438.549,634.282 438.383,633.449 439,632.5C 442.462,635.244 443.962,634.244 443.5,629.5 Z"/></g>
<g><path style="opacity:1" fill="#717171" d="M 385.5,626.5 C 385.337,628.857 385.503,631.19 386,633.5C 388.29,634.41 389.456,633.41 389.5,630.5C 389.154,629.151 388.821,627.817 388.5,626.5C 390.763,628.766 391.096,631.433 389.5,634.5C 384.05,635.527 382.216,633.193 384,627.5C 384.383,626.944 384.883,626.611 385.5,626.5 Z"/></g>
<g><path style="opacity:1" fill="#717171" d="M 377.5,626.5 C 377.337,628.857 377.503,631.19 378,633.5C 380.29,634.41 381.456,633.41 381.5,630.5C 381.154,629.151 380.821,627.817 380.5,626.5C 382.763,628.766 383.096,631.433 381.5,634.5C 376.05,635.527 374.216,633.193 376,627.5C 376.383,626.944 376.883,626.611 377.5,626.5 Z"/></g>
<g><path style="opacity:1" fill="#4b4b4b" d="M 328.5,628.5 C 331.317,626.95 332.65,627.95 332.5,631.5C 332.597,634.911 330.93,636.245 327.5,635.5C 326.205,635.11 326.039,632.443 327,627.5C 327.383,628.056 327.883,628.389 328.5,628.5 Z"/></g>
<g><path style="opacity:1" fill="#414141" d="M 310.5,627.5 C 313.95,626.756 315.616,628.09 315.5,631.5C 309.304,631.574 308.97,632.741 314.5,635C 313.167,635.667 311.833,635.667 310.5,635C 309.221,632.502 309.221,630.002 310.5,627.5 Z"/></g>
<g><path style="opacity:1" fill="#787878" d="M 287.5,628.5 C 290.167,630.5 290.167,632.5 287.5,634.5C 287.5,632.5 287.5,630.5 287.5,628.5 Z"/></g>
<g><path style="opacity:1" fill="#636363" d="M 463.5,630.5 C 463.5,631.833 463.5,633.167 463.5,634.5C 464.5,634.5 465.5,634.5 466.5,634.5C 465.116,635.801 463.616,635.801 462,634.5C 461.156,632.537 461.656,631.204 463.5,630.5 Z"/></g>
<g><path style="opacity:1" fill="#525252" d="M 416.5,629.5 C 416.141,631.371 415.141,632.871 413.5,634C 414.833,634.333 416.167,634.667 417.5,635C 410.127,635.423 409.794,633.59 416.5,629.5 Z"/></g>
<g><path style="opacity:1" fill="#525252" d="M 373.5,629.5 C 373.141,631.371 372.141,632.871 370.5,634C 371.833,634.333 373.167,634.667 374.5,635C 367.127,635.423 366.794,633.59 373.5,629.5 Z"/></g>
<g><path style="opacity:1" fill="#767676" d="M 349.5,626.5 C 351.914,627.777 352.081,629.443 350,631.5C 349.184,632.823 348.017,633.489 346.5,633.5C 348.85,631.787 349.85,629.453 349.5,626.5 Z"/></g>
<g><path style="opacity:1" fill="#525252" d="M 474.5,625.5 C 478.243,625.459 478.41,626.126 475,627.5C 474.667,629.934 475.834,630.934 478.5,630.5C 479.465,626.834 479.632,628.168 479,634.5C 477.951,635.517 476.784,635.684 475.5,635C 476.91,634.632 477.91,633.799 478.5,632.5C 473.801,631.993 472.468,629.659 474.5,625.5 Z"/></g>
<g><path style="opacity:1" fill="#f6f6f6" d="M 463.5,630.5 C 465.912,630.694 466.912,632.027 466.5,634.5C 465.5,634.5 464.5,634.5 463.5,634.5C 463.5,633.167 463.5,631.833 463.5,630.5 Z"/></g>
<g><path style="opacity:1" fill="#f8f8f8" d="M 448.5,630.5 C 451.861,631.203 452.194,632.537 449.5,634.5C 447.358,633.563 447.024,632.23 448.5,630.5 Z"/></g>
<g><path style="opacity:1" fill="#5f5f5f" d="M 423.5,626.5 C 424.933,628.914 425.433,631.581 425,634.5C 423.612,635.554 422.112,635.72 420.5,635C 425.214,633.944 425.547,632.277 421.5,630C 422.973,629.29 423.64,628.124 423.5,626.5 Z"/></g>
<g><path style="opacity:1" fill="#808080" d="M 364.5,627.5 C 365.059,631.034 366.059,634.534 367.5,638C 367.167,638.167 366.833,638.333 366.5,638.5C 363.723,635.182 363.056,631.515 364.5,627.5 Z"/></g>
<g><path style="opacity:1" fill="#575757" d="M 346.5,626.5 C 344.816,628 343.149,629.667 341.5,631.5C 342.532,634.193 344.198,634.86 346.5,633.5C 347.952,634.302 349.618,634.802 351.5,635C 347.238,635.917 343.238,635.417 339.5,633.5C 339.822,631.278 339.155,629.444 337.5,628C 338.996,627.493 340.163,627.993 341,629.5C 342.583,628.029 344.417,627.029 346.5,626.5 Z"/></g>
<g><path style="opacity:1" fill="#777777" d="M 276.5,628.5 C 276.5,630.5 276.5,632.5 276.5,634.5C 273.833,632.5 273.833,630.5 276.5,628.5 Z"/></g>
<g><path style="opacity:1" fill="#565656" d="M 268.5,628.5 C 269.693,628.97 270.36,629.97 270.5,631.5C 270.324,635.275 268.657,636.275 265.5,634.5C 269.444,634.116 270.444,632.116 268.5,628.5 Z"/></g>
<g><path style="opacity:1" fill="#707070" d="M 268.5,628.5 C 267.504,628.414 266.671,628.748 266,629.5C 265.506,631.134 265.34,632.801 265.5,634.5C 262.637,631.603 263.137,629.269 267,627.5C 267.765,627.57 268.265,627.903 268.5,628.5 Z"/></g>
<g><path style="opacity:1" fill="#4c4c4c" d="M 489.5,625.5 C 490.83,626.832 492.497,627.665 494.5,628C 496.98,633.438 495.313,635.938 489.5,635.5C 489.5,632.167 489.5,628.833 489.5,625.5 Z"/></g>
<g><path style="opacity:1" fill="#f0f0f0" d="M 491.5,628.5 C 493.484,628.484 494.484,629.484 494.5,631.5C 493.167,635.5 491.833,635.5 490.5,631.5C 490.685,630.416 491.018,629.416 491.5,628.5 Z"/></g>
<g><path style="opacity:1" fill="#494949" d="M 443.5,629.5 C 442.07,629.421 440.736,629.754 439.5,630.5C 438.948,628.997 438.948,627.331 439.5,625.5C 445.324,625.347 445.657,626.013 440.5,627.5C 441.602,628.176 442.602,628.842 443.5,629.5 Z"/></g>
<g><path style="opacity:1" fill="#4b4b4b" d="M 317.5,627.5 C 321.838,627.622 322.172,627.955 318.5,628.5C 318.663,630.857 318.497,633.19 318,635.5C 317.503,632.854 317.336,630.187 317.5,627.5 Z"/></g>
<g><path style="opacity:1" fill="#4c4c4c" d="M 302.5,627.5 C 304.167,627.5 305.833,627.5 307.5,627.5C 307.665,630.85 307.498,634.183 307,637.5C 305.612,638.554 304.112,638.72 302.5,638C 307.832,636.428 307.666,635.261 302,634.5C 301.297,632.071 301.463,629.738 302.5,627.5 Z"/></g>
<g><path style="opacity:1" fill="#f0f0f0" d="M 303.5,628.5 C 305.484,628.484 306.484,629.484 306.5,631.5C 305.167,635.5 303.833,635.5 302.5,631.5C 302.685,630.416 303.018,629.416 303.5,628.5 Z"/></g>
<g><path style="opacity:1" fill="#434343" d="M 483.5,631.5 C 486.287,629.795 485.954,628.628 482.5,628C 484.112,627.28 485.612,627.446 487,628.5C 487.667,630.833 487.667,633.167 487,635.5C 485.312,634.675 485.145,633.675 486.5,632.5C 485.675,631.614 484.675,631.281 483.5,631.5 Z"/></g>
<g><path style="opacity:1" fill="#636363" d="M 430.5,625.5 C 431.777,626.694 432.444,628.36 432.5,630.5C 432.167,632.167 431.833,633.833 431.5,635.5C 430.107,634.137 428.441,633.304 426.5,633C 427.793,632.51 429.127,632.343 430.5,632.5C 429.933,630.031 429.933,627.698 430.5,625.5 Z"/></g>
<g><path style="opacity:1" fill="#4d4d4d" d="M 339.5,633.5 C 338.448,635.256 336.781,635.923 334.5,635.5C 334.768,632.881 334.435,630.381 333.5,628C 334.5,624.667 335.5,624.667 336.5,628C 335.577,630.041 335.244,632.208 335.5,634.5C 336.959,634.567 338.292,634.234 339.5,633.5 Z"/></g>
<g><path style="opacity:1" fill="#f1f1f1" d="M 328.5,628.5 C 330.484,628.484 331.484,629.484 331.5,631.5C 330.167,635.5 328.833,635.5 327.5,631.5C 327.685,630.416 328.018,629.416 328.5,628.5 Z"/></g>
<g><path style="opacity:1" fill="#fafafa" d="M 311.5,628.5 C 312.756,628.461 313.756,628.961 314.5,630C 313.167,630.667 311.833,630.667 310.5,630C 311.056,629.617 311.389,629.117 311.5,628.5 Z"/></g>
<g><path style="opacity:1" fill="#f6f6f6" d="M 287.5,628.5 C 287.5,630.5 287.5,632.5 287.5,634.5C 286.5,634.5 285.5,634.5 284.5,634.5C 284.34,632.801 284.506,631.134 285,629.5C 285.671,628.748 286.504,628.414 287.5,628.5 Z"/></g>
<g><path style="opacity:1" fill="#f2f2f2" d="M 276.5,628.5 C 277.5,628.5 278.5,628.5 279.5,628.5C 279.5,630.5 279.5,632.5 279.5,634.5C 278.5,634.5 277.5,634.5 276.5,634.5C 276.5,632.5 276.5,630.5 276.5,628.5 Z"/></g>
<g><path style="opacity:1" fill="#f0f0f0" d="M 268.5,628.5 C 270.444,632.116 269.444,634.116 265.5,634.5C 265.34,632.801 265.506,631.134 266,629.5C 266.671,628.748 267.504,628.414 268.5,628.5 Z"/></g>
<g><path style="opacity:1" fill="#8d8d8d" d="M 466.5,634.5 C 466.912,632.027 465.912,630.694 463.5,630.5C 461.74,626.43 462.906,625.097 467,626.5C 467.684,627.784 467.517,628.951 466.5,630C 469.106,631.65 469.106,633.15 466.5,634.5 Z"/></g>
<g><path style="opacity:1" fill="#525252" d="M 454.5,626.5 C 456.364,625.207 458.364,625.207 460.5,626.5C 458.527,629.246 457.027,632.246 456,635.5C 455.802,632.422 456.635,629.588 458.5,627C 457.207,626.51 455.873,626.343 454.5,626.5 Z"/></g>
<g><path style="opacity:1" fill="#424242" d="M 405.5,626.5 C 406.765,627.514 407.431,629.014 407.5,631C 407.333,632.5 407.167,634 407,635.5C 406.971,632.633 406.138,630.133 404.5,628C 405.056,627.617 405.389,627.117 405.5,626.5 Z"/></g>
<g><path style="opacity:1" fill="#6e6e6e" d="M 293.5,627.5 C 295.199,627.34 296.866,627.506 298.5,628C 297.552,628.483 296.552,628.649 295.5,628.5C 295.808,630.924 295.474,633.257 294.5,635.5C 293.52,632.914 293.187,630.247 293.5,627.5 Z"/></g>
<g><path style="opacity:1" fill="#818281" d="M 290.5,627.5 C 291.748,628.334 292.415,629.667 292.5,631.5C 292.167,632.833 291.833,634.167 291.5,635.5C 290.52,632.914 290.187,630.247 290.5,627.5 Z"/></g>
<g><path style="opacity:1" fill="#777777" d="M 287.5,628.5 C 286.504,628.414 285.671,628.748 285,629.5C 284.506,631.134 284.34,632.801 284.5,634.5C 285.5,634.5 286.5,634.5 287.5,634.5C 286.791,635.404 285.791,635.737 284.5,635.5C 284.719,636.675 284.386,637.675 283.5,638.5C 282.511,634.893 282.177,631.226 282.5,627.5C 284.415,627.216 286.081,627.549 287.5,628.5 Z"/></g>
<g><path style="opacity:1" fill="#6b6b6b" d="M 416.5,629.5 C 415.849,626.17 414.516,625.837 412.5,628.5C 411.479,627.998 411.312,627.332 412,626.5C 413.388,625.446 414.888,625.28 416.5,626C 417.791,627.292 417.791,628.458 416.5,629.5 Z"/></g>
<g><path style="opacity:1" fill="#dcdcdc" d="M 388.5,626.5 C 388.821,627.817 389.154,629.151 389.5,630.5C 389.456,633.41 388.29,634.41 386,633.5C 385.503,631.19 385.337,628.857 385.5,626.5C 386.5,625.167 387.5,625.167 388.5,626.5 Z"/></g>
<g><path style="opacity:1" fill="#dcdcdc" d="M 380.5,626.5 C 380.821,627.817 381.154,629.151 381.5,630.5C 381.456,633.41 380.29,634.41 378,633.5C 377.503,631.19 377.337,628.857 377.5,626.5C 378.5,625.167 379.5,625.167 380.5,626.5 Z"/></g>
<g><path style="opacity:1" fill="#6b6b6b" d="M 373.5,629.5 C 372.849,626.17 371.516,625.837 369.5,628.5C 368.479,627.998 368.312,627.332 369,626.5C 370.388,625.446 371.888,625.28 373.5,626C 374.791,627.292 374.791,628.458 373.5,629.5 Z"/></g>
<g><path style="opacity:1" fill="#e0e0e0" d="M 349.5,626.5 C 349.85,629.453 348.85,631.787 346.5,633.5C 344.198,634.86 342.532,634.193 341.5,631.5C 343.149,629.667 344.816,628 346.5,626.5C 347.5,625.167 348.5,625.167 349.5,626.5 Z"/></g>
<g><path style="opacity:1" fill="#6c6c6c" d="M 395.5,625.5 C 396.806,628.687 396.806,632.02 395.5,635.5C 394.996,632.701 393.996,630.201 392.5,628C 393.942,627.623 394.942,626.79 395.5,625.5 Z"/></g>
<g><path style="opacity:1" fill="#6c6c6c" d="M 276.5,634.5 C 277.5,634.5 278.5,634.5 279.5,634.5C 279.5,632.5 279.5,630.5 279.5,628.5C 278.5,628.5 277.5,628.5 276.5,628.5C 277.868,627.694 279.201,626.694 280.5,625.5C 281.487,628.768 281.82,632.102 281.5,635.5C 279.585,635.784 277.919,635.451 276.5,634.5 Z"/></g>
<g><path style="opacity:1" fill="#7a7a7a" d="M 271.5,625.5 C 272.777,626.694 273.444,628.36 273.5,630.5C 273.167,632.167 272.833,633.833 272.5,635.5C 271.513,632.232 271.18,628.898 271.5,625.5 Z"/></g>
<g><path style="opacity:1" fill="#dddddd" d="M 559.5,520.5 C 561.527,520.338 563.527,520.505 565.5,521C 509.566,532.067 454.566,546.734 400.5,565C 384.323,573.589 367.989,581.922 351.5,590C 350.5,590.667 349.5,590.667 348.5,590C 360.5,584 372.5,578 384.5,572C 379.896,573.199 375.229,574.199 370.5,575C 430.944,551.932 493.944,533.765 559.5,520.5 Z"/></g>
<g><path style="opacity:1" fill="#f2f2f2" d="M 732.5,152.5 C 734.669,153.082 737.002,153.082 739.5,152.5C 730.041,179.229 719.041,205.229 706.5,230.5C 700.108,242.282 693.941,254.282 688,266.5C 689.032,261.885 690.198,257.218 691.5,252.5C 703.738,219.131 717.738,186.464 733.5,154.5C 733.137,153.817 732.804,153.15 732.5,152.5 Z"/></g>
<g><path style="opacity:1" fill="#d9dad9" d="M 751.5,134.5 C 755.252,141.84 758.919,149.34 762.5,157C 762.333,157.5 762.167,158 762,158.5C 759.333,153.167 756.667,147.833 754,142.5C 753.833,143 753.667,143.5 753.5,144C 758.16,156.452 762.327,168.952 766,181.5C 760.94,168.987 756.273,156.321 752,143.5C 750.795,142.929 749.628,142.262 748.5,141.5C 749.348,139.591 749.682,137.591 749.5,135.5C 750.167,135.167 750.833,134.833 751.5,134.5 Z"/></g>
<g><path style="opacity:1" fill="#a8a8a8" d="M 739.5,152.5 C 737.002,153.082 734.669,153.082 732.5,152.5C 730.577,152.205 728.91,151.372 727.5,150C 730.98,151.254 734.647,151.587 738.5,151C 739.126,150.25 739.626,149.416 740,148.5C 740.667,149.833 741.333,149.833 742,148.5C 742.748,146.668 743.748,145.001 745,143.5C 744.708,147.414 742.874,150.414 739.5,152.5 Z"/></g>
<g><path style="opacity:1" fill="#222222" d="M 763.5,134.5 C 762.292,135.782 760.958,135.782 759.5,134.5C 760.557,134.094 761.891,134.094 763.5,134.5 Z"/></g>
<g><path style="opacity:1" fill="#fbfbfb" d="M 1243.5,635.5 C 1244.83,636.5 1246.17,637.5 1247.5,638.5C 1246.09,644.076 1244.09,649.409 1241.5,654.5C 1240.55,654.987 1239.55,655.32 1238.5,655.5C 1235.08,654.923 1232.08,653.589 1229.5,651.5C 1228.12,649.04 1227.12,646.374 1226.5,643.5C 1227.32,640.533 1228.65,637.866 1230.5,635.5C 1232.26,635.123 1233.92,634.456 1235.5,633.5C 1235.83,633.833 1236.17,634.167 1236.5,634.5C 1234.01,635.541 1234.01,636.374 1236.5,637C 1234.33,638.586 1232,639.92 1229.5,641C 1232.27,641.21 1234.77,640.377 1237,638.5C 1237.33,638.833 1237.67,639.167 1238,639.5C 1239.43,637.561 1241.27,636.228 1243.5,635.5 Z"/></g>
<g><path style="opacity:1" fill="#717171" d="M 1371.5,628.5 C 1372.64,631.32 1373.14,634.32 1373,637.5C 1371.71,634.649 1371.21,631.649 1371.5,628.5 Z"/></g>
<g><path style="opacity:1" fill="#1d1d1d" d="M 260.5,637.5 C 260.158,638.338 259.492,638.672 258.5,638.5C 257.833,638.5 257.167,638.5 256.5,638.5C 256.369,637.761 256.536,637.094 257,636.5C 258.011,637.337 259.178,637.67 260.5,637.5 Z"/></g>
<g><path style="opacity:1" fill="#222222" d="M 1266.5,637.5 C 1265.29,638.782 1263.96,638.782 1262.5,637.5C 1263.56,637.094 1264.89,637.094 1266.5,637.5 Z"/></g>
<g><path style="opacity:1" fill="#f1f1f1" d="M 262.5,636.5 C 303.174,650.941 342.507,668.274 380.5,688.5C 381.85,689.65 381.684,690.317 380,690.5C 372.629,687.395 365.129,684.728 357.5,682.5C 323.617,669.723 290.617,655.057 258.5,638.5C 259.492,638.672 260.158,638.338 260.5,637.5C 261.492,637.672 262.158,637.338 262.5,636.5 Z"/></g>
<g><path style="opacity:1" fill="#cccecb" d="M 1247.5,638.5 C 1249.5,638.5 1251.5,638.5 1253.5,638.5C 1250.99,643.675 1248.33,648.842 1245.5,654C 1239.2,657.936 1233.87,657.103 1229.5,651.5C 1232.08,653.589 1235.08,654.923 1238.5,655.5C 1239.55,655.32 1240.55,654.987 1241.5,654.5C 1244.09,649.409 1246.09,644.076 1247.5,638.5 Z"/></g>
<g><path style="opacity:1" fill="#d8d8d8" d="M 1230.5,635.5 C 1228.65,637.866 1227.32,640.533 1226.5,643.5C 1227.12,646.374 1228.12,649.04 1229.5,651.5C 1227.12,649.753 1225.45,647.42 1224.5,644.5C 1217.15,648.773 1209.49,651.94 1201.5,654C 1209.29,650.606 1216.95,646.939 1224.5,643C 1225.71,642.107 1225.71,641.274 1224.5,640.5C 1208.3,646.176 1192.3,652.343 1176.5,659C 1175.5,659.667 1174.5,659.667 1173.5,659C 1190.52,651.548 1207.85,644.882 1225.5,639C 1226.79,637.198 1228.46,636.031 1230.5,635.5 Z"/></g>
<g><path style="opacity:1" fill="#dddddd" d="M 1134.5,681.5 C 1137.6,681.413 1137.93,681.913 1135.5,683C 1070.19,708.718 1001.85,728.385 930.5,742C 915.909,744.877 901.243,746.877 886.5,748C 958.137,737.257 1028.14,719.924 1096.5,696C 1104.34,691.578 1112.34,687.412 1120.5,683.5C 1121.7,683.846 1121.7,684.346 1120.5,685C 1117.17,686.667 1113.83,688.333 1110.5,690C 1118.8,688.017 1126.8,685.184 1134.5,681.5 Z"/></g>
<g><path style="opacity:1" fill="#dedede" d="M 357.5,682.5 C 365.129,684.728 372.629,687.395 380,690.5C 381.684,690.317 381.85,689.65 380.5,688.5C 386.423,690.795 392.09,693.628 397.5,697C 445.677,713.627 494.677,727.294 544.5,738C 498.768,729.858 453.935,718.024 410,702.5C 408.989,702.892 408.489,703.559 408.5,704.5C 403.992,701.746 399.326,699.246 394.5,697C 381.712,693.021 369.378,688.188 357.5,682.5 Z"/></g>
<g><path style="opacity:1" fill="#dedede" d="M 706.5,230.5 C 698.817,248.2 690.317,265.533 681,282.5C 654.636,356.611 637.136,432.611 628.5,510.5C 635.736,508.969 643.07,508.302 650.5,508.5C 643.051,510.134 635.385,511.134 627.5,511.5C 618.122,591.173 618.289,670.84 628,750.5C 651.664,753.949 675.497,756.116 699.5,757C 747.904,758.388 796.238,757.222 844.5,753.5C 772.613,761.704 700.613,761.371 628.5,752.5C 628.167,759.167 627.833,759.167 627.5,752.5C 599.939,749.407 572.606,744.907 545.5,739C 572.34,743.62 599.34,747.453 626.5,750.5C 617.637,671.201 617.304,591.868 625.5,512.5C 611.504,514.333 597.504,515.833 583.5,517C 597.787,514.507 612.121,512.34 626.5,510.5C 628.847,488.388 632.014,466.388 636,444.5C 648.372,378.282 666.872,314.282 691.5,252.5C 690.198,257.218 689.032,261.885 688,266.5C 693.941,254.282 700.108,242.282 706.5,230.5 Z"/></g>
<g><path style="opacity:1" fill="#dcdcdc" d="M 284.5,735.5 C 292.008,749.182 299.008,763.182 305.5,777.5C 297.459,764.086 290.459,750.086 284.5,735.5 Z"/></g>
<g><path style="opacity:1" fill="#dedede" d="M 791.5,1039.5 C 797.187,1024.94 802.354,1010.27 807,995.5C 801.059,1007.72 794.892,1019.72 788.5,1031.5C 796.183,1013.8 804.683,996.467 814,979.5C 840.362,905.396 857.862,829.396 866.5,751.5C 859.264,753.031 851.93,753.698 844.5,753.5C 851.949,751.866 859.615,750.866 867.5,750.5C 870.548,723.92 872.715,697.253 874,670.5C 874.667,679.167 874.667,687.833 874,696.5C 872.529,714.176 871.029,731.843 869.5,749.5C 874.82,748.734 880.154,748.568 885.5,749C 879.844,749.975 874.177,750.808 868.5,751.5C 859.785,826.146 843.119,898.98 818.5,970C 818.667,970.5 818.833,971 819,971.5C 819.667,970.167 820.333,968.833 821,967.5C 821.654,966.304 822.154,966.304 822.5,967.5C 820,971.833 817.5,976.167 815,980.5C 808.217,1000.7 800.383,1020.37 791.5,1039.5 Z"/></g>
<g><path style="opacity:1" fill="#dedede" d="M 628.5,758.5 C 640.583,840.169 660.25,918.835 687.5,994.5C 690.401,1001.03 692.567,1007.7 694,1014.5C 689.77,1004.71 686.104,994.707 683,984.5C 679.984,978.81 677.317,973.144 675,967.5C 675.915,968.328 676.581,969.328 677,970.5C 661.054,921.72 648.054,872.053 638,821.5C 633.853,800.637 630.686,779.637 628.5,758.5 Z"/></g>
<g><path style="opacity:1" fill="#f1f1f1" d="M 791.5,1039.5 C 780.936,1066.34 769.102,1092.67 756,1118.5C 755.289,1120.37 755.789,1121.87 757.5,1123C 755.316,1124.36 753.316,1125.86 751.5,1127.5C 750.833,1127.17 750.167,1126.83 749.5,1126.5C 760.361,1093.91 773.361,1062.24 788.5,1031.5C 794.892,1019.72 801.059,1007.72 807,995.5C 802.354,1010.27 797.187,1024.94 791.5,1039.5 Z"/></g>
<g><path style="opacity:1" fill="#dbdbda" d="M 745.5,1126.5 C 744.833,1126.83 744.167,1127.17 743.5,1127.5C 740.05,1120.6 736.55,1113.6 733,1106.5C 732.333,1105.5 732.333,1104.5 733,1103.5C 735.333,1108.17 737.667,1112.83 740,1117.5C 736.331,1103.83 731.831,1090.33 726.5,1077C 726.667,1076.5 726.833,1076 727,1075.5C 733.268,1089.8 738.434,1104.47 742.5,1119.5C 743.833,1119.5 745.167,1119.5 746.5,1119.5C 746.007,1121.81 745.674,1124.14 745.5,1126.5 Z"/></g>
<g><path style="opacity:1" fill="#d9d9d9" d="M 762.5,1131.5 C 761.504,1131.41 760.671,1131.75 760,1132.5C 759.506,1134.13 759.34,1135.8 759.5,1137.5C 758.549,1136.08 758.216,1134.41 758.5,1132.5C 757.5,1132.5 756.5,1132.5 755.5,1132.5C 755.167,1131.83 754.833,1131.17 754.5,1130.5C 781.739,1122.57 808.906,1112.57 836,1100.5C 836.5,1100.67 837,1100.83 837.5,1101C 813.961,1111.51 789.961,1120.85 765.5,1129C 764.058,1129.38 763.058,1130.21 762.5,1131.5 Z"/></g>
<g><path style="opacity:1" fill="#54c61b" d="M 745.5,1126.5 C 746.833,1126.5 748.167,1126.5 749.5,1126.5C 750.167,1126.83 750.833,1127.17 751.5,1127.5C 752.833,1128.17 753.833,1129.17 754.5,1130.5C 754.833,1131.17 755.167,1131.83 755.5,1132.5C 756.12,1138.54 753.453,1141.87 747.5,1142.5C 747.167,1142.5 746.833,1142.5 746.5,1142.5C 742.5,1141.83 740.167,1139.5 739.5,1135.5C 739.5,1135.17 739.5,1134.83 739.5,1134.5C 739.5,1133.83 739.5,1133.17 739.5,1132.5C 740.124,1130.25 741.457,1128.58 743.5,1127.5C 744.167,1127.17 744.833,1126.83 745.5,1126.5 Z"/></g>
<g><path style="opacity:1" fill="#7a7a7a" d="M 774.5,1129.5 C 775.777,1130.69 776.444,1132.36 776.5,1134.5C 776.167,1136.17 775.833,1137.83 775.5,1139.5C 774.513,1136.23 774.18,1132.9 774.5,1129.5 Z"/></g>
<g><path style="opacity:1" fill="#6c6c6c" d="M 779.5,1138.5 C 780.5,1138.5 781.5,1138.5 782.5,1138.5C 782.5,1136.5 782.5,1134.5 782.5,1132.5C 781.5,1132.5 780.5,1132.5 779.5,1132.5C 780.868,1131.69 782.201,1130.69 783.5,1129.5C 784.487,1132.77 784.82,1136.1 784.5,1139.5C 782.585,1139.78 780.919,1139.45 779.5,1138.5 Z"/></g>
<g><path style="opacity:1" fill="#222222" d="M 833.5,1132.5 C 832.77,1130.95 831.437,1130.12 829.5,1130C 831.579,1129.19 833.579,1129.36 835.5,1130.5C 835.145,1131.52 834.478,1132.19 833.5,1132.5 Z"/></g>
<g><path style="opacity:1" fill="#222222" d="M 1023.5,1132.5 C 1022.77,1130.95 1021.44,1130.12 1019.5,1130C 1021.58,1129.19 1023.58,1129.36 1025.5,1130.5C 1025.14,1131.52 1024.48,1132.19 1023.5,1132.5 Z"/></g>
<g><path style="opacity:1" fill="#c5c5c5" d="M 888.5,1130.5 C 888.5,1133.17 888.5,1135.83 888.5,1138.5C 887.5,1139.83 886.5,1139.83 885.5,1138.5C 884.167,1135.83 884.167,1133.17 885.5,1130.5C 886.5,1129.17 887.5,1129.17 888.5,1130.5 Z"/></g>
<g><path style="opacity:1" fill="#545454" d="M 928.5,1130.5 C 932.241,1129.26 933.241,1130.59 931.5,1134.5C 929.158,1134.23 929.158,1133.39 931.5,1132C 930.756,1130.96 929.756,1130.46 928.5,1130.5 Z"/></g>
<g><path style="opacity:1" fill="#646464" d="M 762.5,1131.5 C 763.5,1131.5 764.5,1131.5 765.5,1131.5C 765.665,1134.52 765.498,1137.52 765,1140.5C 764.617,1141.06 764.117,1141.39 763.5,1141.5C 762.375,1140 761.041,1138.67 759.5,1137.5C 759.34,1135.8 759.506,1134.13 760,1132.5C 760.671,1131.75 761.504,1131.41 762.5,1131.5 Z"/></g>
<g><path style="opacity:1" fill="#777777" d="M 790.5,1132.5 C 789.504,1132.41 788.671,1132.75 788,1133.5C 787.506,1135.13 787.34,1136.8 787.5,1138.5C 788.5,1138.5 789.5,1138.5 790.5,1138.5C 789.791,1139.4 788.791,1139.74 787.5,1139.5C 787.719,1140.68 787.386,1141.68 786.5,1142.5C 785.511,1138.89 785.177,1135.23 785.5,1131.5C 787.415,1131.22 789.081,1131.55 790.5,1132.5 Z"/></g>
<g><path style="opacity:1" fill="#818281" d="M 793.5,1131.5 C 794.748,1132.33 795.415,1133.67 795.5,1135.5C 795.167,1136.83 794.833,1138.17 794.5,1139.5C 793.52,1136.91 793.187,1134.25 793.5,1131.5 Z"/></g>
<g><path style="opacity:1" fill="#6e6e6e" d="M 796.5,1131.5 C 798.199,1131.34 799.866,1131.51 801.5,1132C 800.552,1132.48 799.552,1132.65 798.5,1132.5C 798.808,1134.92 798.474,1137.26 797.5,1139.5C 796.52,1136.91 796.187,1134.25 796.5,1131.5 Z"/></g>
<g><path style="opacity:1" fill="#626262" d="M 838.5,1138.5 C 837.903,1136.38 837.569,1134.21 837.5,1132C 838.059,1129.81 839.393,1129.15 841.5,1130C 838.833,1131.33 838.833,1132.67 841.5,1134C 839.137,1134.59 838.137,1136.09 838.5,1138.5 Z"/></g>
<g><path style="opacity:1" fill="#424242" d="M 901.5,1130.5 C 902.765,1131.51 903.431,1133.01 903.5,1135C 903.333,1136.5 903.167,1138 903,1139.5C 902.971,1136.63 902.138,1134.13 900.5,1132C 901.056,1131.62 901.389,1131.12 901.5,1130.5 Z"/></g>
<g><path style="opacity:1" fill="#464646" d="M 914.5,1129.5 C 915.641,1132.64 915.808,1135.97 915,1139.5C 914.971,1136.63 914.138,1134.13 912.5,1132C 913.381,1131.29 914.047,1130.46 914.5,1129.5 Z"/></g>
<g><path style="opacity:1" fill="#777777" d="M 918.5,1130.5 C 920.337,1130.64 920.67,1131.31 919.5,1132.5C 918.702,1132.04 918.369,1131.38 918.5,1130.5 Z"/></g>
<g><path style="opacity:1" fill="#787878" d="M 928.5,1130.5 C 928.361,1132.34 927.694,1132.67 926.5,1131.5C 926.957,1130.7 927.624,1130.37 928.5,1130.5 Z"/></g>
<g><path style="opacity:1" fill="#4a4a4a" d="M 950.5,1133.5 C 949.178,1133.33 948.011,1133.66 947,1134.5C 946.333,1133.17 946.333,1131.83 947,1130.5C 947.985,1131.81 949.152,1132.81 950.5,1133.5 Z"/></g>
<g><path style="opacity:1" fill="#f0f0f0" d="M 771.5,1132.5 C 773.444,1136.12 772.444,1138.12 768.5,1138.5C 768.34,1136.8 768.506,1135.13 769,1133.5C 769.671,1132.75 770.504,1132.41 771.5,1132.5 Z"/></g>
<g><path style="opacity:1" fill="#f2f2f2" d="M 779.5,1132.5 C 780.5,1132.5 781.5,1132.5 782.5,1132.5C 782.5,1134.5 782.5,1136.5 782.5,1138.5C 781.5,1138.5 780.5,1138.5 779.5,1138.5C 779.5,1136.5 779.5,1134.5 779.5,1132.5 Z"/></g>
<g><path style="opacity:1" fill="#f6f6f6" d="M 790.5,1132.5 C 790.5,1134.5 790.5,1136.5 790.5,1138.5C 789.5,1138.5 788.5,1138.5 787.5,1138.5C 787.34,1136.8 787.506,1135.13 788,1133.5C 788.671,1132.75 789.504,1132.41 790.5,1132.5 Z"/></g>
<g><path style="opacity:1" fill="#6c6c6c" d="M 885.5,1130.5 C 884.167,1133.17 884.167,1135.83 885.5,1138.5C 884.007,1137.69 883.34,1136.35 883.5,1134.5C 883.34,1132.65 884.007,1131.31 885.5,1130.5 Z"/></g>
<g><path style="opacity:1" fill="#7a7a7a" d="M 888.5,1130.5 C 891.167,1133.17 891.167,1135.83 888.5,1138.5C 888.5,1135.83 888.5,1133.17 888.5,1130.5 Z"/></g>
<g><path style="opacity:1" fill="#757575" d="M 893.5,1130.5 C 896.649,1129.27 898.315,1130.6 898.5,1134.5C 898.381,1138 896.715,1139.5 893.5,1139C 896.379,1137.33 897.212,1134.83 896,1131.5C 895.329,1130.75 894.496,1130.41 893.5,1130.5 Z"/></g>
<g><path style="opacity:1" fill="#4e4e4e" d="M 961.5,1130.5 C 963.265,1129.54 965.265,1129.21 967.5,1129.5C 966.256,1132.73 965.09,1136.06 964,1139.5C 963.414,1136.26 964.247,1133.43 966.5,1131C 964.866,1130.51 963.199,1130.34 961.5,1130.5 Z"/></g>
<g><path style="opacity:1" fill="#5c5c5c" d="M 986.5,1131.5 C 987.895,1133.85 987.728,1136.18 986,1138.5C 986.11,1136.11 986.277,1133.78 986.5,1131.5 Z"/></g>
<g><path style="opacity:1" fill="#555555" d="M 991.5,1135.5 C 994.287,1133.8 993.954,1132.63 990.5,1132C 991.833,1131.33 993.167,1131.33 994.5,1132C 995.435,1134.38 995.768,1136.88 995.5,1139.5C 993.5,1139.5 991.5,1139.5 989.5,1139.5C 989.157,1137.52 989.824,1136.18 991.5,1135.5 Z"/></g>
<g><path style="opacity:1" fill="#f2f2f2" d="M 1001.5,1132.5 C 1001.5,1134.5 1001.5,1136.5 1001.5,1138.5C 1000.5,1138.5 999.5,1138.5 998.5,1138.5C 998.5,1136.5 998.5,1134.5 998.5,1132.5C 999.5,1132.5 1000.5,1132.5 1001.5,1132.5 Z"/></g>
<g><path style="opacity:1" fill="#f5f5f5" d="M 761.5,1132.5 C 762.693,1132.97 763.36,1133.97 763.5,1135.5C 762.709,1139.28 761.709,1139.28 760.5,1135.5C 760.685,1134.42 761.018,1133.42 761.5,1132.5 Z"/></g>
<g><path style="opacity:1" fill="#4c4c4c" d="M 805.5,1131.5 C 807.167,1131.5 808.833,1131.5 810.5,1131.5C 810.665,1134.85 810.498,1138.18 810,1141.5C 808.612,1142.55 807.112,1142.72 805.5,1142C 810.832,1140.43 810.666,1139.26 805,1138.5C 804.297,1136.07 804.463,1133.74 805.5,1131.5 Z"/></g>
<g><path style="opacity:1" fill="#f0f0f0" d="M 806.5,1132.5 C 808.484,1132.48 809.484,1133.48 809.5,1135.5C 808.167,1139.5 806.833,1139.5 805.5,1135.5C 805.685,1134.42 806.018,1133.42 806.5,1132.5 Z"/></g>
<g><path style="opacity:1" fill="#4b4b4b" d="M 820.5,1131.5 C 824.838,1131.62 825.172,1131.96 821.5,1132.5C 821.663,1134.86 821.497,1137.19 821,1139.5C 820.503,1136.85 820.336,1134.19 820.5,1131.5 Z"/></g>
<g><path style="opacity:1" fill="#363636" d="M 849.5,1133.5 C 848.178,1133.33 847.011,1133.66 846,1134.5C 845.506,1132.87 845.34,1131.2 845.5,1129.5C 851.324,1129.35 851.657,1130.01 846.5,1131.5C 847.602,1132.18 848.602,1132.84 849.5,1133.5 Z"/></g>
<g><path style="opacity:1" fill="#6c6c6c" d="M 862.5,1136.5 C 863.594,1134.64 864.427,1132.64 865,1130.5C 865.961,1133.38 865.128,1135.38 862.5,1136.5 Z"/></g>
<g><path style="opacity:1" fill="#5f5f5f" d="M 893.5,1130.5 C 892.94,1132.8 892.44,1135.13 892,1137.5C 891.333,1135.5 891.333,1133.5 892,1131.5C 892.383,1130.94 892.883,1130.61 893.5,1130.5 Z"/></g>
<g><path style="opacity:1" fill="#6c6c6c" d="M 921.5,1136.5 C 922.594,1134.64 923.427,1132.64 924,1130.5C 924.961,1133.38 924.128,1135.38 921.5,1136.5 Z"/></g>
<g><path style="opacity:1" fill="#595959" d="M 954.5,1130.5 C 954.795,1131.9 955.129,1133.4 955.5,1135C 954.874,1135.75 954.374,1136.58 954,1137.5C 953.297,1135.07 953.463,1132.74 954.5,1130.5 Z"/></g>
<g><path style="opacity:1" fill="#4c4c4c" d="M 1005.5,1131.5 C 1007.43,1131.23 1009.1,1131.73 1010.5,1133C 1005.96,1131.88 1004.63,1133.55 1006.5,1138C 1007.5,1138.33 1008.5,1138.67 1009.5,1139C 1007.89,1139.72 1006.39,1139.55 1005,1138.5C 1004.3,1136.07 1004.46,1133.74 1005.5,1131.5 Z"/></g>
<g><path style="opacity:1" fill="#707070" d="M 771.5,1132.5 C 770.504,1132.41 769.671,1132.75 769,1133.5C 768.506,1135.13 768.34,1136.8 768.5,1138.5C 765.637,1135.6 766.137,1133.27 770,1131.5C 770.765,1131.57 771.265,1131.9 771.5,1132.5 Z"/></g>
<g><path style="opacity:1" fill="#565656" d="M 771.5,1132.5 C 772.693,1132.97 773.36,1133.97 773.5,1135.5C 773.324,1139.28 771.657,1140.28 768.5,1138.5C 772.444,1138.12 773.444,1136.12 771.5,1132.5 Z"/></g>
<g><path style="opacity:1" fill="#777777" d="M 779.5,1132.5 C 779.5,1134.5 779.5,1136.5 779.5,1138.5C 776.833,1136.5 776.833,1134.5 779.5,1132.5 Z"/></g>
<g><path style="opacity:1" fill="#5d5d5d" d="M 853.5,1132.5 C 854.043,1132.56 854.376,1132.89 854.5,1133.5C 853.902,1134.79 853.402,1136.13 853,1137.5C 852.36,1135.73 852.527,1134.07 853.5,1132.5 Z"/></g>
<g><path style="opacity:1" fill="#efefef" d="M 971.5,1134.5 C 973.912,1134.69 974.912,1136.03 974.5,1138.5C 971.046,1138.73 970.046,1137.4 971.5,1134.5 Z"/></g>
<g><path style="opacity:1" fill="#797979" d="M 974.5,1138.5 C 974.912,1136.03 973.912,1134.69 971.5,1134.5C 968.637,1130.18 969.804,1128.85 975,1130.5C 975.684,1131.78 975.517,1132.95 974.5,1134C 977.106,1135.65 977.106,1137.15 974.5,1138.5 Z"/></g>
<g><path style="opacity:1" fill="#4f4f4f" d="M 1001.5,1132.5 C 1000.5,1132.5 999.5,1132.5 998.5,1132.5C 998.5,1134.5 998.5,1136.5 998.5,1138.5C 999.5,1138.5 1000.5,1138.5 1001.5,1138.5C 1000.43,1139.43 999.099,1139.77 997.5,1139.5C 997.335,1136.15 997.502,1132.82 998,1129.5C 998.985,1130.81 1000.15,1131.81 1001.5,1132.5 Z"/></g>
<g><path style="opacity:1" fill="#767676" d="M 877.5,1137.5 C 879.7,1135.74 880.867,1133.4 881,1130.5C 882.6,1133.97 881.433,1136.3 877.5,1137.5 Z"/></g>
<g><path style="opacity:1" fill="#6b6b6b" d="M 931.5,1134.5 C 934.167,1135.83 934.167,1137.17 931.5,1138.5C 931.5,1137.17 931.5,1135.83 931.5,1134.5 Z"/></g>
<g><path style="opacity:1" fill="#636363" d="M 950.5,1133.5 C 951.586,1133.62 952.253,1134.29 952.5,1135.5C 952.457,1136.42 952.124,1137.08 951.5,1137.5C 951.567,1136.04 951.234,1134.71 950.5,1133.5 Z"/></g>
<g><path style="opacity:1" fill="#4a4a4a" d="M 971.5,1134.5 C 970.046,1137.4 971.046,1138.73 974.5,1138.5C 973.116,1139.8 971.616,1139.8 970,1138.5C 969.156,1136.54 969.656,1135.2 971.5,1134.5 Z"/></g>
<g><path style="opacity:1" fill="#f6f6f6" d="M 991.5,1135.5 C 994.012,1136.22 994.012,1137.22 991.5,1138.5C 990.438,1137.58 990.438,1136.58 991.5,1135.5 Z"/></g>
<g><path style="opacity:1" fill="#a9a9a9" d="M 739.5,1134.5 C 739.5,1134.83 739.5,1135.17 739.5,1135.5C 734.93,1136.22 730.596,1137.39 726.5,1139C 730.31,1136.01 734.643,1134.51 739.5,1134.5 Z"/></g>
<g><path style="opacity:1" fill="#787878" d="M 790.5,1132.5 C 793.167,1134.5 793.167,1136.5 790.5,1138.5C 790.5,1136.5 790.5,1134.5 790.5,1132.5 Z"/></g>
<g><path style="opacity:1" fill="#414141" d="M 813.5,1131.5 C 816.95,1130.76 818.616,1132.09 818.5,1135.5C 812.304,1135.57 811.97,1136.74 817.5,1139C 816.167,1139.67 814.833,1139.67 813.5,1139C 812.221,1136.5 812.221,1134 813.5,1131.5 Z"/></g>
<g><path style="opacity:1" fill="#fafafa" d="M 814.5,1132.5 C 815.756,1132.46 816.756,1132.96 817.5,1134C 816.167,1134.67 814.833,1134.67 813.5,1134C 814.056,1133.62 814.389,1133.12 814.5,1132.5 Z"/></g>
<g><path style="opacity:1" fill="#656565" d="M 849.5,1138.5 C 847.58,1139.94 845.913,1139.61 844.5,1137.5C 844.833,1137.17 845.167,1136.83 845.5,1136.5C 846.524,1137.85 847.857,1138.52 849.5,1138.5 Z"/></g>
<g><path style="opacity:1" fill="#7c7c7c" d="M 849.5,1133.5 C 852.167,1135.17 852.167,1136.83 849.5,1138.5C 849.5,1136.83 849.5,1135.17 849.5,1133.5 Z"/></g>
<g><path style="opacity:1" fill="#2a2a2a" d="M 938.5,1129.5 C 939.21,1131.89 939.877,1134.39 940.5,1137C 939.874,1137.75 939.374,1138.58 939,1139.5C 937.796,1138.14 936.296,1137.14 934.5,1136.5C 935.557,1136.09 936.891,1136.09 938.5,1136.5C 937.933,1134.03 937.933,1131.7 938.5,1129.5 Z"/></g>
<g><path style="opacity:1" fill="#757575" d="M 1001.5,1132.5 C 1004.17,1134.5 1004.17,1136.5 1001.5,1138.5C 1001.5,1136.5 1001.5,1134.5 1001.5,1132.5 Z"/></g>
<g><path style="opacity:1" fill="#808080" d="M 833.5,1132.5 C 833.301,1134.96 832.635,1137.29 831.5,1139.5C 830.531,1136.74 831.198,1134.4 833.5,1132.5 Z"/></g>
<g><path style="opacity:1" fill="#808080" d="M 1023.5,1132.5 C 1023.3,1134.96 1022.63,1137.29 1021.5,1139.5C 1020.53,1136.74 1021.2,1134.4 1023.5,1132.5 Z"/></g>
<g><path style="opacity:1" fill="#505050" d="M 838.5,1138.5 C 840.911,1138.86 842.411,1137.86 843,1135.5C 843.684,1136.78 843.517,1137.95 842.5,1139C 840.934,1139.76 839.601,1139.6 838.5,1138.5 Z"/></g>
<g><path style="opacity:1" fill="#5c5c5c" d="M 857.5,1137.5 C 858.043,1137.56 858.376,1137.89 858.5,1138.5C 857.277,1139.61 855.944,1139.78 854.5,1139C 855.737,1138.77 856.737,1138.27 857.5,1137.5 Z"/></g>
<g><path style="opacity:1" fill="#202020" d="M 862.5,1136.5 C 862.389,1137.12 862.056,1137.62 861.5,1138C 862.833,1138.33 864.167,1138.67 865.5,1139C 863.5,1139.67 861.5,1139.67 859.5,1139C 860.078,1137.58 861.078,1136.75 862.5,1136.5 Z"/></g>
<g><path style="opacity:1" fill="#171717" d="M 877.5,1137.5 C 878.952,1138.3 880.618,1138.8 882.5,1139C 880.421,1139.81 878.421,1139.64 876.5,1138.5C 876.624,1137.89 876.957,1137.56 877.5,1137.5 Z"/></g>
<g><path style="opacity:1" fill="#202020" d="M 921.5,1136.5 C 921.389,1137.12 921.056,1137.62 920.5,1138C 921.833,1138.33 923.167,1138.67 924.5,1139C 922.5,1139.67 920.5,1139.67 918.5,1139C 919.078,1137.58 920.078,1136.75 921.5,1136.5 Z"/></g>
<g><path style="opacity:1" fill="#5b5b5b" d="M 931.5,1138.5 C 929.58,1139.94 927.913,1139.61 926.5,1137.5C 926.667,1137.17 926.833,1136.83 927,1136.5C 928.11,1138.04 929.61,1138.7 931.5,1138.5 Z"/></g>
<g><path style="opacity:1" fill="#555555" d="M 951.5,1137.5 C 950.796,1139.34 949.463,1139.84 947.5,1139C 948.901,1138.59 950.234,1138.09 951.5,1137.5 Z"/></g>
<g><path style="opacity:1" fill="#898989" d="M 1027.5,1129.5 C 1031.29,1133.58 1031.46,1137.92 1028,1142.5C 1028.82,1138.19 1028.66,1133.85 1027.5,1129.5 Z"/></g>
<g><path style="opacity:1" fill="#717171" d="M 871.5,1132.5 C 872.637,1135.32 873.137,1138.32 873,1141.5C 871.711,1138.65 871.211,1135.65 871.5,1132.5 Z"/></g>
<g><path style="opacity:1" fill="#222222" d="M 763.5,1141.5 C 762.292,1142.78 760.958,1142.78 759.5,1141.5C 760.557,1141.09 761.891,1141.09 763.5,1141.5 Z"/></g>
<g><path style="opacity:1" fill="#a6a6a6" d="M 726.5,1155.5 C 724.827,1154.66 723.66,1153.32 723,1151.5C 722.097,1147.97 722.43,1144.63 724,1141.5C 723.544,1144.43 723.544,1147.43 724,1150.5C 725.094,1152.08 725.928,1153.74 726.5,1155.5 Z"/></g>
<g><path style="opacity:1" fill="#a9a9a9" d="M 746.5,1142.5 C 746.833,1142.5 747.167,1142.5 747.5,1142.5C 747.311,1148.38 745.311,1153.54 741.5,1158C 737.961,1159.5 734.295,1159.84 730.5,1159C 728.676,1158.34 727.343,1157.17 726.5,1155.5C 735.142,1161.01 741.308,1159.01 745,1149.5C 745.44,1147.13 745.94,1144.8 746.5,1142.5 Z"/></g>
</svg>
