<svg xmlns="http://www.w3.org/2000/svg" width="460" height="460" viewBox="0 0 460 460" version="1.1"><path d="M 0 230.002 L 0 460.004 230.250 459.752 L 460.500 459.500 460.752 229.750 L 461.004 -0 230.502 -0 L 0 0 0 230.002 M 0.491 230.500 C 0.492 357, 0.608 408.601, 0.750 345.170 C 0.892 281.738, 0.892 178.238, 0.750 115.170 C 0.608 52.101, 0.491 104, 0.491 230.500 M 213 20.608 C 204.109 21.676, 189.860 24.242, 183.500 25.921 C 179.650 26.937, 174.700 28.064, 172.500 28.425 C 170.300 28.786, 167.262 29.568, 165.750 30.162 L 163 31.243 163 116.121 L 163 201 231.006 201 L 299.011 201 298.756 115.783 L 298.500 30.567 294 29.400 C 267.378 22.498, 256.751 20.884, 235.500 20.516 C 225.050 20.336, 214.925 20.377, 213 20.608 M 95.500 69.651 C 83.327 80.294, 66.527 98.070, 62.622 104.437 C 61.589 106.122, 59.542 108.875, 58.073 110.556 C 55.627 113.354, 41 138.064, 41 139.397 C 41 139.714, 38.355 146.166, 35.122 153.736 C 31.889 161.306, 28.919 169.525, 28.521 172 C 28.123 174.475, 26.961 179.650, 25.940 183.500 C 21.645 199.694, 20.604 208.873, 20.553 231 C 20.502 253.328, 21.047 258.391, 25.612 278 C 26.957 283.775, 28.528 290.525, 29.103 293 C 29.679 295.475, 32.591 303.241, 35.575 310.258 C 38.559 317.275, 41 323.257, 41 323.552 C 41 324.728, 54.514 347.663, 56.584 350 C 57.802 351.375, 60.081 354.535, 61.649 357.021 C 65.702 363.448, 69.499 367.665, 85.427 383.426 L 99.500 397.353 99.756 314.755 C 99.896 269.327, 99.896 194.807, 99.756 149.156 L 99.500 66.153 95.500 69.651 M 363 231.500 L 363 396.186 367.789 392.177 C 376.713 384.705, 390.135 370.542, 397.333 361 C 401.275 355.775, 405.003 351.173, 405.619 350.774 C 406.234 350.374, 407.334 348.574, 408.063 346.774 C 408.792 344.973, 410.879 341.307, 412.702 338.626 C 415.786 334.091, 417.852 330.063, 424.310 316 C 428.636 306.577, 430.162 302.670, 431.532 297.500 C 432.262 294.750, 434.256 287.331, 435.964 281.012 C 440.618 263.796, 442 252.435, 442 231.385 C 442 209.596, 440.475 197.625, 435.363 179.295 C 433.401 172.258, 431.406 164.890, 430.931 162.922 C 430.158 159.720, 420.225 136.765, 417.983 133 C 417.492 132.175, 415.607 129.058, 413.795 126.073 C 411.983 123.089, 409.375 118.748, 408 116.427 C 400.293 103.421, 382.224 82.909, 367.932 70.943 L 363 66.814 363 231.500 M 163 351.870 L 163 430.741 173.920 433.932 C 195.231 440.160, 201.792 441.153, 225.386 441.720 C 253.450 442.396, 268.383 440.424, 292.474 432.862 L 299 430.814 299 351.907 L 299 273 231 273 L 163 273 163 351.870" stroke="none" fill="#fbfbfb" fill-rule="evenodd"/><path d="M 213 20.608 C 204.109 21.676, 189.860 24.242, 183.500 25.921 C 179.650 26.937, 174.700 28.064, 172.500 28.425 C 170.300 28.786, 167.262 29.568, 165.750 30.162 L 163 31.243 163 116.121 L 163 201 231.006 201 L 299.011 201 298.756 115.783 L 298.500 30.567 294 29.400 C 267.378 22.498, 256.751 20.884, 235.500 20.516 C 225.050 20.336, 214.925 20.377, 213 20.608 M 95.500 69.651 C 83.327 80.294, 66.527 98.070, 62.622 104.437 C 61.589 106.122, 59.542 108.875, 58.073 110.556 C 55.627 113.354, 41 138.064, 41 139.397 C 41 139.714, 38.355 146.166, 35.122 153.736 C 31.889 161.306, 28.919 169.525, 28.521 172 C 28.123 174.475, 26.961 179.650, 25.940 183.500 C 21.645 199.694, 20.604 208.873, 20.553 231 C 20.502 253.328, 21.047 258.391, 25.612 278 C 26.957 283.775, 28.528 290.525, 29.103 293 C 29.679 295.475, 32.591 303.241, 35.575 310.258 C 38.559 317.275, 41 323.257, 41 323.552 C 41 324.728, 54.514 347.663, 56.584 350 C 57.802 351.375, 60.081 354.535, 61.649 357.021 C 65.702 363.448, 69.499 367.665, 85.427 383.426 L 99.500 397.353 99.756 314.755 C 99.896 269.327, 99.896 194.807, 99.756 149.156 L 99.500 66.153 95.500 69.651 M 363 231.500 L 363 396.186 367.789 392.177 C 376.713 384.705, 390.135 370.542, 397.333 361 C 401.275 355.775, 405.003 351.173, 405.619 350.774 C 406.234 350.374, 407.334 348.574, 408.063 346.774 C 408.792 344.973, 410.879 341.307, 412.702 338.626 C 415.786 334.091, 417.852 330.063, 424.310 316 C 428.636 306.577, 430.162 302.670, 431.532 297.500 C 432.262 294.750, 434.256 287.331, 435.964 281.012 C 440.618 263.796, 442 252.435, 442 231.385 C 442 209.596, 440.475 197.625, 435.363 179.295 C 433.401 172.258, 431.406 164.890, 430.931 162.922 C 430.158 159.720, 420.225 136.765, 417.983 133 C 417.492 132.175, 415.607 129.058, 413.795 126.073 C 411.983 123.089, 409.375 118.748, 408 116.427 C 400.293 103.421, 382.224 82.909, 367.932 70.943 L 363 66.814 363 231.500 M 163 351.870 L 163 430.741 173.920 433.932 C 195.231 440.160, 201.792 441.153, 225.386 441.720 C 253.450 442.396, 268.383 440.424, 292.474 432.862 L 299 430.814 299 351.907 L 299 273 231 273 L 163 273 163 351.870" stroke="none" fill="#67a7b7" fill-rule="evenodd"/></svg>
