<?xml version="1.0" encoding="UTF-8"?>
<!DOCTYPE svg PUBLIC "-//W3C//DTD SVG 1.1//EN" "http://www.w3.org/Graphics/SVG/1.1/DTD/svg11.dtd">
<svg xmlns="http://www.w3.org/2000/svg" version="1.1" width="1667px" height="1667px" style="shape-rendering:geometricPrecision; text-rendering:geometricPrecision; image-rendering:optimizeQuality; fill-rule:evenodd; clip-rule:evenodd" xmlns:xlink="http://www.w3.org/1999/xlink">
<g><path style="opacity:0.796" fill="#a1f3ab" d="M 1054.5,300.5 C 1005.17,307.5 955.837,314.5 906.5,321.5C 890.8,434.733 874.467,547.733 857.5,660.5C 849.202,652.702 841.035,644.702 833,636.5C 825.298,644.369 817.465,652.036 809.5,659.5C 793.145,547.351 777.145,435.017 761.5,322.5C 712.952,314.969 664.285,308.136 615.5,302C 614.263,301.768 613.263,301.268 612.5,300.5C 685.374,202.113 758.874,104.113 833,6.5C 907.05,104.377 980.883,202.377 1054.5,300.5 Z"/></g>
<g><path style="opacity:0.797" fill="#a195ad" d="M 1367.5,612.5 C 1367.17,612.5 1366.83,612.5 1366.5,612.5C 1326.49,582.066 1286.32,551.732 1246,521.5C 1145.89,597.459 1045.39,672.793 944.5,747.5C 935.167,738.833 926.167,729.833 917.5,720.5C 992.934,620.491 1068.27,520.324 1143.5,420C 1113.59,380.271 1083.93,340.438 1054.5,300.5C 1175.76,282.892 1297.09,265.559 1418.5,248.5C 1401.5,369.833 1384.5,491.167 1367.5,612.5 Z"/></g>
<g><path style="opacity:0.797" fill="#8cd492" d="M 611.5,300.5 C 582.075,340.438 552.408,380.271 522.5,420C 597,519.167 671.5,618.333 746,717.5C 746.816,718.823 747.983,719.489 749.5,719.5C 740.167,729.5 730.5,739.167 720.5,748.5C 620.482,673.318 520.316,598.318 420,523.5C 380.3,553.369 340.467,583.036 300.5,612.5C 283.26,491.823 265.927,371.157 248.5,250.5C 249.667,250.167 250.833,249.833 252,249.5C 371.837,266.548 491.67,283.548 611.5,300.5 Z"/></g>
<g><path style="opacity:0.961" fill="#9deea7" d="M 611.5,300.5 C 611.833,300.5 612.167,300.5 612.5,300.5C 613.263,301.268 614.263,301.768 615.5,302C 664.285,308.136 712.952,314.969 761.5,322.5C 777.145,435.017 793.145,547.351 809.5,659.5C 789.833,679.833 769.833,699.833 749.5,719.5C 747.983,719.489 746.816,718.823 746,717.5C 671.5,618.333 597,519.167 522.5,420C 552.408,380.271 582.075,340.438 611.5,300.5 Z"/></g>
<g><path style="opacity:0.961" fill="#a1e3ab" d="M 1054.5,300.5 C 1083.93,340.438 1113.59,380.271 1143.5,420C 1068.27,520.324 992.934,620.491 917.5,720.5C 897.167,700.833 877.167,680.833 857.5,660.5C 874.467,547.733 890.8,434.733 906.5,321.5C 955.837,314.5 1005.17,307.5 1054.5,300.5 Z"/></g>
<g><path style="opacity:0.961" fill="#887798" d="M 1366.5,612.5 C 1359.5,661.837 1352.5,711.17 1345.5,760.5C 1232.21,776.78 1118.88,792.78 1005.5,808.5C 984.833,788.5 964.5,768.167 944.5,747.5C 1045.39,672.793 1145.89,597.459 1246,521.5C 1286.32,551.732 1326.49,582.066 1366.5,612.5 Z"/></g>
<g><path style="opacity:0.96" fill="#80ae87" d="M 720.5,748.5 C 700.5,769.167 680.167,789.5 659.5,809.5C 546.85,793.407 434.183,777.407 321.5,761.5C 314.78,711.79 307.78,662.124 300.5,612.5C 340.467,583.036 380.3,553.369 420,523.5C 520.316,598.318 620.482,673.318 720.5,748.5 Z"/></g>
<g><path style="opacity:0.796" fill="#7da584" d="M 300.5,612.5 C 307.78,662.124 314.78,711.79 321.5,761.5C 434.183,777.407 546.85,793.407 659.5,809.5C 652.036,817.465 644.369,825.298 636.5,833C 644.369,840.702 652.036,848.535 659.5,856.5C 547.138,873.743 434.471,890.076 321.5,905.5C 314.778,955.219 307.778,1004.89 300.5,1054.5C 202.491,980.831 104.491,907.164 6.5,833.5C 104.491,759.836 202.491,686.169 300.5,612.5 Z"/></g>
<g><path style="opacity:0.796" fill="#827092" d="M 1366.5,612.5 C 1366.83,612.5 1367.17,612.5 1367.5,612.5C 1464.96,685.45 1562.29,758.617 1659.5,832C 1561.96,905.717 1464.29,979.217 1366.5,1052.5C 1358.89,1003.91 1351.56,955.244 1344.5,906.5C 1232.24,889.916 1119.91,873.749 1007.5,858C 1006.94,857.617 1006.61,857.117 1006.5,856.5C 1013.96,848.535 1021.63,840.702 1029.5,833C 1021.3,824.965 1013.3,816.798 1005.5,808.5C 1118.88,792.78 1232.21,776.78 1345.5,760.5C 1352.5,711.17 1359.5,661.837 1366.5,612.5 Z"/></g>
<g><path style="opacity:0.883" fill="#3c3647" d="M 857.5,660.5 C 877.167,680.833 897.167,700.833 917.5,720.5C 926.167,729.833 935.167,738.833 944.5,747.5C 964.5,768.167 984.833,788.5 1005.5,808.5C 1013.3,816.798 1021.3,824.965 1029.5,833C 1021.63,840.702 1013.96,848.535 1006.5,856.5C 985.833,876.5 965.5,896.833 945.5,917.5C 936.167,926.167 927.167,935.167 918.5,944.5C 897.854,964.479 877.521,984.812 857.5,1005.5C 873.739,1118.51 890.072,1231.51 906.5,1344.5C 955.879,1351.74 1005.21,1359.08 1054.5,1366.5C 981.211,1464.46 907.544,1562.12 833.5,1659.5C 760.142,1561.81 686.809,1464.15 613.5,1366.5C 613.5,1366.17 613.5,1365.83 613.5,1365.5C 662.86,1358.5 712.193,1351.5 761.5,1344.5C 776.932,1232.64 792.598,1120.81 808.5,1009C 808.333,1007.5 808.167,1006 808,1004.5C 788.299,984.632 768.465,964.965 748.5,945.5C 739.5,935.833 730.167,926.5 720.5,917.5C 700.5,896.833 680.167,876.5 659.5,856.5C 652.036,848.535 644.369,840.702 636.5,833C 644.369,825.298 652.036,817.465 659.5,809.5C 680.167,789.5 700.5,769.167 720.5,748.5C 730.5,739.167 740.167,729.5 749.5,719.5C 769.833,699.833 789.833,679.833 809.5,659.5C 817.465,652.036 825.298,644.369 833,636.5C 841.035,644.702 849.202,652.702 857.5,660.5 Z"/></g>
<g><path style="opacity:0.961" fill="#789c80" d="M 659.5,856.5 C 680.167,876.5 700.5,896.833 720.5,917.5C 620.789,993.369 520.623,1068.7 420,1143.5C 380.244,1113.71 340.41,1084.04 300.5,1054.5C 307.778,1004.89 314.778,955.219 321.5,905.5C 434.471,890.076 547.138,873.743 659.5,856.5 Z"/></g>
<g><path style="opacity:0.961" fill="#7d6d8d" d="M 1006.5,856.5 C 1006.61,857.117 1006.94,857.617 1007.5,858C 1119.91,873.749 1232.24,889.916 1344.5,906.5C 1351.56,955.244 1358.89,1003.91 1366.5,1052.5C 1326.21,1082.28 1286.04,1112.28 1246,1142.5C 1146.04,1067.12 1045.88,992.117 945.5,917.5C 965.5,896.833 985.833,876.5 1006.5,856.5 Z"/></g>
<g><path style="opacity:0.797" fill="#655d73" d="M 945.5,917.5 C 1045.88,992.117 1146.04,1067.12 1246,1142.5C 1286.04,1112.28 1326.21,1082.28 1366.5,1052.5C 1383.42,1174.1 1400.75,1295.6 1418.5,1417C 1415.83,1417.67 1413.17,1417.67 1410.5,1417C 1291.85,1400 1173.18,1383.17 1054.5,1366.5C 1084.28,1326.46 1113.94,1286.3 1143.5,1246C 1068.37,1145.55 993.365,1045.05 918.5,944.5C 927.167,935.167 936.167,926.167 945.5,917.5 Z"/></g>
<g><path style="opacity:0.797" fill="#5c6e6c" d="M 720.5,917.5 C 730.167,926.5 739.5,935.833 748.5,945.5C 673.883,1045.88 598.883,1146.04 523.5,1246C 553.363,1286.02 583.363,1325.85 613.5,1365.5C 613.5,1365.83 613.5,1366.17 613.5,1366.5C 492.977,1383.27 372.477,1400.27 252,1417.5C 250.833,1417.17 249.667,1416.83 248.5,1416.5C 265.927,1295.84 283.26,1175.18 300.5,1054.5C 340.41,1084.04 380.244,1113.71 420,1143.5C 520.623,1068.7 620.789,993.369 720.5,917.5 Z"/></g>
<g><path style="opacity:0.961" fill="#433d4f" d="M 918.5,944.5 C 993.365,1045.05 1068.37,1145.55 1143.5,1246C 1113.94,1286.3 1084.28,1326.46 1054.5,1366.5C 1005.21,1359.08 955.879,1351.74 906.5,1344.5C 890.072,1231.51 873.739,1118.51 857.5,1005.5C 877.521,984.812 897.854,964.479 918.5,944.5 Z"/></g>
<g><path style="opacity:0.961" fill="#42404d" d="M 748.5,945.5 C 768.465,964.965 788.299,984.632 808,1004.5C 808.167,1006 808.333,1007.5 808.5,1009C 792.598,1120.81 776.932,1232.64 761.5,1344.5C 712.193,1351.5 662.86,1358.5 613.5,1365.5C 583.363,1325.85 553.363,1286.02 523.5,1246C 598.883,1146.04 673.883,1045.88 748.5,945.5 Z"/></g>
</svg>
