<?xml version="1.0" encoding="UTF-8"?>
<svg version="1.1" xmlns="http://www.w3.org/2000/svg" width="200" height="200">
<path d="M0 0 C66 0 132 0 200 0 C200 66 200 132 200 200 C134 200 68 200 0 200 C0 134 0 68 0 0 Z " fill="#00ADB5" transform="translate(0,0)"/>
<path d="M0 0 C0.82338867 0.43908691 1.64677734 0.87817383 2.49511719 1.33056641 C3.31407471 1.7562793 4.13303223 2.18199219 4.97680664 2.62060547 C5.84523193 3.10754883 6.71365723 3.59449219 7.60839844 4.09619141 C8.59735107 4.64968262 9.58630371 5.20317383 10.60522461 5.7734375 C12.19040894 6.66796631 12.19040894 6.66796631 13.80761719 7.58056641 C15.4575769 8.50796631 15.4575769 8.50796631 17.14086914 9.45410156 C26.73644443 14.86516598 36.25793824 20.40021949 45.75683594 25.97900391 C50.10569991 28.52930585 54.47475435 31.0420458 58.85375977 33.54003906 C59.49560463 33.90648026 60.13744949 34.27292145 60.7987442 34.65046692 C62.36405769 35.544086 63.92956703 36.43736202 65.49511719 37.33056641 C65.70382198 47.52686537 65.86364767 57.7226549 65.96142673 67.9206562 C66.00836191 72.65636861 66.0719955 77.390618 66.17407227 82.12548828 C66.27200358 86.69677928 66.32570246 91.26666527 66.34901237 95.83892441 C66.36561828 97.58141072 66.39804939 99.32382164 66.4466877 101.06570816 C66.81263967 114.71690676 66.81263967 114.71690676 63.5712738 118.68682861 C61.25215288 120.2614529 59.09984429 121.31464355 56.49511719 122.33056641 C55.1607971 123.07311521 53.83460382 123.83074672 52.52246094 124.61181641 C51.16082354 125.35442187 49.79746716 126.09388206 48.43261719 126.83056641 C40.99182278 130.90761599 33.63487835 135.11548049 26.30761719 139.39306641 C25.28619629 139.98667969 24.26477539 140.58029297 23.21240234 141.19189453 C18.69827982 143.82543579 14.21184529 146.48127749 9.80761719 149.29541016 C9.12078857 149.72909912 8.43395996 150.16278809 7.72631836 150.60961914 C6.48962884 151.39657477 5.26227188 152.19849109 4.04711914 153.01831055 C2.42089844 154.04931641 2.42089844 154.04931641 -0.50488281 155.33056641 C-4.11402048 154.18966132 -7.32496399 152.41150428 -10.61816406 150.56494141 C-12.10147217 149.73482544 -12.10147217 149.73482544 -13.61474609 148.88793945 C-14.67161621 148.29150635 -15.72848633 147.69507324 -16.81738281 147.08056641 C-17.91808105 146.46157471 -19.0187793 145.84258301 -20.15283203 145.20483398 C-41.86531637 132.95617084 -41.86531637 132.95617084 -51.27467346 127.18026733 C-53.62531671 125.83422857 -55.82585104 124.72267626 -58.28848267 123.64584351 C-68.19265688 119.02557165 -68.19265688 119.02557165 -70.38107681 114.5310688 C-71.78595562 109.33441992 -71.55748808 104.00785779 -71.42675781 98.67041016 C-71.43179187 96.95363901 -71.44157829 95.23687589 -71.45587158 93.52015686 C-71.46891564 89.93322375 -71.42916606 86.35193344 -71.35058594 82.76586914 C-71.25379517 78.18399795 -71.28238931 73.61317587 -71.34977341 69.03111935 C-71.38911646 65.48962818 -71.36527705 61.95070007 -71.32236481 58.40933418 C-71.30873519 56.72180376 -71.31359957 55.03401267 -71.33785248 53.34660149 C-71.39112572 48.05247649 -71.21030783 43.37442205 -69.50488281 38.33056641 C-65.56423904 34.47003167 -61.56156694 32.55326235 -56.50488281 30.33056641 C-54.33184503 29.10177076 -52.16973562 27.85322874 -50.02441406 26.57666016 C-47.19492423 24.96548975 -44.36256341 23.35951925 -41.52877808 21.75592041 C-39.68167832 20.71022924 -37.83522173 19.66341761 -35.98925781 18.61572266 C-35.3734938 18.26630615 -34.7577298 17.91688965 -34.12330627 17.55688477 C-29.74031689 15.05961384 -25.40558404 12.48929298 -21.08300781 9.88916016 C-19.31315495 8.83386157 -17.54241952 7.78006174 -15.77133179 6.72683716 C-14.09581367 5.72260659 -12.43168208 4.69945615 -10.76782227 3.67602539 C-9.75421631 3.0747583 -8.74061035 2.47349121 -7.69628906 1.85400391 C-6.81142822 1.31694824 -5.92656738 0.77989258 -5.01489258 0.2265625 C-2.50488281 -0.66943359 -2.50488281 -0.66943359 0 0 Z " fill="#02ADB5" transform="translate(101.5048828125,21.66943359375)"/>
<path d="M0 0 C0.82338867 0.43908691 1.64677734 0.87817383 2.49511719 1.33056641 C3.31407471 1.7562793 4.13303223 2.18199219 4.97680664 2.62060547 C5.84523193 3.10754883 6.71365723 3.59449219 7.60839844 4.09619141 C8.59735107 4.64968262 9.58630371 5.20317383 10.60522461 5.7734375 C12.19040894 6.66796631 12.19040894 6.66796631 13.80761719 7.58056641 C15.4575769 8.50796631 15.4575769 8.50796631 17.14086914 9.45410156 C26.73644443 14.86516598 36.25793824 20.40021949 45.75683594 25.97900391 C50.10569991 28.52930585 54.47475435 31.0420458 58.85375977 33.54003906 C59.49560463 33.90648026 60.13744949 34.27292145 60.7987442 34.65046692 C62.36405769 35.544086 63.92956703 36.43736202 65.49511719 37.33056641 C65.70382198 47.52686537 65.86364767 57.7226549 65.96142673 67.9206562 C66.00836191 72.65636861 66.0719955 77.390618 66.17407227 82.12548828 C66.27200358 86.69677928 66.32570246 91.26666527 66.34901237 95.83892441 C66.36561828 97.58141072 66.39804939 99.32382164 66.4466877 101.06570816 C66.81263967 114.71690676 66.81263967 114.71690676 63.5712738 118.68682861 C61.25215288 120.2614529 59.09984429 121.31464355 56.49511719 122.33056641 C55.1607971 123.07311521 53.83460382 123.83074672 52.52246094 124.61181641 C51.16082354 125.35442187 49.79746716 126.09388206 48.43261719 126.83056641 C40.99182278 130.90761599 33.63487835 135.11548049 26.30761719 139.39306641 C25.28619629 139.98667969 24.26477539 140.58029297 23.21240234 141.19189453 C18.69827982 143.82543579 14.21184529 146.48127749 9.80761719 149.29541016 C9.12078857 149.72909912 8.43395996 150.16278809 7.72631836 150.60961914 C6.48962884 151.39657477 5.26227188 152.19849109 4.04711914 153.01831055 C2.42089844 154.04931641 2.42089844 154.04931641 -0.50488281 155.33056641 C-4.11402048 154.18966132 -7.32496399 152.41150428 -10.61816406 150.56494141 C-12.10147217 149.73482544 -12.10147217 149.73482544 -13.61474609 148.88793945 C-14.67161621 148.29150635 -15.72848633 147.69507324 -16.81738281 147.08056641 C-17.91808105 146.46157471 -19.0187793 145.84258301 -20.15283203 145.20483398 C-41.86531637 132.95617084 -41.86531637 132.95617084 -51.27467346 127.18026733 C-53.62531671 125.83422857 -55.82585104 124.72267626 -58.28848267 123.64584351 C-68.19265688 119.02557165 -68.19265688 119.02557165 -70.38107681 114.5310688 C-71.78595562 109.33441992 -71.55748808 104.00785779 -71.42675781 98.67041016 C-71.43179187 96.95363901 -71.44157829 95.23687589 -71.45587158 93.52015686 C-71.46891564 89.93322375 -71.42916606 86.35193344 -71.35058594 82.76586914 C-71.25379517 78.18399795 -71.28238931 73.61317587 -71.34977341 69.03111935 C-71.38911646 65.48962818 -71.36527705 61.95070007 -71.32236481 58.40933418 C-71.30873519 56.72180376 -71.31359957 55.03401267 -71.33785248 53.34660149 C-71.39112572 48.05247649 -71.21030783 43.37442205 -69.50488281 38.33056641 C-65.56423904 34.47003167 -61.56156694 32.55326235 -56.50488281 30.33056641 C-54.33184503 29.10177076 -52.16973562 27.85322874 -50.02441406 26.57666016 C-47.19492423 24.96548975 -44.36256341 23.35951925 -41.52877808 21.75592041 C-39.68167832 20.71022924 -37.83522173 19.66341761 -35.98925781 18.61572266 C-35.3734938 18.26630615 -34.7577298 17.91688965 -34.12330627 17.55688477 C-29.74031689 15.05961384 -25.40558404 12.48929298 -21.08300781 9.88916016 C-19.31315495 8.83386157 -17.54241952 7.78006174 -15.77133179 6.72683716 C-14.09581367 5.72260659 -12.43168208 4.69945615 -10.76782227 3.67602539 C-9.75421631 3.0747583 -8.74061035 2.47349121 -7.69628906 1.85400391 C-6.81142822 1.31694824 -5.92656738 0.77989258 -5.01489258 0.2265625 C-2.50488281 -0.66943359 -2.50488281 -0.66943359 0 0 Z M-7.21972656 8.83056641 C-8.20328125 9.38043213 -9.18683594 9.93029785 -10.20019531 10.49682617 C-11.27011719 11.10196045 -12.34003906 11.70709473 -13.44238281 12.33056641 C-15.09560547 13.26050415 -15.09560547 13.26050415 -16.78222656 14.20922852 C-26.39378259 19.64346483 -35.90293822 25.24505439 -45.37963867 30.91064453 C-46.44190674 31.54550781 -47.5041748 32.18037109 -48.59863281 32.83447266 C-49.52353516 33.38949463 -50.4484375 33.9445166 -51.40136719 34.51635742 C-55.39848082 36.85293321 -59.45757202 39.08206041 -63.50488281 41.33056641 C-63.50488281 65.09056641 -63.50488281 88.85056641 -63.50488281 113.33056641 C-57.56488281 116.63056641 -51.62488281 119.93056641 -45.50488281 123.33056641 C-41.51576196 125.62867362 -37.53582862 127.9353649 -33.56738281 130.26806641 C-32.06630981 131.14205078 -32.06630981 131.14205078 -30.53491211 132.03369141 C-25.63522157 134.88883124 -20.76016442 137.77461179 -15.92675781 140.74072266 C-14.62919556 141.52491577 -14.62919556 141.52491577 -13.30541992 142.32495117 C-11.68767728 143.30391485 -10.07848975 144.29720728 -8.47973633 145.30688477 C-7.76229248 145.73751221 -7.04484863 146.16813965 -6.30566406 146.61181641 C-5.3800769 147.18512695 -5.3800769 147.18512695 -4.43579102 147.77001953 C-0.79440621 148.82712151 2.04965538 146.56884039 5.22045898 144.87280273 C6.20183838 144.30843506 7.18321777 143.74406738 8.19433594 143.16259766 C9.30945557 142.52338379 10.4245752 141.88416992 11.57348633 141.22558594 C12.77658937 140.53151575 13.9796316 139.83734015 15.18261719 139.14306641 C16.4226247 138.43041087 17.66277975 137.71801198 18.90307617 137.00585938 C22.12287829 135.15599259 25.34030558 133.30203358 28.55725098 131.44720459 C31.09514187 129.9848199 33.63474382 128.52542262 36.17442322 127.06614685 C39.13628431 125.36400248 42.0969775 123.65983449 45.05761719 121.95556641 C46.16258545 121.31981689 47.26755371 120.68406738 48.40600586 120.02905273 C49.42670166 119.44019287 50.44739746 118.85133301 51.49902344 118.24462891 C52.39435791 117.72852051 53.28969238 117.21241211 54.2121582 116.68066406 C56.00699783 115.61923073 57.76011974 114.48723137 59.49511719 113.33056641 C60.08878852 110.31686383 60.08878852 110.31686383 60.18481445 106.70043945 C60.22059097 106.01877213 60.25636749 105.3371048 60.29322815 104.63478088 C60.64255355 97.47270567 60.79316237 90.30083856 60.92993164 83.13208008 C61.00098185 79.73730578 61.13260165 76.35346347 61.31958008 72.96313477 C63.00912297 54.98650235 63.00912297 54.98650235 57.47460938 38.59912109 C52.35862594 34.14429239 46.55153166 31.64151493 40.22006226 29.35696411 C36.52609925 27.96556904 33.43515296 26.10364105 30.08105469 24.02587891 C28.0114606 22.83452585 25.94118111 21.64436243 23.87011719 20.45556641 C21.77359427 19.25013068 19.67723925 18.0444029 17.58105469 16.83837891 C16.58428711 16.26635742 15.58751953 15.69433594 14.56054688 15.10498047 C12.40807369 13.85902833 10.26353096 12.59932324 8.125 11.32958984 C6.50223145 10.36714355 6.50223145 10.36714355 4.84667969 9.38525391 C3.86779785 8.7998584 2.88891602 8.21446289 1.88037109 7.61132812 C-2.05344045 5.49906862 -3.50327828 6.74822005 -7.21972656 8.83056641 Z " fill="#E2EAEB" transform="translate(101.5048828125,21.66943359375)"/>
<path d="M0 0 C1.79608112 0.79971495 3.56816512 1.65544586 5.3125 2.5625 C6.19550781 3.01753906 7.07851562 3.47257812 7.98828125 3.94140625 C8.65214844 4.29074219 9.31601563 4.64007813 10 5 C10 7.31 10 9.62 10 12 C10.639375 12.226875 11.27875 12.45375 11.9375 12.6875 C12.948125 13.120625 13.95875 13.55375 15 14 C15.75925781 14.24878906 16.51851562 14.49757813 17.30078125 14.75390625 C20.11272897 15.89752135 21.88552569 16.79833087 24 19 C25.0915638 23.69106198 25.16236913 28.2003685 25 33 C26.65 33.66 28.3 34.32 30 35 C30 40.28 30 45.56 30 51 C19.72015529 57.01747007 19.72015529 57.01747007 16.1015625 56.9296875 C11.16590138 57.04157906 7.67077346 59.76991111 3.56640625 62.33203125 C0.35788102 64.20203062 -1.39069365 65.11266419 -5.10546875 64.42578125 C-6.06066406 63.95527344 -7.01585938 63.48476562 -8 63 C-8.97582031 62.53722656 -9.95164062 62.07445312 -10.95703125 61.59765625 C-11.89933594 61.09105469 -12.84164062 60.58445313 -13.8125 60.0625 C-14.76769531 59.55847656 -15.72289063 59.05445313 -16.70703125 58.53515625 C-19 57 -19 57 -20 54 C-16.25 50.125 -16.25 50.125 -14 49 C-13.53348793 46.87423218 -13.53348793 46.87423218 -13.375 44.4375 C-13.25125 42.973125 -13.1275 41.50875 -13 40 C-15.97 41.32 -18.94 42.64 -22 44 C-21.25 41.5625 -21.25 41.5625 -20 39 C-17.875 38.1875 -17.875 38.1875 -16 38 C-18.3520169 35.27661201 -20.47654806 33.83891713 -24 33 C-26.69519712 34.30027975 -26.69519712 34.30027975 -29 36 C-29.66 36 -30.32 36 -31 36 C-32.75537239 30.73388283 -32.32432039 25.35106105 -31 20 C-28.68472069 17.43106538 -26.15966539 16.30559759 -23 15 C-21.576875 14.1028125 -21.576875 14.1028125 -20.125 13.1875 C-18 12 -18 12 -16 12 C-16.2784375 10.700625 -16.2784375 10.700625 -16.5625 9.375 C-16 6 -16 6 -14.06640625 4.30078125 C-5.38320846 -1.43707585 -5.38320846 -1.43707585 0 0 Z " fill="#DCE9E9" transform="translate(103,67)"/>
<path d="M0 0 C0 1.98 0 3.96 0 6 C0.886875 6.268125 1.77375 6.53625 2.6875 6.8125 C6 8 6 8 8.5625 9.6875 C11.64898023 11.3494509 12.67556102 10.90845083 16 10 C18.44018126 9.01956351 18.44018126 9.01956351 20.75 7.75 C21.52859375 7.35296875 22.3071875 6.9559375 23.109375 6.546875 C25.54911629 4.55072303 25.69110485 3.06835844 26 0 C27.64703306 0.81006526 29.29259506 1.6231221 30.9375 2.4375 C31.85402344 2.88996094 32.77054688 3.34242187 33.71484375 3.80859375 C36 5 36 5 37 6 C37.07205511 7.68608966 37.08386068 9.37500659 37.0625 11.0625 C37.05347656 11.98160156 37.04445312 12.90070313 37.03515625 13.84765625 C37.02355469 14.55792969 37.01195312 15.26820312 37 16 C36.29359375 15.79375 35.5871875 15.5875 34.859375 15.375 C30.25720825 14.77143715 27.30111137 16.41024892 23.33984375 18.6328125 C19.74939445 22.2652203 19.83424022 26.13317426 19.79589844 30.96875 C19.82682104 32.64692785 19.90831281 34.32404339 20 36 C21.2065625 36.433125 21.2065625 36.433125 22.4375 36.875 C25 38 25 38 26 40 C24.14123491 41.2331613 22.26216916 42.43576201 20.375 43.625 C19.33085938 44.29789063 18.28671875 44.97078125 17.2109375 45.6640625 C14 47 14 47 10.875 46.3671875 C8.36491487 45.17353289 5.9771682 43.97799074 3.625 42.5 C2.59246094 41.86578125 2.59246094 41.86578125 1.5390625 41.21875 C1.03117187 40.8165625 0.52328125 40.414375 0 40 C0 39.34 0 38.68 0 38 C1.98 37.34 3.96 36.68 6 36 C6.28514814 30.78775726 6.26435146 26.08928025 5 21 C1.7952505 17.70834204 -1.53933579 16.0370897 -6 15 C-9.26331679 15.2949568 -9.26331679 15.2949568 -12 16 C-12.62377797 12.49298162 -12.86922601 9.47690404 -12 6 C-8.78562027 3.01854634 -4.52663386 0 0 0 Z " fill="#05AEB6" transform="translate(87,82)"/>
<path d="M0 0 C-0.99 0 -1.98 0 -3 0 C-3 0.99 -3 1.98 -3 3 C-4.98 3.99 -6.96 4.98 -9 6 C-7.68 7.32 -6.36 8.64 -5 10 C-5.33 10.66 -5.66 11.32 -6 12 C-7.65 11.34 -9.3 10.68 -11 10 C-11 12.97 -11 15.94 -11 19 C-9.02 19.99 -7.04 20.98 -5 22 C-4.67 19.36 -4.34 16.72 -4 14 C-3.67 14 -3.34 14 -3 14 C-2.91909029 15.62418745 -2.86085005 17.24951745 -2.8125 18.875 C-2.76029297 20.23238281 -2.76029297 20.23238281 -2.70703125 21.6171875 C-2.80371094 22.40351562 -2.90039062 23.18984375 -3 24 C-3.99 24.66 -4.98 25.32 -6 26 C-8.97 24.35 -11.94 22.7 -15 21 C-15 19.02 -15 17.04 -15 15 C-15.69867188 15.433125 -16.39734375 15.86625 -17.1171875 16.3125 C-18.02726562 16.869375 -18.93734375 17.42625 -19.875 18 C-20.77992187 18.556875 -21.68484375 19.11375 -22.6171875 19.6875 C-25 21 -25 21 -27 21 C-27 24.3 -27 27.6 -27 31 C-26.01 30.34 -25.02 29.68 -24 29 C-18.29725812 29.58635157 -12.84730013 31.69102385 -9 36 C-8.11437565 41.13125383 -8.4101272 45.84844423 -9 51 C-10.98 51.66 -12.96 52.32 -15 53 C-11.6018135 56.66874275 -7.62273894 59.11970299 -3 61 C-0.31353368 60.79372806 -0.31353368 60.79372806 2 59 C3.43729128 58.12465719 4.87480589 57.24968103 6.3125 56.375 C7.54418995 55.58726484 8.77422398 54.79690649 10 54 C9.18144531 53.66355469 8.36289063 53.32710937 7.51953125 52.98046875 C5 51 5 51 4.51171875 47.42578125 C4.54485752 46.05383624 4.60436405 44.6823247 4.6875 43.3125 C4.71005859 42.61060547 4.73261719 41.90871094 4.75585938 41.18554688 C4.81468353 39.4561167 4.90436611 37.72778562 5 36 C6.65 35.34 8.3 34.68 10 34 C9.67 34.99 9.34 35.98 9 37 C12.62197194 38.49140021 16.27566618 39.7874262 20 41 C20 44.96 20 48.92 20 53 C20.99 53.495 20.99 53.495 22 54 C21.34 54.99 20.68 55.98 20 57 C18.68515625 56.96519531 18.68515625 56.96519531 17.34375 56.9296875 C12.24595819 57.03688406 8.80590574 59.68555581 4.56640625 62.33203125 C1.35788102 64.20203062 -0.39069365 65.11266419 -4.10546875 64.42578125 C-5.06066406 63.95527344 -6.01585938 63.48476562 -7 63 C-7.97582031 62.53722656 -8.95164062 62.07445312 -9.95703125 61.59765625 C-10.89933594 61.09105469 -11.84164062 60.58445313 -12.8125 60.0625 C-13.76769531 59.55847656 -14.72289063 59.05445313 -15.70703125 58.53515625 C-18 57 -18 57 -19 54 C-15.25 50.125 -15.25 50.125 -13 49 C-12.53348793 46.87423218 -12.53348793 46.87423218 -12.375 44.4375 C-12.25125 42.973125 -12.1275 41.50875 -12 40 C-14.97 41.32 -17.94 42.64 -21 44 C-20.25 41.5625 -20.25 41.5625 -19 39 C-16.875 38.1875 -16.875 38.1875 -15 38 C-17.3520169 35.27661201 -19.47654806 33.83891713 -23 33 C-25.69519712 34.30027975 -25.69519712 34.30027975 -28 36 C-28.66 36 -29.32 36 -30 36 C-31.75537239 30.73388283 -31.32432039 25.35106105 -30 20 C-27.68472069 17.43106538 -25.15966539 16.30559759 -22 15 C-20.576875 14.1028125 -20.576875 14.1028125 -19.125 13.1875 C-17 12 -17 12 -15 12 C-15.2784375 10.700625 -15.2784375 10.700625 -15.5625 9.375 C-15 6 -15 6 -13.06640625 4.30078125 C-4.51030391 -1.35309117 -4.51030391 -1.35309117 0 0 Z " fill="#D4E7E7" transform="translate(102,67)"/>
<path d="M0 0 C1.20456144 0.72227972 2.39854669 1.46395361 3.5625 2.25 C3.5625 2.91 3.5625 3.57 3.5625 4.25 C2.923125 4.518125 2.28375 4.78625 1.625 5.0625 C-0.76881686 6.13667752 -0.76881686 6.13667752 -1.4375 9.25 C-0.014375 8.5075 -0.014375 8.5075 1.4375 7.75 C4.5625 6.25 4.5625 6.25 6.5625 6.25 C6.5625 9.22 6.5625 12.19 6.5625 15.25 C5.3559375 15.5903125 5.3559375 15.5903125 4.125 15.9375 C3.279375 16.370625 2.43375 16.80375 1.5625 17.25 C0.66863836 19.79775306 0.66863836 19.79775306 0.5625 22.25 C-4.2520121 23.71528629 -7.26473076 23.36167382 -11.875 21.25 C-14.44921875 19.609375 -14.44921875 19.609375 -16.4375 17.25 C-17.42677498 12.11232885 -17.30608419 7.43668847 -16.4375 2.25 C-15.7775 1.59 -15.1175 0.93 -14.4375 0.25 C-13.4475 0.25 -12.4575 0.25 -11.4375 0.25 C-11.4375 0.91 -11.4375 1.57 -11.4375 2.25 C-10.4475 1.5075 -9.4575 0.765 -8.4375 0 C-5.01422061 -2.01616455 -3.50403424 -1.7988625 0 0 Z " fill="#DAE8E9" transform="translate(83.4375,100.75)"/>
<path d="M0 0 C0.66 0.33 1.32 0.66 2 1 C1.67 1.66 1.34 2.32 1 3 C4.62197194 4.49140021 8.27566618 5.7874262 12 7 C12 10.96 12 14.92 12 19 C12.66 19.33 13.32 19.66 14 20 C13.34 20.99 12.68 21.98 12 23 C11.1234375 22.97679688 10.246875 22.95359375 9.34375 22.9296875 C4.24595819 23.03688406 0.80590574 25.68555581 -3.43359375 28.33203125 C-6.64211898 30.20203062 -8.39069365 31.11266419 -12.10546875 30.42578125 C-13.06066406 29.95527344 -14.01585938 29.48476562 -15 29 C-15.97582031 28.53722656 -16.95164062 28.07445312 -17.95703125 27.59765625 C-18.89933594 27.09105469 -19.84164062 26.58445312 -20.8125 26.0625 C-21.76769531 25.55847656 -22.72289063 25.05445312 -23.70703125 24.53515625 C-26 23 -26 23 -27 20 C-26.01 18.515 -26.01 18.515 -25 17 C-24.34 17.33 -23.68 17.66 -23 18 C-23.33 18.99 -23.66 19.98 -24 21 C-23.154375 21.2475 -22.30875 21.495 -21.4375 21.75 C-18.66929623 22.75661955 -16.84693631 23.68597994 -14.4375 25.25 C-11.26495421 27.30082894 -11.26495421 27.30082894 -8.5625 26.5625 C-7.716875 26.046875 -6.87125 25.53125 -6 25 C-4.96746094 24.37544922 -4.96746094 24.37544922 -3.9140625 23.73828125 C-1.92355475 22.51953177 0.04329932 21.27209821 2 20 C1.1853125 19.66097656 0.370625 19.32195312 -0.46875 18.97265625 C-3 17 -3 17 -3.59375 13.49609375 C-3.58844847 12.14287868 -3.55628231 10.78955453 -3.5 9.4375 C-3.50386719 8.40979492 -3.50386719 8.40979492 -3.5078125 7.36132812 C-3.46875 5.37109375 -3.46875 5.37109375 -3 2 C-2.01 1.34 -1.02 0.68 0 0 Z " fill="#DDE9E9" transform="translate(110,101)"/>
<path d="M0 0 C0 3.3 0 6.6 0 10 C-6.75 14 -6.75 14 -9 14 C-9.49058349 10.87253023 -9.70077352 8.10416714 -9 5 C-6.77242346 2.81727399 -3.29387714 0 0 0 Z " fill="#0CB0B8" transform="translate(110,76)"/>
<path d="M0 0 C3.40312738 1.05875074 6.01353231 2.00902154 9 4 C9.29296875 6.1640625 9.29296875 6.1640625 9.1875 8.625 C9.16042969 9.44226563 9.13335937 10.25953125 9.10546875 11.1015625 C9.07066406 11.72804688 9.03585938 12.35453125 9 13 C5.59687262 11.94124926 2.98646769 10.99097846 0 9 C-0.29296875 6.8359375 -0.29296875 6.8359375 -0.1875 4.375 C-0.16042969 3.55773437 -0.13335937 2.74046875 -0.10546875 1.8984375 C-0.05326172 0.95871094 -0.05326172 0.95871094 0 0 Z " fill="#10B1B8" transform="translate(110,107)"/>
<path d="M0 0 C0 2.97 0 5.94 0 9 C-6.75 13 -6.75 13 -9 13 C-9 10.03 -9 7.06 -9 4 C-2.25 0 -2.25 0 0 0 Z " fill="#0AAFB7" transform="translate(90,107)"/>
<path d="M0 0 C2.21162832 1.37479598 4.2936149 2.79248251 6.3125 4.4375 C1.22159091 8.4375 1.22159091 8.4375 -2.8125 8.4375 C-6.02267657 7.32091685 -7.52261309 6.01871132 -9.6875 3.4375 C-3.44856195 -0.72179204 -3.44856195 -0.72179204 0 0 Z " fill="#0DB0B8" transform="translate(121.6875,99.5625)"/>
<path d="M0 0 C1.875 1.625 1.875 1.625 3 3 C-3.33390119 7.01959114 -3.33390119 7.01959114 -6.125 6.9375 C-8.50319007 5.74840497 -10.7597182 4.43129115 -13 3 C-8.67659376 -1.75574686 -6.05317396 -2.70460964 0 0 Z " fill="#0BB0B7" transform="translate(105,71)"/>
<path d="M0 0 C1.20456144 0.72227972 2.39854669 1.46395361 3.5625 2.25 C3.5625 2.91 3.5625 3.57 3.5625 4.25 C0.7293507 6.49985386 -0.85105206 7.26196833 -4.5 7.1875 C-7.79612684 6.13554463 -9.23714415 4.87350121 -11.4375 2.25 C-5.00892857 -2.57142857 -5.00892857 -2.57142857 0 0 Z " fill="#0AAFB7" transform="translate(83.4375,100.75)"/>
<path d="M0 0 C5.75 1.75 5.75 1.75 8 4 C8.1953125 6.1640625 8.1953125 6.1640625 8.125 8.625 C8.10695313 9.44226563 8.08890625 10.25953125 8.0703125 11.1015625 C8.03550781 12.04128906 8.03550781 12.04128906 8 13 C5.0280615 11.87548273 2.66559313 10.77706209 0 9 C-0.29296875 6.8359375 -0.29296875 6.8359375 -0.1875 4.375 C-0.16042969 3.55773437 -0.13335937 2.74046875 -0.10546875 1.8984375 C-0.05326172 0.95871094 -0.05326172 0.95871094 0 0 Z " fill="#07AFB6" transform="translate(70,107)"/>
<path d="M0 0 C3.96 1.98 3.96 1.98 8 4 C8 7.3 8 10.6 8 14 C5.36 12.68 2.72 11.36 0 10 C0 6.7 0 3.4 0 0 Z " fill="#07AEB6" transform="translate(90,76)"/>
<path d="M0 0 C0 2.97 0 5.94 0 9 C-3.96 10.98 -3.96 10.98 -8 13 C-8 9.7 -8 6.4 -8 3 C-2.25 0 -2.25 0 0 0 Z " fill="#05AEB6" transform="translate(130,107)"/>
<path d="M0 0 C0.66 0.33 1.32 0.66 2 1 C-0.36292656 3.52588702 -1.66462511 4.88820837 -5 6 C-4.75 4.125 -4.75 4.125 -4 2 C-2.0625 0.6875 -2.0625 0.6875 0 0 Z " fill="#E5EBEB" transform="translate(82,81)"/>
</svg>
