<?xml version="1.0" encoding="UTF-8"?>
<svg version="1.1" xmlns="http://www.w3.org/2000/svg" width="512" height="512">
<path d="M0 0 C0.92320038 0.00215515 1.84640076 0.0043103 2.7975769 0.00653076 C28.52193968 0.10274026 53.62031117 3.26213923 77.83959961 12.41015625 C80.07318457 13.20508451 82.24288361 13.81968553 84.55078125 14.34765625 C88.80492651 15.42096971 92.57912651 16.94147246 96.5625 18.75 C97.32498047 19.09345459 98.08746094 19.43690918 98.87304688 19.79077148 C111.34793769 25.50087839 124.19513043 31.44711842 135.19921875 39.71484375 C137.65200654 41.51590337 140.20676255 43.05426876 142.8125 44.625 C148.98881147 48.50700368 154.08113712 53.32860135 159.375 58.3125 C160.61936089 59.38159879 161.86892932 60.4446836 163.125 61.5 C173.09656177 70.19421295 182.44216697 79.72325958 190.375 90.3125 C191.62382843 91.89675755 192.87380719 93.48010909 194.125 95.0625 C204.68257554 108.49009608 213.17966441 123.86102646 220.375 139.3125 C220.70016602 140.00682129 221.02533203 140.70114258 221.36035156 141.41650391 C227.65767192 154.97590651 227.65767192 154.97590651 228.86328125 161.8984375 C229.41207455 164.4874013 230.20347138 166.95433854 231.03540039 169.46459961 C233.46218253 176.80672857 235.3919002 184.19996873 237.0625 191.75 C237.36571167 193.08732178 237.36571167 193.08732178 237.67504883 194.45166016 C240.99134603 209.89459218 241.7522992 225.19342462 241.6875 240.9375 C241.68476578 242.32030655 241.68476578 242.32030655 241.68197632 243.73104858 C241.63531716 257.76785692 241.17555638 271.51378547 238.375 285.3125 C238.10163818 286.66093994 238.10163818 286.66093994 237.82275391 288.03662109 C235.67588744 298.27593657 232.94533673 308.23922487 229.484375 318.109375 C228.54888505 320.81043753 227.7484161 323.49363825 227 326.25 C221.87610728 343.46175014 212.53861271 363.19941007 201.375 377.3125 C200.715 377.3125 200.055 377.3125 199.375 377.3125 C199.189375 378.116875 199.00375 378.92125 198.8125 379.75 C196.86556008 384.57502502 193.94151891 388.52727946 190.375 392.3125 C189.715 392.3125 189.055 392.3125 188.375 392.3125 C188.12363281 392.869375 187.87226563 393.42625 187.61328125 394 C186.17371538 396.68840061 184.46342596 398.92816457 182.5625 401.3125 C181.89605469 402.158125 181.22960937 403.00375 180.54296875 403.875 C178.33285083 406.35988934 175.98151845 408.25799899 173.375 410.3125 C172.19503688 411.59440378 171.04686005 412.9065304 169.9375 414.25 C165.88733588 418.97228187 161.30234791 422.63085192 156.3125 426.3125 C153.97675517 428.03796564 152.07300884 429.63081501 150.0625 431.75 C146.75184361 434.90667237 143.1360191 437.10350486 139.25 439.49609375 C136.6338461 441.14896272 134.17170729 442.90782602 131.6875 444.75 C125.6677316 449.0104364 119.12234202 452.08768769 112.49804688 455.27880859 C109.66660235 456.6574121 106.86324488 458.08881946 104.05737305 459.51855469 C92.14400279 465.56359696 80.21425042 469.72838878 67.375 473.3125 C66.60414063 473.53083496 65.83328125 473.74916992 65.0390625 473.97412109 C53.59166002 477.19964542 42.16216708 479.69722627 30.375 481.3125 C29.17085449 481.48523438 27.96670898 481.65796875 26.72607422 481.8359375 C22.05110061 482.41262426 17.41315445 482.49224026 12.70703125 482.515625 C11.79153 482.52132507 10.87602875 482.52702515 9.93278503 482.53289795 C7.99727515 482.54230385 6.06174957 482.54886428 4.1262207 482.55273438 C1.24074145 482.56232307 -1.64398784 482.59333952 -4.52929688 482.625 C-22.39406365 482.72876539 -39.52986412 480.53164113 -56.8125 476 C-57.99811523 475.69513672 -59.18373047 475.39027344 -60.40527344 475.07617188 C-86.86106143 468.15464127 -111.87771478 457.65369235 -134.625 442.3125 C-135.42164063 441.78914063 -136.21828125 441.26578125 -137.0390625 440.7265625 C-139.24644462 439.27220037 -141.43902553 437.79879704 -143.625 436.3125 C-144.5840625 435.66474609 -144.5840625 435.66474609 -145.5625 435.00390625 C-149.32066417 432.4039694 -152.38537761 429.55212239 -155.625 426.3125 C-157.03300643 425.23855 -158.45068206 424.17722104 -159.875 423.125 C-164.32229611 419.74150894 -167.84406751 415.87110129 -171.49609375 411.66015625 C-173.34350918 409.62291465 -175.17817218 407.90903475 -177.3125 406.1875 C-181.84676882 402.47764369 -185.76053957 397.90588128 -187.625 392.3125 C-188.615 391.9825 -189.605 391.6525 -190.625 391.3125 C-192.16015625 389.421875 -192.16015625 389.421875 -193.6875 387.0625 C-194.19410156 386.29421875 -194.70070312 385.5259375 -195.22265625 384.734375 C-196.62074135 382.31985476 -197.65672124 379.92546278 -198.625 377.3125 C-199.285 377.3125 -199.945 377.3125 -200.625 377.3125 C-202.38474226 374.8265149 -203.98941738 372.35244418 -205.5625 369.75 C-206.04468994 368.95658203 -206.52687988 368.16316406 -207.02368164 367.34570312 C-216.08530697 352.09575811 -224.20812665 335.48550623 -229.0625 318.375 C-229.26858887 317.65683105 -229.47467773 316.93866211 -229.68701172 316.19873047 C-230.3400991 313.90526162 -230.9827098 311.60901318 -231.625 309.3125 C-231.84333496 308.54695801 -232.06166992 307.78141602 -232.28662109 306.99267578 C-237.27697959 289.42528997 -240.72740859 271.36719268 -240.828125 253.0546875 C-240.83513931 252.19712357 -240.84215363 251.33955963 -240.84938049 250.45600891 C-240.86680179 247.69978532 -240.87323383 244.94377665 -240.875 242.1875 C-240.87601212 240.77472275 -240.87601212 240.77472275 -240.87704468 239.33340454 C-240.860879 225.13827852 -240.45759458 211.26907099 -237.625 197.3125 C-237.44275879 196.41354004 -237.26051758 195.51458008 -237.07275391 194.58837891 C-234.93408115 184.3881427 -232.23834349 174.45285423 -228.73828125 164.63671875 C-227.92195838 162.19920731 -227.2705058 159.89693119 -226.6953125 157.40625 C-225.64677054 153.08766137 -224.02134858 149.16414435 -222.1875 145.125 C-221.84404541 144.36251953 -221.50059082 143.60003906 -221.14672852 142.81445312 C-215.43662161 130.33956231 -209.49038158 117.49236957 -201.22265625 106.48828125 C-199.42159663 104.03549346 -197.88323124 101.48073745 -196.3125 98.875 C-192.43074301 92.69908102 -187.6098674 87.60487545 -182.625 82.3125 C-181.45114669 80.96455828 -180.28373144 79.61096287 -179.125 78.25 C-174.87677095 73.35748977 -170.23729485 68.85805747 -165.625 64.3125 C-164.80902344 63.47976562 -163.99304688 62.64703125 -163.15234375 61.7890625 C-146.2507378 45.22705606 -124.96790719 32.29507731 -103.625 22.3125 C-102.86300293 21.95349609 -102.10100586 21.59449219 -101.31591797 21.22460938 C-98.94586118 20.11511774 -96.5686721 19.0229106 -94.1875 17.9375 C-93.46643066 17.60347168 -92.74536133 17.26944336 -92.00244141 16.92529297 C-87.63935775 14.97600082 -83.44784926 13.71648632 -78.76635742 12.7734375 C-75.59513532 12.09081667 -72.57146917 11.03619894 -69.5 10 C-62.80758683 7.83903514 -56.05270718 6.14406838 -49.1875 4.625 C-47.85017822 4.32178833 -47.85017822 4.32178833 -46.48583984 4.01245117 C-31.04342847 0.69626578 -15.74370615 -0.06636849 0 0 Z " fill="#326CE5" transform="translate(255.625,14.6875)"/>
<path d="M0 0 C0 3.38678209 -0.74025311 4.73315998 -2.3125 7.6875 C-3.90950689 10.69447694 -5.27794538 13.66742612 -6.4375 16.86328125 C-7.91577418 20.89877532 -9.72708587 24.67974316 -11.6875 28.5 C-12.39327281 29.89450916 -13.09900061 31.28904111 -13.8046875 32.68359375 C-14.16530273 33.39241699 -14.52591797 34.10124023 -14.89746094 34.83154297 C-16.71337944 38.40306382 -18.51426798 41.98205021 -20.3125 45.5625 C-20.63758545 46.20445312 -20.9626709 46.84640625 -21.29760742 47.5078125 C-22.77541695 50.44732255 -24.16006812 53.3762248 -25.44921875 56.40625 C-27.63346012 61.46796803 -30.16423244 66.33870469 -32.68359375 71.24023438 C-33.06644531 71.99498047 -33.44929687 72.74972656 -33.84375 73.52734375 C-34.18599609 74.19499756 -34.52824219 74.86265137 -34.88085938 75.55053711 C-35.83145661 77.63110911 -36.63401065 79.68761148 -37.4152832 81.83447266 C-38.855646 85.73406666 -40.60947088 89.42781478 -42.51171875 93.12109375 C-43.2240393 94.52542541 -43.93541187 95.93023819 -44.64599609 97.33544922 C-45.21516754 98.45919952 -45.21516754 98.45919952 -45.7958374 99.60565186 C-47.98662324 103.96179447 -50.12690867 108.34267532 -52.26953125 112.72265625 C-52.947845 114.10920914 -52.947845 114.10920914 -53.63986206 115.52377319 C-54.56389666 117.41370388 -55.48756994 119.30381127 -56.41088867 121.1940918 C-57.82620366 124.09054464 -59.24413144 126.98570944 -60.66210938 129.88085938 C-61.57307585 131.74471387 -62.4838888 133.60864342 -63.39453125 135.47265625 C-63.81330032 136.32690689 -64.2320694 137.18115753 -64.66352844 138.06129456 C-66.39058376 141.60274692 -68.08897647 145.14088045 -69.62573242 148.76953125 C-70.85132733 151.65051753 -72.17024372 154.42786182 -73.59375 157.21484375 C-74.30337891 158.61573242 -74.30337891 158.61573242 -75.02734375 160.04492188 C-76.00753555 161.97020577 -76.98930195 163.89468883 -77.97265625 165.81835938 C-80.08052229 169.98527168 -82.11022748 174.08780721 -83.6953125 178.484375 C-85.8732838 184.35315994 -89.3106256 188.21852807 -95 191 C-96.47385324 191.58242396 -97.95082489 192.15697807 -99.4296875 192.7265625 C-106.48575196 195.52954269 -113.24419547 198.92769155 -120.04882812 202.28515625 C-121.03173828 202.76339844 -122.01464844 203.24164063 -123.02734375 203.734375 C-123.91156006 204.16975586 -124.79577637 204.60513672 -125.70678711 205.05371094 C-128 206 -128 206 -131 206 C-131 206.66 -131 207.32 -131 208 C-131.52464844 208.18433594 -132.04929687 208.36867188 -132.58984375 208.55859375 C-139.23453419 211.04620664 -145.38350657 214.22571824 -151.58178711 217.65014648 C-156.05963797 220.09170033 -160.57000456 222.06258198 -165.32275391 223.90625 C-171.37275286 226.37788918 -177.19066917 229.39468988 -183.04882812 232.28515625 C-184.03173828 232.76339844 -185.01464844 233.24164063 -186.02734375 233.734375 C-186.91156006 234.16975586 -187.79577637 234.60513672 -188.70678711 235.05371094 C-191 236 -191 236 -194 236 C-194 236.66 -194 237.32 -194 238 C-195.03833984 238.4021875 -195.03833984 238.4021875 -196.09765625 238.8125 C-202.78752939 241.49197488 -209.11990056 244.53183854 -215.39477539 248.05664062 C-219.59588506 250.38009137 -223.87413545 252.17712864 -228.34570312 253.91772461 C-233.94696324 256.20160854 -239.33612557 258.9682155 -244.75976562 261.640625 C-245.65244141 262.07375 -246.54511719 262.506875 -247.46484375 262.953125 C-248.66548462 263.54335449 -248.66548462 263.54335449 -249.89038086 264.14550781 C-252 265 -252 265 -255 265 C-255 265.66 -255 266.32 -255 267 C-255.78503906 267.32613281 -256.57007813 267.65226562 -257.37890625 267.98828125 C-262.93150673 270.29789053 -268.47894701 272.61590894 -274 275 C-272.34651103 269.3136111 -270.21158224 264.39853229 -267.23828125 259.28515625 C-266.03093874 257.05709514 -265.12968925 254.87395593 -264.25 252.5 C-262.10592954 246.87620864 -259.25410341 241.67494206 -256.34863281 236.41601562 C-253.90847563 231.94063659 -251.93484098 227.43184425 -250.08984375 222.68261719 C-248.0413527 217.64031888 -245.62513502 212.76966316 -243.25 207.875 C-242.71922852 206.77551025 -242.18845703 205.67602051 -241.64160156 204.54321289 C-237.16840747 195.29775276 -232.61137497 186.09641919 -227.953125 176.94287109 C-227.23309283 175.52791657 -226.51467315 174.11214036 -225.79785156 172.69555664 C-225.13161391 171.37906979 -224.46206171 170.06425114 -223.78808594 168.75170898 C-222.07396057 165.35995776 -220.56505285 161.95114245 -219.19580078 158.40527344 C-217.05020637 153.00583579 -214.5782136 147.80957661 -212.0078125 142.6015625 C-211.30517776 141.1672438 -211.30517776 141.1672438 -210.58834839 139.70394897 C-209.1039467 136.67595972 -207.61451702 133.65047563 -206.125 130.625 C-205.13379257 128.60432459 -204.14290458 126.58349246 -203.15234375 124.5625 C-194.48946577 106.90319776 -194.48946577 106.90319776 -190.03735352 98.20800781 C-189.09049099 96.19261016 -188.45995167 94.24825647 -187.8125 92.125 C-184.42419736 86.28309889 -177.72951702 84.14995037 -171.69921875 81.609375 C-166.5913112 79.44323089 -161.69177045 76.85143163 -156.75976562 74.31640625 C-152.55156157 72.18175791 -148.37399915 70.34053508 -143.9362793 68.7421875 C-140.63435226 67.47653901 -137.5183521 65.86255266 -134.375 64.25 C-132.97786718 63.54296362 -131.58073171 62.83593248 -130.18359375 62.12890625 C-129.48733887 61.7745752 -128.79108398 61.42024414 -128.07373047 61.05517578 C-124.86637824 59.42317951 -121.65291327 57.80354127 -118.4375 56.1875 C-117.36371094 55.64480469 -116.28992188 55.10210937 -115.18359375 54.54296875 C-113.03362449 53.50095911 -110.85581992 52.51479279 -108.65625 51.58203125 C-103.57507341 49.38344522 -98.6822661 46.84654644 -93.75976562 44.31640625 C-89.55156157 42.18175791 -85.37399915 40.34053508 -80.9362793 38.7421875 C-77.63435226 37.47653901 -74.5183521 35.86255266 -71.375 34.25 C-69.97786718 33.54296362 -68.58073171 32.83593248 -67.18359375 32.12890625 C-66.48733887 31.7745752 -65.79108398 31.42024414 -65.07373047 31.05517578 C-61.86637824 29.42317951 -58.65291327 27.80354127 -55.4375 26.1875 C-54.36371094 25.64480469 -53.28992188 25.10210937 -52.18359375 24.54296875 C-50.01006076 23.48953865 -47.8083636 22.49280464 -45.5859375 21.546875 C-41.69718922 19.86937574 -37.95498964 17.991834 -34.1875 16.0625 C-29.10744244 13.48767631 -24.05714543 11.15562198 -18.7265625 9.140625 C-12.32185171 6.4612904 -6.17873965 3.1583632 0 0 Z " fill="#FCFDFE" transform="translate(393,118)"/>
<path d="M0 0 C0.92320038 0.00215515 1.84640076 0.0043103 2.7975769 0.00653076 C28.52193968 0.10274026 53.62031117 3.26213923 77.83959961 12.41015625 C80.07318457 13.20508451 82.24288361 13.81968553 84.55078125 14.34765625 C88.80492651 15.42096971 92.57912651 16.94147246 96.5625 18.75 C97.32498047 19.09345459 98.08746094 19.43690918 98.87304688 19.79077148 C111.34793769 25.50087839 124.19513043 31.44711842 135.19921875 39.71484375 C137.65200654 41.51590337 140.20676255 43.05426876 142.8125 44.625 C148.98881147 48.50700368 154.08113712 53.32860135 159.375 58.3125 C160.61936089 59.38159879 161.86892932 60.4446836 163.125 61.5 C173.09656177 70.19421295 182.44216697 79.72325958 190.375 90.3125 C191.62382843 91.89675755 192.87380719 93.48010909 194.125 95.0625 C204.68257554 108.49009608 213.17966441 123.86102646 220.375 139.3125 C220.70016602 140.00682129 221.02533203 140.70114258 221.36035156 141.41650391 C227.65767192 154.97590651 227.65767192 154.97590651 228.86328125 161.8984375 C229.41207455 164.4874013 230.20347138 166.95433854 231.03540039 169.46459961 C233.46218253 176.80672857 235.3919002 184.19996873 237.0625 191.75 C237.36571167 193.08732178 237.36571167 193.08732178 237.67504883 194.45166016 C240.99134603 209.89459218 241.7522992 225.19342462 241.6875 240.9375 C241.68476578 242.32030655 241.68476578 242.32030655 241.68197632 243.73104858 C241.63531716 257.76785692 241.17555638 271.51378547 238.375 285.3125 C238.10163818 286.66093994 238.10163818 286.66093994 237.82275391 288.03662109 C235.67588744 298.27593657 232.94533673 308.23922487 229.484375 318.109375 C228.54888505 320.81043753 227.7484161 323.49363825 227 326.25 C221.87610728 343.46175014 212.53861271 363.19941007 201.375 377.3125 C200.715 377.3125 200.055 377.3125 199.375 377.3125 C199.189375 378.116875 199.00375 378.92125 198.8125 379.75 C196.86556008 384.57502502 193.94151891 388.52727946 190.375 392.3125 C189.715 392.3125 189.055 392.3125 188.375 392.3125 C188.12363281 392.869375 187.87226563 393.42625 187.61328125 394 C186.17371538 396.68840061 184.46342596 398.92816457 182.5625 401.3125 C181.89605469 402.158125 181.22960937 403.00375 180.54296875 403.875 C178.33285083 406.35988934 175.98151845 408.25799899 173.375 410.3125 C172.19503688 411.59440378 171.04686005 412.9065304 169.9375 414.25 C165.88733588 418.97228187 161.30234791 422.63085192 156.3125 426.3125 C153.97675517 428.03796564 152.07300884 429.63081501 150.0625 431.75 C146.75184361 434.90667237 143.1360191 437.10350486 139.25 439.49609375 C136.6338461 441.14896272 134.17170729 442.90782602 131.6875 444.75 C125.6677316 449.0104364 119.12234202 452.08768769 112.49804688 455.27880859 C109.66660235 456.6574121 106.86324488 458.08881946 104.05737305 459.51855469 C92.14400279 465.56359696 80.21425042 469.72838878 67.375 473.3125 C66.60414063 473.53083496 65.83328125 473.74916992 65.0390625 473.97412109 C53.59166002 477.19964542 42.16216708 479.69722627 30.375 481.3125 C29.17085449 481.48523438 27.96670898 481.65796875 26.72607422 481.8359375 C22.05110061 482.41262426 17.41315445 482.49224026 12.70703125 482.515625 C11.79153 482.52132507 10.87602875 482.52702515 9.93278503 482.53289795 C7.99727515 482.54230385 6.06174957 482.54886428 4.1262207 482.55273438 C1.24074145 482.56232307 -1.64398784 482.59333952 -4.52929688 482.625 C-22.39406365 482.72876539 -39.52986412 480.53164113 -56.8125 476 C-57.99811523 475.69513672 -59.18373047 475.39027344 -60.40527344 475.07617188 C-86.86106143 468.15464127 -111.87771478 457.65369235 -134.625 442.3125 C-135.42164063 441.78914063 -136.21828125 441.26578125 -137.0390625 440.7265625 C-139.24644462 439.27220037 -141.43902553 437.79879704 -143.625 436.3125 C-144.5840625 435.66474609 -144.5840625 435.66474609 -145.5625 435.00390625 C-149.32066417 432.4039694 -152.38537761 429.55212239 -155.625 426.3125 C-157.03300643 425.23855 -158.45068206 424.17722104 -159.875 423.125 C-164.32229611 419.74150894 -167.84406751 415.87110129 -171.49609375 411.66015625 C-173.34350918 409.62291465 -175.17817218 407.90903475 -177.3125 406.1875 C-181.84676882 402.47764369 -185.76053957 397.90588128 -187.625 392.3125 C-188.615 391.9825 -189.605 391.6525 -190.625 391.3125 C-192.16015625 389.421875 -192.16015625 389.421875 -193.6875 387.0625 C-194.19410156 386.29421875 -194.70070312 385.5259375 -195.22265625 384.734375 C-196.62074135 382.31985476 -197.65672124 379.92546278 -198.625 377.3125 C-199.285 377.3125 -199.945 377.3125 -200.625 377.3125 C-202.38474226 374.8265149 -203.98941738 372.35244418 -205.5625 369.75 C-206.04468994 368.95658203 -206.52687988 368.16316406 -207.02368164 367.34570312 C-216.08530697 352.09575811 -224.20812665 335.48550623 -229.0625 318.375 C-229.26858887 317.65683105 -229.47467773 316.93866211 -229.68701172 316.19873047 C-230.3400991 313.90526162 -230.9827098 311.60901318 -231.625 309.3125 C-231.84333496 308.54695801 -232.06166992 307.78141602 -232.28662109 306.99267578 C-237.27697959 289.42528997 -240.72740859 271.36719268 -240.828125 253.0546875 C-240.83513931 252.19712357 -240.84215363 251.33955963 -240.84938049 250.45600891 C-240.86680179 247.69978532 -240.87323383 244.94377665 -240.875 242.1875 C-240.87601212 240.77472275 -240.87601212 240.77472275 -240.87704468 239.33340454 C-240.860879 225.13827852 -240.45759458 211.26907099 -237.625 197.3125 C-237.44275879 196.41354004 -237.26051758 195.51458008 -237.07275391 194.58837891 C-234.93408115 184.3881427 -232.23834349 174.45285423 -228.73828125 164.63671875 C-227.92195838 162.19920731 -227.2705058 159.89693119 -226.6953125 157.40625 C-225.64677054 153.08766137 -224.02134858 149.16414435 -222.1875 145.125 C-221.84404541 144.36251953 -221.50059082 143.60003906 -221.14672852 142.81445312 C-215.43662161 130.33956231 -209.49038158 117.49236957 -201.22265625 106.48828125 C-199.42159663 104.03549346 -197.88323124 101.48073745 -196.3125 98.875 C-192.43074301 92.69908102 -187.6098674 87.60487545 -182.625 82.3125 C-181.45114669 80.96455828 -180.28373144 79.61096287 -179.125 78.25 C-174.87677095 73.35748977 -170.23729485 68.85805747 -165.625 64.3125 C-164.80902344 63.47976562 -163.99304688 62.64703125 -163.15234375 61.7890625 C-146.2507378 45.22705606 -124.96790719 32.29507731 -103.625 22.3125 C-102.86300293 21.95349609 -102.10100586 21.59449219 -101.31591797 21.22460938 C-98.94586118 20.11511774 -96.5686721 19.0229106 -94.1875 17.9375 C-93.46643066 17.60347168 -92.74536133 17.26944336 -92.00244141 16.92529297 C-87.63935775 14.97600082 -83.44784926 13.71648632 -78.76635742 12.7734375 C-75.59513532 12.09081667 -72.57146917 11.03619894 -69.5 10 C-62.80758683 7.83903514 -56.05270718 6.14406838 -49.1875 4.625 C-47.85017822 4.32178833 -47.85017822 4.32178833 -46.48583984 4.01245117 C-31.04342847 0.69626578 -15.74370615 -0.06636849 0 0 Z M-155.625 68.3125 C-156.2029834 68.82876953 -156.7809668 69.34503906 -157.37646484 69.87695312 C-163.86356145 75.68564878 -170.13260942 81.53391668 -175.625 88.3125 C-176.51290356 89.37639996 -177.4009366 90.44019188 -178.2890625 91.50390625 C-206.28004798 125.38991403 -223.86875457 164.86816827 -230.625 208.3125 C-230.74214355 209.04533203 -230.85928711 209.77816406 -230.97998047 210.53320312 C-239.90593638 268.62486273 -222.71771626 331.41890726 -188.1875 378.5 C-177.82324836 391.96077674 -166.70262573 405.41839167 -153.625 416.3125 C-152.75230469 417.09625 -151.87960938 417.88 -150.98046875 418.6875 C-118.02015415 448.04371734 -75.92349902 465.56662376 -32.625 472.3125 C-31.89748535 472.42964355 -31.1699707 472.54678711 -30.42041016 472.66748047 C26.62981392 481.51217082 87.68247669 464.977682 134.55859375 432.078125 C149.17265718 421.35987822 163.75591549 409.26040963 175.375 395.3125 C176.15875 394.43980469 176.9425 393.56710937 177.75 392.66796875 C218.09248187 347.37259302 235.90528478 286.17085417 233.375 226.3125 C230.14459728 174.87043679 209.01624684 125.22011337 174.75048828 86.85546875 C173.45613857 85.40351806 172.17864189 83.93659367 170.90234375 82.46875 C166.98312234 78.00500554 162.98209741 73.88785864 158.43359375 70.06640625 C157.01868016 68.86091061 155.63689086 67.61578016 154.28515625 66.33984375 C122.62352945 36.51837988 80.61793645 19.20598028 38.375 11.3125 C37.17488281 11.07917969 35.97476562 10.84585937 34.73828125 10.60546875 C-32.99360036 -1.70136987 -105.19191783 22.89203654 -155.625 68.3125 Z " fill="#FCFDFE" transform="translate(255.625,14.6875)"/>
<path d="M0 0 C6.85907115 5.61937662 13.03009491 11.90314511 19.27734375 18.1796875 C20.45539258 19.35960447 21.63366466 20.53929858 22.81214905 21.71878052 C25.89347142 24.80389691 28.97177716 27.89200589 32.04943848 30.98077393 C35.19844034 34.14005733 38.35032171 37.29646516 41.50195312 40.453125 C47.6707711 46.63262527 53.83640129 52.8152939 60 59 C53.99152361 63.58140369 47.37704289 67.18545322 40.3125 69.875 C26.16106708 75.33465776 12.82553953 83.17444892 -0.63208008 90.13793945 C-8.5349817 94.22528711 -16.46203727 98.25521251 -24.4375 102.19921875 C-28.62154082 104.31417798 -32.74553003 106.53103938 -36.875 108.75 C-43.73650243 112.4276848 -50.60686841 115.5356228 -58 118 C-56.01255962 111.42362474 -53.41194072 105.39448651 -50.31640625 99.26953125 C-49.86455963 98.36465973 -49.41271301 97.45978821 -48.94717407 96.52749634 C-47.49207766 93.61920447 -46.02773348 90.71569608 -44.5625 87.8125 C-43.55695359 85.80937332 -42.55150138 83.80619936 -41.54614258 81.80297852 C-36.15123795 71.08172974 -30.66234277 60.43855044 -24.80322266 49.96240234 C-21.18632089 43.46644142 -17.95272577 36.82592225 -14.8503418 30.07006836 C-13.08429168 26.22691461 -11.18956018 22.62431471 -9 19 C-8.34013664 17.43087611 -7.71467722 15.84682504 -7.125 14.25 C-5.17832021 9.22484984 -2.70780948 4.64796071 0 0 Z " fill="#346DE5" transform="translate(226,226)"/>
</svg>
