<?xml version="1.0" encoding="UTF-8"?>
<svg xmlns="http://www.w3.org/2000/svg" viewBox="0 0 279 243" width="279" height="243">
<path d="M131.8 21.14C136.85 19.99 141.06 22.75 145.38 24.83C155.07 29.51 164.87 33.98 174.53 38.71C184.29 43.48 194.11 48.12 203.91 52.8C208 54.75 213.43 56.28 216.6 59.64C220.72 64.01 220.9 71.99 222.22 77.59C225.99 93.53 229.24 109.63 233.26 125.51C234.52 130.48 238.9 144.48 237.66 148.87C236.23 153.96 231.51 158.42 228.18 162.4C221.04 170.95 214.28 179.84 207.22 188.46C201.14 195.88 195.16 203.41 189.2 210.93C186.3 214.57 183.41 219.51 178.62 220.8C172.83 222.37 163.42 221.12 157.25 221.12C142.25 221.12 127.25 221.12 112.25 221.12C105.78 221.12 93.5 222.75 87.97 219.75C83.28 217.21 78.18 208.77 74.76 204.48C64.88 192.06 55.03 179.56 44.88 167.36C40.71 162.35 32.78 154.59 31.33 148.34C30.27 143.79 34.62 130.72 35.8 125.62C39.13 111.12 42.47 96.62 45.8 82.12C47.18 76.1 47.99 66.11 51.32 61.05C54.62 56.02 66.1 52.37 71.58 49.79C85.6 43.18 99.53 36.39 113.52 29.74C119.24 27.02 125.6 22.56 131.8 21.14ZM140.01 41.77C136.35 41.77 132.68 41.77 129.02 41.77C129.02 49.02 129.02 56.26 129.02 63.51C124.98 64.82 120.51 64.82 116.42 66.23C107.52 69.31 101.14 74.62 93.75 80.21C87.92 75.83 82.08 71.44 76.25 67.05C74.15 69.95 72.06 72.85 69.96 75.75C75.31 80.25 80.66 84.75 86 89.25C85.5 91.86 83.37 94.45 82.2 96.9C80.47 100.55 79.23 104.51 78.22 108.4C76.48 115.14 78.29 122.13 77.11 128.75C74.83 129.25 72.56 129.75 70.28 130.25C69.6 128.22 68.93 126.2 68.25 124.17C66.12 124.34 64.89 126.18 63.4 127.65C60.45 130.56 51.6 137.64 50.89 141.25C53.09 144.08 63.08 146.01 66.83 147.41C68.84 148.16 71.18 149.4 73.25 148.62C73.25 146.5 73.25 144.37 73.25 142.25C75.46 141.58 77.66 140.92 79.87 140.25C81.52 142.1 82.21 145.16 83.33 147.42C84.91 150.63 87.03 153.72 89.21 156.56C91.8 159.95 95.1 163.12 98.38 165.85C100.42 167.55 103.3 168.76 104.94 170.75C103.88 172.91 102.81 175.06 101.75 177.22C99.38 177.16 97.84 175.18 95.43 175.75C93.98 179.09 95.88 190.26 96.42 194.25C96.66 196.08 96.51 198.49 97.75 199.87C99.83 199.74 101.2 198.33 102.89 197.16C106.41 194.72 116.16 189.34 117.66 185.75C115.89 184.58 114.12 183.42 112.35 182.25C113.31 180.02 114.28 177.79 115.25 175.56C121.82 176.69 128.16 178.95 134.99 178.75C139.65 178.61 144.62 177.97 149.12 176.8C150.91 176.33 152.7 175.35 154.52 175.25C155.62 177.75 156.71 180.25 157.81 182.75C156.01 183.92 154.22 185.08 152.42 186.25C154.05 189.75 163.46 194.86 166.96 197.31C168.9 198.67 170.32 200.18 172.75 199.9C174.06 196.23 175.67 179.71 174.75 176.11C172.08 175.62 170.71 177.5 168.25 177.73C167.13 175.24 166.01 172.74 164.89 170.25C169.63 165.4 175.48 162.07 179.83 156.61C182.04 153.83 184.14 150.67 185.72 147.49C186.88 145.14 187.57 142.17 189.25 140.18C191.66 140.87 194.08 141.56 196.49 142.25C196.25 144.46 195.26 146.86 196.25 148.94C201.28 149.28 207.64 145.82 212.4 144.21C214.61 143.46 217.1 143.22 218.53 141.25C217.87 139.02 215.89 137.61 214.27 135.99C210.62 132.31 206.38 126.42 201.75 124.12C199.46 125.27 199.94 128.31 198.75 130.44C196.49 129.88 194.24 129.31 191.98 128.75C191.55 120.38 192.12 112.53 189.8 104.38C188.45 99.66 183.76 93.09 183.07 89.25C188.42 84.75 193.77 80.25 199.12 75.75C197.17 72.87 195.21 69.98 193.25 67.1C187.42 71.49 181.58 75.89 175.75 80.28C173.78 79.41 172.28 77.51 170.64 76.12C167.5 73.45 163.72 71.03 160 69.28C155.22 67.03 150.2 65.38 145.03 64.25C143.33 63.88 141.68 64.06 140.01 63.5C140.01 56.26 140.01 49.01 140.01 41.77ZM128.95 75.73C128.95 85.57 128.95 95.41 128.95 105.25C127.94 105.75 126.59 106.57 125.4 106.29C123.67 105.87 121.76 103.48 120.36 102.41C116.42 99.38 112.52 96.21 108.69 93.03C106.9 91.54 103.87 89.89 103.06 87.75C107.82 81.36 121.19 75.55 128.95 75.73ZM139.98 75.67C146.41 75.71 163.56 81.62 166.04 88.25C158.61 94.32 151.18 100.39 143.75 106.46C142.49 106 141.24 105.54 139.98 105.08C139.98 95.27 139.98 85.47 139.98 75.67ZM95.75 97.05C103.33 103.12 110.92 109.18 118.5 115.25C118.25 116.51 118 117.76 117.75 119.02C108.25 121.3 98.75 123.59 89.25 125.88C87.11 119.55 90.25 101.34 95.75 97.05ZM173.75 97.14C178.14 103.73 182.88 118.28 179.75 125.91C170.12 123.58 160.49 121.26 150.86 118.93C150.86 117.71 150.86 116.48 150.86 115.25C158.49 109.21 166.12 103.18 173.75 97.14ZM131.39 113.67C142.1 109.95 146.55 126.25 134.98 128.24C133.77 128.45 132.65 127.71 131.6 127.19C130.63 126.72 129.06 126.25 128.42 125.34C126.06 121.97 127.06 115.17 131.39 113.67ZM120.25 130.39C123.25 132.45 121.87 134.55 120.56 137.33C118.22 142.29 113.26 155.84 110.18 159.25C107.92 159.2 105.63 156.83 103.94 155.31C99.03 150.88 93.35 144.36 91.89 137.75C94.16 135.8 98.74 135.5 101.72 134.86C107.91 133.53 114.09 131.89 120.25 130.39ZM148.75 130.3C158.17 132.62 167.58 134.93 177 137.25C176.91 143.81 165.76 156.65 159.75 159.14C155.51 150.17 151.28 141.21 147.04 132.25C147.61 131.6 148.18 130.95 148.75 130.3ZM136.75 137.84C139.82 140.65 144.14 152.73 146.18 157.11C147.32 159.55 149.15 162.04 148.87 164.75C138.94 167.26 130.38 167.37 120.45 164.75C124.38 155.78 128.32 146.81 132.25 137.84C133.75 137.84 135.25 137.84 136.75 137.84Z" fill="#2e6ce6" fill-rule="evenodd" stroke="#2e6ce6" stroke-width="0.25" stroke-linejoin="round"/>
<path d="M131.84 14.59C137.65 13.48 142.97 16.47 147.84 18.91C156.07 23.02 164.6 26.88 172.84 30.91C183.92 36.32 195.28 41.5 206.34 46.91C211.24 49.3 218.37 50.91 221.73 55.52C226.67 62.28 227.5 71.2 229.09 79.16C230.38 85.61 232.62 91.89 233.91 98.34C235.53 106.48 237.17 114.59 239.09 122.66C240.91 130.26 245.74 143.47 243.91 151.16C242.61 156.59 237.42 160.69 234.27 165.02C226.45 175.73 217.84 186.43 209.09 196.34C203.64 202.53 198.15 209.33 193.27 216.02C190.09 220.36 186.5 225.18 181.16 226.91C175.52 228.73 163.55 228 157.25 228C141.75 228 126.25 228 110.75 228C101.71 228 91.43 229.27 83.52 224.73C79.57 222.47 74.48 214.78 71.73 211.02C64.82 201.54 56.65 192.99 49.73 183.52C44.41 176.23 38.06 169.81 32.73 162.52C30 158.76 26.23 155.41 25.09 150.66C23.88 145.57 25.91 140.45 26.91 135.66C28.72 126.92 31.16 118.38 32.91 109.66C35.22 98.08 38.18 86.6 40.91 75.16C42.55 68.28 42.93 61.45 47.27 55.52C50.66 50.87 65.53 45.65 71.16 42.91C83.58 36.84 96.29 31.09 108.66 24.91C115.92 21.27 123.82 16.14 131.84 14.59ZM131.8 21.14C125.6 22.56 119.24 27.02 113.52 29.74C99.53 36.39 85.6 43.18 71.58 49.79C66.1 52.37 54.62 56.02 51.32 61.05C47.99 66.11 47.18 76.1 45.8 82.12C42.47 96.62 39.13 111.12 35.8 125.62C34.62 130.72 30.27 143.79 31.33 148.34C32.78 154.59 40.71 162.35 44.88 167.36C55.03 179.56 64.88 192.06 74.76 204.48C78.18 208.77 83.28 217.21 87.97 219.75C93.5 222.75 105.78 221.12 112.25 221.12C127.25 221.12 142.25 221.12 157.25 221.12C163.42 221.12 172.83 222.37 178.62 220.8C183.41 219.51 186.3 214.57 189.2 210.93C195.16 203.41 201.14 195.88 207.22 188.46C214.28 179.84 221.04 170.95 228.18 162.4C231.51 158.42 236.23 153.96 237.66 148.87C238.9 144.48 234.52 130.48 233.26 125.51C229.24 109.63 225.99 93.53 222.22 77.59C220.9 71.99 220.72 64.01 216.6 59.64C213.43 56.28 208 54.75 203.91 52.8C194.11 48.12 184.29 43.48 174.53 38.71C164.87 33.98 155.07 29.51 145.38 24.83C141.06 22.75 136.85 19.99 131.8 21.14ZM140.01 41.77C140.01 49.01 140.01 56.26 140.01 63.5C141.68 64.06 143.33 63.88 145.03 64.25C150.2 65.38 155.22 67.03 160 69.28C163.72 71.03 167.5 73.45 170.64 76.12C172.28 77.51 173.78 79.41 175.75 80.28C181.58 75.89 187.42 71.49 193.25 67.1C195.21 69.98 197.17 72.87 199.12 75.75C193.77 80.25 188.42 84.75 183.07 89.25C183.76 93.09 188.45 99.66 189.8 104.38C192.12 112.53 191.55 120.38 191.98 128.75C194.24 129.31 196.49 129.88 198.75 130.44C199.94 128.31 199.46 125.27 201.75 124.12C206.38 126.42 210.62 132.31 214.27 135.99C215.89 137.61 217.87 139.02 218.53 141.25C217.1 143.22 214.61 143.46 212.4 144.21C207.64 145.82 201.28 149.28 196.25 148.94C195.26 146.86 196.25 144.46 196.49 142.25C194.08 141.56 191.66 140.87 189.25 140.18C187.57 142.17 186.88 145.14 185.72 147.49C184.14 150.67 182.04 153.83 179.83 156.61C175.48 162.07 169.63 165.4 164.89 170.25C166.01 172.74 167.13 175.24 168.25 177.73C170.71 177.5 172.08 175.62 174.75 176.11C175.67 179.71 174.06 196.23 172.75 199.9C170.32 200.18 168.9 198.67 166.96 197.31C163.46 194.86 154.05 189.75 152.42 186.25C154.22 185.08 156.01 183.92 157.81 182.75C156.71 180.25 155.62 177.75 154.52 175.25C152.7 175.35 150.91 176.33 149.12 176.8C144.62 177.97 139.65 178.61 134.99 178.75C128.16 178.95 121.82 176.69 115.25 175.56C114.28 177.79 113.31 180.02 112.35 182.25C114.12 183.42 115.89 184.58 117.66 185.75C116.16 189.34 106.41 194.72 102.89 197.16C101.2 198.33 99.83 199.74 97.75 199.87C96.51 198.49 96.66 196.08 96.42 194.25C95.88 190.26 93.98 179.09 95.43 175.75C97.84 175.18 99.38 177.16 101.75 177.22C102.81 175.06 103.88 172.91 104.94 170.75C103.3 168.76 100.42 167.55 98.38 165.85C95.1 163.12 91.8 159.95 89.21 156.56C87.03 153.72 84.91 150.63 83.33 147.42C82.21 145.16 81.52 142.1 79.87 140.25C77.66 140.92 75.46 141.58 73.25 142.25C73.25 144.37 73.25 146.5 73.25 148.62C71.18 149.4 68.84 148.16 66.83 147.41C63.08 146.01 53.09 144.08 50.89 141.25C51.6 137.64 60.45 130.56 63.4 127.65C64.89 126.18 66.12 124.34 68.25 124.17C68.93 126.2 69.6 128.22 70.28 130.25C72.56 129.75 74.83 129.25 77.11 128.75C78.29 122.13 76.48 115.14 78.22 108.4C79.23 104.51 80.47 100.55 82.2 96.9C83.37 94.45 85.5 91.86 86 89.25C80.66 84.75 75.31 80.25 69.96 75.75C72.06 72.85 74.15 69.95 76.25 67.05C82.08 71.44 87.92 75.83 93.75 80.21C101.14 74.62 107.52 69.31 116.42 66.23C120.51 64.82 124.98 64.82 129.02 63.51C129.02 56.26 129.02 49.02 129.02 41.77C132.68 41.77 136.35 41.77 140.01 41.77ZM128.95 75.73C121.19 75.55 107.82 81.36 103.06 87.75C103.87 89.89 106.9 91.54 108.69 93.03C112.52 96.21 116.42 99.38 120.36 102.41C121.76 103.48 123.67 105.87 125.4 106.29C126.59 106.57 127.94 105.75 128.95 105.25C128.95 95.41 128.95 85.57 128.95 75.73ZM139.98 75.67C139.98 85.47 139.98 95.27 139.98 105.08C141.24 105.54 142.49 106 143.75 106.46C151.18 100.39 158.61 94.32 166.04 88.25C163.56 81.62 146.41 75.71 139.98 75.67ZM95.75 97.05C90.25 101.34 87.11 119.55 89.25 125.88C98.75 123.59 108.25 121.3 117.75 119.02C118 117.76 118.25 116.51 118.5 115.25C110.92 109.18 103.33 103.12 95.75 97.05ZM173.75 97.14C166.12 103.18 158.49 109.21 150.86 115.25C150.86 116.48 150.86 117.71 150.86 118.93C160.49 121.26 170.12 123.58 179.75 125.91C182.88 118.28 178.14 103.73 173.75 97.14ZM131.39 113.67C127.06 115.17 126.06 121.97 128.42 125.34C129.06 126.25 130.63 126.72 131.6 127.19C132.65 127.71 133.77 128.45 134.98 128.24C146.55 126.25 142.1 109.95 131.39 113.67ZM120.25 130.39C114.09 131.89 107.91 133.53 101.72 134.86C98.74 135.5 94.16 135.8 91.89 137.75C93.35 144.36 99.03 150.88 103.94 155.31C105.63 156.83 107.92 159.2 110.18 159.25C113.26 155.84 118.22 142.29 120.56 137.33C121.87 134.55 123.25 132.45 120.25 130.39ZM148.75 130.3C148.18 130.95 147.61 131.6 147.04 132.25C151.28 141.21 155.51 150.17 159.75 159.14C165.76 156.65 176.91 143.81 177 137.25C167.58 134.93 158.17 132.62 148.75 130.3ZM136.75 137.84C135.25 137.84 133.75 137.84 132.25 137.84C128.32 146.81 124.38 155.78 120.45 164.75C130.38 167.37 138.94 167.26 148.87 164.75C149.15 162.04 147.32 159.55 146.18 157.11C144.14 152.73 139.82 140.65 136.75 137.84Z" fill="#ffffff" fill-rule="evenodd" stroke="#ffffff" stroke-width="0.25" stroke-linejoin="round"/>
</svg>