<svg version="1.1" id="Layer_1" xmlns:x="ns_extend;" xmlns:i="ns_ai;" xmlns:graph="ns_graphs;" xmlns="http://www.w3.org/2000/svg" xmlns:xlink="http://www.w3.org/1999/xlink" x="0px" y="0px" viewBox="0 0 56.9 57.1" style="enable-background:new 0 0 56.9 57.1;" xml:space="preserve">
 <style type="text/css">
  .st0{clip-path:url(#SVGID_2_);}
	.st1{filter:url(#Adobe_OpacityMaskFilter);}
	.st2{fill-rule:evenodd;clip-rule:evenodd;fill:#FFFFFF;}
	.st3{mask:url(#mask-2_1_);}
	.st4{fill:#2CAE5C;}
	.st5{fill-rule:evenodd;clip-rule:evenodd;fill:#FCFFFC;}
 </style>
 <metadata>
  <sfw xmlns="ns_sfw;">
   <slices>
   </slices>
   <sliceSourceBounds bottomLeftOrigin="true" height="60.4" width="57.1" x="648.3" y="214.6">
   </sliceSourceBounds>
  </sfw>
 </metadata>
 <g>
  <defs>
   <polygon id="SVGID_1_" points="57.1,-0.6 0,-0.1 0,57.1 57.1,56.6   ">
   </polygon>
  </defs>
  <clipPath id="SVGID_2_">
   <use href="#SVGID_1_" style="overflow:visible;">
   </use>
  </clipPath>
  <g id="Artboard" class="st0">
   <g id="Logo-2021" transform="translate(22.000000, 40.000000)">
    <g id="Clipped">
     <g id="Shape_1_">
     </g>
     <defs>
      <filter id="Adobe_OpacityMaskFilter" filterUnits="userSpaceOnUse" x="-21.9" y="-43.2" width="56.8" height="60.4">
       <feColorMatrix type="matrix" values="1 0 0 0 0  0 1 0 0 0  0 0 1 0 0  0 0 0 1 0">
       </feColorMatrix>
      </filter>
     </defs>
     <mask maskUnits="userSpaceOnUse" x="-21.9" y="-43.2" width="56.8" height="60.4" id="mask-2_1_">
      <g class="st1">
       <path id="path-1_1_" class="st2" d="M31.8-10.5c1.7,0,3.1,1.4,3.1,3.1c0,0.1,0,0.1,0,0.2c-0.9,12.8-2.2,19.7-3.9,20.8        c-3.5,2.2-10.4,3.4-20.5,3.6c-1.5,0-2.8-1.2-2.8-2.7c0,0,0,0,0-0.1V-7.9c0-1.4,1.1-2.5,2.5-2.5L31.8-10.5z M5.6-37.2L5.6-37.2        l0,51.2c0,1.7-1.4,3.1-3.1,3.1c0,0-0.1,0-0.1,0c-10.3-0.3-17-1.5-20.2-3.6c-5.2-3.4-5.8-46.2,0-49.8        c3.5-2.2,10.4-3.4,20.5-3.6C4.3-40,5.5-38.8,5.6-37.2z M10.3-40L10.3-40c10.2,0.2,17.1,1.4,20.6,3.6c1.7,1.1,3,8,3.9,20.8        c0,0.1,0,0.1,0,0.2c0,1.7-1.4,3.1-3.1,3.1l-21.7,0c-1.4,0-2.5-1.1-2.5-2.5v-22.4c0,0,0,0,0-0.1C7.6-38.8,8.8-40,10.3-40        L10.3-40z">
       </path>
      </g>
     </mask>
     <g id="Group" class="st3">
      <g id="Shape_2_" transform="translate(0.000000, -22.576547)">
       <path class="st4" d="M31.8,12.1c1.7,0,3.1,1.4,3.1,3.1c0,0.1,0,0.1,0,0.2c-0.9,12.8-2.2,19.7-3.9,20.8        c-3.5,2.2-10.4,3.4-20.5,3.6c-1.5,0-2.8-1.2-2.8-2.7c0,0,0,0,0-0.1V14.6c0-1.4,1.1-2.5,2.5-2.5L31.8,12.1z M5.6-14.7L5.6-14.7        l0,51.2c0,1.7-1.4,3.1-3.1,3.1c0,0-0.1,0-0.1,0c-10.3-0.3-17-1.5-20.2-3.6c-5.2-3.4-5.8-46.2,0-49.8        c3.5-2.2,10.4-3.4,20.5-3.6C4.3-17.4,5.5-16.2,5.6-14.7z M10.3-17.4L10.3-17.4c10.2,0.2,17.1,1.4,20.6,3.6        c1.7,1.1,3,8,3.9,20.8c0,0.1,0,0.1,0,0.2c0,1.7-1.4,3.1-3.1,3.1l-21.7,0c-1.4,0-2.5-1.1-2.5-2.5v-22.4c0,0,0,0,0-0.1        C7.6-16.2,8.8-17.4,10.3-17.4L10.3-17.4z">
       </path>
       <path class="st5" d="M28.8,20.8c0.3,0,0.6,0.2,0.6,0.6v4.8c0,0.2-0.1,0.3-0.2,0.4l-3.5,2.8c-0.1,0.1-0.1,0.1-0.2,0.2        c-0.1,0.3,0,0.6,0.3,0.7c1.8,0.8,3,1.8,3.6,3c0.7,1.2,0.9,2.8,0.8,4.6c0,0.2-0.2,0.5-0.4,0.5l-6,1.2c0.3-2.1-0.1-3.6-1.3-4.5        c-1.1-0.9-3.2-0.9-6.4-0.2c0,0-0.1,0-0.1,0c-0.3,0-0.6-0.2-0.6-0.6v-3.5c0-0.2,0.1-0.3,0.2-0.4l4.7-4H13        c-0.3,0-0.6-0.2-0.6-0.6v-4.5c0-0.3,0.2-0.6,0.6-0.6H28.8z M-2.4-0.4c0,0.1,0,0.2,0,0.3v23.1c0,0.8-0.6,1.4-1.4,1.4h-3.9        c-0.8,0-1.4-0.6-1.4-1.4V6l-3.6,0.8c-0.8,0.2-1.5-0.3-1.6-1.1c0-0.1,0-0.2,0-0.3V1.8c0-0.7,0.5-1.2,1.1-1.4L-4-1.5        C-3.3-1.6-2.5-1.2-2.4-0.4z M20.5-20.4c3.3-0.3,5.7-0.3,7.2,0.2c0.1,0,0.3,0.1,0.3,0.3l0.1,0.1c1.3,2.4,1.6,4.6,0.8,6.7        c-0.8,2.2-3.1,5.2-6.8,9.1h6.7c0.3,0,0.6,0.2,0.6,0.6V1c0,0.3-0.2,0.6-0.6,0.6H13.2c-0.3,0-0.6-0.2-0.6-0.6v-3.6        c0-0.5,0.2-0.9,0.5-1.2c2-1.8,3.7-3.4,5-4.7l0.2-0.2c0.9-0.9,1.6-1.6,2.2-2.3c2.4-2.7,3.3-3.4,3.1-4.7c-0.1-0.4-0.9-0.7-2.5-1        c-1-0.1-2.4-1.1-4.2-3l-0.1-0.1l0.1,0c1.1-0.3,2.2-0.5,3.4-0.6L20.5-20.4z M16.8-19.8L16.8-19.8L16.8-19.8L16.8-19.8        c-0.8,0.3-1.6,0.6-2.3,0.9c0,0,0,0,0,0c0,0,0,0,0,0l1.7-0.9C16.3-20,16.6-20,16.8-19.8z">
       </path>
      </g>
     </g>
    </g>
   </g>
  </g>
 </g>
</svg>
