<?xml version="1.0" encoding="UTF-8"?>
<svg version="1.1" xmlns="http://www.w3.org/2000/svg" width="256" height="256">
<path d="M0 0 C84.48 0 168.96 0 256 0 C256 84.48 256 168.96 256 256 C171.52 256 87.04 256 0 256 C0 171.52 0 87.04 0 0 Z " fill="#FEFEFE" transform="translate(0,0)"/>
<path d="M0 0 C1.79612732 -0.01052147 1.79612732 -0.01052147 3.62854004 -0.02125549 C4.93882172 -0.01361176 6.24910339 -0.00596802 7.59909058 0.00190735 C8.99543529 -0.00052107 10.39177827 -0.00424089 11.78811646 -0.00915527 C15.57724214 -0.01855934 19.3661093 -0.00914398 23.15521479 0.00417686 C27.11810503 0.01549044 31.08098253 0.01138403 35.04388428 0.00942993 C41.69676948 0.00854713 48.34955275 0.01962609 55.00241089 0.03804016 C62.70053709 0.05922498 70.39851414 0.06271391 78.09666359 0.0564782 C85.49703771 0.05079007 92.89735916 0.05642256 100.29772568 0.06765175 C103.45001064 0.07230329 106.60226346 0.07316922 109.75455093 0.0710659 C113.4629378 0.06918668 117.17117214 0.07725843 120.87952423 0.0931263 C122.89489277 0.09941401 124.91028441 0.09585511 126.92565918 0.09205627 C128.71332703 0.10268349 128.71332703 0.10268349 130.53710938 0.11352539 C131.57722734 0.11557826 132.61734531 0.11763113 133.68898201 0.11974621 C136.14157104 0.3742218 136.14157104 0.3742218 138.14157104 2.3742218 C138.60478365 5.47301117 138.47324671 8.61997636 138.45407104 11.7492218 C138.44669922 13.15639465 138.44669922 13.15639465 138.43917847 14.59199524 C137.91876101 46.45755665 127.297749 75.19229487 105.14157104 98.3742218 C106.85409704 102.5230199 109.73040138 105.59301401 112.64157104 108.9367218 C117.91553721 115.03517105 117.91553721 115.03517105 120.14157104 118.3742218 C120.78094604 118.6423468 121.42032104 118.9104718 122.07907104 119.1867218 C125.1684134 120.96543407 125.84606722 123.10461692 127.14157104 126.3742218 C127.32526245 127.90562805 127.32526245 127.90562805 127.51266479 129.4679718 C128.28973239 134.29447858 129.87118448 138.59876296 131.51657104 143.1867218 C137.74035728 161.40345423 138.59642591 178.1770138 138.14157104 197.3742218 C134.78330206 198.38848603 131.73162147 198.49754641 128.23171997 198.49447632 C127.02299728 198.49585098 125.8142746 198.49722565 124.56892395 198.49864197 C123.23278784 198.4951031 121.89665198 198.49146829 120.56051636 198.48774719 C119.15107729 198.48746507 117.74163808 198.48762355 116.3321991 198.4881897 C112.50816488 198.48847668 108.68416201 198.48259593 104.86013508 198.47561574 C100.86294526 198.46936574 96.86575474 198.4687771 92.86856079 198.46759033 C85.30029486 198.46448188 77.73204336 198.45627503 70.16378379 198.44624084 C61.54717014 198.43506463 52.9305558 198.42956545 44.31393671 198.42454541 C26.58980663 198.41409202 8.86569 198.39650197 -8.85842896 198.3742218 C-10.05828336 194.7746586 -10.00653817 191.49140011 -10.00559998 187.74458313 C-10.00927666 186.9600945 -10.01295335 186.17560587 -10.01674145 185.36734486 C-10.02778268 182.73030768 -10.03162281 180.09330989 -10.03543091 177.45625305 C-10.041695 175.56907526 -10.04834175 173.68189871 -10.05534363 171.79472351 C-10.07275307 166.66263629 -10.08330428 161.53055837 -10.09154916 156.39844894 C-10.09669725 153.19478442 -10.10277293 149.9911228 -10.10906029 146.78746033 C-10.12810839 136.77136186 -10.14234285 126.75527077 -10.15067226 116.73915768 C-10.16045776 105.16244785 -10.18681307 93.58592856 -10.22717315 82.00928593 C-10.25727683 73.06912348 -10.27213547 64.12901585 -10.27545327 55.18880367 C-10.27780946 49.8448943 -10.28684408 44.50118857 -10.31191444 39.15733337 C-10.33510113 34.13403633 -10.33946653 29.11107842 -10.32915306 24.08774185 C-10.32865536 22.24099732 -10.33504421 20.39423661 -10.34870911 18.54754257 C-10.36628278 16.03256924 -10.35939482 13.51883245 -10.34617615 11.00386047 C-10.35714539 10.26758328 -10.36811464 9.5313061 -10.37941629 8.77271748 C-10.33974691 5.66174638 -10.24835628 3.83188809 -8.19409657 1.42075825 C-5.29740686 0.12284611 -3.17664704 -0.00051193 0 0 Z " fill="#BDE5F8" transform="translate(63.858428955078125,28.625778198242188)"/>
<path d="M0 0 C1.79612732 -0.01052147 1.79612732 -0.01052147 3.62854004 -0.02125549 C4.93882172 -0.01361176 6.24910339 -0.00596802 7.59909058 0.00190735 C8.99543529 -0.00052107 10.39177827 -0.00424089 11.78811646 -0.00915527 C15.57724214 -0.01855934 19.3661093 -0.00914398 23.15521479 0.00417686 C27.11810503 0.01549044 31.08098253 0.01138403 35.04388428 0.00942993 C41.69676948 0.00854713 48.34955275 0.01962609 55.00241089 0.03804016 C62.70053709 0.05922498 70.39851414 0.06271391 78.09666359 0.0564782 C85.49703771 0.05079007 92.89735916 0.05642256 100.29772568 0.06765175 C103.45001064 0.07230329 106.60226346 0.07316922 109.75455093 0.0710659 C113.4629378 0.06918668 117.17117214 0.07725843 120.87952423 0.0931263 C122.89489277 0.09941401 124.91028441 0.09585511 126.92565918 0.09205627 C128.71332703 0.10268349 128.71332703 0.10268349 130.53710938 0.11352539 C131.57722734 0.11557826 132.61734531 0.11763113 133.68898201 0.11974621 C136.14157104 0.3742218 136.14157104 0.3742218 138.14157104 2.3742218 C138.60478365 5.47301117 138.47324671 8.61997636 138.45407104 11.7492218 C138.44669922 13.15639465 138.44669922 13.15639465 138.43917847 14.59199524 C137.91876101 46.45755665 127.297749 75.19229487 105.14157104 98.3742218 C106.5009419 101.2348109 107.78677574 103.23349879 110.14157104 105.3742218 C109.81157104 106.0342218 109.48157104 106.6942218 109.14157104 107.3742218 C108.07907104 106.3117218 107.01657104 105.2492218 105.95407104 104.1867218 C105.30567261 103.54347961 104.65727417 102.90023743 103.98922729 102.23750305 C102.58432917 100.82072418 101.22631933 99.35727545 99.89157104 97.8742218 C91.38793736 90.14364572 80.51477813 85.13430772 70.14157104 80.3742218 C69.22045532 79.95028137 69.22045532 79.95028137 68.2807312 79.51777649 C49.25973435 71.01717428 27.30368427 68.16413528 6.64157104 68.3117218 C5.43758667 68.31623352 4.23360229 68.32074524 2.99313354 68.32539368 C0.04256031 68.3371023 -2.90790755 68.35350185 -5.85842896 68.3742218 C-8.08984391 74.6473256 -8.13558649 80.4602557 -8.10134888 87.07685852 C-8.10324722 88.23694931 -8.10514557 89.3970401 -8.10710144 90.59228516 C-8.11079558 94.41289605 -8.10012739 98.23331542 -8.08889771 102.0539093 C-8.08770542 104.70952129 -8.08720204 107.36512531 -8.08750916 110.02073669 C-8.0865748 115.57706576 -8.07791768 121.13333995 -8.0642395 126.68965149 C-8.04846998 133.11940505 -8.04324311 139.54909877 -8.04397506 145.97887027 C-8.04458436 152.16667377 -8.03949081 158.35445776 -8.03118324 164.5422554 C-8.02799144 167.17621365 -8.02602798 169.81017368 -8.02528954 172.44413376 C-8.02313419 176.11210432 -8.01440895 179.77999807 -8.00369263 183.44795227 C-8.00414581 184.54609756 -8.004599 185.64424286 -8.00506592 186.77566528 C-8.00080093 187.76820816 -7.99653595 188.76075104 -7.99214172 189.78337097 C-7.99046588 190.65090437 -7.98879004 191.51843777 -7.98706341 192.41226006 C-8.07472428 194.37770324 -8.07472428 194.37770324 -6.85842896 195.3742218 C-4.48504256 195.53394157 -2.13724624 195.6334651 0.23922729 195.69062805 C0.94808578 195.71140915 1.65694427 195.73219025 2.38728333 195.75360107 C4.65944409 195.81916778 6.93172369 195.8780141 9.20407104 195.9367218 C10.74119288 195.97990029 12.27830255 196.02351435 13.81539917 196.06758118 C17.59066695 196.17485629 21.36605464 196.27610318 25.14157104 196.3742218 C25.14157104 196.7042218 25.14157104 197.0342218 25.14157104 197.3742218 C13.92157104 197.3742218 2.70157104 197.3742218 -8.85842896 197.3742218 C-10.37512614 194.34082743 -10.00643001 191.19281535 -10.00559998 187.86483765 C-10.00927666 187.08120344 -10.01295335 186.29756924 -10.01674145 185.49018854 C-10.02780261 182.85004531 -10.0316262 180.2099414 -10.03543091 177.56977844 C-10.04169358 175.68274815 -10.0483402 173.7957191 -10.05534363 171.90869141 C-10.07276826 166.77241287 -10.08330874 161.63614366 -10.09154916 156.49984288 C-10.09669475 153.29400612 -10.10277059 150.08817228 -10.10906029 146.88233757 C-10.1281139 136.86089632 -10.14234634 126.83946246 -10.15067226 116.81800658 C-10.16045529 105.23279666 -10.18680192 93.64777727 -10.22717315 82.06263453 C-10.25727763 73.11824599 -10.27213561 64.17391225 -10.27545327 55.22947401 C-10.27780968 49.88219634 -10.28684686 44.53512217 -10.31191444 39.18789864 C-10.33510208 34.16051105 -10.33946613 29.13346232 -10.32915306 24.10603523 C-10.32865536 22.257679 -10.33504428 20.40930661 -10.34870911 18.56100082 C-10.36628286 16.04378482 -10.35939472 13.52780425 -10.34617615 11.0105896 C-10.35714539 10.27363029 -10.36811464 9.53667098 -10.37941629 8.77737957 C-10.33976553 5.6650187 -10.24907627 3.83283186 -8.19409657 1.42033768 C-5.29746089 0.12297133 -3.17638492 -0.00051189 0 0 Z " fill="#78BCFC" transform="translate(63.858428955078125,28.625778198242188)"/>
<path d="M0 0 C1.20030853 -0.00412399 2.40061707 -0.00824799 3.63729858 -0.01249695 C4.95072235 -0.00171112 6.26414612 0.00907471 7.61737061 0.02018738 C9.01695741 0.02103376 10.41654556 0.02055828 11.81613159 0.01885986 C15.61341101 0.01799892 19.41040629 0.03564048 23.20761967 0.05658174 C27.17676924 0.07533215 31.14592528 0.07709768 35.1151123 0.08065796 C42.63031019 0.08998324 50.1453772 0.11460353 57.66051745 0.14470643 C66.21665628 0.17823542 74.77280134 0.19473267 83.32898951 0.20979273 C100.92877148 0.24115269 118.52843161 0.29392256 136.12811279 0.36076355 C136.12811279 0.69076355 136.12811279 1.02076355 136.12811279 1.36076355 C134.82108398 1.37107101 133.51405518 1.38137848 132.16741943 1.39199829 C119.69806107 1.49082431 107.22874071 1.5936352 94.75944519 1.70010281 C88.35272582 1.75468436 81.94600174 1.80798155 75.53924561 1.858078 C41.14195672 2.08960956 41.14195672 2.08960956 6.75311279 2.8334198 C4.82954956 2.88906349 4.82954956 2.88906349 2.86712646 2.9458313 C-3.10084644 3.06647953 -3.10084644 3.06647953 -8.87188721 4.36076355 C-8.87188721 23.83076355 -8.87188721 43.30076355 -8.87188721 63.36076355 C-6.56188721 63.36076355 -4.25188721 63.36076355 -1.87188721 63.36076355 C-1.54188721 63.69076355 -1.21188721 64.02076355 -0.87188721 64.36076355 C0.93181812 64.56488928 2.74246753 64.70832895 4.55389404 64.8256073 C5.6605542 64.90359558 6.76721436 64.98158386 7.90740967 65.06193542 C10.25095381 65.2186899 12.59470589 65.3723678 14.93865967 65.52287292 C16.04918701 65.60215027 17.15971436 65.68142761 18.30389404 65.7631073 C19.32394531 65.83005798 20.34399658 65.89700867 21.3949585 65.96598816 C24.12811279 66.36076355 24.12811279 66.36076355 28.12811279 68.36076355 C16.90811279 68.36076355 5.68811279 68.36076355 -5.87188721 68.36076355 C-7.70224231 74.62726481 -7.70224231 74.62726481 -8.11912537 80.71351624 C-8.12331985 81.72297806 -8.12751434 82.73243988 -8.13183594 83.77249146 C-8.12621643 84.85849136 -8.12059692 85.94449127 -8.11480713 87.06340027 C-8.11670547 88.22349106 -8.11860382 89.38358185 -8.12055969 90.5788269 C-8.12425383 94.3994378 -8.11358564 98.21985716 -8.10235596 102.04045105 C-8.10116368 104.69606304 -8.10066029 107.35166706 -8.10096741 110.00727844 C-8.10003306 115.5636075 -8.09137593 121.1198817 -8.07769775 126.67619324 C-8.06192823 133.1059468 -8.05670136 139.53564052 -8.05743331 145.96541202 C-8.05804261 152.15321552 -8.05294907 158.34099951 -8.04464149 164.52879715 C-8.0414497 167.1627554 -8.03948623 169.79671543 -8.03874779 172.43067551 C-8.03659244 176.09864607 -8.0278672 179.76653981 -8.01715088 183.43449402 C-8.01760406 184.53263931 -8.01805725 185.63078461 -8.01852417 186.76220703 C-8.01425919 187.75474991 -8.0099942 188.74729279 -8.00559998 189.76991272 C-8.00392413 190.63744612 -8.00224829 191.50497952 -8.00052166 192.3988018 C-8.08818253 194.36424499 -8.08818253 194.36424499 -6.87188721 195.36076355 C-4.49850081 195.52048332 -2.15070449 195.62000685 0.22576904 195.6771698 C0.93462753 195.6979509 1.64348602 195.71873199 2.37382507 195.74014282 C4.64598584 195.80570953 6.91826544 195.86455585 9.19061279 195.92326355 C10.72773463 195.96644204 12.26484429 196.0100561 13.80194092 196.05412292 C17.5772087 196.16139804 21.35259639 196.26264492 25.12811279 196.36076355 C25.12811279 196.69076355 25.12811279 197.02076355 25.12811279 197.36076355 C13.90811279 197.36076355 2.68811279 197.36076355 -8.87188721 197.36076355 C-10.38858439 194.32736918 -10.01988826 191.1793571 -10.01905823 187.85137939 C-10.02273492 187.06774519 -10.0264116 186.28411098 -10.03019971 185.47673029 C-10.04126086 182.83658706 -10.04508445 180.19648315 -10.04888916 177.55632019 C-10.05515183 175.6692899 -10.06179845 173.78226084 -10.06880188 171.89523315 C-10.08622652 166.75895462 -10.09676699 161.62268541 -10.10500741 156.48638463 C-10.110153 153.28054787 -10.11622884 150.07471402 -10.12251854 146.86887932 C-10.14157215 136.84743807 -10.1558046 126.82600421 -10.16413051 116.80454832 C-10.17391355 105.21933841 -10.20026017 93.63431901 -10.2406314 82.04917628 C-10.27073588 73.10478774 -10.28559386 64.160454 -10.28891152 55.21601576 C-10.29126793 49.86873809 -10.30030511 44.52166392 -10.3253727 39.17444038 C-10.34856033 34.1470528 -10.35292438 29.12000406 -10.34261131 24.09257698 C-10.34211361 22.24422075 -10.34850254 20.39584836 -10.36216736 18.54754257 C-10.37974111 16.03032657 -10.37285297 13.514346 -10.3596344 10.99713135 C-10.37060365 10.26017204 -10.38157289 9.52321273 -10.39287454 8.76392132 C-10.35322807 5.65189698 -10.26196302 3.81913148 -8.20839596 1.40603828 C-5.30500865 0.10716132 -3.18314072 -0.00843589 0 0 Z " fill="#8CC8EC" transform="translate(63.87188720703125,28.639236450195313)"/>
<path d="M0 0 C7.10244999 -0.02526787 14.20488848 -0.04283201 21.30737305 -0.05493164 C23.72567172 -0.05997349 26.14396733 -0.06680678 28.56225586 -0.07543945 C32.02979283 -0.08751157 35.49728966 -0.09322963 38.96484375 -0.09765625 C40.05337143 -0.10281754 41.14189911 -0.10797882 42.26341248 -0.11329651 C43.76485558 -0.11340981 43.76485558 -0.11340981 45.29663086 -0.11352539 C46.62566689 -0.11685631 46.62566689 -0.11685631 47.98155212 -0.12025452 C50 0 50 0 51 1 C51.90238867 18.7180544 52.56054515 48.68682064 40 63 C40.10828125 61.96939453 40.10828125 61.96939453 40.21875 60.91796875 C40.35796875 59.56638672 40.35796875 59.56638672 40.5 58.1875 C40.63921875 56.84751953 40.63921875 56.84751953 40.78125 55.48046875 C41.04392401 52.91694901 41.04392401 52.91694901 41 50 C41.66 50 42.32 50 43 50 C42.505 48.02 42.505 48.02 42 46 C42.66 46 43.32 46 44 46 C45.15316726 39.65758005 45.09507063 33.43311296 45 27 C45.99 26.67 46.98 26.34 48 26 C48 17.75 48 9.5 48 1 C47.01 1.33 46.02 1.66 45 2 C43.51068124 2.05923096 42.01858715 2.05929211 40.52856445 2.02172852 C39.62785721 2.00163223 38.72714996 1.98153595 37.79914856 1.96083069 C36.83031235 1.93379562 35.86147614 1.90676056 34.86328125 1.87890625 C33.37141548 1.84348976 33.37141548 1.84348976 31.84941101 1.80735779 C28.67029494 1.73073623 25.49142337 1.64670512 22.3125 1.5625 C20.15821512 1.50927782 18.00391828 1.45653743 15.84960938 1.40429688 C10.5662547 1.27512312 5.28308189 1.13986412 0 1 C0 0.67 0 0.34 0 0 Z " fill="#7390CA" transform="translate(151,30)"/>
<path d="M0 0 C5.94 0 11.88 0 18 0 C14.13209997 1.93395001 12.8499541 2.23289353 8.75 2.125 C7.85796875 2.10695313 6.9659375 2.08890625 6.046875 2.0703125 C5.03367187 2.03550781 5.03367187 2.03550781 4 2 C1.76858504 8.2731038 1.72284246 14.0860339 1.75708008 20.70263672 C1.75518173 21.86272751 1.75328339 23.0228183 1.75132751 24.21806335 C1.74763337 28.03867425 1.75830157 31.85909361 1.76953125 35.6796875 C1.77072353 38.33529949 1.77122692 40.99090351 1.7709198 43.64651489 C1.77185415 49.20284395 1.78051128 54.75911815 1.79418945 60.31542969 C1.80995897 66.74518325 1.81518584 73.17487697 1.8144539 79.60464847 C1.81384459 85.79245197 1.81893814 91.98023596 1.82724571 98.1680336 C1.83043751 100.80199185 1.83240097 103.43595188 1.83313942 106.06991196 C1.83529477 109.73788252 1.84402001 113.40577626 1.85473633 117.07373047 C1.85428314 118.17187576 1.85382996 119.27002106 1.85336304 120.40144348 C1.85762802 121.39398636 1.86189301 122.38652924 1.86628723 123.40914917 C1.86796308 124.27668257 1.86963892 125.14421597 1.87136555 126.03803825 C1.78370468 128.00348144 1.78370468 128.00348144 3 129 C5.37338639 129.15971977 7.72118272 129.2592433 10.09765625 129.31640625 C10.80651474 129.33718735 11.51537323 129.35796844 12.24571228 129.37937927 C14.51787305 129.44494598 16.79015264 129.5037923 19.0625 129.5625 C20.59962183 129.60567849 22.1367315 129.64929255 23.67382812 129.69335938 C27.4490959 129.80063449 31.2244836 129.90188137 35 130 C35 130.33 35 130.66 35 131 C23.78 131 12.56 131 1 131 C-0.26949857 128.46100285 -0.12301472 126.70516579 -0.12025452 123.8621521 C-0.12162918 122.7739769 -0.12300385 121.6858017 -0.12442017 120.56465149 C-0.12082489 119.36559677 -0.11722961 118.16654205 -0.11352539 116.93115234 C-0.11374443 115.04339836 -0.11374443 115.04339836 -0.1139679 113.11750793 C-0.11425548 109.66111084 -0.10836508 106.20474826 -0.10139394 102.7483592 C-0.09515387 99.1382003 -0.09455608 95.52804066 -0.09336853 91.9178772 C-0.09025715 85.07911286 -0.08204634 78.24036446 -0.07201904 71.40160716 C-0.06085193 63.61694689 -0.05534594 55.83228586 -0.05032361 48.04761958 C-0.03986358 32.03173679 -0.02206705 16.01587105 0 0 Z " fill="#A8D9EE" transform="translate(54,95)"/>
<path d="M0 0 C47.52 0 95.04 0 144 0 C144 0.33 144 0.66 144 1 C143.28216465 1.00331015 142.5643293 1.00662029 141.82474136 1.01003075 C124.36510587 1.09122089 106.90556193 1.18330021 89.44604874 1.28752708 C81.00278793 1.33766714 72.55953691 1.38410989 64.11621094 1.421875 C56.75774355 1.45479713 49.39935172 1.49462955 42.0409677 1.54279006 C38.14409822 1.56805288 34.24727885 1.58983478 30.35034943 1.60334396 C26.68302172 1.61616632 23.01586589 1.63822252 19.34863281 1.66738319 C17.35987658 1.68078696 15.37106182 1.68438014 13.38226318 1.68769836 C11.60704285 1.70444359 11.60704285 1.70444359 9.79595947 1.7215271 C8.7672385 1.72705786 7.73851753 1.73258862 6.6786232 1.73828697 C3.96994677 2.00293633 2.31514762 2.6109907 0 4 C0 2.68 0 1.36 0 0 Z " fill="#EAFDFE" transform="translate(54,28)"/>
<path d="M0 0 C4.73464402 1.183661 8.74609352 2.78986952 13.06640625 5.046875 C15.62896778 6.31003664 18.26751664 7.18025499 21 8 C21 8.99 21 9.98 21 11 C21.78375 11.103125 22.5675 11.20625 23.375 11.3125 C26 12 26 12 28 15 C29.32 15 30.64 15 32 15 C32.99 15 33.98 15 35 15 C35.0825 14.21625 35.165 13.4325 35.25 12.625 C36 10 36 10 38.0625 8.6875 C38.701875 8.460625 39.34125 8.23375 40 8 C40 7.34 40 6.68 40 6 C40.99 6 41.98 6 43 6 C41.48446596 9.47775179 39.4226544 11.9557984 36.875 14.75 C36.15054688 15.54921875 35.42609375 16.3484375 34.6796875 17.171875 C33.84824219 18.07679687 33.84824219 18.07679687 33 19 C34.35937085 21.8605891 35.64520469 23.85927699 38 26 C37.67 26.66 37.34 27.32 37 28 C35.9375 26.9375 34.875 25.875 33.8125 24.8125 C32.83990234 23.84763672 32.83990234 23.84763672 31.84765625 22.86328125 C30.44275812 21.44650238 29.08474828 19.98305365 27.75 18.5 C19.73074231 11.20976573 9.4171828 6.29286917 0 1 C0 0.67 0 0.34 0 0 Z " fill="#83AEEA" transform="translate(136,108)"/>
<path d="M0 0 C5.94 0 11.88 0 18 0 C14.13209997 1.93395001 12.8499541 2.23289353 8.75 2.125 C7.85796875 2.10695313 6.9659375 2.08890625 6.046875 2.0703125 C5.03367187 2.03550781 5.03367187 2.03550781 4 2 C2.10016146 7.58965784 1.7569696 12.41676634 1.875 18.29296875 C1.88257324 19.16141922 1.89014648 20.02986969 1.89794922 20.92463684 C1.9222317 23.67913386 1.95949908 26.4331967 2 29.1875 C2.05320723 32.82681153 2.09315636 36.4659147 2.125 40.10546875 C2.14159668 40.9378154 2.15819336 41.77016205 2.17529297 42.62773132 C2.18520264 43.79463249 2.18520264 43.79463249 2.1953125 44.98510742 C2.20578613 45.66570724 2.21625977 46.34630707 2.22705078 47.04753113 C2 49 2 49 0 53 C0 35.51 0 18.02 0 0 Z " fill="#A2DAEF" transform="translate(54,95)"/>
<path d="M0 0 C0.99 0 1.98 0 3 0 C1.48446596 3.47775179 -0.5773456 5.9557984 -3.125 8.75 C-4.21167969 9.94882813 -4.21167969 9.94882813 -5.3203125 11.171875 C-5.87460938 11.77515625 -6.42890625 12.3784375 -7 13 C-5.64062915 15.8605891 -4.35479531 17.85927699 -2 20 C-2.33 20.66 -2.66 21.32 -3 22 C-4.15193623 20.90220176 -5.29634937 19.79650554 -6.4375 18.6875 C-7.07558594 18.07261719 -7.71367187 17.45773438 -8.37109375 16.82421875 C-10 15 -10 15 -11 12 C-10.01 12 -9.02 12 -8 12 C-8 11.01 -8 10.02 -8 9 C-7.01 9 -6.02 9 -5 9 C-4.9175 8.21625 -4.835 7.4325 -4.75 6.625 C-4 4 -4 4 -1.9375 2.6875 C-1.298125 2.460625 -0.65875 2.23375 0 2 C0 1.34 0 0.68 0 0 Z " fill="#7A94B4" transform="translate(176,114)"/>
<path d="M0 0 C0.33 0 0.66 0 1 0 C1.35582048 6.73686772 0.10285697 12.31114041 -1.8125 18.75 C-2.07353516 19.68199219 -2.33457031 20.61398438 -2.60351562 21.57421875 C-3.96389524 26.25661179 -4.99198851 28.98931802 -8 33 C-7.67 29.7 -7.34 26.4 -7 23 C-6.34 23 -5.68 23 -5 23 C-4.35350695 20.10431253 -3.70778268 17.20845721 -3.0625 14.3125 C-2.88009766 13.49587891 -2.69769531 12.67925781 -2.50976562 11.83789062 C-1.63272372 7.89917517 -0.76659545 3.96208805 0 0 Z " fill="#64779E" transform="translate(199,60)"/>
<path d="M0 0 C0.59296875 0.31195313 1.1859375 0.62390625 1.796875 0.9453125 C4.58485928 2.27998583 7.19931832 2.66076583 10.25 3.125 C11.32765625 3.29257813 12.4053125 3.46015625 13.515625 3.6328125 C14.74539062 3.81457031 14.74539062 3.81457031 16 4 C16 4.66 16 5.32 16 6 C7.19828026 5.38641858 -1.35954742 3.70450615 -10 2 C-6.44859386 0.07121908 -4.07572461 -0.33964372 0 0 Z " fill="#7ABEEB" transform="translate(102,96)"/>
<path d="M0 0 C0.66 0 1.32 0 2 0 C2.62774507 8.78843098 0.30784711 16.60314556 -2 25 C-2.99 25 -3.98 25 -5 25 C-4.34 24.67 -3.68 24.34 -3 24 C-3.33 22.68 -3.66 21.36 -4 20 C-3.34 20 -2.68 20 -2 20 C-0.99037711 14.44707413 -0.95054262 9.11641572 -1.0625 3.4765625 C-1 1 -1 1 0 0 Z " fill="#85A7F2" transform="translate(197,56)"/>
<path d="M0 0 C0.33 0 0.66 0 1 0 C1.50642925 3.06147257 2.00399322 6.12432299 2.5 9.1875 C2.64308594 10.05181641 2.78617188 10.91613281 2.93359375 11.80664062 C3.59314262 15.90526577 4.20709266 19.83226024 4 24 C3.34 24 2.68 24 2 24 C1.86722656 22.89140625 1.73445312 21.7828125 1.59765625 20.640625 C1.41940243 19.1770673 1.24100972 17.71352651 1.0625 16.25 C0.97548828 15.52039063 0.88847656 14.79078125 0.79882812 14.0390625 C0.30793023 9.93376304 0.30793023 9.93376304 -0.56079102 5.89746094 C-1.08695279 3.6243485 -0.70591247 2.19617213 0 0 Z " fill="#DDE3E9" transform="translate(197,185)"/>
<path d="M0 0 C3.67591895 1.0210886 4.9339798 1.91435217 7.3125 5 C9 8 9 8 9 10 C10.32 10.66 11.64 11.32 13 12 C12.67 12.99 12.34 13.98 12 15 C8.94433539 12.03693129 6.02864172 8.98279839 3.1875 5.8125 C2.58292969 5.13832031 1.97835937 4.46414062 1.35546875 3.76953125 C0 2 0 2 0 0 Z " fill="#E2EAEF" transform="translate(168,127)"/>
<path d="M0 0 C5.94 0 11.88 0 18 0 C14.13209997 1.93395001 12.8499541 2.23289353 8.75 2.125 C7.85796875 2.10695313 6.9659375 2.08890625 6.046875 2.0703125 C5.03367187 2.03550781 5.03367187 2.03550781 4 2 C3.34 4.31 2.68 6.62 2 9 C1.67 9 1.34 9 1 9 C0.67 6.03 0.34 3.06 0 0 Z " fill="#94D9F9" transform="translate(54,95)"/>
<path d="M0 0 C4 1 4 1 5.75 3.875 C7 7 7 7 7 10 C6.34 10 5.68 10 5 10 C3.35 6.7 1.7 3.4 0 0 Z " fill="#E8E9EF" transform="translate(184,148)"/>
<path d="M0 0 C0.99 0 1.98 0 3 0 C3 3.99904969 1.27413033 5.80200422 -1 9 C-2.60031344 5.79937313 -1.03173691 3.27728194 0 0 Z " fill="#6985B5" transform="translate(181,105)"/>
<path d="M0 0 C0.33 0 0.66 0 1 0 C2.10228696 4.40914783 2.07654536 8.48382401 2 13 C1.67 13 1.34 13 1 13 C0.63447197 11.58622218 0.28304505 10.16879424 -0.0625 8.75 C-0.25972656 7.96109375 -0.45695313 7.1721875 -0.66015625 6.359375 C-1.01497267 3.89605178 -0.76877544 2.34395868 0 0 Z " fill="#E1EBF0" transform="translate(197,185)"/>
<path d="M0 0 C3.23490776 0.55774272 4.97855006 1.37211508 7 4 C7 4.99 7 5.98 7 7 C6.01 6.67 5.02 6.34 4 6 C3.67 5.01 3.34 4.02 3 3 C2.01 2.67 1.02 2.34 0 2 C0 1.34 0 0.68 0 0 Z " fill="#D8ECF9" transform="translate(164,129)"/>
<path d="M0 0 C1.98 0 3.96 0 6 0 C6 0.66 6 1.32 6 2 C7.65 2.33 9.3 2.66 11 3 C8.83032311 3.95465783 7.43671207 4.14401212 5.17578125 3.3984375 C3.4315257 2.64129615 1.71372869 1.82390802 0 1 C0 0.67 0 0.34 0 0 Z " fill="#7EB5EC" transform="translate(122,103)"/>
<path d="M0 0 C0.99 0.33 1.98 0.66 3 1 C3.33 2.65 3.66 4.3 4 6 C2.68 6 1.36 6 0 6 C0 4.02 0 2.04 0 0 Z " fill="#DCE8EF" transform="translate(188,162)"/>
<path d="M0 0 C2.4375 0.75 2.4375 0.75 5 2 C5.8125 4.125 5.8125 4.125 6 6 C3.37812506 4.95125002 2.20628639 4.35068687 0.75 1.875 C0.5025 1.25625 0.255 0.6375 0 0 Z " fill="#EFF0F4" transform="translate(168,127)"/>
<path d="M0 0 C1.32 0.33 2.64 0.66 4 1 C5.125 4.75 5.125 4.75 4 7 C3.34 7 2.68 7 2 7 C1.34 4.69 0.68 2.38 0 0 Z " fill="#EDEBED" transform="translate(195,172)"/>
<path d="M0 0 C3.0916909 2.52956528 3.90931332 5.22454612 5 9 C3.0625 8.4375 3.0625 8.4375 1 7 C0.25 3.375 0.25 3.375 0 0 Z " fill="#E2EEF8" transform="translate(184,152)"/>
</svg>
