<?xml version="1.0" encoding="UTF-8"?>
<!DOCTYPE svg PUBLIC "-//W3C//DTD SVG 1.1//EN" "http://www.w3.org/Graphics/SVG/1.1/DTD/svg11.dtd">
<svg xmlns="http://www.w3.org/2000/svg" version="1.1" width="300px" height="300px" style="shape-rendering:geometricPrecision; text-rendering:geometricPrecision; image-rendering:optimizeQuality; fill-rule:evenodd; clip-rule:evenodd" xmlns:xlink="http://www.w3.org/1999/xlink">
<g><path style="opacity:1" fill="#fefefe" d="M -0.5,-0.5 C 99.5,-0.5 199.5,-0.5 299.5,-0.5C 299.5,99.5 299.5,199.5 299.5,299.5C 199.5,299.5 99.5,299.5 -0.5,299.5C -0.5,199.5 -0.5,99.5 -0.5,-0.5 Z"/></g>
<g><path style="opacity:1" fill="#565757" d="M 142.5,24.5 C 142.5,24.8333 142.5,25.1667 142.5,25.5C 142.5,30.5 142.5,35.5 142.5,40.5C 140.821,40.2852 139.821,40.9519 139.5,42.5C 139.167,42.5 138.833,42.5 138.5,42.5C 137.617,37.8969 137.283,33.2303 137.5,28.5C 138.323,31.977 138.823,35.6437 139,39.5C 139.168,30.4816 139.668,21.4816 140.5,12.5C 141.167,16.6475 141.834,20.6475 142.5,24.5 Z"/></g>
<g><path style="opacity:1" fill="#b2b2b2" d="M 142.5,24.5 C 141.834,20.6475 141.167,16.6475 140.5,12.5C 139.668,21.4816 139.168,30.4816 139,39.5C 138.823,35.6437 138.323,31.977 137.5,28.5C 137.167,28.5 136.833,28.5 136.5,28.5C 138.379,23.1299 139.045,17.4632 138.5,11.5C 139.833,11.5 141.167,11.5 142.5,11.5C 142.5,15.8333 142.5,20.1667 142.5,24.5 Z"/></g>
<g><path style="opacity:1" fill="#7b9de7" d="M 142.5,25.5 C 144.19,25.8564 145.19,26.8564 145.5,28.5C 144.883,28.3893 144.383,28.056 144,27.5C 143.501,31.8206 143.334,36.1539 143.5,40.5C 143.167,40.5 142.833,40.5 142.5,40.5C 142.5,35.5 142.5,30.5 142.5,25.5 Z"/></g>
<g><path style="opacity:1" fill="#5583f4" d="M 145.5,28.5 C 148.66,32.1477 151.327,36.1477 153.5,40.5C 150.167,40.5 146.833,40.5 143.5,40.5C 143.334,36.1539 143.501,31.8206 144,27.5C 144.383,28.056 144.883,28.3893 145.5,28.5 Z"/></g>
<g><path style="opacity:1" fill="#434444" d="M 136.5,28.5 C 136.833,28.5 137.167,28.5 137.5,28.5C 137.283,33.2303 137.617,37.8969 138.5,42.5C 137.5,42.5 136.5,42.5 135.5,42.5C 130.349,41.6733 125.016,41.1733 119.5,41C 125.016,40.8267 130.349,40.3267 135.5,39.5C 135.185,35.6286 135.518,31.9619 136.5,28.5 Z"/></g>
<g><path style="opacity:1" fill="#777b83" d="M 135.5,39.5 C 130.349,40.3267 125.016,40.8267 119.5,41C 125.016,41.1733 130.349,41.6733 135.5,42.5C 130.833,42.5 126.167,42.5 121.5,42.5C 119.833,42.5 118.167,42.5 116.5,42.5C 116.5,41.5 116.5,40.5 116.5,39.5C 122.833,39.5 129.167,39.5 135.5,39.5 Z"/></g>
<g><path style="opacity:1" fill="#0f121c" d="M 142.5,40.5 C 146.312,41.3238 150.312,41.8238 154.5,42C 149.511,42.4993 144.511,42.6659 139.5,42.5C 139.821,40.9519 140.821,40.2852 142.5,40.5 Z"/></g>
<g><path style="opacity:1" fill="#364879" d="M 142.5,40.5 C 142.833,40.5 143.167,40.5 143.5,40.5C 146.833,40.5 150.167,40.5 153.5,40.5C 155.5,40.5 156.5,41.5 156.5,43.5C 149.313,43.8245 142.313,43.4912 135.5,42.5C 136.5,42.5 137.5,42.5 138.5,42.5C 138.833,42.5 139.167,42.5 139.5,42.5C 144.511,42.6659 149.511,42.4993 154.5,42C 150.312,41.8238 146.312,41.3238 142.5,40.5 Z"/></g>
<g><path style="opacity:1" fill="#558af6" d="M 121.5,42.5 C 126.167,42.5 130.833,42.5 135.5,42.5C 142.313,43.4912 149.313,43.8245 156.5,43.5C 160.527,49.8508 164.527,56.1842 168.5,62.5C 166.059,61.2437 163.726,61.2437 161.5,62.5C 160.167,62.5 158.833,62.5 157.5,62.5C 152.5,62.5 147.5,62.5 142.5,62.5C 142.5,61.1667 142.5,59.8333 142.5,58.5C 140.167,58.5 137.833,58.5 135.5,58.5C 129.385,58.2677 123.385,58.9344 117.5,60.5C 116.566,58.9052 116.566,57.2385 117.5,55.5C 118.063,50.9125 119.396,46.5792 121.5,42.5 Z"/></g>
<g><path style="opacity:1" fill="#a4b7e4" d="M 117.5,55.5 C 116.566,57.2385 116.566,58.9052 117.5,60.5C 123.385,58.9344 129.385,58.2677 135.5,58.5C 135.5,59.8333 135.5,61.1667 135.5,62.5C 135.167,62.5 134.833,62.5 134.5,62.5C 133.609,61.8902 132.609,61.5569 131.5,61.5C 131.209,60.3509 130.376,59.6842 129,59.5C 125.973,59.9123 123.14,60.579 120.5,61.5C 118.833,61.5 117.167,61.5 115.5,61.5C 115.5,61.1667 115.5,60.8333 115.5,60.5C 115.12,58.302 115.787,56.6354 117.5,55.5 Z"/></g>
<g><path style="opacity:1" fill="#ddddde" d="M 131.5,61.5 C 127.833,61.5 124.167,61.5 120.5,61.5C 123.14,60.579 125.973,59.9123 129,59.5C 130.376,59.6842 131.209,60.3509 131.5,61.5 Z"/></g>
<g><path style="opacity:1" fill="#61636b" d="M 135.5,58.5 C 137.833,58.5 140.167,58.5 142.5,58.5C 142.5,59.8333 142.5,61.1667 142.5,62.5C 141.732,61.7375 141.232,60.7375 141,59.5C 140.517,60.448 140.351,61.448 140.5,62.5C 139.5,62.5 138.5,62.5 137.5,62.5C 137.649,61.448 137.483,60.448 137,59.5C 136.768,60.7375 136.268,61.7375 135.5,62.5C 135.5,61.1667 135.5,59.8333 135.5,58.5 Z"/></g>
<g><path style="opacity:1" fill="#5b5b5a" d="M 115.5,61.5 C 117.167,61.5 118.833,61.5 120.5,61.5C 124.167,61.5 127.833,61.5 131.5,61.5C 131.5,62.1667 131.5,62.8333 131.5,63.5C 125.132,63.8297 118.798,63.4963 112.5,62.5C 113.325,61.6143 114.325,61.281 115.5,61.5 Z"/></g>
<g><path style="opacity:1" fill="#161614" d="M 142.5,62.5 C 142.5,63.1667 142.5,63.8333 142.5,64.5C 139.612,65.0102 137.279,64.3435 135.5,62.5C 136.268,61.7375 136.768,60.7375 137,59.5C 137.483,60.448 137.649,61.448 137.5,62.5C 138.5,62.5 139.5,62.5 140.5,62.5C 140.351,61.448 140.517,60.448 141,59.5C 141.232,60.7375 141.732,61.7375 142.5,62.5 Z"/></g>
<g><path style="opacity:1" fill="#a7adba" d="M 115.5,60.5 C 115.5,60.8333 115.5,61.1667 115.5,61.5C 114.325,61.281 113.325,61.6143 112.5,62.5C 118.798,63.4963 125.132,63.8297 131.5,63.5C 131.389,64.1174 131.056,64.6174 130.5,65C 126.179,65.499 121.846,65.6657 117.5,65.5C 115.735,64.5386 113.735,64.2053 111.5,64.5C 111.5,63.1667 111.5,61.8333 111.5,60.5C 112.833,60.5 114.167,60.5 115.5,60.5 Z"/></g>
<g><path style="opacity:1" fill="#121e3c" d="M 142.5,62.5 C 147.5,62.5 152.5,62.5 157.5,62.5C 152.944,64.4417 147.944,65.1083 142.5,64.5C 142.5,63.8333 142.5,63.1667 142.5,62.5 Z"/></g>
<g><path style="opacity:1" fill="#424b5f" d="M 134.5,62.5 C 134.833,62.5 135.167,62.5 135.5,62.5C 137.279,64.3435 139.612,65.0102 142.5,64.5C 142.5,64.8333 142.5,65.1667 142.5,65.5C 139.833,65.5 137.167,65.5 134.5,65.5C 134.5,64.5 134.5,63.5 134.5,62.5 Z"/></g>
<g><path style="opacity:1" fill="#274486" d="M 157.5,62.5 C 158.833,62.5 160.167,62.5 161.5,62.5C 162.5,62.5 163.5,62.5 164.5,62.5C 164.5,63.5 164.5,64.5 164.5,65.5C 157.833,65.5 151.167,65.5 144.5,65.5C 143.833,65.5 143.167,65.5 142.5,65.5C 142.5,65.1667 142.5,64.8333 142.5,64.5C 147.944,65.1083 152.944,64.4417 157.5,62.5 Z"/></g>
<g><path style="opacity:1" fill="#477bf2" d="M 161.5,62.5 C 163.726,61.2437 166.059,61.2437 168.5,62.5C 176.778,74.6186 185.278,86.6186 194,98.5C 195.411,100.65 196.245,102.984 196.5,105.5C 192.9,107.43 189.9,110.097 187.5,113.5C 184.8,115.234 182.8,117.568 181.5,120.5C 180.833,120.833 180.167,121.167 179.5,121.5C 178.5,121.5 177.5,121.5 176.5,121.5C 176.149,114.447 174.816,107.613 172.5,101C 163.283,100.881 154.283,100.047 145.5,98.5C 156.819,99.2216 168.152,99.5549 179.5,99.5C 179.5,98.5 179.5,97.5 179.5,96.5C 167.815,96.6351 156.148,96.3017 144.5,95.5C 144.5,94.5 144.5,93.5 144.5,92.5C 152.42,92.185 160.253,92.5183 168,93.5C 168.167,92.3333 168.333,91.1667 168.5,90C 166.349,82.0474 164.015,74.2141 161.5,66.5C 155.642,66.8222 149.975,66.4889 144.5,65.5C 151.167,65.5 157.833,65.5 164.5,65.5C 164.5,64.5 164.5,63.5 164.5,62.5C 163.5,62.5 162.5,62.5 161.5,62.5 Z"/></g>
<g><path style="opacity:1" fill="#819ffe" d="M 131.5,61.5 C 132.609,61.5569 133.609,61.8902 134.5,62.5C 134.5,63.5 134.5,64.5 134.5,65.5C 137.167,65.5 139.833,65.5 142.5,65.5C 140.052,66.4731 137.385,66.8064 134.5,66.5C 134.002,71.1522 133.669,75.8189 133.5,80.5C 136.518,80.3354 139.518,80.502 142.5,81C 144.107,82.049 144.773,83.549 144.5,85.5C 140.5,85.5 136.5,85.5 132.5,85.5C 132.5,87.8333 132.5,90.1667 132.5,92.5C 131.532,94.6074 131.198,96.9407 131.5,99.5C 130.964,111.523 130.964,123.523 131.5,135.5C 135.635,136.109 139.635,136.776 143.5,137.5C 142.5,137.5 141.5,137.5 140.5,137.5C 139.833,137.5 139.167,137.5 138.5,137.5C 138.167,137.5 137.833,137.5 137.5,137.5C 136.5,137.5 135.5,137.5 134.5,137.5C 134.167,137.5 133.833,137.5 133.5,137.5C 132.167,137.5 130.833,137.5 129.5,137.5C 129.5,139.833 129.5,142.167 129.5,144.5C 129.5,145.167 129.5,145.833 129.5,146.5C 128.71,147.609 128.21,148.942 128,150.5C 127.264,165.843 126.431,181.177 125.5,196.5C 125.5,198.5 125.5,200.5 125.5,202.5C 123.88,211.616 123.213,220.949 123.5,230.5C 123.5,233.833 123.5,237.167 123.5,240.5C 122.457,246.65 121.79,252.984 121.5,259.5C 114.412,259.205 107.412,259.538 100.5,260.5C 94.25,260.184 88.25,260.85 82.5,262.5C 77.1767,263.165 71.8434,263.832 66.5,264.5C 65.1667,264.167 63.8333,263.833 62.5,263.5C 63.3094,261.929 63.6427,260.262 63.5,258.5C 63.5,258.167 63.5,257.833 63.5,257.5C 64.2674,256.828 64.9341,255.995 65.5,255C 68.146,254.503 70.8127,254.336 73.5,254.5C 80.1593,254.046 86.8259,253.713 93.5,253.5C 93.2356,229.789 92.5689,206.122 91.5,182.5C 92.3094,180.929 92.6427,179.262 92.5,177.5C 92.5,176.833 92.5,176.167 92.5,175.5C 93.3627,173.579 94.0293,171.579 94.5,169.5C 96.9174,161.745 99.5841,154.078 102.5,146.5C 102.5,145.5 102.5,144.5 102.5,143.5C 103.757,142.377 103.424,141.711 101.5,141.5C 103.19,140.897 104.69,139.897 106,138.5C 110.499,125.175 114.999,111.841 119.5,98.5C 120.674,97.4863 121.34,96.153 121.5,94.5C 117.087,92.8616 112.421,91.8616 107.5,91.5C 107.833,91.5 108.167,91.5 108.5,91.5C 114.24,90.0926 119.573,87.7593 124.5,84.5C 124.043,83.7025 123.376,83.3691 122.5,83.5C 126.375,78.7963 129.375,73.463 131.5,67.5C 127.205,66.3391 122.871,66.1725 118.5,67C 116.665,69.8701 114.998,72.7034 113.5,75.5C 113.938,71.6871 115.271,68.3538 117.5,65.5C 121.846,65.6657 126.179,65.499 130.5,65C 131.056,64.6174 131.389,64.1174 131.5,63.5C 131.5,62.8333 131.5,62.1667 131.5,61.5 Z"/></g>
<g><path style="opacity:1" fill="#568cf9" d="M 122.5,83.5 C 117.918,84.6382 113.752,86.6382 110,89.5C 109.601,89.2716 109.435,88.9382 109.5,88.5C 110.556,84.0622 111.889,79.7288 113.5,75.5C 114.998,72.7034 116.665,69.8701 118.5,67C 122.871,66.1725 127.205,66.3391 131.5,67.5C 129.375,73.463 126.375,78.7963 122.5,83.5 Z"/></g>
<g><path style="opacity:1" fill="#528af8" d="M 142.5,65.5 C 143.167,65.5 143.833,65.5 144.5,65.5C 149.975,66.4889 155.642,66.8222 161.5,66.5C 164.015,74.2141 166.349,82.0474 168.5,90C 168.333,91.1667 168.167,92.3333 168,93.5C 160.253,92.5183 152.42,92.185 144.5,92.5C 144.5,93.5 144.5,94.5 144.5,95.5C 144.167,95.5 143.833,95.5 143.5,95.5C 142.9,94.0998 141.9,93.0998 140.5,92.5C 138.5,92.5 136.5,92.5 134.5,92.5C 133.833,92.5 133.167,92.5 132.5,92.5C 132.5,90.1667 132.5,87.8333 132.5,85.5C 136.5,85.5 140.5,85.5 144.5,85.5C 144.773,83.549 144.107,82.049 142.5,81C 139.518,80.502 136.518,80.3354 133.5,80.5C 133.669,75.8189 134.002,71.1522 134.5,66.5C 137.385,66.8064 140.052,66.4731 142.5,65.5 Z"/></g>
<g><path style="opacity:1" fill="#abb3cc" d="M 135.5,81.5 C 135.5,82.5 135.5,83.5 135.5,84.5C 134.5,84.5 133.5,84.5 132.5,84.5C 132.5,83.5 132.5,82.5 132.5,81.5C 133.5,81.5 134.5,81.5 135.5,81.5 Z"/></g>
<g><path style="opacity:1" fill="#a9abb1" d="M 137.5,81.5 C 138.791,81.2627 139.791,81.596 140.5,82.5C 140.5,83.1667 140.5,83.8333 140.5,84.5C 139.5,84.5 138.5,84.5 137.5,84.5C 137.5,83.5 137.5,82.5 137.5,81.5 Z"/></g>
<g><path style="opacity:1" fill="#1f2125" d="M 135.5,81.5 C 136.167,81.5 136.833,81.5 137.5,81.5C 137.5,82.5 137.5,83.5 137.5,84.5C 136.833,84.5 136.167,84.5 135.5,84.5C 135.5,83.5 135.5,82.5 135.5,81.5 Z"/></g>
<g><path style="opacity:1" fill="#35363a" d="M 140.5,82.5 C 143.167,83.1667 143.167,83.8333 140.5,84.5C 140.5,83.8333 140.5,83.1667 140.5,82.5 Z"/></g>
<g><path style="opacity:1" fill="#c5d5fc" d="M 122.5,83.5 C 123.376,83.3691 124.043,83.7025 124.5,84.5C 119.573,87.7593 114.24,90.0926 108.5,91.5C 108.263,90.209 108.596,89.209 109.5,88.5C 109.435,88.9382 109.601,89.2716 110,89.5C 113.752,86.6382 117.918,84.6382 122.5,83.5 Z"/></g>
<g><path style="opacity:1" fill="#bfd1f4" d="M 107.5,91.5 C 112.421,91.8616 117.087,92.8616 121.5,94.5C 121.167,94.5 120.833,94.5 120.5,94.5C 116.03,93.5139 111.363,93.1805 106.5,93.5C 106.328,92.5084 106.662,91.8417 107.5,91.5 Z"/></g>
<g><path style="opacity:1" fill="#929291" d="M 106.5,93.5 C 111.363,93.1805 116.03,93.5139 120.5,94.5C 120.167,94.5 119.833,94.5 119.5,94.5C 113.158,94.3338 106.825,94.5005 100.5,95C 101.416,95.2784 102.082,95.7784 102.5,96.5C 101.5,96.5 100.5,96.5 99.5,96.5C 99.5,95.5 99.5,94.5 99.5,93.5C 101.833,93.5 104.167,93.5 106.5,93.5 Z"/></g>
<g><path style="opacity:1" fill="#83868e" d="M 134.5,92.5 C 136.5,92.5 138.5,92.5 140.5,92.5C 140.5,93.5 140.5,94.5 140.5,95.5C 138.857,95.5198 137.524,94.8532 136.5,93.5C 135.818,94.2427 135.151,94.9094 134.5,95.5C 134.5,94.5 134.5,93.5 134.5,92.5 Z"/></g>
<g><path style="opacity:1" fill="#3f4042" d="M 119.5,94.5 C 115.285,96.4364 110.619,97.1031 105.5,96.5C 104.5,96.5 103.5,96.5 102.5,96.5C 102.082,95.7784 101.416,95.2784 100.5,95C 106.825,94.5005 113.158,94.3338 119.5,94.5 Z"/></g>
<g><path style="opacity:1" fill="#212124" d="M 140.5,92.5 C 141.9,93.0998 142.9,94.0998 143.5,95.5C 143.443,96.609 143.11,97.609 142.5,98.5C 140.666,97.506 138.999,97.506 137.5,98.5C 136.5,98.5 135.5,98.5 134.5,98.5C 133.909,97.8485 133.243,97.1818 132.5,96.5C 132.957,95.7025 133.624,95.3691 134.5,95.5C 135.151,94.9094 135.818,94.2427 136.5,93.5C 137.524,94.8532 138.857,95.5198 140.5,95.5C 140.5,94.5 140.5,93.5 140.5,92.5 Z"/></g>
<g><path style="opacity:1" fill="#8da8e2" d="M 119.5,94.5 C 119.833,94.5 120.167,94.5 120.5,94.5C 120.833,94.5 121.167,94.5 121.5,94.5C 121.34,96.153 120.674,97.4863 119.5,98.5C 114.833,98.5 110.167,98.5 105.5,98.5C 105.5,97.8333 105.5,97.1667 105.5,96.5C 110.619,97.1031 115.285,96.4364 119.5,94.5 Z"/></g>
<g><path style="opacity:1" fill="#95aae1" d="M 132.5,92.5 C 133.167,92.5 133.833,92.5 134.5,92.5C 134.5,93.5 134.5,94.5 134.5,95.5C 133.624,95.3691 132.957,95.7025 132.5,96.5C 133.243,97.1818 133.909,97.8485 134.5,98.5C 133.791,99.404 132.791,99.7373 131.5,99.5C 131.198,96.9407 131.532,94.6074 132.5,92.5 Z"/></g>
<g><path style="opacity:1" fill="#1c3265" d="M 143.5,95.5 C 143.833,95.5 144.167,95.5 144.5,95.5C 156.148,96.3017 167.815,96.6351 179.5,96.5C 179.5,97.5 179.5,98.5 179.5,99.5C 168.152,99.5549 156.819,99.2216 145.5,98.5C 144.833,98.5 144.167,98.5 143.5,98.5C 143.167,98.5 142.833,98.5 142.5,98.5C 143.11,97.609 143.443,96.609 143.5,95.5 Z"/></g>
<g><path style="opacity:1" fill="#7691ce" d="M 142.5,98.5 C 142.833,98.5 143.167,98.5 143.5,98.5C 143.631,99.2389 143.464,99.9056 143,100.5C 141.052,99.8906 139.218,99.224 137.5,98.5C 138.999,97.506 140.666,97.506 142.5,98.5 Z"/></g>
<g><path style="opacity:1" fill="#558bf9" d="M 105.5,98.5 C 110.167,98.5 114.833,98.5 119.5,98.5C 114.999,111.841 110.499,125.175 106,138.5C 104.69,139.897 103.19,140.897 101.5,141.5C 101.167,141.5 100.833,141.5 100.5,141.5C 99.325,141.719 98.325,141.386 97.5,140.5C 99.0653,136.313 99.7319,131.98 99.5,127.5C 100.6,125.723 101.434,123.723 102,121.5C 102.954,115.105 104.121,108.772 105.5,102.5C 105.5,101.167 105.5,99.8333 105.5,98.5 Z"/></g>
<g><path style="opacity:1" fill="#538af8" d="M 134.5,98.5 C 135.5,98.5 136.5,98.5 137.5,98.5C 139.218,99.224 141.052,99.8906 143,100.5C 143.464,99.9056 143.631,99.2389 143.5,98.5C 144.167,98.5 144.833,98.5 145.5,98.5C 154.283,100.047 163.283,100.881 172.5,101C 174.816,107.613 176.149,114.447 176.5,121.5C 177.5,121.5 178.5,121.5 179.5,121.5C 178.89,122.391 178.557,123.391 178.5,124.5C 176.969,125.925 177.302,126.591 179.5,126.5C 179.467,130.869 179.8,135.202 180.5,139.5C 180.38,140.586 179.713,141.253 178.5,141.5C 167.661,138.987 156.661,137.653 145.5,137.5C 145.702,139.95 145.369,142.283 144.5,144.5C 144.167,144.5 143.833,144.5 143.5,144.5C 143.5,143.833 143.5,143.167 143.5,142.5C 143.5,140.833 143.5,139.167 143.5,137.5C 139.635,136.776 135.635,136.109 131.5,135.5C 130.964,123.523 130.964,111.523 131.5,99.5C 132.791,99.7373 133.791,99.404 134.5,98.5 Z"/></g>
<g><path style="opacity:1" fill="#8badfa" d="M 105.5,102.5 C 104.121,108.772 102.954,115.105 102,121.5C 101.434,123.723 100.6,125.723 99.5,127.5C 100.896,120.897 102.063,114.23 103,107.5C 103.757,105.685 104.59,104.019 105.5,102.5 Z"/></g>
<g><path style="opacity:1" fill="#70727a" d="M 215.5,106.5 C 210.051,108.541 205.385,111.541 201.5,115.5C 199.938,115.733 198.605,116.4 197.5,117.5C 196.508,117.672 195.842,117.338 195.5,116.5C 196.167,116.5 196.5,116.167 196.5,115.5C 202.024,112.908 207.024,109.575 211.5,105.5C 213.965,103.686 216.632,102.353 219.5,101.5C 219.719,102.675 219.386,103.675 218.5,104.5C 217.261,104.942 216.261,105.609 215.5,106.5 Z"/></g>
<g><path style="opacity:1" fill="#c3d4fb" d="M 196.5,105.5 C 194.1,108.903 191.1,111.57 187.5,113.5C 189.9,110.097 192.9,107.43 196.5,105.5 Z"/></g>
<g><path style="opacity:1" fill="#464646" d="M 209.5,102.5 C 204.5,107.159 199.167,111.492 193.5,115.5C 192.29,115.932 191.29,116.599 190.5,117.5C 186.5,119.833 182.5,122.167 178.5,124.5C 178.557,123.391 178.89,122.391 179.5,121.5C 180.167,121.167 180.833,120.833 181.5,120.5C 183.411,119.925 185.078,118.925 186.5,117.5C 193.403,111.252 201.069,106.252 209.5,102.5 Z"/></g>
<g><path style="opacity:1" fill="#4770e5" d="M 215.5,106.5 C 216.906,106.973 217.573,107.973 217.5,109.5C 216.85,109.196 216.183,108.863 215.5,108.5C 210.707,110.703 206.04,113.037 201.5,115.5C 205.385,111.541 210.051,108.541 215.5,106.5 Z"/></g>
<g><path style="opacity:1" fill="#0c53fe" d="M 217.5,109.5 C 218.11,110.391 218.443,111.391 218.5,112.5C 218.259,114.898 218.926,116.898 220.5,118.5C 221.11,119.391 221.443,120.391 221.5,121.5C 221.796,123.403 222.463,125.07 223.5,126.5C 224.455,128.746 225.122,131.079 225.5,133.5C 227.661,139.161 229.661,144.827 231.5,150.5C 231.345,153.716 232.345,156.383 234.5,158.5C 234.5,158.833 234.5,159.167 234.5,159.5C 234.259,161.898 234.926,163.898 236.5,165.5C 236.989,166.995 237.655,168.329 238.5,169.5C 239.387,173.419 240.721,177.085 242.5,180.5C 242.629,182.216 242.962,183.883 243.5,185.5C 243.345,188.716 244.345,191.383 246.5,193.5C 248.341,198.767 250.008,204.1 251.5,209.5C 251.259,211.898 251.926,213.898 253.5,215.5C 253.66,217.153 254.326,218.486 255.5,219.5C 256.965,223.024 257.965,226.691 258.5,230.5C 258.796,232.403 259.463,234.07 260.5,235.5C 260.357,237.262 260.691,238.929 261.5,240.5C 253.207,241.688 244.874,242.354 236.5,242.5C 228.282,220.674 221.116,198.34 215,175.5C 213.092,172.785 211.759,169.785 211,166.5C 207.641,154.396 203.975,142.396 200,130.5C 198.95,126.197 198.116,121.863 197.5,117.5C 198.605,116.4 199.938,115.733 201.5,115.5C 206.04,113.037 210.707,110.703 215.5,108.5C 216.183,108.863 216.85,109.196 217.5,109.5 Z"/></g>
<g><path style="opacity:1" fill="#d2d2d3" d="M 209.5,102.5 C 210.167,103.5 210.833,104.5 211.5,105.5C 207.024,109.575 202.024,112.908 196.5,115.5C 195.5,115.5 194.5,115.5 193.5,115.5C 199.167,111.492 204.5,107.159 209.5,102.5 Z"/></g>
<g><path style="opacity:1" fill="#6086fc" d="M 218.5,112.5 C 220.074,114.102 220.741,116.102 220.5,118.5C 218.926,116.898 218.259,114.898 218.5,112.5 Z"/></g>
<g><path style="opacity:1" fill="#adb9d8" d="M 187.5,113.5 C 187.167,114.833 186.833,116.167 186.5,117.5C 185.078,118.925 183.411,119.925 181.5,120.5C 182.8,117.568 184.8,115.234 187.5,113.5 Z"/></g>
<g><path style="opacity:1" fill="#6c8eec" d="M 193.5,115.5 C 194.5,115.5 195.5,115.5 196.5,115.5C 196.5,116.167 196.167,116.5 195.5,116.5C 193.5,117.5 191.5,118.5 189.5,119.5C 189.833,118.833 190.167,118.167 190.5,117.5C 191.29,116.599 192.29,115.932 193.5,115.5 Z"/></g>
<g><path style="opacity:1" fill="#3169f8" d="M 195.5,116.5 C 195.842,117.338 196.508,117.672 197.5,117.5C 198.116,121.863 198.95,126.197 200,130.5C 203.975,142.396 207.641,154.396 211,166.5C 211.759,169.785 213.092,172.785 215,175.5C 221.116,198.34 228.282,220.674 236.5,242.5C 236.5,242.833 236.5,243.167 236.5,243.5C 236.5,244.167 236.5,244.833 236.5,245.5C 236.5,246.833 235.833,247.5 234.5,247.5C 229.381,246.897 224.715,247.564 220.5,249.5C 217.763,249.401 215.096,249.735 212.5,250.5C 201.605,250.59 190.939,251.59 180.5,253.5C 170.478,254.654 160.478,255.987 150.5,257.5C 150.167,257.5 149.833,257.5 149.5,257.5C 146.167,257.5 142.833,257.5 139.5,257.5C 140.077,223.17 140.41,188.836 140.5,154.5C 141.167,154.167 141.833,153.833 142.5,153.5C 143.859,154.007 144.859,155.007 145.5,156.5C 148.909,153.758 151.909,150.758 154.5,147.5C 165.167,147.5 175.833,147.5 186.5,147.5C 186.5,146.5 186.5,145.5 186.5,144.5C 177.676,143.67 168.676,143.17 159.5,143C 161.346,141.001 163.679,140.168 166.5,140.5C 171.485,141.33 176.485,141.997 181.5,142.5C 181.737,141.209 181.404,140.209 180.5,139.5C 179.8,135.202 179.467,130.869 179.5,126.5C 182.81,124.199 186.143,121.866 189.5,119.5C 191.5,118.5 193.5,117.5 195.5,116.5 Z"/></g>
<g><path style="opacity:1" fill="#96b4fc" d="M 221.5,121.5 C 223.213,122.635 223.88,124.302 223.5,126.5C 222.463,125.07 221.796,123.403 221.5,121.5 Z"/></g>
<g><path style="opacity:1" fill="#9fabc8" d="M 190.5,117.5 C 190.167,118.167 189.833,118.833 189.5,119.5C 186.143,121.866 182.81,124.199 179.5,126.5C 177.302,126.591 176.969,125.925 178.5,124.5C 182.5,122.167 186.5,119.833 190.5,117.5 Z"/></g>
<g><path style="opacity:1" fill="#90aff7" d="M 99.5,127.5 C 99.7319,131.98 99.0653,136.313 97.5,140.5C 98.325,141.386 99.325,141.719 100.5,141.5C 99.8333,142.167 99.1667,142.833 98.5,143.5C 97.8333,143.5 97.1667,143.5 96.5,143.5C 96.2612,137.816 97.2612,132.482 99.5,127.5 Z"/></g>
<g><path style="opacity:1" fill="#040405" d="M 134.5,137.5 C 135.5,137.5 136.5,137.5 137.5,137.5C 137.5,140.167 137.5,142.833 137.5,145.5C 139.5,145.5 141.5,145.5 143.5,145.5C 199.5,145.833 199.5,146.167 143.5,146.5C 143.167,146.5 142.833,146.5 142.5,146.5C 140.833,146.5 139.167,146.5 137.5,146.5C 136.377,148.688 136.377,151.021 137.5,153.5C 136.167,191.833 136.167,230.167 137.5,268.5C 139.167,268.5 140.833,268.5 142.5,268.5C 142.833,268.5 143.167,268.5 143.5,268.5C 143.5,269.833 143.5,271.167 143.5,272.5C 150.655,273.655 157.988,273.822 165.5,273C 171.833,272.667 178.167,272.333 184.5,272C 185.056,271.617 185.389,271.117 185.5,270.5C 188.713,270.81 191.713,270.477 194.5,269.5C 197.5,269.5 200.5,269.5 203.5,269.5C 220.167,269.5 236.833,269.5 253.5,269.5C 253.5,271.5 253.5,273.5 253.5,275.5C 253.386,277.718 252.72,279.718 251.5,281.5C 249.5,282.833 247.833,284.5 246.5,286.5C 187.833,286.5 129.167,286.5 70.5,286.5C 70.7373,285.209 70.404,284.209 69.5,283.5C 67.5472,279.88 64.8805,276.88 61.5,274.5C 61.0269,273.094 60.0269,272.427 58.5,272.5C 55.8445,271.186 53.1778,269.853 50.5,268.5C 48.8243,266.166 46.491,265.166 43.5,265.5C 42.7375,264.732 41.7375,264.232 40.5,264C 40.7284,263.601 41.0618,263.435 41.5,263.5C 43.5,263.5 45.5,263.5 47.5,263.5C 47.6107,264.117 47.944,264.617 48.5,265C 50.4727,265.495 52.4727,265.662 54.5,265.5C 56.8056,265.993 59.139,266.326 61.5,266.5C 62.2625,267.268 63.2625,267.768 64.5,268C 86.4975,268.5 108.497,268.667 130.5,268.5C 132.188,241.352 132.855,214.019 132.5,186.5C 133.482,183.038 133.815,179.371 133.5,175.5C 134.495,163.011 134.829,150.344 134.5,137.5 Z"/></g>
<g><path style="opacity:1" fill="#e2e3e4" d="M 138.5,137.5 C 139.167,137.5 139.833,137.5 140.5,137.5C 140.5,139.167 140.5,140.833 140.5,142.5C 141.5,142.5 142.5,142.5 143.5,142.5C 143.5,143.167 143.5,143.833 143.5,144.5C 141.833,144.5 140.167,144.5 138.5,144.5C 138.5,142.167 138.5,139.833 138.5,137.5 Z"/></g>
<g><path style="opacity:1" fill="#4074ed" d="M 180.5,139.5 C 181.404,140.209 181.737,141.209 181.5,142.5C 176.485,141.997 171.485,141.33 166.5,140.5C 163.679,140.168 161.346,141.001 159.5,143C 168.676,143.17 177.676,143.67 186.5,144.5C 172.5,144.5 158.5,144.5 144.5,144.5C 145.369,142.283 145.702,139.95 145.5,137.5C 156.661,137.653 167.661,138.987 178.5,141.5C 179.713,141.253 180.38,140.586 180.5,139.5 Z"/></g>
<g><path style="opacity:1" fill="#dde0e8" d="M 133.5,137.5 C 133.5,139.833 133.5,142.167 133.5,144.5C 132.167,144.5 130.833,144.5 129.5,144.5C 129.5,142.167 129.5,139.833 129.5,137.5C 130.833,137.5 132.167,137.5 133.5,137.5 Z"/></g>
<g><path style="opacity:1" fill="#aec1fc" d="M 225.5,133.5 C 229.159,138.409 231.159,144.075 231.5,150.5C 229.661,144.827 227.661,139.161 225.5,133.5 Z"/></g>
<g><path style="opacity:1" fill="#65676a" d="M 140.5,137.5 C 141.5,137.5 142.5,137.5 143.5,137.5C 143.5,139.167 143.5,140.833 143.5,142.5C 142.5,142.5 141.5,142.5 140.5,142.5C 140.5,140.833 140.5,139.167 140.5,137.5 Z"/></g>
<g><path style="opacity:1" fill="#d5dbeb" d="M 100.5,141.5 C 100.833,141.5 101.167,141.5 101.5,141.5C 103.424,141.711 103.757,142.377 102.5,143.5C 101.167,143.5 99.8333,143.5 98.5,143.5C 99.1667,142.833 99.8333,142.167 100.5,141.5 Z"/></g>
<g><path style="opacity:1" fill="#6d6d6d" d="M 137.5,137.5 C 137.833,137.5 138.167,137.5 138.5,137.5C 138.5,139.833 138.5,142.167 138.5,144.5C 140.167,144.5 141.833,144.5 143.5,144.5C 143.5,144.833 143.5,145.167 143.5,145.5C 141.5,145.5 139.5,145.5 137.5,145.5C 137.5,142.833 137.5,140.167 137.5,137.5 Z"/></g>
<g><path style="opacity:1" fill="#777879" d="M 96.5,143.5 C 97.1667,143.5 97.8333,143.5 98.5,143.5C 99.8333,143.5 101.167,143.5 102.5,143.5C 102.5,144.5 102.5,145.5 102.5,146.5C 98.8333,146.5 95.1667,146.5 91.5,146.5C 91.5,145.5 91.5,144.5 91.5,143.5C 93.1667,143.5 94.8333,143.5 96.5,143.5 Z"/></g>
<g><path style="opacity:1" fill="#1e3a84" d="M 143.5,145.5 C 143.5,145.167 143.5,144.833 143.5,144.5C 143.833,144.5 144.167,144.5 144.5,144.5C 158.5,144.5 172.5,144.5 186.5,144.5C 186.5,145.5 186.5,146.5 186.5,147.5C 175.833,147.5 165.167,147.5 154.5,147.5C 150.498,147.036 146.831,147.702 143.5,149.5C 143.5,148.5 143.5,147.5 143.5,146.5C 199.5,146.167 199.5,145.833 143.5,145.5 Z"/></g>
<g><path style="opacity:1" fill="#f8f9fc" d="M 129.5,147.5 C 130.5,147.5 131.5,147.5 132.5,147.5C 132.5,152.833 132.5,158.167 132.5,163.5C 131.674,168.316 131.174,173.316 131,178.5C 130.5,208.165 130.333,237.831 130.5,267.5C 108.425,267.822 86.4247,267.489 64.5,266.5C 70.6337,265.811 76.6337,264.477 82.5,262.5C 88.7263,262.612 94.7263,261.946 100.5,260.5C 107.412,259.538 114.412,259.205 121.5,259.5C 122.29,258.391 122.79,257.058 123,255.5C 123.499,250.511 123.666,245.511 123.5,240.5C 123.5,237.167 123.5,233.833 123.5,230.5C 125.12,221.384 125.787,212.051 125.5,202.5C 125.5,200.5 125.5,198.5 125.5,196.5C 128.686,180.47 130.019,164.137 129.5,147.5 Z"/></g>
<g><path style="opacity:1" fill="#4b7cf2" d="M 154.5,147.5 C 151.909,150.758 148.909,153.758 145.5,156.5C 144.859,155.007 143.859,154.007 142.5,153.5C 143.11,152.609 143.443,151.609 143.5,150.5C 143.5,150.167 143.5,149.833 143.5,149.5C 146.831,147.702 150.498,147.036 154.5,147.5 Z"/></g>
<g><path style="opacity:1" fill="#4f4f50" d="M 137.5,146.5 C 137.5,147.833 137.5,149.167 137.5,150.5C 140.069,150.262 141.735,148.929 142.5,146.5C 142.833,146.5 143.167,146.5 143.5,146.5C 143.5,147.5 143.5,148.5 143.5,149.5C 143.5,149.833 143.5,150.167 143.5,150.5C 141.517,151.471 139.517,152.471 137.5,153.5C 136.377,151.021 136.377,148.688 137.5,146.5 Z"/></g>
<g><path style="opacity:1" fill="#a7a7a7" d="M 137.5,146.5 C 139.167,146.5 140.833,146.5 142.5,146.5C 141.735,148.929 140.069,150.262 137.5,150.5C 137.5,149.167 137.5,147.833 137.5,146.5 Z"/></g>
<g><path style="opacity:1" fill="#6e92fa" d="M 231.5,150.5 C 232.871,152.936 233.871,155.603 234.5,158.5C 232.345,156.383 231.345,153.716 231.5,150.5 Z"/></g>
<g><path style="opacity:1" fill="#888888" d="M 129.5,147.5 C 129.5,147.167 129.5,146.833 129.5,146.5C 130.833,146.5 132.167,146.5 133.5,146.5C 133.5,156.167 133.5,165.833 133.5,175.5C 133.815,179.371 133.482,183.038 132.5,186.5C 132.5,178.833 132.5,171.167 132.5,163.5C 132.5,158.167 132.5,152.833 132.5,147.5C 131.5,147.5 130.5,147.5 129.5,147.5 Z"/></g>
<g><path style="opacity:1" fill="#d3e1fd" d="M 94.5,169.5 C 94.0293,171.579 93.3627,173.579 92.5,175.5C 91.1667,170.167 89.8333,164.833 88.5,159.5C 88.8212,157.952 89.8212,157.285 91.5,157.5C 91.334,162.844 91.5006,168.177 92,173.5C 92.2004,171.68 93.0337,170.347 94.5,169.5 Z"/></g>
<g><path style="opacity:1" fill="#a4aec8" d="M 143.5,150.5 C 143.443,151.609 143.11,152.609 142.5,153.5C 141.833,153.833 141.167,154.167 140.5,154.5C 139.407,185.497 138.407,216.497 137.5,247.5C 137.5,216.167 137.5,184.833 137.5,153.5C 139.517,152.471 141.517,151.471 143.5,150.5 Z"/></g>
<g><path style="opacity:1" fill="#313232" d="M 133.5,137.5 C 133.833,137.5 134.167,137.5 134.5,137.5C 134.829,150.344 134.495,163.011 133.5,175.5C 133.5,165.833 133.5,156.167 133.5,146.5C 132.167,146.5 130.833,146.5 129.5,146.5C 129.5,145.833 129.5,145.167 129.5,144.5C 130.833,144.5 132.167,144.5 133.5,144.5C 133.5,142.167 133.5,139.833 133.5,137.5 Z"/></g>
<g><path style="opacity:1" fill="#a0c2f9" d="M 88.5,159.5 C 89.8333,164.833 91.1667,170.167 92.5,175.5C 92.5,176.167 92.5,176.833 92.5,177.5C 91.7784,177.918 91.2784,178.584 91,179.5C 91.0778,203.836 91.5778,228.169 92.5,252.5C 85.7453,251.877 79.412,252.544 73.5,254.5C 70.8127,254.336 68.146,254.503 65.5,255C 64.9341,255.995 64.2674,256.828 63.5,257.5C 62.3064,256.223 60.6397,255.556 58.5,255.5C 50.412,256.022 42.412,257.022 34.5,258.5C 35.4888,252.891 37.8221,247.891 41.5,243.5C 43.1042,242.713 43.7709,241.38 43.5,239.5C 52.1334,236.565 60.9667,234.565 70,233.5C 72.5912,217.743 75.2579,202.076 78,186.5C 79.0909,179.805 81.2576,173.472 84.5,167.5C 85.8553,164.789 87.1886,162.123 88.5,159.5 Z"/></g>
<g><path style="opacity:1" fill="#7095fc" d="M 234.5,159.5 C 236.074,161.102 236.741,163.102 236.5,165.5C 234.926,163.898 234.259,161.898 234.5,159.5 Z"/></g>
<g><path style="opacity:1" fill="#bbd1fb" d="M 84.5,167.5 C 81.2576,173.472 79.0909,179.805 78,186.5C 75.2579,202.076 72.5912,217.743 70,233.5C 60.9667,234.565 52.1334,236.565 43.5,239.5C 43.7709,241.38 43.1042,242.713 41.5,243.5C 41.2648,242.903 40.7648,242.57 40,242.5C 33.5661,245.315 28.0661,249.481 23.5,255C 23.1667,255.167 22.8333,255.333 22.5,255.5C 21.479,254.998 21.3123,254.332 22,253.5C 34.8222,234.533 47.1555,215.2 59,195.5C 66.6706,183.674 74.5039,172.007 82.5,160.5C 83.3431,162.231 83.3431,164.065 82.5,166C 82.324,168.359 82.9907,168.859 84.5,167.5 Z"/></g>
<g><path style="opacity:1" fill="#d1dcfd" d="M 238.5,169.5 C 239.586,169.62 240.253,170.287 240.5,171.5C 241.328,174.479 241.995,177.479 242.5,180.5C 240.721,177.085 239.387,173.419 238.5,169.5 Z"/></g>
<g><path style="opacity:1" fill="#b1b1b1" d="M 132.5,163.5 C 132.5,171.167 132.5,178.833 132.5,186.5C 132.855,214.019 132.188,241.352 130.5,268.5C 130.5,268.167 130.5,267.833 130.5,267.5C 130.333,237.831 130.5,208.165 131,178.5C 131.174,173.316 131.674,168.316 132.5,163.5 Z"/></g>
<g><path style="opacity:1" fill="#ccd9fd" d="M 129.5,146.5 C 129.5,146.833 129.5,147.167 129.5,147.5C 130.019,164.137 128.686,180.47 125.5,196.5C 126.431,181.177 127.264,165.843 128,150.5C 128.21,148.942 128.71,147.609 129.5,146.5 Z"/></g>
<g><path style="opacity:1" fill="#749afb" d="M 243.5,185.5 C 244.871,187.936 245.871,190.603 246.5,193.5C 244.345,191.383 243.345,188.716 243.5,185.5 Z"/></g>
<g><path style="opacity:1" fill="#658afc" d="M 251.5,209.5 C 253.074,211.102 253.741,213.102 253.5,215.5C 251.926,213.898 251.259,211.898 251.5,209.5 Z"/></g>
<g><path style="opacity:1" fill="#507beb" d="M 140.5,154.5 C 140.41,188.836 140.077,223.17 139.5,257.5C 142.833,257.5 146.167,257.5 149.5,257.5C 148.432,258.434 147.099,258.768 145.5,258.5C 142.794,258.575 140.127,258.908 137.5,259.5C 137.5,255.5 137.5,251.5 137.5,247.5C 138.407,216.497 139.407,185.497 140.5,154.5 Z"/></g>
<g><path style="opacity:1" fill="#a6befc" d="M 253.5,215.5 C 255.104,216.287 255.771,217.62 255.5,219.5C 254.326,218.486 253.66,217.153 253.5,215.5 Z"/></g>
<g><path style="opacity:1" fill="#b6c9fd" d="M 125.5,202.5 C 125.787,212.051 125.12,221.384 123.5,230.5C 123.213,220.949 123.88,211.616 125.5,202.5 Z"/></g>
<g><path style="opacity:1" fill="#97b7fa" d="M 92.5,177.5 C 92.6427,179.262 92.3094,180.929 91.5,182.5C 92.5689,206.122 93.2356,229.789 93.5,253.5C 86.8259,253.713 80.1593,254.046 73.5,254.5C 79.412,252.544 85.7453,251.877 92.5,252.5C 91.5778,228.169 91.0778,203.836 91,179.5C 91.2784,178.584 91.7784,177.918 92.5,177.5 Z"/></g>
<g><path style="opacity:1" fill="#89a9fc" d="M 258.5,230.5 C 260.213,231.635 260.88,233.302 260.5,235.5C 259.463,234.07 258.796,232.403 258.5,230.5 Z"/></g>
<g><path style="opacity:1" fill="#6185e6" d="M 260.5,235.5 C 261.345,236.671 262.011,238.005 262.5,239.5C 262.5,240.5 262.5,241.5 262.5,242.5C 261.609,243.11 260.609,243.443 259.5,243.5C 256.833,243.5 254.167,243.5 251.5,243.5C 246.5,243.5 241.5,243.5 236.5,243.5C 236.5,243.167 236.5,242.833 236.5,242.5C 244.874,242.354 253.207,241.688 261.5,240.5C 260.691,238.929 260.357,237.262 260.5,235.5 Z"/></g>
<g><path style="opacity:1" fill="#8e929e" d="M 236.5,243.5 C 241.5,243.5 246.5,243.5 251.5,243.5C 246.783,245.238 241.783,245.904 236.5,245.5C 236.5,244.833 236.5,244.167 236.5,243.5 Z"/></g>
<g><path style="opacity:1" fill="#2e2e2e" d="M 262.5,242.5 C 264.857,242.337 267.19,242.503 269.5,243C 264.89,245.366 259.89,246.866 254.5,247.5C 249.511,248.222 244.511,248.388 239.5,248C 246.337,246.765 253.003,245.265 259.5,243.5C 260.609,243.443 261.609,243.11 262.5,242.5 Z"/></g>
<g><path style="opacity:1" fill="#4e4e4f" d="M 251.5,243.5 C 254.167,243.5 256.833,243.5 259.5,243.5C 253.003,245.265 246.337,246.765 239.5,248C 244.511,248.388 249.511,248.222 254.5,247.5C 249.432,249.178 244.098,249.844 238.5,249.5C 237.432,248.566 236.099,248.232 234.5,248.5C 234.5,248.167 234.5,247.833 234.5,247.5C 235.833,247.5 236.5,246.833 236.5,245.5C 241.783,245.904 246.783,245.238 251.5,243.5 Z"/></g>
<g><path style="opacity:1" fill="#5375c6" d="M 234.5,247.5 C 234.5,247.833 234.5,248.167 234.5,248.5C 232.833,248.5 231.167,248.5 229.5,248.5C 226.482,248.704 223.482,249.037 220.5,249.5C 224.715,247.564 229.381,246.897 234.5,247.5 Z"/></g>
<g><path style="opacity:1" fill="#cfdcfd" d="M 123.5,240.5 C 123.666,245.511 123.499,250.511 123,255.5C 122.79,257.058 122.29,258.391 121.5,259.5C 121.79,252.984 122.457,246.65 123.5,240.5 Z"/></g>
<g><path style="opacity:1" fill="#46506a" d="M 229.5,248.5 C 224.107,250.322 218.441,251.322 212.5,251.5C 212.5,251.167 212.5,250.833 212.5,250.5C 215.096,249.735 217.763,249.401 220.5,249.5C 223.482,249.037 226.482,248.704 229.5,248.5 Z"/></g>
<g><path style="opacity:1" fill="#d0d2d9" d="M 262.5,239.5 C 264.8,241.202 267.467,241.868 270.5,241.5C 269.969,244.779 267.969,246.113 264.5,245.5C 264.5,246.5 264.5,247.5 264.5,248.5C 262.473,248.338 260.473,248.505 258.5,249C 257.944,249.383 257.611,249.883 257.5,250.5C 251.931,250.376 246.598,251.043 241.5,252.5C 236.99,252.884 232.657,253.551 228.5,254.5C 222.5,254.833 216.5,255.167 210.5,255.5C 213.408,254.184 216.408,253.184 219.5,252.5C 225.843,251.573 232.177,250.573 238.5,249.5C 244.098,249.844 249.432,249.178 254.5,247.5C 259.89,246.866 264.89,245.366 269.5,243C 267.19,242.503 264.857,242.337 262.5,242.5C 262.5,241.5 262.5,240.5 262.5,239.5 Z"/></g>
<g><path style="opacity:1" fill="#4a6cbe" d="M 212.5,250.5 C 212.5,250.833 212.5,251.167 212.5,251.5C 203.484,251.968 194.484,252.635 185.5,253.5C 183.833,253.5 182.167,253.5 180.5,253.5C 190.939,251.59 201.605,250.59 212.5,250.5 Z"/></g>
<g><path style="opacity:1" fill="#adc2fd" d="M 257.5,250.5 C 257.5,250.833 257.5,251.167 257.5,251.5C 253.466,251.505 249.466,251.838 245.5,252.5C 244.167,252.5 242.833,252.5 241.5,252.5C 246.598,251.043 251.931,250.376 257.5,250.5 Z"/></g>
<g><path style="opacity:1" fill="#1a1b1d" d="M 229.5,248.5 C 231.167,248.5 232.833,248.5 234.5,248.5C 236.099,248.232 237.432,248.566 238.5,249.5C 232.177,250.573 225.843,251.573 219.5,252.5C 210.228,253.92 200.895,255.086 191.5,256C 188.543,256.279 185.877,257.113 183.5,258.5C 176.289,258.458 169.289,259.125 162.5,260.5C 159.287,260.19 156.287,260.523 153.5,261.5C 148.435,261.959 143.435,261.959 138.5,261.5C 141,260.641 143.333,259.641 145.5,258.5C 147.099,258.768 148.432,258.434 149.5,257.5C 149.833,257.5 150.167,257.5 150.5,257.5C 162.469,257.572 174.136,256.239 185.5,253.5C 194.484,252.635 203.484,251.968 212.5,251.5C 218.441,251.322 224.107,250.322 229.5,248.5 Z"/></g>
<g><path style="opacity:1" fill="#608bfa" d="M 241.5,252.5 C 242.833,252.5 244.167,252.5 245.5,252.5C 240.071,254.012 234.404,254.679 228.5,254.5C 232.657,253.551 236.99,252.884 241.5,252.5 Z"/></g>
<g><path style="opacity:1" fill="#346af7" d="M 257.5,251.5 C 260.934,255.506 264.268,259.672 267.5,264C 267.272,264.399 266.938,264.565 266.5,264.5C 259.151,264.549 251.817,264.882 244.5,265.5C 237.595,265.207 230.928,265.874 224.5,267.5C 222.901,267.232 221.568,267.566 220.5,268.5C 214.642,268.178 208.975,268.511 203.5,269.5C 200.5,269.5 197.5,269.5 194.5,269.5C 177.827,270.019 161.16,270.686 144.5,271.5C 144.737,270.209 144.404,269.209 143.5,268.5C 143.167,268.5 142.833,268.5 142.5,268.5C 142.5,266.833 142.5,265.167 142.5,263.5C 143.5,263.5 144.5,263.5 145.5,263.5C 150.845,263.313 156.178,262.98 161.5,262.5C 171.407,261.879 181.073,260.545 190.5,258.5C 191.167,258.5 191.833,258.5 192.5,258.5C 198.098,258.844 203.432,258.178 208.5,256.5C 208.833,256.5 209.167,256.5 209.5,256.5C 216.062,256.663 222.395,255.996 228.5,254.5C 234.404,254.679 240.071,254.012 245.5,252.5C 249.466,251.838 253.466,251.505 257.5,251.5 Z"/></g>
<g><path style="opacity:1" fill="#b1b5be" d="M 219.5,252.5 C 216.408,253.184 213.408,254.184 210.5,255.5C 209.833,255.5 209.5,255.833 209.5,256.5C 209.167,256.5 208.833,256.5 208.5,256.5C 202.931,256.376 197.598,257.043 192.5,258.5C 191.833,258.5 191.167,258.5 190.5,258.5C 188.167,258.5 185.833,258.5 183.5,258.5C 185.877,257.113 188.543,256.279 191.5,256C 200.895,255.086 210.228,253.92 219.5,252.5 Z"/></g>
<g><path style="opacity:1" fill="#3e5695" d="M 180.5,253.5 C 182.167,253.5 183.833,253.5 185.5,253.5C 174.136,256.239 162.469,257.572 150.5,257.5C 160.478,255.987 170.478,254.654 180.5,253.5 Z"/></g>
<g><path style="opacity:1" fill="#6a92fb" d="M 228.5,254.5 C 222.395,255.996 216.062,256.663 209.5,256.5C 209.5,255.833 209.833,255.5 210.5,255.5C 216.5,255.167 222.5,254.833 228.5,254.5 Z"/></g>
<g><path style="opacity:1" fill="#6a8efb" d="M 208.5,256.5 C 203.432,258.178 198.098,258.844 192.5,258.5C 197.598,257.043 202.931,256.376 208.5,256.5 Z"/></g>
<g><path style="opacity:1" fill="#353944" d="M 137.5,153.5 C 137.5,184.833 137.5,216.167 137.5,247.5C 137.5,251.5 137.5,255.5 137.5,259.5C 140.127,258.908 142.794,258.575 145.5,258.5C 143.333,259.641 141,260.641 138.5,261.5C 143.435,261.959 148.435,261.959 153.5,261.5C 150.833,262.167 148.167,262.833 145.5,263.5C 144.5,263.5 143.5,263.5 142.5,263.5C 140.833,263.5 139.167,263.5 137.5,263.5C 137.5,265.167 137.5,266.833 137.5,268.5C 136.167,230.167 136.167,191.833 137.5,153.5 Z"/></g>
<g><path style="opacity:1" fill="#839ae6" d="M 183.5,258.5 C 185.833,258.5 188.167,258.5 190.5,258.5C 181.073,260.545 171.407,261.879 161.5,262.5C 161.833,261.833 162.167,261.167 162.5,260.5C 169.289,259.125 176.289,258.458 183.5,258.5 Z"/></g>
<g><path style="opacity:1" fill="#bdcdfe" d="M 100.5,260.5 C 94.7263,261.946 88.7263,262.612 82.5,262.5C 88.25,260.85 94.25,260.184 100.5,260.5 Z"/></g>
<g><path style="opacity:1" fill="#3d3d3d" d="M 41.5,263.5 C 41.0618,263.435 40.7284,263.601 40.5,264C 41.7375,264.232 42.7375,264.732 43.5,265.5C 39.0703,264.58 34.737,263.246 30.5,261.5C 34.3838,260.904 38.0505,261.571 41.5,263.5 Z"/></g>
<g><path style="opacity:1" fill="#7b8db9" d="M 162.5,260.5 C 162.167,261.167 161.833,261.833 161.5,262.5C 156.178,262.98 150.845,263.313 145.5,263.5C 148.167,262.833 150.833,262.167 153.5,261.5C 156.287,260.523 159.287,260.19 162.5,260.5 Z"/></g>
<g><path style="opacity:1" fill="#4a4a4a" d="M 47.5,263.5 C 49.7638,264.219 52.0971,264.552 54.5,264.5C 54.5,264.833 54.5,265.167 54.5,265.5C 52.4727,265.662 50.4727,265.495 48.5,265C 47.944,264.617 47.6107,264.117 47.5,263.5 Z"/></g>
<g><path style="opacity:1" fill="#444444" d="M 43.5,265.5 C 46.491,265.166 48.8243,266.166 50.5,268.5C 47.8427,268.065 45.5093,267.065 43.5,265.5 Z"/></g>
<g><path style="opacity:1" fill="#bbc6e7" d="M 63.5,258.5 C 63.6427,260.262 63.3094,261.929 62.5,263.5C 63.8333,263.833 65.1667,264.167 66.5,264.5C 71.8434,263.832 77.1767,263.165 82.5,262.5C 76.6337,264.477 70.6337,265.811 64.5,266.5C 63.5,266.5 62.5,266.5 61.5,266.5C 59.139,266.326 56.8056,265.993 54.5,265.5C 54.5,265.167 54.5,264.833 54.5,264.5C 56.861,264.674 59.1944,265.007 61.5,265.5C 61.4095,262.848 62.0762,260.515 63.5,258.5 Z"/></g>
<g><path style="opacity:1" fill="#c8cbd0" d="M 142.5,263.5 C 142.5,265.167 142.5,266.833 142.5,268.5C 140.833,268.5 139.167,268.5 137.5,268.5C 137.5,266.833 137.5,265.167 137.5,263.5C 139.167,263.5 140.833,263.5 142.5,263.5 Z"/></g>
<g><path style="opacity:1" fill="#a8c1fc" d="M 266.5,264.5 C 259.361,265.707 252.028,266.374 244.5,266.5C 244.5,266.167 244.5,265.833 244.5,265.5C 251.817,264.882 259.151,264.549 266.5,264.5 Z"/></g>
<g><path style="opacity:1" fill="#759af5" d="M 244.5,265.5 C 244.5,265.833 244.5,266.167 244.5,266.5C 243.5,266.5 242.5,266.5 241.5,266.5C 235.839,266.907 230.172,267.24 224.5,267.5C 230.928,265.874 237.595,265.207 244.5,265.5 Z"/></g>
<g><path style="opacity:1" fill="#bdbdbd" d="M 61.5,266.5 C 62.5,266.5 63.5,266.5 64.5,266.5C 86.4247,267.489 108.425,267.822 130.5,267.5C 130.5,267.833 130.5,268.167 130.5,268.5C 108.497,268.667 86.4975,268.5 64.5,268C 63.2625,267.768 62.2625,267.268 61.5,266.5 Z"/></g>
<g><path style="opacity:1" fill="#b8bdc8" d="M 241.5,266.5 C 245.833,267.167 250.167,267.833 254.5,268.5C 243.167,268.5 231.833,268.5 220.5,268.5C 221.568,267.566 222.901,267.232 224.5,267.5C 230.172,267.24 235.839,266.907 241.5,266.5 Z"/></g>
<g><path style="opacity:1" fill="#353539" d="M 203.5,269.5 C 208.975,268.511 214.642,268.178 220.5,268.5C 231.833,268.5 243.167,268.5 254.5,268.5C 254.802,271.059 254.468,273.393 253.5,275.5C 253.5,273.5 253.5,271.5 253.5,269.5C 236.833,269.5 220.167,269.5 203.5,269.5 Z"/></g>
<g><path style="opacity:1" fill="#2044a2" d="M 143.5,268.5 C 144.404,269.209 144.737,270.209 144.5,271.5C 161.16,270.686 177.827,270.019 194.5,269.5C 191.713,270.477 188.713,270.81 185.5,270.5C 171.526,271.61 157.526,272.276 143.5,272.5C 143.5,271.167 143.5,269.833 143.5,268.5 Z"/></g>
<g><path style="opacity:1" fill="#0c142c" d="M 185.5,270.5 C 185.389,271.117 185.056,271.617 184.5,272C 178.167,272.333 171.833,272.667 165.5,273C 157.988,273.822 150.655,273.655 143.5,272.5C 157.526,272.276 171.526,271.61 185.5,270.5 Z"/></g>
<g><path style="opacity:1" fill="#878787" d="M 58.5,272.5 C 60.0269,272.427 61.0269,273.094 61.5,274.5C 59.9731,274.573 58.9731,273.906 58.5,272.5 Z"/></g>
<g><path style="opacity:1" fill="#a5a5a5" d="M 251.5,281.5 C 250.581,284.089 248.914,286.089 246.5,287.5C 246.5,287.167 246.5,286.833 246.5,286.5C 247.833,284.5 249.5,282.833 251.5,281.5 Z"/></g>
<g><path style="opacity:1" fill="#3d3d3d" d="M 69.5,283.5 C 70.404,284.209 70.7373,285.209 70.5,286.5C 129.167,286.5 187.833,286.5 246.5,286.5C 246.5,286.833 246.5,287.167 246.5,287.5C 187.5,287.5 128.5,287.5 69.5,287.5C 69.5,286.167 69.5,284.833 69.5,283.5 Z"/></g>
</svg>
