<?xml version="1.0" encoding="UTF-8"?>
<svg version="1.1" xmlns="http://www.w3.org/2000/svg" width="460" height="460">
<path d="M0 0 C151.8 0 303.6 0 460 0 C460 151.8 460 303.6 460 460 C308.2 460 156.4 460 0 460 C0 308.2 0 156.4 0 0 Z " fill="#FCEFD4" transform="translate(0,0)"/>
<path d="M0 0 C5.61 0 11.22 0 17 0 C20.5865695 11.21952511 24.06300404 22.46487629 27.4375 33.75 C27.63018463 34.39414856 27.82286926 35.03829712 28.02139282 35.70196533 C28.98526369 38.92431645 29.94892111 42.14673139 30.91259766 45.36914062 C32.47388904 50.58232549 34.04451346 55.79260357 35.625 61 C35.90085937 61.91015869 36.17671875 62.82031738 36.4609375 63.75805664 C37.92895534 68.57520555 39.43638755 73.37714451 40.98828125 78.16796875 C41.31425293 79.17666016 41.64022461 80.18535156 41.97607422 81.22460938 C42.60112672 83.15087581 43.23138004 85.07546509 43.86767578 86.99804688 C44.14724121 87.85849609 44.42680664 88.71894531 44.71484375 89.60546875 C44.96355225 90.35981201 45.21226074 91.11415527 45.46850586 91.89135742 C46 94 46 94 46 98 C42.04 98 38.08 98 34 98 C31.94959327 92.0646121 30.09671017 86.08223144 28.3125 80.0625 C28.08602783 79.30461182 27.85955566 78.54672363 27.6262207 77.76586914 C26 72.23871029 26 72.23871029 26 70 C8.675 70.495 8.675 70.495 -9 71 C-11.26090967 79.13682921 -11.26090967 79.13682921 -13.51733398 87.27490234 C-13.79907471 88.28504395 -14.08081543 89.29518555 -14.37109375 90.3359375 C-14.65911865 91.37282715 -14.94714355 92.4097168 -15.24389648 93.47802734 C-16 96 -16 96 -17 98 C-20.96 98 -24.92 98 -29 98 C-27.2342231 89.1711155 -24.59622404 80.61141918 -22 72 C-21.6380957 70.79553223 -21.27619141 69.59106445 -20.90332031 68.35009766 C-16.45321225 53.54252985 -11.98749188 38.74169121 -7.24462891 24.0246582 C-4.67754666 16.05793522 -2.29950833 8.04827916 0 0 Z " fill="#1C2839" transform="translate(179,114)"/>
<path d="M0 0 C5.28 0 10.56 0 16 0 C16.4846875 1.21171875 16.969375 2.4234375 17.46875 3.671875 C17.78908203 4.47246338 18.10941406 5.27305176 18.43945312 6.09790039 C19.15236488 7.88067211 19.86459356 9.66371712 20.57617188 11.44702148 C22.47247286 16.19652226 24.38007669 20.94085118 26.3125 25.67578125 C26.86260742 27.03074707 26.86260742 27.03074707 27.42382812 28.41308594 C28.13191459 30.15631513 28.84404712 31.89790723 29.56054688 33.63769531 C29.88087891 34.42885742 30.20121094 35.22001953 30.53125 36.03515625 C30.81548828 36.7300415 31.09972656 37.42492676 31.39257812 38.14086914 C32 40 32 40 32 43 C32.66 43 33.32 43 34 43 C34.15855469 42.40574219 34.31710938 41.81148437 34.48046875 41.19921875 C36.0662567 35.56572897 38.11200036 30.42515228 40.6015625 25.13671875 C42.28038366 21.37109476 43.74829628 17.54985734 45.1875 13.6875 C45.43733643 13.0176709 45.68717285 12.3478418 45.94458008 11.65771484 C47.37247208 7.79185268 48.69609423 3.9117173 50 0 C55.28 0 60.56 0 66 0 C66 32.34 66 64.68 66 98 C62.37 98 58.74 98 55 98 C55 71.6 55 45.2 55 18 C54.34 18 53.68 18 53 18 C52.87923096 18.71389893 52.75846191 19.42779785 52.6340332 20.16333008 C51.97904026 23.09377404 51.02690315 25.62403937 49.85546875 28.38671875 C49.42556641 29.40830078 48.99566406 30.42988281 48.55273438 31.48242188 C48.10220703 32.54009766 47.65167969 33.59777344 47.1875 34.6875 C46.30530656 36.77445099 45.42378901 38.86168782 44.54296875 40.94921875 C44.11387207 41.96564453 43.68477539 42.98207031 43.24267578 44.02929688 C40.60234901 50.34118217 38.06185383 56.68483577 35.75 63.125 C35.41484375 64.05570312 35.0796875 64.98640625 34.734375 65.9453125 C34.49203125 66.62335938 34.2496875 67.30140625 34 68 C33.34 68 32.68 68 32 68 C30.04082688 63.10785977 28.08374471 58.21494836 26.140625 53.31640625 C25.82867187 52.53201172 25.51671875 51.74761719 25.1953125 50.93945312 C24.57930995 49.39053763 23.96465906 47.84108368 23.3515625 46.29101562 C19.70320032 37.13303332 15.82813835 28.09182858 12 19 C11.67 45.07 11.34 71.14 11 98 C7.37 98 3.74 98 0 98 C0 65.66 0 33.32 0 0 Z " fill="#1D2939" transform="translate(70,114)"/>
<path d="M0 0 C23.82352941 0 23.82352941 0 31.75 6.125 C39.11842279 15.5402069 39.76969234 23.80777816 39.59692383 35.38549805 C39.5626099 37.92935268 39.57630614 40.46972108 39.59570312 43.01367188 C39.58588096 55.18727221 38.28796184 64.96798662 29.9765625 74.44140625 C21.69825377 80.96916353 9.31282496 78 0 78 C0 52.26 0 26.52 0 0 Z " fill="#FAEDD3" transform="translate(170,265)"/>
<path d="M0 0 C42.59057072 0 42.59057072 0 51.54296875 8.44921875 C63.34144238 21.0068435 63.55001737 39.11125576 63.3125 55.24609375 C62.88845345 67.97985817 60.15148934 80.09210314 51.375 89.796875 C36.83312237 103.39622353 19.72316596 98 0 98 C0 65.66 0 33.32 0 0 Z M11 10 C11 35.74 11 61.48 11 88 C27.94666501 89.49229068 27.94666501 89.49229068 41.85546875 83.5625 C50.16724395 73.81261706 50.69545125 62.83421878 50.63134766 50.59399414 C50.62501724 48.06937358 50.67210172 45.54943612 50.72265625 43.02539062 C50.80351476 32.64948368 49.98506533 23.08219806 42.27001953 15.24194336 C32.70331613 7.85380924 23.18486291 10 11 10 Z " fill="#1B2638" transform="translate(159,255)"/>
<path d="M0 0 C20.13 0 40.26 0 61 0 C61 3.3 61 6.6 61 10 C44.83 10 28.66 10 12 10 C12 20.89 12 31.78 12 43 C27.51 43 43.02 43 59 43 C59 46.63 59 50.26 59 54 C43.49 54 27.98 54 12 54 C12 65.22 12 76.44 12 88 C28.17 88 44.34 88 61 88 C61 91.63 61 95.26 61 99 C40.87 99 20.74 99 0 99 C0 66.33 0 33.66 0 0 Z " fill="#202B3B" transform="translate(242,255)"/>
<path d="M0 0 C3.96 0 7.92 0 12 0 C14.54729807 7.46621849 16.8281734 14.99729399 19.0625 22.5625 C19.41376953 23.74263672 19.76503906 24.92277344 20.12695312 26.13867188 C21.680482 31.38660401 23.20149818 36.62514517 24.48754883 41.94506836 C25.6624042 46.656244 27.00342769 51.32474174 28.3125 56 C28.61937744 57.09691162 28.92625488 58.19382324 29.24243164 59.32397461 C31.66751724 67.9359027 34.24711141 76.48761176 37 85 C37.17539307 84.36835938 37.35078613 83.73671875 37.53149414 83.0859375 C41.08902124 70.28944221 44.70151857 57.51184116 48.43701172 44.76611328 C50.37770111 38.14243227 52.29420566 31.51238345 54.1875 24.875 C54.43274414 24.01648438 54.67798828 23.15796875 54.93066406 22.2734375 C56.03854983 18.39056168 57.14008257 14.50610994 58.2265625 10.6171875 C58.4119458 9.95734863 58.5973291 9.29750977 58.78833008 8.61767578 C59.27420274 6.88645739 59.75639973 5.15420856 60.23828125 3.421875 C61 1 61 1 62 0 C63.85287502 -0.07226502 65.70833878 -0.0838122 67.5625 -0.0625 C68.57441406 -0.05347656 69.58632813 -0.04445312 70.62890625 -0.03515625 C71.41136719 -0.02355469 72.19382812 -0.01195312 73 0 C72.88325099 1.35490296 72.75606577 2.70890696 72.625 4.0625 C72.55539062 4.81660156 72.48578125 5.57070313 72.4140625 6.34765625 C71.35671173 13.12068617 68.84437641 19.67804486 66.75 26.1875 C62.15529639 40.5606754 57.79626934 54.98215657 53.83032227 69.54150391 C52.1326711 75.69643329 50.13359284 81.7211087 48.0703125 87.76171875 C46.84127524 91.4802293 45.85734533 95.18091627 45 99 C39.72 99 34.44 99 29 99 C25.62720127 91.1301363 25.62720127 91.1301363 24.53515625 87.1796875 C24.29458496 86.32133301 24.05401367 85.46297852 23.80615234 84.57861328 C23.43804443 83.24032471 23.43804443 83.24032471 23.0625 81.875 C22.5362184 79.99449409 22.00887746 78.11428432 21.48046875 76.234375 C21.22700684 75.33138672 20.97354492 74.42839844 20.71240234 73.49804688 C19.81676003 70.35746696 18.85525432 67.24011651 17.875 64.125 C16.47461882 59.65300083 15.23870748 55.16113083 14.0625 50.625 C12.73837404 45.57159743 11.25077017 40.63096609 9.5625 35.6875 C5.59030043 24.01609879 2.15541635 12.14871036 0 0 Z " fill="#1D2839" transform="translate(320,255)"/>
<path d="M0 0 C19.8 0 39.6 0 60 0 C60 2.97 60 5.94 60 9 C52.08 9 44.16 9 36 9 C36 35.4 36 61.8 36 89 C44.25 89 52.5 89 61 89 C61 91.97 61 94.94 61 98 C40.87 98 20.74 98 0 98 C0 95.03 0 92.06 0 89 C7.92 89 15.84 89 24 89 C24 62.6 24 36.2 24 9 C16.08 9 8.16 9 0 9 C0 6.03 0 3.06 0 0 Z " fill="#1B2638" transform="translate(242,114)"/>
<path d="M0 0 C3.96 0 7.92 0 12 0 C12 29.04 12 58.08 12 88 C27.51 88 43.02 88 59 88 C59 91.3 59 94.6 59 98 C39.53 98 20.06 98 0 98 C0 65.66 0 33.32 0 0 Z " fill="#1C2738" transform="translate(331,114)"/>
<path d="M0 0 C0.99 0 1.98 0 3 0 C3.10957031 0.54527344 3.21914062 1.09054688 3.33203125 1.65234375 C3.49058594 2.40644531 3.64914063 3.16054687 3.8125 3.9375 C3.96332031 4.66839844 4.11414063 5.39929688 4.26953125 6.15234375 C4.86474794 8.47273393 5.54404953 10.68030932 6.3125 12.9453125 C8.44117542 19.22454684 10.3047456 25.58107602 12.1875 31.9375 C12.73954102 33.78311523 12.73954102 33.78311523 13.30273438 35.66601562 C13.65013672 36.83712891 13.99753906 38.00824219 14.35546875 39.21484375 C14.67153076 40.27823975 14.98759277 41.34163574 15.31323242 42.43725586 C16 45 16 45 16 47 C6.43 47 -3.14 47 -13 47 C-9.78322033 31.98836156 -9.78322033 31.98836156 -7.75878906 27.03417969 C-6.07621696 22.52350054 -5.04682259 17.78873615 -3.875 13.125 C-3.35354133 11.06460234 -2.83019968 9.00468003 -2.3046875 6.9453125 C-2.07765137 6.04312988 -1.85061523 5.14094727 -1.61669922 4.21142578 C-1 2 -1 2 0 0 Z " fill="#F7EBD1" transform="translate(186,127)"/>
</svg>
